<?xml version="1.0" encoding="UTF-8"?>
<svg version="1.1" xmlns="http://www.w3.org/2000/svg" width="225" height="225">
<path d="M0 0 C74.25 0 148.5 0 225 0 C225 74.25 225 148.5 225 225 C150.75 225 76.5 225 0 225 C0 150.75 0 76.5 0 0 Z " fill="#FDFDFC" transform="translate(0,0)"/>
<path d="M0 0 C0 0.66 0 1.32 0 2 C0.66 2.2475 1.32 2.495 2 2.75 C5.76360907 4.31817045 9.3711424 6.14505046 13 8 C13 8.66 13 9.32 13 10 C15.52263765 11.01981378 18.01726045 12.00552528 20.60986328 12.83544922 C23.81986887 14.19401816 25.67035316 15.37641114 28 18 C30.2035944 24.06301527 29.93095907 30.76236726 29.875 37.125 C29.88025696 38.01538971 29.88551392 38.90577942 29.89093018 39.82315063 C29.83972979 54.17409603 29.83972979 54.17409603 26.08984375 59.93408203 C21.49169296 64.12979993 16.24605396 66.32153976 10.36230469 68.17333984 C7.14203887 69.30023319 4.76683753 71.03179223 2 73 C1.34 73 0.68 73 0 73 C-0.76165507 60.4919311 -0.76165507 60.4919311 1.04296875 56.95703125 C2.375 55.625 2.375 55.625 5 54 C5.66 54 6.32 54 7 54 C8.64800856 50.33552568 9.33580973 47.18796534 9.625 43.1875 C9.69976562 42.21167969 9.77453125 41.23585937 9.8515625 40.23046875 C9.90054688 39.49441406 9.94953125 38.75835937 10 38 C7.03 39.32 4.06 40.64 1 42 C1.33 40.68 1.66 39.36 2 38 C2.99 37.67 3.98 37.34 5 37 C5.33 34.03 5.66 31.06 6 28 C4.88625 28.680625 4.88625 28.680625 3.75 29.375 C1.53069422 30.68640796 -0.67967822 31.88280803 -3 33 C-5 31.625 -5 31.625 -7 30 C-7 29.34 -7 28.68 -7 28 C-7.99 28 -8.98 28 -10 28 C-9.76260641 33.81614287 -8.31600067 36.34274588 -4.1796875 40.421875 C-3.79039063 40.94265625 -3.40109375 41.4634375 -3 42 C-3.33 42.99 -3.66 43.98 -4 45 C-4.2475 44.360625 -4.495 43.72125 -4.75 43.0625 C-5.78940378 40.84540342 -5.78940378 40.84540342 -7.875 40.375 C-8.926875 40.189375 -8.926875 40.189375 -10 40 C-11.34398804 39.35508266 -12.67904785 38.69087455 -14 38 C-13.83999671 46.6093632 -13.83999671 46.6093632 -10 54 C-8.36504293 55.05104383 -6.70116376 56.05988318 -5 57 C-3.49843126 60.00313748 -3.90718796 62.79067522 -3.9375 66.125 C-3.94652344 67.40632813 -3.95554687 68.68765625 -3.96484375 70.0078125 C-3.97644531 70.99523437 -3.98804687 71.98265625 -4 73 C-8.57361726 71.65804045 -12.23286388 69.80276138 -16.25 67.25 C-17.28640625 66.59515625 -18.3228125 65.9403125 -19.390625 65.265625 C-19.93992676 64.89260254 -20.48922852 64.51958008 -21.05517578 64.13525391 C-23.04523523 62.8886008 -23.04523523 62.8886008 -25.62841797 62.09521484 C-28.92050791 60.75818629 -30.70573598 59.74386043 -33 57 C-34.72552861 50.61202933 -33.93131385 43.65815423 -33.625 37.125 C-33.57481223 35.27355684 -33.52918951 33.42198393 -33.48828125 31.5703125 C-33.37833458 27.04366577 -33.20597692 22.52325316 -33 18 C-32.05390869 17.46673096 -31.10781738 16.93346191 -30.13305664 16.3840332 C-28.87118276 15.66891267 -27.60938677 14.95365469 -26.34765625 14.23828125 C-25.72652954 13.88866333 -25.10540283 13.53904541 -24.4654541 13.17883301 C-19.84430345 10.55355839 -15.47939146 7.67733762 -11.18359375 4.54296875 C-4.75443038 0 -4.75443038 0 0 0 Z " fill="#53B54A" transform="translate(123,49)"/>
<path d="M0 0 C4.62 2.31 9.24 4.62 14 7 C14 7.66 14 8.32 14 9 C16.52263765 10.01981378 19.01726045 11.00552528 21.60986328 11.83544922 C24.81986887 13.19401816 26.67035316 14.37641114 29 17 C31.2035944 23.06301527 30.93095907 29.76236726 30.875 36.125 C30.88025696 37.01538971 30.88551392 37.90577942 30.89093018 38.82315063 C30.83972979 53.17409603 30.83972979 53.17409603 27.08984375 58.93408203 C22.49169296 63.12979993 17.24605396 65.32153976 11.36230469 67.17333984 C8.14203887 68.30023319 5.76683753 70.03179223 3 72 C2.34 72 1.68 72 1 72 C0.23834493 59.4919311 0.23834493 59.4919311 2.04296875 55.95703125 C3.375 54.625 3.375 54.625 6 53 C6.66 53 7.32 53 8 53 C9.64800856 49.33552568 10.33580973 46.18796534 10.625 42.1875 C10.69976562 41.21167969 10.77453125 40.23585937 10.8515625 39.23046875 C10.90054688 38.49441406 10.94953125 37.75835937 11 37 C8.03 38.32 5.06 39.64 2 41 C2.33 39.68 2.66 38.36 3 37 C4.485 36.505 4.485 36.505 6 36 C6.495 31.545 6.495 31.545 7 27 C2.39257135 28.21044132 2.39257135 28.21044132 -2 30 C-3.5625 28.375 -3.5625 28.375 -5 26 C-4.875 22.875 -4.875 22.875 -4 20 C-3.01 19.34 -2.02 18.68 -1 18 C-1 16.47912152 -1.02014831 14.95830443 -1.03515625 13.4375 C-1.04450116 11.95833477 -1.05360466 10.479168 -1.0625 9 C-1.07087891 8.24976563 -1.07925781 7.49953125 -1.08789062 6.7265625 C-1.09650551 4.81750296 -1.05231256 2.90836211 -1 1 C-0.67 0.67 -0.34 0.34 0 0 Z " fill="#FB6504" transform="translate(122,50)"/>
<path d="M0 0 C0.9590625 -0.00257812 1.918125 -0.00515625 2.90625 -0.0078125 C5.5 0.125 5.5 0.125 8.5 1.125 C8.5 2.445 8.5 3.765 8.5 5.125 C1.57 4.63 1.57 4.63 -5.5 4.125 C-5.5 4.785 -5.5 5.445 -5.5 6.125 C-6.325 6.7025 -7.15 7.28 -8 7.875 C-10.39235897 10.07866587 -10.51089311 11.2379039 -10.83203125 14.56640625 C-10.81421627 18.09733557 -10.71459779 21.6008274 -10.5 25.125 C-7.23386305 27.03802307 -4.50554752 27.48174661 -0.75 27.75 C0.23484375 27.82476562 1.2196875 27.89953125 2.234375 27.9765625 C2.98203125 28.02554688 3.7296875 28.07453125 4.5 28.125 C4.5 25.155 4.5 22.185 4.5 19.125 C2.19 19.125 -0.12 19.125 -2.5 19.125 C-2.5 17.805 -2.5 16.485 -2.5 15.125 C1.46 15.125 5.42 15.125 9.5 15.125 C9.5 20.405 9.5 25.685 9.5 31.125 C3.06636488 33.69845405 -2.97396613 34.39357512 -9.5625 31.8125 C-12.5 30.125 -12.5 30.125 -13.5 27.125 C-14.16 27.125 -14.82 27.125 -15.5 27.125 C-17.92351711 21.21767705 -18.52929235 15.21287705 -16.5 9.125 C-15.84 9.125 -15.18 9.125 -14.5 9.125 C-14.2525 8.361875 -14.005 7.59875 -13.75 6.8125 C-12.36694005 3.83892111 -11.26995517 2.80376071 -8.5 1.125 C-5.41493912 0.09664637 -3.2305728 -0.00868434 0 0 Z " fill="#61B258" transform="translate(37.5,126.875)"/>
<path d="M0 0 C2.9375 2.4375 2.9375 2.4375 5 5 C5.33 5.33 5.66 5.66 6 6 C6 8.31 6 10.62 6 13 C0.72 13 -4.56 13 -10 13 C-8.66436384 17.94463635 -8.66436384 17.94463635 -6 19 C-4.29297265 19.06996014 -2.58331997 19.08440154 -0.875 19.0625 C0.03507812 19.05347656 0.94515625 19.04445312 1.8828125 19.03515625 C2.58148438 19.02355469 3.28015625 19.01195312 4 19 C4 20.32 4 21.64 4 23 C1.18772378 23.93742541 -0.58746844 24.13470844 -3.5 24.125 C-4.2734375 24.12757813 -5.046875 24.13015625 -5.84375 24.1328125 C-8 24 -8 24 -11 23 C-14.73309297 17.77366985 -15.72161963 14.39148811 -15 8 C-12.03191687 1.32181296 -7.39137651 -1.62786268 0 0 Z " fill="#68B162" transform="translate(84,136)"/>
<path d="M0 0 C2.92584944 1.3154029 3.83752812 2.40503374 6 5 C6.49631943 7.85647674 6.29779161 10.0717158 6 13 C1.05 13 -3.9 13 -9 13 C-7.54711014 17.5841963 -7.54711014 17.5841963 -6 19 C-4.31391034 19.07205511 -2.62499341 19.08386068 -0.9375 19.0625 C-0.01839844 19.05347656 0.90070313 19.04445312 1.84765625 19.03515625 C2.55792969 19.02355469 3.26820313 19.01195312 4 19 C4 20.32 4 21.64 4 23 C0.30274625 24.84862688 -3.96461442 24.47587094 -8 24 C-10.93423195 22.20353146 -12.47205355 21.0558929 -14 18 C-14.93762008 7.59395414 -14.93762008 7.59395414 -12.125 2.8125 C-8.370846 -0.38957253 -4.80812836 -0.76573896 0 0 Z " fill="#D46616" transform="translate(198,136)"/>
<path d="M0 0 C4.56944444 2.13888889 4.56944444 2.13888889 6 5 C6 7.64 6 10.28 6 13 C0.72 13 -4.56 13 -10 13 C-9.01 14.65 -8.02 16.3 -7 18 C-7 18.66 -7 19.32 -7 20 C-3.37 19.67 0.26 19.34 4 19 C4 20.32 4 21.64 4 23 C0.26731351 24.86634324 -3.93486964 24.54329572 -8 24 C-11.18810442 21.98303598 -12.56068157 20.56690238 -13.5859375 16.91015625 C-14.35721658 11.89684226 -13.98826898 7.73397376 -12 3 C-8.82721789 -0.78293252 -4.62505166 -0.69742843 0 0 Z " fill="#57AB4F" transform="translate(108,136)"/>
<path d="M0 0 C1.485 0.495 1.485 0.495 3 1 C6.17943192 34.95633288 6.17943192 34.95633288 1.13378906 42.96044922 C-3.46588343 47.14325867 -8.76140447 49.32388716 -14.63769531 51.17333984 C-17.85796113 52.30023319 -20.23316247 54.03179223 -23 56 C-23.66 56 -24.32 56 -25 56 C-25.76165507 43.4919311 -25.76165507 43.4919311 -23.95703125 39.95703125 C-22.625 38.625 -22.625 38.625 -20 37 C-19.34 37 -18.68 37 -18 37 C-16.35199144 33.33552568 -15.66419027 30.18796534 -15.375 26.1875 C-15.30023438 25.21167969 -15.22546875 24.23585938 -15.1484375 23.23046875 C-15.09945312 22.49441406 -15.05046875 21.75835937 -15 21 C-17.97 22.32 -20.94 23.64 -24 25 C-23.67 23.68 -23.34 22.36 -23 21 C-22.01 20.67 -21.02 20.34 -20 20 C-19.505 15.545 -19.505 15.545 -19 11 C-23.60742865 12.21044132 -23.60742865 12.21044132 -28 14 C-29.5625 12.375 -29.5625 12.375 -31 10 C-30.875 6.875 -30.875 6.875 -30 4 C-27 2 -27 2 -23 2 C-21.64560332 4.70879335 -21.93498549 7.00933268 -22 10 C-20.35 10 -18.7 10 -17 10 C-17 12.97 -17 15.94 -17 19 C-15.68 19.33 -14.36 19.66 -13 20 C-13 24.62 -13 29.24 -13 34 C-13.66 34 -14.32 34 -15 34 C-15.061875 34.61875 -15.12375 35.2375 -15.1875 35.875 C-15.455625 36.57625 -15.72375 37.2775 -16 38 C-16.8146875 38.2475 -17.629375 38.495 -18.46875 38.75 C-19.72171875 39.36875 -19.72171875 39.36875 -21 40 C-22.04123065 42.85581649 -22.04123065 42.85581649 -22.3125 46.125 C-22.45300781 47.22070312 -22.59351562 48.31640625 -22.73828125 49.4453125 C-22.82464844 50.28835937 -22.91101563 51.13140625 -23 52 C-18.76915097 50.31192092 -18.76915097 50.31192092 -16 47 C-14.68 47 -13.36 47 -12 47 C-12 46.34 -12 45.68 -12 45 C-7.59576225 42.0638415 -3.12757187 40.28189297 2 39 C2 26.79 2 14.58 2 2 C1.34 2 0.68 2 0 2 C0 1.34 0 0.68 0 0 Z " fill="#DB6D21" transform="translate(148,66)"/>
<path d="M0 0 C1.69752187 0.25245197 3.38471545 0.57645775 5.0625 0.9375 C5.98160156 1.13214844 6.90070313 1.32679687 7.84765625 1.52734375 C8.91306641 1.76130859 8.91306641 1.76130859 10 2 C10 3.98 10 5.96 10 8 C8.68 8.33 7.36 8.66 6 9 C6.66 9.66 7.32 10.32 8 11 C8.22705078 13.43017578 8.22705078 13.43017578 8.1953125 16.4453125 C8.18564453 18.05986328 8.18564453 18.05986328 8.17578125 19.70703125 C8.15902344 20.83496094 8.14226562 21.96289062 8.125 23.125 C8.11597656 24.26066406 8.10695312 25.39632812 8.09765625 26.56640625 C8.07403098 29.37781299 8.04109013 32.18880298 8 35 C5.69 35 3.38 35 1 35 C0.67 29.39 0.34 23.78 0 18 C-0.66 18.99 -1.32 19.98 -2 21 C-2 15.39 -2 9.78 -2 4 C-1.34 4 -0.68 4 0 4 C-0.33 3.01 -0.66 2.02 -1 1 C-0.67 0.67 -0.34 0.34 0 0 Z " fill="#FCFDF7" transform="translate(155,124)"/>
<path d="M0 0 C3 0 6 0 9 0 C10.155 -0.04125 11.31 -0.0825 12.5 -0.125 C16 0 16 0 19 2 C19 2.66 19 3.32 19 4 C19.66 4 20.32 4 21 4 C21 10.6 21 17.2 21 24 C19.35 24 17.7 24 16 24 C15.95101562 22.87980469 15.90203125 21.75960937 15.8515625 20.60546875 C15.77652144 19.13278797 15.70097418 17.66013293 15.625 16.1875 C15.5940625 15.44951172 15.563125 14.71152344 15.53125 13.95117188 C15.32653852 10.18106885 15.13566173 8.20349259 13 5 C10.5 4.5 10.5 4.5 8 5 C5.51955685 8.72066472 5.55618827 11.86540474 5.375 16.1875 C5.33632812 16.93708984 5.29765625 17.68667969 5.2578125 18.45898438 C5.16371784 20.30559199 5.08077681 22.1527619 5 24 C3.35 24 1.7 24 0 24 C0 16.08 0 8.16 0 0 Z " fill="#88C17F" transform="translate(119,136)"/>
<path d="M0 0 C1.0725 0.103125 2.145 0.20625 3.25 0.3125 C3.25 1.6325 3.25 2.9525 3.25 4.3125 C1.6 4.6425 -0.05 4.9725 -1.75 5.3125 C-2.08 7.6225 -2.41 9.9325 -2.75 12.3125 C-1.1 12.3125 0.55 12.3125 2.25 12.3125 C2.25 13.3025 2.25 14.2925 2.25 15.3125 C0.6 15.3125 -1.05 15.3125 -2.75 15.3125 C-2.75 21.9125 -2.75 28.5125 -2.75 35.3125 C-4.4 35.3125 -6.05 35.3125 -7.75 35.3125 C-7.75 28.7125 -7.75 22.1125 -7.75 15.3125 C-9.07 15.3125 -10.39 15.3125 -11.75 15.3125 C-11.75 13.9925 -11.75 12.6725 -11.75 11.3125 C-10.43 11.3125 -9.11 11.3125 -7.75 11.3125 C-7.8325 10.425625 -7.915 9.53875 -8 8.625 C-7.57630566 3.01104998 -5.69168017 0.47430668 0 0 Z " fill="#EC6D17" transform="translate(178.75,124.6875)"/>
<path d="M0 0 C0.99 0 1.98 0 3 0 C3 0.66 3 1.32 3 2 C4.98 2.66 6.96 3.32 9 4 C9.598125 3.34 10.19625 2.68 10.8125 2 C13 0 13 0 16 0 C16.49230769 6.4 16.49230769 6.4 14 9.4375 C13.01 10.2109375 13.01 10.2109375 12 11 C12.33 11.33 12.66 11.66 13 12 C15.31 11.34 17.62 10.68 20 10 C20.08114106 11.77007714 20.13925505 13.54122098 20.1875 15.3125 C20.23970703 16.79169922 20.23970703 16.79169922 20.29296875 18.30078125 C20 21 20 21 17 24 C17.33 20.7 17.66 17.4 18 14 C17.113125 14.515625 16.22625 15.03125 15.3125 15.5625 C12 17 12 17 9.25 16.9375 C6.37403358 15.73918066 6.24317746 14.79714928 5 12 C4.13375 11.236875 3.2675 10.47375 2.375 9.6875 C0 7 0 7 -0.3125 3.1875 C-0.209375 2.135625 -0.10625 1.08375 0 0 Z " fill="#F8F6E5" transform="translate(113,77)"/>
<path d="M0 0 C1.65 0 3.3 0 5 0 C5 11.55 5 23.1 5 35 C3.35 35 1.7 35 0 35 C0 23.45 0 11.9 0 0 Z " fill="#E37528" transform="translate(146,125)"/>
<path d="M0 0 C2.9375 2.4375 2.9375 2.4375 5 5 C5.33 5.33 5.66 5.66 6 6 C6.04092937 8.33297433 6.04241723 10.66705225 6 13 C5.67 13 5.34 13 5 13 C4.87625 12.030625 4.7525 11.06125 4.625 10.0625 C4.315625 8.5465625 4.315625 8.5465625 4 7 C3.34 6.67 2.68 6.34 2 6 C2 7.32 2 8.64 2 10 C-5.92 10.495 -5.92 10.495 -14 11 C-14 5 -14 5 -11.5 2.125 C-7.58271781 -0.72730003 -4.74016972 -0.75240789 0 0 Z " fill="#63B05A" transform="translate(84,136)"/>
<path d="M0 0 C1.66666667 0 3.33333333 0 5 0 C6.35439668 2.70879335 6.06501451 5.00933268 6 8 C7.65 8 9.3 8 11 8 C11 10.97 11 13.94 11 17 C12.32 17.33 13.64 17.66 15 18 C15 22.62 15 27.24 15 32 C14.34 32 13.68 32 13 32 C13 27.71 13 23.42 13 19 C10.03 20.32 7.06 21.64 4 23 C4.33 21.68 4.66 20.36 5 19 C5.99 18.67 6.98 18.34 8 18 C8.33 15.03 8.66 12.06 9 9 C4.39257135 10.21044132 4.39257135 10.21044132 0 12 C-1.5625 10.375 -1.5625 10.375 -3 8 C-2.77962372 4.32706204 -2.63033454 2.63033454 0 0 Z " fill="#DD6E21" transform="translate(120,68)"/>
<path d="M0 0 C0.78375 0.04125 1.5675 0.0825 2.375 0.125 C2.375 1.775 2.375 3.425 2.375 5.125 C0.065 5.785 -2.245 6.445 -4.625 7.125 C-4.955 12.735 -5.285 18.345 -5.625 24.125 C-7.275 24.125 -8.925 24.125 -10.625 24.125 C-10.625 16.535 -10.625 8.945 -10.625 1.125 C-7.655 1.62 -7.655 1.62 -4.625 2.125 C-2.625 0.125 -2.625 0.125 0 0 Z " fill="#66B35C" transform="translate(64.625,135.875)"/>
<path d="M0 0 C2.92259352 1.32285812 3.83656259 2.4038751 6 5 C6.49631943 7.85647674 6.29779161 10.0717158 6 13 C4.68 12.67 3.36 12.34 2 12 C2.99 12 3.98 12 5 12 C4.34 10.35 3.68 8.7 3 7 C2.67 7.99 2.34 8.98 2 10 C-1.63 10 -5.26 10 -9 10 C-9 8.02 -9 6.04 -9 4 C-9.66 4 -10.32 4 -11 4 C-11 4.66 -11 5.32 -11 6 C-11.66 6 -12.32 6 -13 6 C-10.41373316 0.03169191 -6.1962727 -1.10856103 0 0 Z " fill="#DE7C35" transform="translate(198,136)"/>
<path d="M0 0 C2.74021804 0.53036478 4.72318011 1.71426009 6.9375 3.375 C6.6075 4.035 6.2775 4.695 5.9375 5.375 C4.9475 5.045 3.9575 4.715 2.9375 4.375 C3.2675 6.355 3.5975 8.335 3.9375 10.375 C2.00190687 10.51004138 0.063628 10.60701129 -1.875 10.6875 C-3.49341797 10.77451172 -3.49341797 10.77451172 -5.14453125 10.86328125 C-8.0625 10.375 -8.0625 10.375 -9.94921875 7.85546875 C-10.31660156 7.03691406 -10.68398437 6.21835938 -11.0625 5.375 C-7.59677608 1.0428451 -5.39165219 -0.3267668 0 0 Z " fill="#65B25D" transform="translate(106.0625,135.625)"/>
<path d="M0 0 C5.28 0 10.56 0 16 0 C16 0.99 16 1.98 16 3 C15.34 3 14.68 3 14 3 C14.99 4.485 14.99 4.485 16 6 C15.75 8.625 15.75 8.625 15 11 C12.27457733 12.36271133 10.03912726 12.16923601 7 12.1875 C5.9275 12.20167969 4.855 12.21585938 3.75 12.23046875 C1 12 1 12 -1 10 C3.95 10 8.9 10 14 10 C14 8.68 14 7.36 14 6 C13.01 6.33 12.02 6.66 11 7 C4.76256983 7.56703911 4.76256983 7.56703911 1.5625 5.1875 C0 3 0 3 0 0 Z " fill="#E9FAE6" transform="translate(74,149)"/>
<path d="M0 0 C0 0.99 0 1.98 0 3 C-0.99 3 -1.98 3 -3 3 C-2.98060539 7.93041515 -2.92897185 12.8590389 -2.84741211 17.78881836 C-2.82421305 19.4658024 -2.80983188 21.14293252 -2.80444336 22.82006836 C-2.7951669 25.23123405 -2.75421209 27.64009624 -2.70703125 30.05078125 C-2.7109639 30.80087967 -2.71489655 31.55097809 -2.71894836 32.32380676 C-2.70711588 34.70066648 -2.70711588 34.70066648 -2 38 C0.42863259 39.91899833 0.42863259 39.91899833 3 41 C3 41.66 3 42.32 3 43 C4.98 43.33 6.96 43.66 9 44 C9 44.66 9 45.32 9 46 C5.39820487 47.30401678 3.27108642 46.84577008 -0.19921875 45.296875 C-2.92591452 43.56357216 -4.63834814 42.26290615 -5.54888916 39.08325195 C-6.25152704 34.06667004 -6.11692783 29.04491256 -5.91918945 23.99462891 C-5.81225676 21.24374266 -5.77576411 18.49883948 -5.75195312 15.74609375 C-5.7202055 14.00252552 -5.68453577 12.25902333 -5.64453125 10.515625 C-5.62864456 9.6916925 -5.61275787 8.86776001 -5.59638977 8.01885986 C-5.49926758 5.71191406 -5.49926758 5.71191406 -5 2 C-2 0 -2 0 0 0 Z " fill="#7CBA73" transform="translate(95,65)"/>
<path d="M0 0 C1.65 0 3.3 0 5 0 C5 7.59 5 15.18 5 23 C3.35 23 1.7 23 0 23 C0 15.41 0 7.82 0 0 Z " fill="#E4782A" transform="translate(158,136)"/>
<path d="M0 0 C1.18005182 3.68766192 1.20993972 7.15110517 1 11 C0.01 12.485 0.01 12.485 -1 14 C-1.38499891 15.65549531 -1.72793135 17.3222433 -2 19 C-2.33 18.01 -2.66 17.02 -3 16 C-3.99 16.33 -4.98 16.66 -6 17 C-8.71276939 17.33362688 -11.2938584 17.41719683 -14 17 C-16 15.1875 -16 15.1875 -17 13 C-17 12.01 -17 11.02 -17 10 C-11.72 10 -6.44 10 -1 10 C-1 7.36 -1 4.72 -1 2 C-0.67 1.34 -0.34 0.68 0 0 Z " fill="#DDF6D9" transform="translate(115,139)"/>
<path d="M0 0 C0.33 0 0.66 0 1 0 C1 1.98 1 3.96 1 6 C2.11375 6 3.2275 6 4.375 6 C6.25 6 8.125 6 10 6 C10.66 5.67 11.32 5.34 12 5 C14.04055005 4.92934383 16.08334257 4.91578024 18.125 4.9375 C19.22070312 4.94652344 20.31640625 4.95554688 21.4453125 4.96484375 C22.28835937 4.97644531 23.13140625 4.98804688 24 5 C24 5.66 24 6.32 24 7 C23.33613281 6.94199219 22.67226562 6.88398438 21.98828125 6.82421875 C17.60811254 6.60041451 14.80693308 6.53889538 10.9375 8.75 C8.04595654 13.60033097 8.09751284 18.44176817 8 24 C7.34 24 6.68 24 6 24 C6 20.04 6 16.08 6 12 C1.65661644 14.54109964 1.65661644 14.54109964 1.390625 18.57421875 C1.32442709 19.9445155 1.2781749 21.31589455 1.25 22.6875 C1.22035156 23.38939453 1.19070312 24.09128906 1.16015625 24.81445312 C1.08962967 26.54235424 1.04252932 28.2711832 1 30 C0.67 30 0.34 30 0 30 C0 23.4 0 16.8 0 10 C1.65 10 3.3 10 5 10 C5 9.01 5 8.02 5 7 C3.35 7 1.7 7 0 7 C0 4.69 0 2.38 0 0 Z " fill="#FCE8CD" transform="translate(176,130)"/>
<path d="M0 0 C1.79244141 0.01740234 1.79244141 0.01740234 3.62109375 0.03515625 C5.41740234 0.04869141 5.41740234 0.04869141 7.25 0.0625 C8.17683594 0.07410156 9.10367188 0.08570313 10.05859375 0.09765625 C10.03796875 1.04640625 10.01734375 1.99515625 9.99609375 2.97265625 C9.83307549 6.00431908 9.83307549 6.00431908 11.05859375 8.09765625 C10.06859375 7.76765625 9.07859375 7.43765625 8.05859375 7.09765625 C7.72859375 7.75765625 7.39859375 8.41765625 7.05859375 9.09765625 C5.41229047 8.95722748 3.76655196 8.81016296 2.12109375 8.66015625 C0.74630859 8.53833984 0.74630859 8.53833984 -0.65625 8.4140625 C-2.94140625 8.09765625 -2.94140625 8.09765625 -3.94140625 7.09765625 C-4.06640625 4.09765625 -4.06640625 4.09765625 -3.94140625 1.09765625 C-2.94140625 0.09765625 -2.94140625 0.09765625 0 0 Z " fill="#A2A2A2" transform="translate(33.94140625,168.90234375)"/>
<path d="M0 0 C1.65322266 0.01740234 1.65322266 0.01740234 3.33984375 0.03515625 C4.99693359 0.04869141 4.99693359 0.04869141 6.6875 0.0625 C7.54214844 0.07410156 8.39679688 0.08570313 9.27734375 0.09765625 C8.94734375 2.73765625 8.61734375 5.37765625 8.27734375 8.09765625 C-0.29408482 9.52622768 -0.29408482 9.52622768 -3.72265625 7.09765625 C-3.76519981 5.09810879 -3.76346408 3.09723989 -3.72265625 1.09765625 C-2.72265625 0.09765625 -2.72265625 0.09765625 0 0 Z " fill="#E8E8E8" transform="translate(110.72265625,168.90234375)"/>
<path d="M0 0 C1.32 0 2.64 0 4 0 C4 7.26 4 14.52 4 22 C2.68 22 1.36 22 0 22 C0 14.74 0 7.48 0 0 Z " fill="#5DAA55" transform="translate(120,137)"/>
<path d="M0 0 C4.95 0 9.9 0 15 0 C15 0.66 15 1.32 15 2 C11.79984144 3.06671952 10.11455706 2.94845472 6.8125 2.5625 C5.91144531 2.46066406 5.01039063 2.35882813 4.08203125 2.25390625 C3.39496094 2.17011719 2.70789063 2.08632812 2 2 C2.33 2.66 2.66 3.32 3 4 C5.58605332 4.4683265 5.58605332 4.4683265 8.5625 4.625 C9.57441406 4.69976562 10.58632812 4.77453125 11.62890625 4.8515625 C12.80259766 4.92503906 12.80259766 4.92503906 14 5 C14.625 7.375 14.625 7.375 15 10 C13 12 13 12 9.7421875 12.1953125 C8.46601563 12.17210937 7.18984375 12.14890625 5.875 12.125 C3.95300781 12.09792969 3.95300781 12.09792969 1.9921875 12.0703125 C0.51105469 12.03550781 0.51105469 12.03550781 -1 12 C-1 11.01 -1 10.02 -1 9 C-0.34 9.33 0.32 9.66 1 10 C3.04055005 10.07065617 5.08334257 10.08421976 7.125 10.0625 C8.22070312 10.05347656 9.31640625 10.04445312 10.4453125 10.03515625 C11.28835937 10.02355469 12.13140625 10.01195312 13 10 C13 8.68 13 7.36 13 6 C12.01 6.495 12.01 6.495 11 7 C3.73775216 7.4610951 3.73775216 7.4610951 1 5.75 C0 4 0 4 0 0 Z " fill="#FCE8CC" transform="translate(189,149)"/>
<path d="M0 0 C3.96 0 7.92 0 12 0 C12 4.95 12 9.9 12 15 C11.34 15 10.68 15 10 15 C10 14.01 10 13.02 10 12 C9.34 12 8.68 12 8 12 C8 9.36 8 6.72 8 4 C5.36 4 2.72 4 0 4 C0 2.68 0 1.36 0 0 Z " fill="#65AA5D" transform="translate(35,142)"/>
<path d="M0 0 C0.33 0 0.66 0 1 0 C1.33 4.29 1.66 8.58 2 13 C2.66 12.67 3.32 12.34 4 12 C4 10.35 4 8.7 4 7 C4.28875 7.61875 4.5775 8.2375 4.875 8.875 C5.93720042 11.13325765 5.93720042 11.13325765 8 13 C10.44012949 13.24287489 10.44012949 13.24287489 13.125 13.125 C14.03507813 13.10695312 14.94515625 13.08890625 15.8828125 13.0703125 C16.58148438 13.04710937 17.28015625 13.02390625 18 13 C18 14.32 18 15.64 18 17 C14.30274625 18.84862688 10.03538558 18.47587094 6 18 C3.06576805 16.20353146 1.52794645 15.0558929 0 12 C-0.07065617 9.95944995 -0.08421976 7.91665743 -0.0625 5.875 C-0.05347656 4.77929688 -0.04445312 3.68359375 -0.03515625 2.5546875 C-0.02355469 1.71164063 -0.01195312 0.86859375 0 0 Z " fill="#DE7933" transform="translate(184,142)"/>
<path d="M0 0 C4 0 8 0 12 0 C11.01 0.33 10.02 0.66 9 1 C9 1.66 9 2.32 9 3 C9.66 3 10.32 3 11 3 C11 3.66 11 4.32 11 5 C10.34 5 9.68 5 9 5 C9 6.32 9 7.64 9 9 C5.25 10.125 5.25 10.125 3 9 C3 8.01 3 7.02 3 6 C2.01 6 1.02 6 0 6 C0 6.66 0 7.32 0 8 C-0.66 8 -1.32 8 -2 8 C-1.34 5.36 -0.68 2.72 0 0 Z " fill="#E5E5E5" transform="translate(155,169)"/>
<path d="M0 0 C3.63 0 7.26 0 11 0 C11.89130413 2.6739124 12.47731534 5.23723823 13 8 C12.01 8 11.02 8 10 8 C8.875 3.25 8.875 3.25 10 1 C9.34 1 8.68 1 8 1 C8 3.64 8 6.28 8 9 C5.03 8.67 2.06 8.34 -1 8 C-0.67 5.36 -0.34 2.72 0 0 Z " fill="#848484" transform="translate(69,169)"/>
<path d="M0 0 C4.62 2.31 9.24 4.62 14 7 C14 7.66 14 8.32 14 9 C14.680625 9.2475 15.36125 9.495 16.0625 9.75 C19.56865083 11.24197908 22.71620368 13.06835511 26 15 C24 16 24 16 20.875 15.0625 C19.451875 14.5365625 19.451875 14.5365625 18 14 C18 13.34 18 12.68 18 12 C16.02 11.34 14.04 10.68 12 10 C12 9.34 12 8.68 12 8 C11.0925 7.71125 10.185 7.4225 9.25 7.125 C6 6 6 6 2 4 C1.67 8.62 1.34 13.24 1 18 C0.34 17.67 -0.32 17.34 -1 17 C-1.02684679 14.35409986 -1.04676357 11.70846904 -1.0625 9.0625 C-1.07087891 8.30775391 -1.07925781 7.55300781 -1.08789062 6.77539062 C-1.09652441 4.85005687 -1.05224333 2.92464419 -1 1 C-0.67 0.67 -0.34 0.34 0 0 Z " fill="#D97723" transform="translate(122,50)"/>
<path d="M0 0 C-0.33 2.97 -0.66 5.94 -1 9 C-2.98 9 -4.96 9 -7 9 C-7.33 8.34 -7.66 7.68 -8 7 C-8.33 7.66 -8.66 8.32 -9 9 C-9.66 9 -10.32 9 -11 9 C-11 6.36 -11 3.72 -11 1 C-7.27569643 0.30710631 -3.78916254 -0.11144596 0 0 Z " fill="#ADADAD" transform="translate(179,168)"/>
<path d="M0 0 C0.99 0.33 1.98 0.66 3 1 C3 2.98 3 4.96 3 7 C-1.95 7 -6.9 7 -12 7 C-12 7.99 -12 8.98 -12 10 C-13.32 9.34 -14.64 8.68 -16 8 C-15.67 6.68 -15.34 5.36 -15 4 C-10.05 4 -5.1 4 0 4 C0 2.68 0 1.36 0 0 Z " fill="#59AA53" transform="translate(86,142)"/>
<path d="M0 0 C0.96808594 -0.00257812 1.93617187 -0.00515625 2.93359375 -0.0078125 C5.5625 0.125 5.5625 0.125 8.5625 1.125 C8.5625 2.445 8.5625 3.765 8.5625 5.125 C3.2825 5.125 -1.9975 5.125 -7.4375 5.125 C-7.4375 3.805 -7.4375 2.485 -7.4375 1.125 C-4.84233479 -0.17258261 -2.89566973 -0.00769102 0 0 Z " fill="#62AD59" transform="translate(37.4375,126.875)"/>
<path d="M0 0 C0.66 0 1.32 0 2 0 C2 5.61 2 11.22 2 17 C2.66 17 3.32 17 4 17 C4 11.39 4 5.78 4 0 C4.33 0 4.66 0 5 0 C5 6.6 5 13.2 5 20 C3.35 20 1.7 20 0 20 C0 13.4 0 6.8 0 0 Z " fill="#DA7832" transform="translate(171,140)"/>
<path d="M0 0 C2.45391569 3.68087353 2.22802759 6.44355588 2.125 10.6875 C2.11597656 11.38939453 2.10695312 12.09128906 2.09765625 12.81445312 C2.07413704 14.54311525 2.03826713 16.27160145 2 18 C0.68 18 -0.64 18 -2 18 C-2.05397335 15.5622037 -2.09365616 13.12560315 -2.125 10.6875 C-2.14175781 9.99720703 -2.15851563 9.30691406 -2.17578125 8.59570312 C-2.21217794 4.82864604 -2.14378864 3.21568296 0 0 Z " fill="#59AC52" transform="translate(137,141)"/>
<path d="M0 0 C0.75 1.75 0.75 1.75 1 4 C-0.8125 6.25 -0.8125 6.25 -3 8 C-3.66 8 -4.32 8 -5 8 C-5.66 11.96 -6.32 15.92 -7 20 C-6.01 20 -5.02 20 -4 20 C-4 20.66 -4 21.32 -4 22 C-5.65 22.66 -7.3 23.32 -9 24 C-9.76165507 11.4919311 -9.76165507 11.4919311 -7.95703125 7.95703125 C-6.625 6.625 -6.625 6.625 -4 5 C-3.34 5 -2.68 5 -2 5 C-1.34 3.35 -0.68 1.7 0 0 Z " fill="#DD7C3B" transform="translate(132,98)"/>
<path d="M0 0 C2.31 0 4.62 0 7 0 C7 0.66 7 1.32 7 2 C5.35 2 3.7 2 2 2 C2 3.32 2 4.64 2 6 C3.65 6 5.3 6 7 6 C7.99 4.02 8.98 2.04 10 0 C10.66 0 11.32 0 12 0 C12.99 2.64 13.98 5.28 15 8 C14.01 8 13.02 8 12 8 C12 7.34 12 6.68 12 6 C11.01 6 10.02 6 9 6 C9 6.66 9 7.32 9 8 C2.9453125 8.1953125 2.9453125 8.1953125 1 8 C0.34 7.34 -0.32 6.68 -1 6 C-0.625 2.875 -0.625 2.875 0 0 Z " fill="#747474" transform="translate(180,169)"/>
<path d="M0 0 C1.9375 0.625 1.9375 0.625 4 2 C4.75 5.125 4.75 5.125 5 8 C3.35 9.32 1.7 10.64 0 12 C-1.5625 10.375 -1.5625 10.375 -3 8 C-2.77962372 4.32706204 -2.63033454 2.63033454 0 0 Z " fill="#E5F0CE" transform="translate(120,68)"/>
<path d="M0 0 C0.08114106 1.77007714 0.13925505 3.54122098 0.1875 5.3125 C0.22230469 6.29863281 0.25710937 7.28476563 0.29296875 8.30078125 C0 11 0 11 -3 14 C-2.67 10.7 -2.34 7.4 -2 4 C-2.928125 4.495 -3.85625 4.99 -4.8125 5.5 C-8 7 -8 7 -11 7 C-10.67 5.35 -10.34 3.7 -10 2 C-9.01 2 -8.02 2 -7 2 C-1.875 0 -1.875 0 0 0 Z " fill="#F4E2CB" transform="translate(133,87)"/>
<path d="M0 0 C1.4540625 0.0309375 1.4540625 0.0309375 2.9375 0.0625 C4.0625 5.8125 4.0625 5.8125 2.9375 8.0625 C0.93795254 8.10504356 -1.06291636 8.10330783 -3.0625 8.0625 C-4.0625 7.0625 -4.0625 7.0625 -4.1875 4.0625 C-4.02164894 0.08207447 -4.02164894 0.08207447 0 0 Z " fill="#5C5C5C" transform="translate(132.0625,168.9375)"/>
<path d="M0 0 C2.31 0 4.62 0 7 0 C7.04241723 2.33294775 7.04092937 4.66702567 7 7 C6 8 6 8 3.5625 8.1875 C1 8 1 8 -1 6 C-0.625 2.875 -0.625 2.875 0 0 Z " fill="#5F5F5F" transform="translate(83,169)"/>
<path d="M0 0 C2.97 0.33 5.94 0.66 9 1 C9 2.98 9 4.96 9 7 C6.36 7 3.72 7 1 7 C0.67 4.69 0.34 2.38 0 0 Z " fill="#F9DFC3" transform="translate(156,125)"/>
<path d="M0 0 C2.5625 0.25 2.5625 0.25 5.5625 2.25 C5.5625 3.57 5.5625 4.89 5.5625 6.25 C1.9325 6.25 -1.6975 6.25 -5.4375 6.25 C-3.97697368 0.40789474 -3.97697368 0.40789474 0 0 Z " fill="#DDF6DA" transform="translate(79.4375,139.75)"/>
<path d="M0 0 C1.0725 0.103125 2.145 0.20625 3.25 0.3125 C3.25 1.6325 3.25 2.9525 3.25 4.3125 C1.6 4.6425 -0.05 4.9725 -1.75 5.3125 C-2.08 7.2925 -2.41 9.2725 -2.75 11.3125 C-3.08 11.3125 -3.41 11.3125 -3.75 11.3125 C-3.75 9.0025 -3.75 6.6925 -3.75 4.3125 C-4.41 4.3125 -5.07 4.3125 -5.75 4.3125 C-5.75 6.6225 -5.75 8.9325 -5.75 11.3125 C-6.41 11.3125 -7.07 11.3125 -7.75 11.3125 C-8.08975517 7.66013197 -7.95830209 5.69577585 -6.1875 2.4375 C-3.75 0.3125 -3.75 0.3125 0 0 Z " fill="#DB772E" transform="translate(178.75,124.6875)"/>
<path d="M0 0 C0.66 0.33 1.32 0.66 2 1 C2 1.66 2 2.32 2 3 C7.445 2.505 7.445 2.505 13 2 C13 3.32 13 4.64 13 6 C10.54617866 7.22691067 8.80015897 7.20175931 6.0625 7.25 C4.74958984 7.28867188 4.74958984 7.28867188 3.41015625 7.328125 C0.5806131 6.94290357 -0.25132925 6.19305243 -2 4 C-1.01 4 -0.02 4 1 4 C0.67 2.68 0.34 1.36 0 0 Z " fill="#76B870" transform="translate(99,153)"/>
<path d="M0 0 C2 2 2 2 2 6 C-1.3 6 -4.6 6 -8 6 C-7.625 3.5625 -7.625 3.5625 -7 1 C-4.48718205 -0.25640898 -2.78302919 -0.20872719 0 0 Z " fill="#FCEAD1" transform="translate(197,140)"/>
<path d="M0 0 C1.010625 0.0825 2.02125 0.165 3.0625 0.25 C5.0625 3.25 5.0625 3.25 5.0625 6.25 C1.7625 6.25 -1.5375 6.25 -4.9375 6.25 C-3.87489612 0.32977839 -3.87489612 0.32977839 0 0 Z " fill="#E2F7DF" transform="translate(103.9375,139.75)"/>
<path d="M0 0 C0.99 0 1.98 0 3 0 C3 7.26 3 14.52 3 22 C2.34 22 1.68 22 1 22 C0.67 14.74 0.34 7.48 0 0 Z " fill="#FDE4C7" transform="translate(155,137)"/>
<path d="M0 0 C3.87467873 1.25665256 6.10609704 2.31187319 8 6 C8.1875 9.75 8.1875 9.75 8 13 C7.67 13 7.34 13 7 13 C6.87625 12.030625 6.7525 11.06125 6.625 10.0625 C6.41875 9.051875 6.2125 8.04125 6 7 C5.34 6.67 4.68 6.34 4 6 C3.67 7.32 3.34 8.64 3 10 C3 8.68 3 7.36 3 6 C0.69 5.34 -1.62 4.68 -4 4 C-2.68 3.34 -1.36 2.68 0 2 C0 1.34 0 0.68 0 0 Z " fill="#75BA6F" transform="translate(82,136)"/>
<path d="M0 0 C2.375 0.5625 2.375 0.5625 5 2 C6.3125 5.625 6.3125 5.625 7 9 C2.38486888 7.68139111 -1.09897612 5.78644563 -5 3 C-4.360625 2.87625 -3.72125 2.7525 -3.0625 2.625 C-2.0415625 2.315625 -2.0415625 2.315625 -1 2 C-0.67 1.34 -0.34 0.68 0 0 Z " fill="#64B55D" transform="translate(112,113)"/>
<path d="M0 0 C0.66 0.33 1.32 0.66 2 1 C2.34153937 2.66500443 2.67449498 4.33178677 3 6 C3.66 6.66 4.32 7.32 5 8 C5.99 7.34 6.98 6.68 8 6 C8 6.99 8 7.98 8 9 C6.02 9.99 6.02 9.99 4 11 C2 9.625 2 9.625 0 8 C0 7.34 0 6.68 0 6 C-1.32 5.67 -2.64 5.34 -4 5 C-2.68 3.35 -1.36 1.7 0 0 Z " fill="#84A966" transform="translate(116,71)"/>
<path d="M0 0 C2 2 2 2 2.13525391 3.87939453 C2.08288574 4.62302246 2.03051758 5.36665039 1.9765625 6.1328125 C1.89921875 7.34130859 1.89921875 7.34130859 1.8203125 8.57421875 C1.75585938 9.41597656 1.69140625 10.25773438 1.625 11.125 C1.56828125 11.97449219 1.5115625 12.82398438 1.453125 13.69921875 C1.31149023 15.8001345 1.15695674 17.90017334 1 20 C0.34 19.67 -0.32 19.34 -1 19 C-1.02690104 16.20826945 -1.04679053 13.41679652 -1.0625 10.625 C-1.07087891 9.8309375 -1.07925781 9.036875 -1.08789062 8.21875 C-1.11328125 2.2265625 -1.11328125 2.2265625 0 0 Z " fill="#53B44A" transform="translate(122,138)"/>
<path d="M0 0 C0 1.65 0 3.3 0 5 C-2.64 5.66 -5.28 6.32 -8 7 C-8.33 5.35 -8.66 3.7 -9 2 C-5.86501708 0.14223235 -3.62528568 -0.20140476 0 0 Z " fill="#75B76E" transform="translate(67,136)"/>
<path d="M0 0 C0.12375 0.639375 0.2475 1.27875 0.375 1.9375 C0.684375 2.9584375 0.684375 2.9584375 1 4 C1.66 4.33 2.32 4.66 3 5 C-2.75 10 -2.75 10 -5 10 C-5.3125 7.25 -5.3125 7.25 -5 4 C-2.5 1.625 -2.5 1.625 0 0 Z " fill="#69B665" transform="translate(29,128)"/>
<path d="M0 0 C3.12209893 5.827918 2.96895895 9.54027368 2 16 C1.67 16 1.34 16 1 16 C1 12.7 1 9.4 1 6 C-4.40787385 7.09786425 -4.40787385 7.09786425 -8 11 C-7.125 6.125 -7.125 6.125 -6 5 C-4.00041636 4.95919217 -1.99954746 4.95745644 0 5 C0 3.35 0 1.7 0 0 Z " fill="#E7FAE5" transform="translate(67,136)"/>
<path d="M0 0 C1.65 0 3.3 0 5 0 C5.33 2.64 5.66 5.28 6 8 C5.34 8 4.68 8 4 8 C3.67 7.34 3.34 6.68 3 6 C2.67 6.66 2.34 7.32 2 8 C1.34 8 0.68 8 0 8 C0 5.36 0 2.72 0 0 Z " fill="#676767" transform="translate(168,169)"/>
<path d="M0 0 C1.32 0 2.64 0 4 0 C4 4.29 4 8.58 4 13 C3.67 12.01 3.34 11.02 3 10 C2.34 10 1.68 10 1 10 C0.67 6.7 0.34 3.4 0 0 Z " fill="#58AF4D" transform="translate(42,144)"/>
<path d="M0 0 C2.42062282 0 3.64639901 0.67193686 5.40625 2.3046875 C6.8125 3.875 6.8125 3.875 9 7 C8.67 7.99 8.34 8.98 8 10 C7.7525 9.360625 7.505 8.72125 7.25 8.0625 C6.215901 5.83648408 6.215901 5.83648408 4.125 5.4375 C3.42375 5.293125 2.7225 5.14875 2 5 C-0.25 3.4375 -0.25 3.4375 -2 2 C-1.34 1.34 -0.68 0.68 0 0 Z " fill="#7BB473" transform="translate(111,84)"/>
<path d="M0 0 C0.391875 0.433125 0.78375 0.86625 1.1875 1.3125 C2.98883092 3.14872517 2.98883092 3.14872517 5.625 4.3125 C8 6 8 6 8.8125 9.1875 C8.874375 10.115625 8.93625 11.04375 9 12 C8.01 12 7.02 12 6 12 C6 11.34 6 10.68 6 10 C5.34 10 4.68 10 4 10 C5 7 5 7 6 6 C4.35 5.67 2.7 5.34 1 5 C0.67 3.35 0.34 1.7 0 0 Z " fill="#69B662" transform="translate(110,100)"/>
<path d="M0 0 C0.66 0.33 1.32 0.66 2 1 C1.67 1.66 1.34 2.32 1 3 C0.01 3 -0.98 3 -2 3 C-2.33 3.99 -2.66 4.98 -3 6 C-4.99117408 6.69258229 -6.9921136 7.35747635 -9 8 C-10.83689476 9.49886871 -10.83689476 9.49886871 -12 11 C-12.66 10.34 -13.32 9.68 -14 9 C-13.24074219 8.51789062 -12.48148437 8.03578125 -11.69921875 7.5390625 C-10.70535156 6.90742187 -9.71148437 6.27578125 -8.6875 5.625 C-7.70136719 4.99851562 -6.71523437 4.37203125 -5.69921875 3.7265625 C-3.78712071 2.50348387 -1.8885966 1.2590644 0 0 Z " fill="#74B870" transform="translate(116,51)"/>
<path d="M0 0 C1.65322266 0.01740234 1.65322266 0.01740234 3.33984375 0.03515625 C4.99693359 0.04869141 4.99693359 0.04869141 6.6875 0.0625 C7.54214844 0.07410156 8.39679688 0.08570313 9.27734375 0.09765625 C8.94734375 2.73765625 8.61734375 5.37765625 8.27734375 8.09765625 C7.94734375 8.09765625 7.61734375 8.09765625 7.27734375 8.09765625 C7.27734375 5.78765625 7.27734375 3.47765625 7.27734375 1.09765625 C4.63734375 1.42765625 1.99734375 1.75765625 -0.72265625 2.09765625 C-1.05265625 3.74765625 -1.38265625 5.39765625 -1.72265625 7.09765625 C-2.38265625 7.09765625 -3.04265625 7.09765625 -3.72265625 7.09765625 C-3.76519981 5.09810879 -3.76346408 3.09723989 -3.72265625 1.09765625 C-2.72265625 0.09765625 -2.72265625 0.09765625 0 0 Z " fill="#5A5A5A" transform="translate(110.72265625,168.90234375)"/>
<path d="M0 0 C3 0.125 3 0.125 4 1.125 C4.04063832 2.79117115 4.042721 4.45888095 4 6.125 C3.01 6.62 3.01 6.62 2 7.125 C1.67 5.475 1.34 3.825 1 2.125 C0.01 1.795 -0.98 1.465 -2 1.125 C-1.67 3.435 -1.34 5.745 -1 8.125 C-1.99 7.795 -2.98 7.465 -4 7.125 C-4.04254356 5.12545254 -4.04080783 3.12458364 -4 1.125 C-3 0.125 -3 0.125 0 0 Z " fill="#666666" transform="translate(50,168.875)"/>
<path d="M0 0 C0 0.99 0 1.98 0 3 C0.99 3.33 1.98 3.66 3 4 C0.69 4.66 -1.62 5.32 -4 6 C-4 5.34 -4 4.68 -4 4 C-4.66 4 -5.32 4 -6 4 C-6 4.66 -6 5.32 -6 6 C-6.66 6 -7.32 6 -8 6 C-6.24081631 1.94034532 -4.71412298 0 0 0 Z " fill="#E3843C" transform="translate(193,136)"/>
<path d="M0 0 C0.94875 0.04125 1.8975 0.0825 2.875 0.125 C1.555 0.455 0.235 0.785 -1.125 1.125 C-1.125 3.765 -1.125 6.405 -1.125 9.125 C-0.465 9.455 0.195 9.785 0.875 10.125 C-0.775 10.455 -2.425 10.785 -4.125 11.125 C-3.795 8.815 -3.465 6.505 -3.125 4.125 C-3.785 4.125 -4.445 4.125 -5.125 4.125 C-5.125 0.41389311 -3.38352144 0.13534086 0 0 Z " fill="#ECECEC" transform="translate(169.125,167.875)"/>
<path d="M0 0 C1.32 0.33 2.64 0.66 4 1 C4.33 2.98 4.66 4.96 5 7 C3.35 7.33 1.7 7.66 0 8 C0 5.36 0 2.72 0 0 Z " fill="#EBEBEB" transform="translate(48,170)"/>
<path d="M0 0 C3.3 0 6.6 0 10 0 C10 0.66 10 1.32 10 2 C7.03 2.66 4.06 3.32 1 4 C0.67 2.68 0.34 1.36 0 0 Z " fill="#FDFCFC" transform="translate(102,151)"/>
<path d="M0 0 C0.33 0 0.66 0 1 0 C1 7.59 1 15.18 1 23 C0.01 22.34 -0.98 21.68 -2 21 C-1.84660156 20.34644531 -1.69320312 19.69289062 -1.53515625 19.01953125 C-0.86620406 15.24507841 -0.64592703 11.51094004 -0.4375 7.6875 C-0.39431641 6.94693359 -0.35113281 6.20636719 -0.30664062 5.44335938 C-0.20129568 3.62908536 -0.10021684 1.8145645 0 0 Z " fill="#F4FEEC" transform="translate(118,136)"/>
<path d="M0 0 C0.99 0.33 1.98 0.66 3 1 C4.1875 4.5625 4.1875 4.5625 5 8 C4.34 8 3.68 8 3 8 C3 7.34 3 6.68 3 6 C2.01 6 1.02 6 0 6 C0 6.66 0 7.32 0 8 C-0.66 8 -1.32 8 -2 8 C-1.34 5.36 -0.68 2.72 0 0 Z " fill="#6E6E6E" transform="translate(155,169)"/>
<path d="M0 0 C1.32 0 2.64 0 4 0 C4 2.31 4 4.62 4 7 C2.35 7.33 0.7 7.66 -1 8 C-0.67 5.36 -0.34 2.72 0 0 Z " fill="#F0F0F0" transform="translate(96,170)"/>
<path d="M0 0 C0.763125 0.0825 1.52625 0.165 2.3125 0.25 C0.9925 0.58 -0.3275 0.91 -1.6875 1.25 C-1.6875 2.24 -1.6875 3.23 -1.6875 4.25 C-2.6775 4.745 -2.6775 4.745 -3.6875 5.25 C-4.15751033 8.52555608 -4.15751033 8.52555608 -4.3125 12.3125 C-4.38726562 13.60285156 -4.46203125 14.89320313 -4.5390625 16.22265625 C-4.58804688 17.22167969 -4.63703125 18.22070312 -4.6875 19.25 C-5.0175 19.25 -5.3475 19.25 -5.6875 19.25 C-5.76867951 16.83265458 -5.82806926 14.41805051 -5.875 12 C-5.90013672 11.31808594 -5.92527344 10.63617188 -5.95117188 9.93359375 C-5.99726357 6.76863082 -5.87044762 4.58611307 -4.34375 1.78125 C-2.6875 0.25 -2.6875 0.25 0 0 Z " fill="#D7F3D1" transform="translate(129.6875,139.75)"/>
<path d="M0 0 C2.0625 0.4375 2.0625 0.4375 4 1 C3.67 1.33 3.34 1.66 3 2 C2.92633789 4.63415718 2.90773282 7.2417495 2.9375 9.875 C2.94426758 10.97521484 2.94426758 10.97521484 2.95117188 12.09765625 C2.96371498 14.06513151 2.9815937 16.03257086 3 18 C3 18.99 3 19.98 3 21 C1 19 1 19 0.8046875 15.0859375 C0.81799624 13.51550649 0.84186398 11.94513779 0.875 10.375 C0.88402344 9.57320312 0.89304687 8.77140625 0.90234375 7.9453125 C0.92593777 5.96341477 0.96180935 3.98167019 1 2 C0.34 1.67 -0.32 1.34 -1 1 C-0.67 0.67 -0.34 0.34 0 0 Z " fill="#A8A048" transform="translate(119,49)"/>
<path d="M0 0 C0.66 0.33 1.32 0.66 2 1 C2.4140625 3.28515625 2.4140625 3.28515625 2.625 6.0625 C2.69976562 6.98160156 2.77453125 7.90070313 2.8515625 8.84765625 C2.92503906 9.91306641 2.92503906 9.91306641 3 11 C2.01 10.67 1.02 10.34 0 10 C-1.49106457 7.01787087 -1.11941467 4.28390342 -1 1 C-0.67 0.67 -0.34 0.34 0 0 Z " fill="#F16808" transform="translate(186,145)"/>
<path d="M0 0 C0.75 1.75 0.75 1.75 1 4 C-0.8125 6.25 -0.8125 6.25 -3 8 C-3.66 8 -4.32 8 -5 8 C-5.33 8.99 -5.66 9.98 -6 11 C-6.66 10.67 -7.32 10.34 -8 10 C-7.25 8.0625 -7.25 8.0625 -6 6 C-5.34 5.855625 -4.68 5.71125 -4 5.5625 C-3.01 5.2840625 -3.01 5.2840625 -2 5 C-0.70339566 2.50965614 -0.70339566 2.50965614 0 0 Z " fill="#E47B31" transform="translate(132,98)"/>
<path d="M0 0 C0.33 0 0.66 0 1 0 C1.22331199 1.58129029 1.42804644 3.16521089 1.625 4.75 C1.74101562 5.63171875 1.85703125 6.5134375 1.9765625 7.421875 C2.00207817 10.22859878 1.44843844 11.63384866 0 14 C-1.17635297 11.64729407 -1.13359359 10.179248 -1.125 7.5625 C-1.12757812 6.78003906 -1.13015625 5.99757812 -1.1328125 5.19140625 C-1 3 -1 3 0 0 Z " fill="#77BB71" transform="translate(21,136)"/>
<path d="M0 0 C2.475 0.495 2.475 0.495 5 1 C5 3.64 5 6.28 5 9 C4.34 8.67 3.68 8.34 3 8 C3 7.34 3 6.68 3 6 C2.34 6 1.68 6 1 6 C0.67 4.02 0.34 2.04 0 0 Z " fill="#64B05B" transform="translate(109,140)"/>
<path d="M0 0 C1.32 0.33 2.64 0.66 4 1 C4 1.99 4 2.98 4 4 C3.01 3.67 2.02 3.34 1 3 C1.33 4.98 1.66 6.96 2 9 C0 6 0 6 -1 4 C-3.52733235 3.34444881 -3.52733235 3.34444881 -6 3 C-6 2.67 -6 2.34 -6 2 C-4.02 2 -2.04 2 0 2 C0 1.34 0 0.68 0 0 Z " fill="#82C17D" transform="translate(108,137)"/>
<path d="M0 0 C2.0625 0.4375 2.0625 0.4375 4 1 C4 2.65 4 4.3 4 6 C2.68 6 1.36 6 0 6 C-0.38218767 4.34385343 -0.71395102 2.67542976 -1 1 C-0.67 0.67 -0.34 0.34 0 0 Z " fill="#F7F7F7" transform="translate(130,170)"/>
<path d="M0 0 C1.98 0.495 1.98 0.495 4 1 C3.67 2.65 3.34 4.3 3 6 C1.68 5.67 0.36 5.34 -1 5 C-0.67 3.35 -0.34 1.7 0 0 Z " fill="#F7F7F7" transform="translate(85,170)"/>
<path d="M0 0 C0.99 0.33 1.98 0.66 3 1 C1.515 7.435 1.515 7.435 0 14 C-0.33 14 -0.66 14 -1 14 C-1.02694851 12.04174127 -1.04637218 10.08337774 -1.0625 8.125 C-1.07410156 7.03445312 -1.08570312 5.94390625 -1.09765625 4.8203125 C-1 2 -1 2 0 0 Z " fill="#C8E7C1" transform="translate(94,138)"/>
<path d="M0 0 C1.65 0 3.3 0 5 0 C4.01 0.33 3.02 0.66 2 1 C2 1.66 2 2.32 2 3 C2.66 3 3.32 3 4 3 C4 3.66 4 4.32 4 5 C3.34 5 2.68 5 2 5 C2 5.99 2 6.98 2 8 C1.34 8 0.68 8 0 8 C0 5.36 0 2.72 0 0 Z " fill="#686868" transform="translate(162,169)"/>
<path d="M0 0 C2.475 0.495 2.475 0.495 5 1 C4.67 2.32 4.34 3.64 4 5 C2.68 5 1.36 5 0 5 C0 3.35 0 1.7 0 0 Z " fill="#D8742E" transform="translate(158,126)"/>
<path d="M0 0 C0.66 0 1.32 0 2 0 C2.309375 0.928125 2.309375 0.928125 2.625 1.875 C4.54775888 4.84653645 6.66594527 5.13024659 10 6 C9.34 7.32 8.68 8.64 8 10 C7.34 9.01 6.68 8.02 6 7 C5.34 6.71125 4.68 6.4225 4 6.125 C1.28559559 4.59814752 0.91416653 2.89486068 0 0 Z " fill="#DEF6DA" transform="translate(110,98)"/>
<path d="M0 0 C0.99 0 1.98 0 3 0 C3 0.66 3 1.32 3 2 C3.99 2.33 4.98 2.66 6 3 C5.01 3.33 4.02 3.66 3 4 C1.79117904 6.00016466 1.79117904 6.00016466 1 8 C0 7 0 7 -0.0625 3.4375 C-0.041875 2.303125 -0.02125 1.16875 0 0 Z " fill="#D3F3CB" transform="translate(113,77)"/>
<path d="M0 0 C1.32 0 2.64 0 4 0 C4 1.65 4 3.3 4 5 C3.01 5 2.02 5 1 5 C0.67 5.66 0.34 6.32 0 7 C0 4.69 0 2.38 0 0 Z " fill="#C4C4C4" transform="translate(102,169)"/>
<path d="M0 0 C0 1.32 0 2.64 0 4 C-2.64 4 -5.28 4 -8 4 C-6.27302455 0.54604909 -3.70696841 0 0 0 Z " fill="#63AF5E" transform="translate(112,155)"/>
<path d="M0 0 C0.33 0 0.66 0 1 0 C1.33 2.31 1.66 4.62 2 7 C-1.63 7 -5.26 7 -9 7 C-9 6.67 -9 6.34 -9 6 C-6.36 6 -3.72 6 -1 6 C-0.67 4.02 -0.34 2.04 0 0 Z " fill="#EC670C" transform="translate(201,141)"/>
<path d="M0 0 C0.66 0 1.32 0 2 0 C2.08114106 1.77007714 2.13925505 3.54122098 2.1875 5.3125 C2.23970703 6.79169922 2.23970703 6.79169922 2.29296875 8.30078125 C2 11 2 11 -1 14 C-0.67 9.38 -0.34 4.76 0 0 Z " fill="#FFEDCB" transform="translate(131,87)"/>
<path d="M0 0 C0.33 0.66 0.66 1.32 1 2 C2.32 2.33 3.64 2.66 5 3 C2.03 4.32 -0.94 5.64 -4 7 C-3.67 5.68 -3.34 4.36 -3 3 C-2.01 2.67 -1.02 2.34 0 2 C0 1.34 0 0.68 0 0 Z " fill="#D37E3F" transform="translate(128,84)"/>
<path d="M0 0 C1.9375 0.625 1.9375 0.625 4 2 C4.75 5.125 4.75 5.125 5 8 C4.01 8.495 4.01 8.495 3 9 C2.67 7.35 2.34 5.7 2 4 C0.68 4 -0.64 4 -2 4 C-1.34 2.68 -0.68 1.36 0 0 Z " fill="#EEDCAF" transform="translate(120,68)"/>
<path d="M0 0 C0.33 0 0.66 0 1 0 C1 2.64 1 5.28 1 8 C1.66 8 2.32 8 3 8 C3 8.99 3 9.98 3 11 C3.66 11.33 4.32 11.66 5 12 C3.68 12.33 2.36 12.66 1 13 C0.1276588 10.00519083 -0.10829766 7.36424089 -0.0625 4.25 C-0.05347656 3.45078125 -0.04445312 2.6515625 -0.03515625 1.828125 C-0.02355469 1.22484375 -0.01195312 0.6215625 0 0 Z " fill="#72BA68" transform="translate(42,146)"/>
<path d="M0 0 C0.66 0.66 1.32 1.32 2 2 C1.625 4.125 1.625 4.125 1 6 C-0.32 6 -1.64 6 -3 6 C-3.66 4.68 -4.32 3.36 -5 2 C-3.35 1.34 -1.7 0.68 0 0 Z " fill="#6CB866" transform="translate(137,138)"/>
<path d="M0 0 C3.55780196 0.60990891 6.6828589 1.5783681 10 3 C10 3.99 10 4.98 10 6 C8.68 5.67 7.36 5.34 6 5 C6 4.34 6 3.68 6 3 C4.02 2.34 2.04 1.68 0 1 C0 0.67 0 0.34 0 0 Z " fill="#FDE5C8" transform="translate(130,54)"/>
<path d="M0 0 C3.3 0 6.6 0 10 0 C10 0.99 10 1.98 10 3 C6.7 2.34 3.4 1.68 0 1 C0 0.67 0 0.34 0 0 Z " fill="#7ABC72" transform="translate(32,155)"/>
<path d="M0 0 C0.99 0 1.98 0 3 0 C3 1.98 3 3.96 3 6 C1.68 5.34 0.36 4.68 -1 4 C-0.67 2.68 -0.34 1.36 0 0 Z " fill="#52B148" transform="translate(71,146)"/>
<path d="M0 0 C4.62 0 9.24 0 14 0 C14 0.33 14 0.66 14 1 C13.05125 1.309375 12.1025 1.61875 11.125 1.9375 C8.13919592 2.87394742 8.13919592 2.87394742 6 4 C6 3.01 6 2.02 6 1 C4.02 1 2.04 1 0 1 C0 0.67 0 0.34 0 0 Z " fill="#E9FDE7" transform="translate(53,135)"/>
<path d="M0 0 C0.66 0 1.32 0 2 0 C2 1.98 2 3.96 2 6 C0.68 6 -0.64 6 -2 6 C-2 4.68 -2 3.36 -2 2 C-1.34 2 -0.68 2 0 2 C0 1.34 0 0.68 0 0 Z " fill="#E66D1A" transform="translate(187,140)"/>
<path d="M0 0 C0 1.32 0 2.64 0 4 C-2.64 4.33 -5.28 4.66 -8 5 C-3.22727273 0 -3.22727273 0 0 0 Z " fill="#FBE2C2" transform="translate(141,112)"/>
<path d="M0 0 C1.32 0.33 2.64 0.66 4 1 C4 2.32 4 3.64 4 5 C2.68 5 1.36 5 0 5 C0 3.35 0 1.7 0 0 Z " fill="#FAFBF8" transform="translate(119,71)"/>
<path d="M0 0 C1.5 1.375 1.5 1.375 3 3 C3 3.66 3 4.32 3 5 C1.35 5.33 -0.3 5.66 -2 6 C-2.66 5.01 -3.32 4.02 -4 3 C-2.68 3 -1.36 3 0 3 C0 2.01 0 1.02 0 0 Z " fill="#78BE71" transform="translate(28,152)"/>
<path d="M0 0 C0.33 0 0.66 0 1 0 C1.268125 1.134375 1.53625 2.26875 1.8125 3.4375 C2.204375 4.613125 2.59625 5.78875 3 7 C3.99 7.33 4.98 7.66 6 8 C5.67 8.66 5.34 9.32 5 10 C3.68 10 2.36 10 1 10 C-0.60725635 6.78548731 -0.05748185 3.56387464 0 0 Z " fill="#75B670" transform="translate(69,144)"/>
<path d="M0 0 C0 0.66 0 1.32 0 2 C-4.15267176 5.11450382 -4.15267176 5.11450382 -7.3125 4.6875 C-7.869375 4.460625 -8.42625 4.23375 -9 4 C-2.25 0 -2.25 0 0 0 Z " fill="#FCE3C5" transform="translate(150,107)"/>
<path d="M0 0 C0.99 1.485 0.99 1.485 2 3 C3.32381517 4.67423683 4.65576661 6.34211215 6 8 C4.02 8 2.04 8 0 8 C0 5.36 0 2.72 0 0 Z " fill="#D9EED6" transform="translate(94,152)"/>
<path d="M0 0 C1.32 0 2.64 0 4 0 C4 0.66 4 1.32 4 2 C4.66 2 5.32 2 6 2 C6 2.66 6 3.32 6 4 C3.03 3.505 3.03 3.505 0 3 C0 2.01 0 1.02 0 0 Z " fill="#DB6B16" transform="translate(193,136)"/>
<path d="M0 0 C0.33 0 0.66 0 1 0 C1 1.98 1 3.96 1 6 C-0.98 6.99 -2.96 7.98 -5 9 C-4.34 7.68 -3.68 6.36 -3 5 C-2.01 5 -1.02 5 0 5 C0 3.35 0 1.7 0 0 Z " fill="#DB7B36" transform="translate(150,100)"/>
</svg>
