<?xml version="1.0" encoding="UTF-8"?>
<svg version="1.1" xmlns="http://www.w3.org/2000/svg" width="225" height="225">
<path d="M0 0 C74.25 0 148.5 0 225 0 C225 74.25 225 148.5 225 225 C150.75 225 76.5 225 0 225 C0 150.75 0 76.5 0 0 Z " fill="#FCFDFC" transform="translate(0,0)"/>
<path d="M0 0 C8.80707072 0.11291116 16.43483119 7.13860156 22.5859375 12.82421875 C24.6953125 15.15234375 24.6953125 15.15234375 24.6953125 17.15234375 C25.3553125 17.15234375 26.0153125 17.15234375 26.6953125 17.15234375 C27.6853125 19.13234375 27.6853125 19.13234375 28.6953125 21.15234375 C29.3553125 21.15234375 30.0153125 21.15234375 30.6953125 21.15234375 C34.49600591 27.57446404 35.27093907 32.31805905 35.0703125 39.71484375 C35.06902344 40.62169922 35.06773437 41.52855469 35.06640625 42.46289062 C34.9644466 50.27413302 34.13980958 56.16339696 28.6953125 62.15234375 C26.85352861 55.01543117 26.61187315 48.51260872 27.015625 41.15625 C27.0111202 38.040106 27.0111202 38.040106 24.6875 36.2421875 C23.70136719 35.70271484 23.70136719 35.70271484 22.6953125 35.15234375 C23.1903125 34.16234375 23.1903125 34.16234375 23.6953125 33.15234375 C23.0353125 32.16234375 22.3753125 31.17234375 21.6953125 30.15234375 C22.6853125 30.15234375 23.6753125 30.15234375 24.6953125 30.15234375 C23.7053125 29.16234375 22.7153125 28.17234375 21.6953125 27.15234375 C23.0153125 27.15234375 24.3353125 27.15234375 25.6953125 27.15234375 C25.0765625 26.90484375 24.4578125 26.65734375 23.8203125 26.40234375 C21.25281434 24.89205071 20.97715521 23.79143167 19.6953125 21.15234375 C17.14814685 18.40924229 14.81391234 16.23141031 11.6953125 14.15234375 C9.36331862 14.07329311 7.02698628 14.06435606 4.6953125 14.15234375 C4.6953125 13.49234375 4.6953125 12.83234375 4.6953125 12.15234375 C1.74801713 10.99422987 1.74801713 10.99422987 -1.3046875 11.15234375 C-1.3046875 12.14234375 -1.3046875 13.13234375 -1.3046875 14.15234375 C-1.9646875 15.14234375 -2.6246875 16.13234375 -3.3046875 17.15234375 C-1.6546875 16.82234375 -0.0046875 16.49234375 1.6953125 16.15234375 C1.2003125 17.63734375 1.2003125 17.63734375 0.6953125 19.15234375 C0.0353125 19.15234375 -0.6246875 19.15234375 -1.3046875 19.15234375 C-1.6346875 20.47234375 -1.9646875 21.79234375 -2.3046875 23.15234375 C-1.71300781 23.04535156 -1.12132812 22.93835938 -0.51171875 22.828125 C6.02292828 21.83673483 6.02292828 21.83673483 9.7578125 23.58984375 C10.3971875 24.10546875 11.0365625 24.62109375 11.6953125 25.15234375 C9.1722032 26.4138984 7.20281296 26.37046955 4.3828125 26.52734375 C-2.37062109 27.02668854 -8.7574437 28.47329252 -15.3046875 30.15234375 C-12.7392281 32.71780315 -10.82782082 32.69280462 -7.3046875 33.15234375 C-7.3046875 34.14234375 -7.3046875 35.13234375 -7.3046875 36.15234375 C-8.2946875 36.15234375 -9.2846875 36.15234375 -10.3046875 36.15234375 C-10.3046875 37.14234375 -10.3046875 38.13234375 -10.3046875 39.15234375 C-9.3146875 38.82234375 -8.3246875 38.49234375 -7.3046875 38.15234375 C-6.8921875 36.99734375 -6.4796875 35.84234375 -6.0546875 34.65234375 C-5.4771875 33.49734375 -4.8996875 32.34234375 -4.3046875 31.15234375 C-0.7421875 30.08984375 -0.7421875 30.08984375 2.6953125 30.15234375 C5.05484344 32.51187469 5.18672663 33.93129992 5.6953125 37.15234375 C4.7053125 37.15234375 3.7153125 37.15234375 2.6953125 37.15234375 C2.3653125 38.47234375 2.0353125 39.79234375 1.6953125 41.15234375 C2.6853125 40.49234375 3.6753125 39.83234375 4.6953125 39.15234375 C7.10546875 39.10546875 7.10546875 39.10546875 9.7578125 39.40234375 C10.63566406 39.49 11.51351562 39.57765625 12.41796875 39.66796875 C14.6953125 40.15234375 14.6953125 40.15234375 16.6953125 42.15234375 C16.81482247 47.13192566 15.91062237 52.72172401 13.6953125 57.15234375 C9.29799654 61.54965971 3.66305073 63.7298015 -2.3046875 65.15234375 C-3.2946875 65.15234375 -4.2846875 65.15234375 -5.3046875 65.15234375 C-5.3046875 66.14234375 -5.3046875 67.13234375 -5.3046875 68.15234375 C-2.3346875 68.64734375 -2.3346875 68.64734375 0.6953125 69.15234375 C0.6953125 68.49234375 0.6953125 67.83234375 0.6953125 67.15234375 C1.7059375 67.11109375 2.7165625 67.06984375 3.7578125 67.02734375 C8.57736046 66.3430266 11.45063383 63.61614357 14.6953125 60.15234375 C19.04788858 54.29887937 20.49967198 47.35265843 19.6953125 40.15234375 C18.36723331 32.58229237 15.46852714 27.25534814 9.6953125 22.15234375 C7.40721684 20.57955566 5.19880051 19.37854196 2.6953125 18.15234375 C3.6853125 17.82234375 4.6753125 17.49234375 5.6953125 17.15234375 C12.22705948 20.66418261 18.50153513 26.87120319 21.18359375 33.84765625 C23.07253181 42.35508719 22.86944493 51.34551942 18.3671875 58.93359375 C12.85965345 66.24265763 6.80939788 70.72912321 -2.3046875 72.15234375 C-11.49661187 73.31121101 -17.9004605 71.11333664 -25.30859375 65.68359375 C-31.06998958 60.60659699 -34.69905476 53.22257679 -35.609375 45.6015625 C-35.6171875 43.40234375 -35.6171875 43.40234375 -35.3046875 40.15234375 C-38.42666228 41.46130095 -38.42666228 41.46130095 -40.3046875 44.15234375 C-41.2946875 43.49234375 -42.2846875 42.83234375 -43.3046875 42.15234375 C-42.6446875 43.47234375 -41.9846875 44.79234375 -41.3046875 46.15234375 C-43.3046875 44.15234375 -45.3046875 42.15234375 -47.3046875 40.15234375 C-47.7996875 42.62734375 -47.7996875 42.62734375 -48.3046875 45.15234375 C-48.9646875 45.15234375 -49.6246875 45.15234375 -50.3046875 45.15234375 C-50.62734455 39.12941209 -49.83976439 34.66378869 -47.3046875 29.15234375 C-46.83289063 28.11722656 -46.36109375 27.08210938 -45.875 26.015625 C-42.87191405 19.70316821 -42.87191405 19.70316821 -41.3046875 17.15234375 C-40.3146875 16.82234375 -39.3246875 16.49234375 -38.3046875 16.15234375 C-37.9746875 15.16234375 -37.6446875 14.17234375 -37.3046875 13.15234375 C-36.6446875 12.49234375 -35.9846875 11.83234375 -35.3046875 11.15234375 C-35.0159375 10.49492188 -34.7271875 9.8375 -34.4296875 9.16015625 C-32.32863744 5.41036551 -28.20604194 4.4966083 -24.3046875 3.15234375 C-16.32909764 0.95352697 -8.21078682 0.54274693 0 0 Z " fill="#A49279" transform="translate(120.3046875,39.84765625)"/>
<path d="M0 0 C0.495 0.99 0.495 0.99 1 2 C1.99 1.67 2.98 1.34 4 1 C8.17023918 0.8455467 11.94146318 1.01611229 16 2 C16 3.65 16 5.3 16 7 C15.34 7 14.68 7 14 7 C13.62875 6.505 13.2575 6.01 12.875 5.5 C10.2543586 3.40348688 8.15906286 3.50923424 4.875 3.66015625 C2.84408653 3.88375515 2.84408653 3.88375515 1 5.5 C-0.4094215 9.02355374 -0.55910621 12.29224305 0 16 C1.72967713 19.74547604 1.72967713 19.74547604 5 22 C6.37342831 22.0689472 7.75002102 22.08467708 9.125 22.0625 C11.043125 22.0315625 11.043125 22.0315625 13 22 C13.495 20.515 13.495 20.515 14 19 C14.66 19 15.32 19 16 19 C16 20.32 16 21.64 16 23 C16.99 22.505 16.99 22.505 18 22 C18.17926852 19.75473532 18.26811465 17.50197261 18.3125 15.25 C18.70120313 8.41993074 18.70120313 8.41993074 21.3125 4.75 C22.199375 4.1725 23.08625 3.595 24 3 C24.61875 2.566875 25.2375 2.13375 25.875 1.6875 C30.18521771 0.2930178 34.71631721 0.62922151 39 2 C39 3.65 39 5.3 39 7 C38.44828125 6.50886719 37.8965625 6.01773438 37.328125 5.51171875 C34.53629931 3.69890576 33.03814259 3.6827049 29.75 3.8125 C28.85796875 3.83957031 27.9659375 3.86664063 27.046875 3.89453125 C26.03367188 3.94673828 26.03367188 3.94673828 25 4 C23.55703469 9.22493083 23.05960144 13.99096671 25.375 18.9375 C26.83921726 21.09702406 26.83921726 21.09702406 29 22 C32.67329964 22.13357453 35.49852959 22.1671568 39 21 C39.08226668 24.04386724 38.97608217 26.07175348 38 29 C47.24 29 56.48 29 66 29 C66.33 28.01 66.66 27.02 67 26 C62.5450505 25.42250655 58.30357138 24.93727549 53.8125 25.25 C48.77305066 24.91954431 47.46787538 23.55245771 44 20 C42.14756084 16.29512168 42.5414838 12.04385812 43 8 C45.33212237 3.85400468 47.53470747 2.38620345 52 1 C54.64607209 0.86289782 57.17469013 0.80937028 59.8125 0.875 C60.85180664 0.88853516 60.85180664 0.88853516 61.91210938 0.90234375 C63.60822395 0.92573843 65.30415871 0.96160359 67 1 C67.33 2.32 67.66 3.64 68 5 C69.65 4.67 71.3 4.34 73 4 C73 3.34 73 2.68 73 2 C80.03071463 0.72168825 88.15132811 -0.28289063 95 2 C94.67 4.31 94.34 6.62 94 9 C93.01 9.33 92.02 9.66 91 10 C90.67 10.66 90.34 11.32 90 12 C92.39068734 13.10636395 92.39068734 13.10636395 95 14 C95.66 13.67 96.32 13.34 97 13 C96.690625 13.598125 96.38125 14.19625 96.0625 14.8125 C94.16899504 18.71089256 93.90467873 21.71054303 94 26 C93.01 26.33 92.02 26.66 91 27 C97.25948114 29.13391403 103.42208127 29.58955515 110 30 C110 30.66 110 31.32 110 32 C51.92 32 -6.16 32 -66 32 C-66 31.34 -66 30.68 -66 30 C-65.23445801 29.97494385 -64.46891602 29.9498877 -63.68017578 29.92407227 C-60.16166069 29.80696546 -56.64333945 29.68476595 -53.125 29.5625 C-51.92101562 29.52318359 -50.71703125 29.48386719 -49.4765625 29.44335938 C-42.61493058 29.20096477 -35.81999001 28.80252553 -29 28 C-29.495 26.515 -29.495 26.515 -30 25 C-30.99 25.495 -30.99 25.495 -32 26 C-32.66 25.67 -33.32 25.34 -34 25 C-34 25.66 -34 26.32 -34 27 C-34.99 26.67 -35.98 26.34 -37 26 C-39.22574335 25.77548542 -41.45581519 25.59217122 -43.6875 25.4375 C-44.86699219 25.35371094 -46.04648437 25.26992187 -47.26171875 25.18359375 C-48.61716797 25.09271484 -48.61716797 25.09271484 -50 25 C-50 24.34 -50 23.68 -50 23 C-49.34 23 -48.68 23 -48 23 C-48 16.07 -48 9.14 -48 2 C-46.35 2 -44.7 2 -43 2 C-43 8.93 -43 15.86 -43 23 C-40.69 23 -38.38 23 -36 23 C-34.45650219 19.69250469 -33.72221728 16.57263907 -33.125 13 C-32.14706348 7.86583327 -30.49098489 4.80381665 -26.1875 1.6875 C-22.28931451 0.46235599 -18.75197853 0.23392574 -14.9453125 1.8984375 C-13.58021925 2.62477014 -12.22063073 3.36155812 -10.8671875 4.109375 C-8.49933627 5.23881031 -6.58593425 5.32324178 -4 5 C-3.67 4.01 -3.34 3.02 -3 2 C-1.515 1.01 -1.515 1.01 0 0 Z " fill="#B8C8C1" transform="translate(93,139)"/>
<path d="M0 0 C0.66 0.33 1.32 0.66 2 1 C2.66 1 3.32 1 4 1 C4.99 1.33 5.98 1.66 7 2 C7 2.33 7 2.66 7 3 C7.66 3.33 8.32 3.66 9 4 C9.495 4.495 9.495 4.495 10 5 C10.721875 5.103125 11.44375 5.20625 12.1875 5.3125 C17.51472971 6.61471171 20.92046168 9.60065954 24 14 C24.99 14.66 25.98 15.32 27 16 C26.34 16.33 25.68 16.66 25 17 C26.32 17.66 27.64 18.32 29 19 C27.68 19.33 26.36 19.66 25 20 C26.32 20.99 27.64 21.98 29 23 C27.68 23 26.36 23 25 23 C25.99 23.99 26.98 24.98 28 26 C27.34 26.33 26.68 26.66 26 27 C26.98613281 27.48339844 26.98613281 27.48339844 27.9921875 27.9765625 C30 30 30 30 30.3203125 33.8359375 C30.27516564 35.34968528 30.20928788 36.86292654 30.125 38.375 C29.75898044 45.39466522 29.75898044 45.39466522 32 52 C32.99 51.01 33.98 50.02 35 49 C34.60266847 54.8606401 34.128016 57.573246 30 62 C27.8360048 63.81743423 25.56893534 65.44932759 23.25 67.0625 C22.63036377 67.50078125 22.01072754 67.9390625 21.37231445 68.390625 C17.08102264 71.37821193 12.73335734 73.77253772 8 76 C7.67 76.66 7.34 77.32 7 78 C-3.50533495 82.04051344 -17.60550533 76.12692056 -27.625 72.3125 C-34.05780363 69.39181731 -37.0209518 66.31558218 -40 60 C-40.46921875 59.11828125 -40.9384375 58.2365625 -41.421875 57.328125 C-45.12150676 49.97043038 -47.4485887 42.16196233 -45 34 C-43.35 34.99 -41.7 35.98 -40 37 C-40.66 35.35 -41.32 33.7 -42 32 C-40.68 32.66 -39.36 33.32 -38 34 C-37.67 33.34 -37.34 32.68 -37 32 C-35.68 32 -34.36 32 -33 32 C-32.91363281 32.67804688 -32.82726562 33.35609375 -32.73828125 34.0546875 C-31.21499898 44.14468564 -28.20525252 52.13670471 -20.02734375 58.59375 C-12.76935214 63.62819505 -5.85442333 63.95846754 2.6484375 62.56640625 C10.11257251 60.71759742 15.03821996 56.97065889 19.60546875 50.84765625 C23.88298477 43.64657186 24.07406592 36.16994403 23 28 C20.86098969 20.62139564 16.36694685 15.24463123 10 11 C9.34 11 8.68 11 8 11 C8.86625 11.515625 9.7325 12.03125 10.625 12.5625 C17.06712044 16.93339495 20.61411203 21.96900099 22.53125 29.5234375 C23.83737757 36.42414483 23.1384804 42.67899036 20 49 C16.85564808 53.45643951 13.17461474 57.95738892 8 60 C5.1875 59.6875 5.1875 59.6875 3 59 C3 59.66 3 60.32 3 61 C0.03 60.505 0.03 60.505 -3 60 C-3 59.01 -3 58.02 -3 57 C-1.57107422 56.52820313 -1.57107422 56.52820313 -0.11328125 56.046875 C1.15382851 55.61511908 2.42074553 55.18279723 3.6875 54.75 C4.92886719 54.33234375 6.17023438 53.9146875 7.44921875 53.484375 C10.92417925 52.03169624 13.30440739 50.61390799 16 48 C16.41870553 45.33071879 16.41870553 45.33071879 16 43 C16.66 43 17.32 43 18 43 C18.02689216 41.52093108 18.04634621 40.04172517 18.0625 38.5625 C18.07410156 37.73878906 18.08570313 36.91507813 18.09765625 36.06640625 C18.23267348 34.00836062 18.23267348 34.00836062 17 33 C15.3826026 32.73912945 13.75493414 32.54035564 12.125 32.375 C11.24070313 32.27960938 10.35640625 32.18421875 9.4453125 32.0859375 C6.86015544 31.85253019 6.86015544 31.85253019 4 33 C4.375 31.0625 4.375 31.0625 5 29 C5.66 28.67 6.32 28.34 7 28 C6.34 26.35 5.68 24.7 5 23 C2.69 23 0.38 23 -2 23 C-2.185625 24.1446875 -2.185625 24.1446875 -2.375 25.3125 C-3 28 -3 28 -5 31 C-5.99 31 -6.98 31 -8 31 C-7.67 29.35 -7.34 27.7 -7 26 C-9.31 25.01 -11.62 24.02 -14 23 C-13 21 -13 21 -11.25341797 20.40576172 C-10.50721191 20.24865723 -9.76100586 20.09155273 -8.9921875 19.9296875 C-7.75855469 19.66865234 -7.75855469 19.66865234 -6.5 19.40234375 C-5.63375 19.22832031 -4.7675 19.05429688 -3.875 18.875 C-3.03195313 18.69324219 -2.18890625 18.51148437 -1.3203125 18.32421875 C3.55432617 17.31749989 8.02491307 16.79776069 13 17 C8.56906802 15.18698242 8.56906802 15.18698242 4 16 C1.8125 15.5625 1.8125 15.5625 0 15 C0.56371414 11.73045798 1.49962266 10.17424117 4 8 C2.35 8.33 0.7 8.66 -1 9 C-0.67 6.03 -0.34 3.06 0 0 Z " fill="#EBE6DC" transform="translate(118,48)"/>
<path d="M0 0 C6.68500826 0.76536767 10.60000696 5.23643249 15 10 C20.19280996 17.00302616 20.00033858 25.64002759 19 34 C16.80581505 41.84843079 11.71324538 47.53521001 5 52 C-2.25149795 55.47931323 -10.96120701 56.6574977 -18.671875 54.12109375 C-26.82496853 50.37808263 -32.94277139 44.9484708 -36.35546875 36.5546875 C-37.56725998 31.7515877 -37.29916493 26.91129095 -37 22 C-36.67 22 -36.34 22 -36 22 C-35.95101562 22.73605469 -35.90203125 23.47210938 -35.8515625 24.23046875 C-35.77679688 25.20628906 -35.70203125 26.18210937 -35.625 27.1875 C-35.55539063 28.15042969 -35.48578125 29.11335938 -35.4140625 30.10546875 C-34.99784147 33.01508938 -34.20125904 35.32890774 -33 38 C-29.9890638 35.9927092 -29.36983503 35.16115776 -28 32 C-29.32 31.67 -30.64 31.34 -32 31 C-32.1953125 24.9453125 -32.1953125 24.9453125 -32 23 C-30 21 -30 21 -26.4375 20.75 C-23.17923393 20.79747929 -20.3831343 21.37997262 -17.25 22.25 C-15.04536293 22.84006234 -15.04536293 22.84006234 -13 23 C-9.47624385 20.74118196 -8.30061051 17.90183154 -7 14 C-3.625 13.375 -3.625 13.375 0 13 C2.35953094 15.35953094 2.49141413 16.77895617 3 20 C2.01 20 1.02 20 0 20 C-0.33 21.32 -0.66 22.64 -1 24 C-0.01 23.34 0.98 22.68 2 22 C4.41015625 21.953125 4.41015625 21.953125 7.0625 22.25 C7.94035156 22.33765625 8.81820312 22.4253125 9.72265625 22.515625 C12 23 12 23 14 25 C14.11950997 29.97958191 13.21530987 35.56938026 11 40 C6.60268404 44.39731596 0.96773823 46.57745775 -5 48 C-5.99 48 -6.98 48 -8 48 C-8 48.99 -8 49.98 -8 51 C-6.02 51.33 -4.04 51.66 -2 52 C-2 51.34 -2 50.68 -2 50 C-0.989375 49.95875 0.02125 49.9175 1.0625 49.875 C5.88204796 49.19068285 8.75532133 46.46379982 12 43 C16.35257608 37.14653562 17.80435948 30.20031468 17 23 C15.67192081 15.42994862 12.77321464 10.10300439 7 5 C4.71190434 3.42721191 2.50348801 2.22619821 0 1 C0 0.67 0 0.34 0 0 Z " fill="#1C211E" transform="translate(123,57)"/>
<path d="M0 0 C1.03930664 0.01353516 1.03930664 0.01353516 2.09960938 0.02734375 C3.79572395 0.05073843 5.49165871 0.08660359 7.1875 0.125 C7.5175 1.445 7.8475 2.765 8.1875 4.125 C9.8375 3.795 11.4875 3.465 13.1875 3.125 C13.1875 2.465 13.1875 1.805 13.1875 1.125 C20.21821463 -0.15331175 28.33882811 -1.15789063 35.1875 1.125 C34.8575 3.435 34.5275 5.745 34.1875 8.125 C33.1975 8.455 32.2075 8.785 31.1875 9.125 C30.8575 9.785 30.5275 10.445 30.1875 11.125 C32.57818734 12.23136395 32.57818734 12.23136395 35.1875 13.125 C35.8475 12.795 36.5075 12.465 37.1875 12.125 C36.878125 12.723125 36.56875 13.32125 36.25 13.9375 C34.35649504 17.83589256 34.09217873 20.83554303 34.1875 25.125 C33.1975 25.455 32.2075 25.785 31.1875 26.125 C33.4975 26.785 35.8075 27.445 38.1875 28.125 C38.1875 28.455 38.1875 28.785 38.1875 29.125 C34.11242428 29.17446866 30.03746503 29.21075189 25.9621582 29.23486328 C24.57605952 29.2449157 23.18998201 29.2585597 21.80395508 29.27587891 C19.8108025 29.30015952 17.81749467 29.31042031 15.82421875 29.3203125 C14.02537231 29.33602295 14.02537231 29.33602295 12.19018555 29.35205078 C9.1875 29.125 9.1875 29.125 6.1875 27.125 C6.5175 26.465 6.8475 25.805 7.1875 25.125 C2.7325505 24.54750655 -1.50892862 24.06227549 -6 24.375 C-11.03944934 24.04454431 -12.34462462 22.67745771 -15.8125 19.125 C-17.66493916 15.42012168 -17.2710162 11.16885812 -16.8125 7.125 C-12.94209586 0.24428153 -7.3377833 -0.18256686 0 0 Z " fill="#F0FBF6" transform="translate(152.8125,139.875)"/>
<path d="M0 0 C0.98484375 0.00902344 1.9696875 0.01804688 2.984375 0.02734375 C4.10585937 0.04474609 4.10585937 0.04474609 5.25 0.0625 C6.375 2.875 6.375 2.875 7.25 6.0625 C6.59 7.0525 5.93 8.0425 5.25 9.0625 C6.9 8.7325 8.55 8.4025 10.25 8.0625 C9.92 9.0525 9.59 10.0425 9.25 11.0625 C8.59 11.0625 7.93 11.0625 7.25 11.0625 C6.92 12.3825 6.59 13.7025 6.25 15.0625 C6.84167969 14.95550781 7.43335938 14.84851562 8.04296875 14.73828125 C14.57761578 13.74689108 14.57761578 13.74689108 18.3125 15.5 C18.951875 16.015625 19.59125 16.53125 20.25 17.0625 C17.7268907 18.32405465 15.75750046 18.2806258 12.9375 18.4375 C6.18406641 18.93684479 -0.2027562 20.38344877 -6.75 22.0625 C-4.1845406 24.6279594 -2.27313332 24.60296087 1.25 25.0625 C1.25 26.0525 1.25 27.0425 1.25 28.0625 C0.26 28.0625 -0.73 28.0625 -1.75 28.0625 C-1.75 29.0525 -1.75 30.0425 -1.75 31.0625 C-1.09 31.3925 -0.43 31.7225 0.25 32.0625 C-2.66751587 33.22950635 -3.90713101 33.01717375 -7 32.125 C-11.23932264 30.92385859 -14.37268137 30.83608697 -18.75 31.0625 C-20.24743119 32.55993119 -20.08202693 34.05074239 -20.3125 36.125 C-20.456875 37.424375 -20.60125 38.72375 -20.75 40.0625 C-17.45 40.0625 -14.15 40.0625 -10.75 40.0625 C-10.75 40.3925 -10.75 40.7225 -10.75 41.0625 C-11.678125 41.124375 -12.60625 41.18625 -13.5625 41.25 C-16.9440019 41.73093898 -16.9440019 41.73093898 -18.4375 44.625 C-19.0871875 45.8315625 -19.0871875 45.8315625 -19.75 47.0625 C-20.74 47.0625 -21.73 47.0625 -22.75 47.0625 C-24.235 43.5975 -24.235 43.5975 -25.75 40.0625 C-26.08 40.0625 -26.41 40.0625 -26.75 40.0625 C-26.75 37.4225 -26.75 34.7825 -26.75 32.0625 C-28.235 32.5575 -28.235 32.5575 -29.75 33.0625 C-30.41 31.4125 -31.07 29.7625 -31.75 28.0625 C-31.09 27.7325 -30.43 27.4025 -29.75 27.0625 C-29.9975 26.051875 -30.245 25.04125 -30.5 24 C-30.81280029 19.07339551 -29.51263549 16.96496412 -26.75 13.0625 C-26.21375 12.258125 -25.6775 11.45375 -25.125 10.625 C-24.67125 10.109375 -24.2175 9.59375 -23.75 9.0625 C-23.09 9.0625 -22.43 9.0625 -21.75 9.0625 C-21.42 7.4125 -21.09 5.7625 -20.75 4.0625 C-20.09 4.0625 -19.43 4.0625 -18.75 4.0625 C-18.75 5.3825 -18.75 6.7025 -18.75 8.0625 C-18.42 6.7425 -18.09 5.4225 -17.75 4.0625 C-17.09 4.3925 -16.43 4.7225 -15.75 5.0625 C-16.08 6.0525 -16.41 7.0425 -16.75 8.0625 C-16.09 8.0625 -15.43 8.0625 -14.75 8.0625 C-14.42 7.0725 -14.09 6.0825 -13.75 5.0625 C-13.75 5.7225 -13.75 6.3825 -13.75 7.0625 C-13.09 7.0625 -12.43 7.0625 -11.75 7.0625 C-11.5025 6.093125 -11.255 5.12375 -11 4.125 C-10.5875 3.114375 -10.175 2.10375 -9.75 1.0625 C-6.58006264 -0.20547495 -3.37545652 -0.04018401 0 0 Z " fill="#F3F2EF" transform="translate(111.75,47.9375)"/>
<path d="M0 0 C0.66 0.33 1.32 0.66 2 1 C2.66 1 3.32 1 4 1 C4.99 1.33 5.98 1.66 7 2 C7 2.33 7 2.66 7 3 C7.66 3.33 8.32 3.66 9 4 C9.33 4.33 9.66 4.66 10 5 C11.0828125 5.1546875 11.0828125 5.1546875 12.1875 5.3125 C17.51472971 6.61471171 20.92046168 9.60065954 24 14 C24.99 14.66 25.98 15.32 27 16 C26.01 16.495 26.01 16.495 25 17 C26.32 17.66 27.64 18.32 29 19 C27.68 19.33 26.36 19.66 25 20 C26.32 20.99 27.64 21.98 29 23 C27.68 23 26.36 23 25 23 C25.99 23.99 26.98 24.98 28 26 C27.01 26.495 27.01 26.495 26 27 C26.65484375 27.36738281 27.3096875 27.73476562 27.984375 28.11328125 C30 30 30 30 30.390625 32.91796875 C30.34421875 33.99691406 30.2978125 35.07585937 30.25 36.1875 C30.21390625 37.27417969 30.1778125 38.36085937 30.140625 39.48046875 C30.09421875 40.31191406 30.0478125 41.14335938 30 42 C28.68 42 27.36 42 26 42 C26 41.34 26 40.68 26 40 C25.34 40 24.68 40 24 40 C23.98582031 39.24976563 23.97164062 38.49953125 23.95703125 37.7265625 C23.55628926 29.12685604 21.97299724 22.23938594 15.9609375 15.82421875 C12.47653263 12.29137109 12.47653263 12.29137109 8 11 C8.86625 11.515625 9.7325 12.03125 10.625 12.5625 C17.06712044 16.93339495 20.61411203 21.96900099 22.53125 29.5234375 C23.83737757 36.42414483 23.1384804 42.67899036 20 49 C16.85564808 53.45643951 13.17461474 57.95738892 8 60 C5.1875 59.6875 5.1875 59.6875 3 59 C3 59.66 3 60.32 3 61 C1.02 60.67 -0.96 60.34 -3 60 C-3 59.01 -3 58.02 -3 57 C-2.04738281 56.68546875 -1.09476563 56.3709375 -0.11328125 56.046875 C1.15382851 55.61511908 2.42074553 55.18279723 3.6875 54.75 C4.92886719 54.33234375 6.17023438 53.9146875 7.44921875 53.484375 C10.92417925 52.03169624 13.30440739 50.61390799 16 48 C16.41870553 45.33071879 16.41870553 45.33071879 16 43 C16.66 43 17.32 43 18 43 C18.02689216 41.52093108 18.04634621 40.04172517 18.0625 38.5625 C18.07410156 37.73878906 18.08570313 36.91507813 18.09765625 36.06640625 C18.23267348 34.00836062 18.23267348 34.00836062 17 33 C15.3826026 32.73912945 13.75493414 32.54035564 12.125 32.375 C10.79855469 32.23191406 10.79855469 32.23191406 9.4453125 32.0859375 C6.86015544 31.85253019 6.86015544 31.85253019 4 33 C4.375 31.0625 4.375 31.0625 5 29 C5.66 28.67 6.32 28.34 7 28 C6.34 26.35 5.68 24.7 5 23 C2.69 23 0.38 23 -2 23 C-2.12375 23.763125 -2.2475 24.52625 -2.375 25.3125 C-3 28 -3 28 -5 31 C-5.99 31 -6.98 31 -8 31 C-7.67 29.35 -7.34 27.7 -7 26 C-9.31 25.01 -11.62 24.02 -14 23 C-13 21 -13 21 -11.25341797 20.40576172 C-10.50721191 20.24865723 -9.76100586 20.09155273 -8.9921875 19.9296875 C-8.16976562 19.75566406 -7.34734375 19.58164063 -6.5 19.40234375 C-5.63375 19.22832031 -4.7675 19.05429688 -3.875 18.875 C-3.03195313 18.69324219 -2.18890625 18.51148437 -1.3203125 18.32421875 C3.55432617 17.31749989 8.02491307 16.79776069 13 17 C8.56906802 15.18698242 8.56906802 15.18698242 4 16 C1.8125 15.5625 1.8125 15.5625 0 15 C0.56371414 11.73045798 1.49962266 10.17424117 4 8 C2.35 8.33 0.7 8.66 -1 9 C-0.67 6.03 -0.34 3.06 0 0 Z " fill="#F1F3F2" transform="translate(118,48)"/>
<path d="M0 0 C1.25 3.0625 1.25 3.0625 2 6 C1.01 6 0.02 6 -1 6 C-1.33 7.32 -1.66 8.64 -2 10 C-1.01 9.34 -0.02 8.68 1 8 C3.41015625 7.953125 3.41015625 7.953125 6.0625 8.25 C6.94035156 8.33765625 7.81820312 8.4253125 8.72265625 8.515625 C11 9 11 9 13 11 C13.11950997 15.97958191 12.21530987 21.56938026 10 26 C5.60268404 30.39731596 -0.03226177 32.57745775 -6 34 C-6.99 34 -7.98 34 -9 34 C-8.67 32.35 -8.34 30.7 -8 29 C-5.69 28.34 -3.38 27.68 -1 27 C-2.32 26.34 -3.64 25.68 -5 25 C-4.34 24.34 -3.68 23.68 -3 23 C-3.99 22.34 -4.98 21.68 -6 21 C-6 21.66 -6 22.32 -6 23 C-8.31 23.33 -10.62 23.66 -13 24 C-10.525 24.99 -10.525 24.99 -8 26 C-8.33 26.66 -8.66 27.32 -9 28 C-12.77258731 27.70980098 -15.32665983 27.48342371 -18.4375 25.25 C-20.28286337 22.59267675 -20.35205968 21.1685371 -20 18 C-19.34 17.67 -18.68 17.34 -18 17 C-18 15.68 -18 14.36 -18 13 C-13.92857143 10 -13.92857143 10 -11 10 C-10.82984375 9.28972656 -10.6596875 8.57945313 -10.484375 7.84765625 C-10.24203125 6.92855469 -9.9996875 6.00945312 -9.75 5.0625 C-9.51796875 4.14597656 -9.2859375 3.22945313 -9.046875 2.28515625 C-8 0 -8 0 -6.0234375 -0.8203125 C-3.57163218 -1.03804039 -2.22600321 -1.1130016 0 0 Z " fill="#F1F2F0" transform="translate(124,71)"/>
<path d="M0 0 C0.66 0 1.32 0 2 0 C2 0.99 2 1.98 2 3 C5.63 3 9.26 3 13 3 C12.67 3.99 12.34 4.98 12 6 C12.66 6 13.32 6 14 6 C13 9 13 9 11 10 C11.495 10.99 11.495 10.99 12 12 C11.34 12.33 10.68 12.66 10 13 C10.86673625 15.06449167 10.86673625 15.06449167 12.5625 16.3125 C14 18 14 18 14.1875 20.6875 C14.0946875 21.8321875 14.0946875 21.8321875 14 23 C9.125 22.125 9.125 22.125 8 21 C7.67 21.66 7.34 22.32 7 23 C5.9275 22.979375 4.855 22.95875 3.75 22.9375 C0.25552243 22.83653081 0.25552243 22.83653081 -2 23.5625 C-5.09227948 24.23893614 -7.91249412 23.52429345 -11 23 C-11.33 23 -11.66 23 -12 23 C-12.66 23 -13.32 23 -14 23 C-14 21.68 -14 20.36 -14 19 C-14.66 19 -15.32 19 -16 19 C-16 20.32 -16 21.64 -16 23 C-21.02125926 23.77916092 -24.97703996 24.13016601 -30 23 C-30.6875 20.6875 -30.6875 20.6875 -31 18 C-29.875 16.1875 -29.875 16.1875 -28 15 C-25.3125 14.8125 -25.3125 14.8125 -23 15 C-23 15.66 -23 16.32 -23 17 C-21.20800528 17.78282648 -21.20800528 17.78282648 -19 18 C-16.79530746 17.0367895 -16.79530746 17.0367895 -15 15 C-14.08095346 11.59328329 -14.08095346 11.59328329 -13.75 7.8125 C-13.60046875 6.54019531 -13.4509375 5.26789063 -13.296875 3.95703125 C-13.19890625 2.98121094 -13.1009375 2.00539062 -13 1 C-11.35 1 -9.7 1 -8 1 C-7.17361624 3.89234315 -7 5.88742431 -7 9 C-6.34 7.02 -5.68 5.04 -5 3 C-2.525 3.495 -2.525 3.495 0 4 C0 2.68 0 1.36 0 0 Z " fill="#E8E8E8" transform="translate(96,176)"/>
<path d="M0 0 C5.04072616 3.92056479 6.33385444 8.21170748 8.10546875 14.2578125 C8.91970004 17.171302 8.91970004 17.171302 11 20 C13.56282742 20.72965366 13.56282742 20.72965366 16 21 C16 21.66 16 22.32 16 23 C16.99 23.33 17.98 23.66 19 24 C20.1875 27.5625 20.1875 27.5625 21 31 C18.03 31 15.06 31 12 31 C12.66 31.66 13.32 32.32 14 33 C14 32.67 14 32.34 14 32 C19.67479855 31.64532509 23.85187325 32.12424354 29.0859375 34.32421875 C33.00320373 35.70725356 36.63454902 35.56018502 40.4375 34 C41.2109375 33.505 41.2109375 33.505 42 33 C42.33 33.33 42.66 33.66 43 34 C43.99 34 44.98 34 46 34 C47 34 47 34 49 35 C48.505 35.99 48.505 35.99 48 37 C49.32 36.34 50.64 35.68 52 35 C50.35 37.31 48.7 39.62 47 42 C48.98 42 50.96 42 53 42 C52 44 52 44 50.375 44.625 C37.90980681 46.5931884 21.74306008 41.40864303 11 35 C8.24491581 32.28207494 6.64229298 29.48166111 5 26 C4.53078125 25.11828125 4.0615625 24.2365625 3.578125 23.328125 C-0.12150676 15.97043038 -2.4485887 8.16196233 0 0 Z " fill="#A39176" transform="translate(73,82)"/>
<path d="M0 0 C1.04285156 -0.00257813 2.08570313 -0.00515625 3.16015625 -0.0078125 C5.9375 0.125 5.9375 0.125 8.9375 1.125 C8.6075 3.435 8.2775 5.745 7.9375 8.125 C6.9475 8.455 5.9575 8.785 4.9375 9.125 C4.6075 9.785 4.2775 10.445 3.9375 11.125 C5.2575 11.785 6.5775 12.445 7.9375 13.125 C7.2775 13.125 6.6175 13.125 5.9375 13.125 C5.98970703 14.06472656 5.98970703 14.06472656 6.04296875 15.0234375 C6.07003906 15.84070313 6.09710938 16.65796875 6.125 17.5 C6.17720703 18.71816406 6.17720703 18.71816406 6.23046875 19.9609375 C6.13378906 20.67507812 6.03710938 21.38921875 5.9375 22.125 C1.88448074 24.82701284 -1.30534585 24.66170457 -6.0625 24.125 C-9.69894512 22.7108269 -12.61933037 21.21110901 -15.0625 18.125 C-16.29784045 14.41897865 -16.51778745 12.02746386 -16.0625 8.125 C-14.09305542 4.87894476 -11.87478865 1.80800386 -8.23828125 0.4375 C-5.47221826 0.04021986 -2.79437109 -0.00692533 0 0 Z " fill="#F4FAF8" transform="translate(179.0625,139.875)"/>
<path d="M0 0 C1.32 0.66 2.64 1.32 4 2 C4.33 1.34 4.66 0.68 5 0 C6.32 0 7.64 0 9 0 C9.08636719 0.67804688 9.17273438 1.35609375 9.26171875 2.0546875 C10.73715407 11.8277545 13.66975137 20.081029 21.53125 26.4609375 C26.33396463 29.45503491 31.64896582 31.22991705 37 33 C36.125 36.875 36.125 36.875 35 38 C29.60234039 38.45937529 25.4884055 37.32574904 20.3671875 35.66796875 C17.49990179 34.85888318 14.96247349 34.78323365 12 35 C11.01 35 10.02 35 9 35 C9 34.34 9 33.68 9 33 C12.22791555 30.8480563 13.28400809 30.79913557 17 31 C17 30.34 17 29.68 17 29 C15.35 29 13.7 29 12 29 C13.32 28.67 14.64 28.34 16 28 C16 27.34 16 26.68 16 26 C14.35 26 12.7 26 11 26 C11.66 25.67 12.32 25.34 13 25 C13 24.34 13 23.68 13 23 C12.2575 23.12375 11.515 23.2475 10.75 23.375 C8 23 8 23 5.875 20.625 C3.79239229 17.09800307 2.75392921 13.30601501 1.7109375 9.3671875 C1.02242159 7.07465649 0.13367636 5.10263051 -1 3 C-0.01 3.33 0.98 3.66 2 4 C1.34 2.68 0.68 1.36 0 0 Z " fill="#F0EDE4" transform="translate(76,80)"/>
<path d="M0 0 C0.66 0.33 1.32 0.66 2 1 C2.66 1 3.32 1 4 1 C4.99 1.33 5.98 1.66 7 2 C7 2.33 7 2.66 7 3 C7.66 3.33 8.32 3.66 9 4 C9.33 4.33 9.66 4.66 10 5 C10.721875 5.103125 11.44375 5.20625 12.1875 5.3125 C17.51472971 6.61471171 20.92046168 9.60065954 24 14 C24.99 14.66 25.98 15.32 27 16 C26.34 16.33 25.68 16.66 25 17 C26.32 17.66 27.64 18.32 29 19 C27.68 19.33 26.36 19.66 25 20 C26.32 20.99 27.64 21.98 29 23 C27.68 23 26.36 23 25 23 C25.99 23.99 26.98 24.98 28 26 C27.34 26.33 26.68 26.66 26 27 C26.98226562 27.55107422 26.98226562 27.55107422 27.984375 28.11328125 C30 30 30 30 30.390625 32.91796875 C30.32101563 34.53638672 30.32101563 34.53638672 30.25 36.1875 C30.21390625 37.27417969 30.1778125 38.36085937 30.140625 39.48046875 C30.07101563 40.72763672 30.07101563 40.72763672 30 42 C28.68 42 27.36 42 26 42 C26 41.34 26 40.68 26 40 C25.34 40 24.68 40 24 40 C23.98582031 39.24976563 23.97164062 38.49953125 23.95703125 37.7265625 C23.55628926 29.12685604 21.97299724 22.23938594 15.9609375 15.82421875 C12.47653263 12.29137109 12.47653263 12.29137109 8 11 C8.9075 11.556875 9.815 12.11375 10.75 12.6875 C13.84453391 14.8893799 15.79281468 16.94389725 18 20 C17.34 20.33 16.68 20.66 16 21 C16 20.34 16 19.68 16 19 C15.01 18.67 14.02 18.34 13 18 C12.38125 17.46375 11.7625 16.9275 11.125 16.375 C9.06344124 14.70853662 9.06344124 14.70853662 6.5 15.375 C5.675 15.58125 4.85 15.7875 4 16 C1.6875 15.5625 1.6875 15.5625 0 15 C0.56371414 11.73045798 1.49962266 10.17424117 4 8 C2.35 8.33 0.7 8.66 -1 9 C-0.67 6.03 -0.34 3.06 0 0 Z " fill="#EBEAE2" transform="translate(118,48)"/>
<path d="M0 0 C1.32 0.33 2.64 0.66 4 1 C4 1.66 4 2.32 4 3 C5.65 2.67 7.3 2.34 9 2 C8.67 2.99 8.34 3.98 8 5 C7.34 5 6.68 5 6 5 C5.67 6.32 5.34 7.64 5 9 C5.59167969 8.89300781 6.18335938 8.78601562 6.79296875 8.67578125 C13.32761578 7.68439108 13.32761578 7.68439108 17.0625 9.4375 C17.701875 9.953125 18.34125 10.46875 19 11 C16.4768907 12.26155465 14.50750046 12.2181258 11.6875 12.375 C4.93406641 12.87434479 -1.4527562 14.32094877 -8 16 C-7.01 17.32 -6.02 18.64 -5 20 C-5.85658203 20.05607422 -5.85658203 20.05607422 -6.73046875 20.11328125 C-14.00609452 20.70319685 -20.92566508 22.23696042 -28 24 C-27.67 23.34 -27.34 22.68 -27 22 C-26.34 22 -25.68 22 -25 22 C-25.226875 21.4225 -25.45375 20.845 -25.6875 20.25 C-26 18 -26 18 -24.875 15.75 C-23 14 -23 14 -20.3125 13.75 C-19.549375 13.8325 -18.78625 13.915 -18 14 C-18 13.34 -18 12.68 -18 12 C-15.03 12.495 -15.03 12.495 -12 13 C-13.485 15.475 -13.485 15.475 -15 18 C-14.01 17.34 -13.02 16.68 -12 16 C-10.67432801 15.31822584 -9.34246312 14.64808564 -8 14 C-8.2475 13.0925 -8.495 12.185 -8.75 11.25 C-9 8 -9 8 -7.3125 5.75 C-5.25244483 4.19103933 -3.31274854 3.1164993 -1 2 C-0.67 1.34 -0.34 0.68 0 0 Z " fill="#302F2E" transform="translate(113,54)"/>
<path d="M0 0 C3.75 0.375 3.75 0.375 6.6875 2.1875 C9.6273002 6.73082758 9.69498592 11.09095373 8.75 16.375 C7.4296875 18.6796875 7.4296875 18.6796875 5.75 20.375 C1.46133329 21.08977779 -0.49960649 20.88069997 -4.125 18.4375 C-6.87775527 14.47029387 -7.58053703 11.17648527 -7.25 6.375 C-5.34401808 2.216494 -4.54430621 0.52434302 0 0 Z " fill="#F5FAF7" transform="translate(71.25,141.625)"/>
<path d="M0 0 C3.58766372 3.49325151 4.85195783 6.40114458 5.3125 11.375 C4.94175182 15.67567891 4.28852869 17.2173988 1 20 C-2.5 20.5625 -2.5 20.5625 -6 20 C-8.36497439 18.13291495 -9.66030715 16.67938569 -11 14 C-11.48547716 9.43173948 -11.82829866 5.39154176 -9.4375 1.375 C-6.0096437 -0.55866253 -3.87016423 -0.62199068 0 0 Z " fill="#F1F9F5" transform="translate(151,142)"/>
<path d="M0 0 C0.33 2.64 0.66 5.28 1 8 C2.65 6.68 4.3 5.36 6 4 C3.74240384 12.82514864 -3.84668039 17.90870714 -11 23 C-15.48917832 25.54599529 -19.71680315 27.68170282 -25 27 C-22.49528359 22.04091323 -20.13802548 18.80946597 -15.3125 15.9375 C-12.07903368 13.98775203 -10.45875872 12.81781232 -9.4375 9.125 C-9.293125 8.09375 -9.14875 7.0625 -9 6 C-8.34 6 -7.68 6 -7 6 C-5.98133771 4.34467377 -4.98189187 2.67739862 -4 1 C-2 0 -2 0 0 0 Z " fill="#A29075" transform="translate(147,96)"/>
<path d="M0 0 C6.68500826 0.76536767 10.60000696 5.23643249 15 10 C20.19280996 17.00302616 20.00033858 25.64002759 19 34 C16.80581505 41.84843079 11.71324538 47.53521001 5 52 C-2.25149795 55.47931323 -10.96120701 56.6574977 -18.671875 54.12109375 C-26.82496853 50.37808263 -32.94277139 44.9484708 -36.35546875 36.5546875 C-37.56725998 31.7515877 -37.29916493 26.91129095 -37 22 C-36.67 22 -36.34 22 -36 22 C-35.95101562 22.73605469 -35.90203125 23.47210938 -35.8515625 24.23046875 C-35.77679688 25.20628906 -35.70203125 26.18210937 -35.625 27.1875 C-35.55539063 28.15042969 -35.48578125 29.11335938 -35.4140625 30.10546875 C-34.48957816 36.56813759 -32.09587622 39.02521655 -27 43 C-26.071875 44.051875 -26.071875 44.051875 -25.125 45.125 C-22.05876324 47.83050303 -18.86838185 48.71053938 -15 50 C-14.67 49.34 -14.34 48.68 -14 48 C-13.649375 48.495 -13.29875 48.99 -12.9375 49.5 C-10.06551472 51.72347247 -7.53442469 51.12852453 -4 51 C-3.01 51.495 -3.01 51.495 -2 52 C-2 51.34 -2 50.68 -2 50 C-0.989375 49.95875 0.02125 49.9175 1.0625 49.875 C5.88204796 49.19068285 8.75532133 46.46379982 12 43 C16.35257608 37.14653562 17.80435948 30.20031468 17 23 C15.67192081 15.42994862 12.77321464 10.10300439 7 5 C4.71190434 3.42721191 2.50348801 2.22619821 0 1 C0 0.67 0 0.34 0 0 Z " fill="#646564" transform="translate(123,57)"/>
<path d="M0 0 C2.125 0.375 2.125 0.375 4 1 C4 1.66 4 2.32 4 3 C7.954257 3 11.9245379 1.86272251 15.79492188 1.06640625 C20.2862956 0.18574474 24.42293722 -0.14397052 29 0 C29 0.99 29 1.98 29 3 C28.01 3 27.02 3 26 3 C26 3.99 26 4.98 26 6 C26.66 6.33 27.32 6.66 28 7 C25.08248413 8.16700635 23.84286899 7.95467375 20.75 7.0625 C16.51067736 5.86135859 13.37731863 5.77358697 9 6 C7.50256881 7.49743119 7.66797307 8.98824239 7.4375 11.0625 C7.293125 12.361875 7.14875 13.66125 7 15 C10.3 15 13.6 15 17 15 C17 15.33 17 15.66 17 16 C16.071875 16.061875 15.14375 16.12375 14.1875 16.1875 C10.8059981 16.66843898 10.8059981 16.66843898 9.3125 19.5625 C8.6628125 20.7690625 8.6628125 20.7690625 8 22 C7.01 22 6.02 22 5 22 C4.01 19.69 3.02 17.38 2 15 C1.67 15 1.34 15 1 15 C1 12.36 1 9.72 1 7 C0.01 7.33 -0.98 7.66 -2 8 C-2.66 6.35 -3.32 4.7 -4 3 C-3.34 2.67 -2.68 2.34 -2 2 C-1.34 1.34 -0.68 0.68 0 0 Z " fill="#E1ECEC" transform="translate(84,73)"/>
<path d="M0 0 C-0.144375 0.495 -0.28875 0.99 -0.4375 1.5 C-1.54341051 6.4151578 -2.56683312 11.10364651 -1 16 C-1.33 16.33 -1.66 16.66 -2 17 C-2.36628677 18.99422795 -2.70131344 20.99453311 -3 23 C-4.32 22.34 -5.64 21.68 -7 21 C-6.34 22.32 -5.68 23.64 -5 25 C-7 23 -9 21 -11 19 C-11.33 20.65 -11.66 22.3 -12 24 C-12.66 24 -13.32 24 -14 24 C-14.3286144 17.86586455 -13.54282292 13.56846032 -11 8 C-10.66355469 7.25878906 -10.32710938 6.51757812 -9.98046875 5.75390625 C-7.32609929 0.17674795 -6.45196887 -1.52809789 0 0 Z " fill="#A09074" transform="translate(84,61)"/>
<path d="M0 0 C1.32 0.66 2.64 1.32 4 2 C3.67 3.32 3.34 4.64 3 6 C3.99 5.34 4.98 4.68 6 4 C8.41015625 3.953125 8.41015625 3.953125 11.0625 4.25 C12.37927734 4.38148437 12.37927734 4.38148437 13.72265625 4.515625 C16 5 16 5 18 7 C18.33333333 12.33333333 18.33333333 12.33333333 17 15 C14.69 15 12.38 15 10 15 C10.33 16.98 10.66 18.96 11 21 C9.02 20.67 7.04 20.34 5 20 C5.185625 19.360625 5.37125 18.72125 5.5625 18.0625 C5.7790625 17.0415625 5.7790625 17.0415625 6 16 C5.67 15.67 5.34 15.34 5 15 C4.01 16.485 4.01 16.485 3 18 C2.87882812 17.443125 2.75765625 16.88625 2.6328125 16.3125 C1.76317854 12.35232071 0.85595989 8.41829837 -0.1875 4.5 C-0.5896875 2.7675 -0.5896875 2.7675 -1 1 C-0.67 0.67 -0.34 0.34 0 0 Z " fill="#2A5D41" transform="translate(119,75)"/>
<path d="M0 0 C3.16520959 2.19129895 3.97725977 2.82676765 5.25 6.25 C5.5843175 10.96473402 4.85548767 15.02213928 1.875 18.75 C-1.74387514 22.19654775 -4.72409446 22.64594764 -9.6796875 22.609375 C-13.3733571 21.96820971 -15.17218955 19.89068388 -17.75 17.25 C-19.60243916 13.54512168 -19.2085162 9.29385812 -18.75 5.25 C-16.9402968 2.03274987 -15.57654453 0.70677461 -12.375 -1.0625 C-7.66458425 -2.29618031 -4.31926421 -2.27612678 0 0 Z M-13.1875 1.625 C-15.61420456 5.70186366 -15.38606619 9.62542462 -14.75 14.25 C-13.05596911 18.03365532 -13.05596911 18.03365532 -9.75 20.25 C-6.33428147 20.75031206 -6.33428147 20.75031206 -2.75 20.25 C0.43050641 17.55880226 1.16163066 15.94433057 1.6875 11.8125 C1.10041086 7.03191701 -0.33548916 3.66451084 -3.75 0.25 C-7.49868276 -0.16652031 -9.86733001 -0.2479164 -13.1875 1.625 Z " fill="#30604C" transform="translate(154.75,141.75)"/>
<path d="M0 0 C4.74777576 2.61273902 4.74777576 2.61273902 6.02734375 5.171875 C6.52994541 10.28852464 6.86836447 14.70008874 4.27734375 19.234375 C0.59386631 22.40625835 -2.02100618 23.53347624 -6.91015625 23.171875 C-10.74540981 22.66768362 -11.92748153 22.20711129 -15.09765625 19.734375 C-17.90736552 15.59480334 -17.84431262 10.96198662 -16.97265625 6.171875 C-13.2512782 -0.20763022 -7.21471109 -3.02875 0 0 Z M-12.97265625 4.171875 C-14.30542632 8.60038316 -14.29903907 12.27432224 -12.72265625 16.609375 C-11.0640728 19.38124275 -11.0640728 19.38124275 -7.97265625 21.171875 C-4.47265625 21.671875 -4.47265625 21.671875 -0.97265625 21.171875 C1.98643866 18.21962985 2.48174916 15.84358706 2.52734375 11.734375 C2.40575586 7.78012542 2.1711095 6.39405843 -0.03515625 2.984375 C-4.76048467 0.06874682 -9.38932784 -0.46353529 -12.97265625 4.171875 Z " fill="#295D48" transform="translate(77.97265625,140.828125)"/>
<path d="M0 0 C1.65 0 3.3 0 5 0 C5 6.93 5 13.86 5 21 C7.31 21 9.62 21 12 21 C14.03165952 16.66579301 14.52060632 12.71403788 15 8 C15.33 8 15.66 8 16 8 C16.10957031 8.68707031 16.21914063 9.37414062 16.33203125 10.08203125 C16.49058594 10.98308594 16.64914063 11.88414062 16.8125 12.8125 C16.96332031 13.70582031 17.11414063 14.59914062 17.26953125 15.51953125 C18.06633115 18.22524213 18.82461402 19.25969122 21 21 C23.09989652 22.17574711 23.09989652 22.17574711 25 23 C23.88625 22.979375 22.7725 22.95875 21.625 22.9375 C18.16784079 22.73619282 18.16784079 22.73619282 16 24 C15.34 23.67 14.68 23.34 14 23 C14 23.66 14 24.32 14 25 C13.01 24.67 12.02 24.34 11 24 C8.77425665 23.77548542 6.54418481 23.59217122 4.3125 23.4375 C3.13300781 23.35371094 1.95351563 23.26992187 0.73828125 23.18359375 C-0.61716797 23.09271484 -0.61716797 23.09271484 -2 23 C-2 22.34 -2 21.68 -2 21 C-1.34 21 -0.68 21 0 21 C0 14.07 0 7.14 0 0 Z " fill="#CBE2D7" transform="translate(45,141)"/>
<path d="M0 0 C0 1.65 0 3.3 0 5 C-0.495 4.505 -0.99 4.01 -1.5 3.5 C-5.22645843 1.26412494 -7.67911757 1.58848739 -12 2 C-14.17476401 3.54338091 -14.81832637 4.63665273 -16 7 C-15.93882556 9.11675644 -15.93882556 9.11675644 -15.625 11.4375 C-15.53476563 12.21996094 -15.44453125 13.00242188 -15.3515625 13.80859375 C-15.03348872 16.16946986 -15.03348872 16.16946986 -14 19 C-10.37 19.66 -6.74 20.32 -3 21 C-3.12375 19.72125 -3.2475 18.4425 -3.375 17.125 C-3.44460937 16.40570313 -3.51421875 15.68640625 -3.5859375 14.9453125 C-3.86374749 12.77331755 -3.86374749 12.77331755 -6 11 C-3.03 11 -0.06 11 3 11 C2.01 11.495 2.01 11.495 1 12 C1.05220703 12.93972656 1.05220703 12.93972656 1.10546875 13.8984375 C1.13253906 14.71570313 1.15960938 15.53296875 1.1875 16.375 C1.23970703 17.59316406 1.23970703 17.59316406 1.29296875 18.8359375 C1.19628906 19.55007812 1.09960938 20.26421875 1 21 C-3.05301926 23.70201284 -6.24284585 23.53670457 -11 23 C-14.63644512 21.5858269 -17.55683037 20.08610901 -20 17 C-21.41711717 12.74864848 -21.910468 9.25428374 -20.1875 4.98828125 C-15.5367254 -2.17681836 -7.53491523 -0.60394359 0 0 Z " fill="#40584F" transform="translate(184,141)"/>
<path d="M0 0 C0.69222656 0.08765625 1.38445312 0.1753125 2.09765625 0.265625 C3.9375 0.75 3.9375 0.75 5.9375 2.75 C5.5625 5.375 5.5625 5.375 4.9375 7.75 C-4.39583333 7.75 -13.72916667 7.75 -23.0625 7.75 C-23.0625 4.75 -23.0625 4.75 -22.0625 1.75 C-21.14017578 1.76740234 -21.14017578 1.76740234 -20.19921875 1.78515625 C-18.98685547 1.79869141 -18.98685547 1.79869141 -17.75 1.8125 C-16.94949219 1.82410156 -16.14898437 1.83570313 -15.32421875 1.84765625 C-12.89388666 1.84657855 -12.89388666 1.84657855 -10.0625 0.75 C-9.0725 1.08 -8.0825 1.41 -7.0625 1.75 C-3.88217735 -0.3702151 -3.51682601 -0.4995865 0 0 Z " fill="#F0F0F0" transform="translate(134.0625,177.25)"/>
<path d="M0 0 C3.97460383 0.07239716 7.55405809 0.89906908 11.359375 2.0078125 C13.97058413 2.31212635 15.22737311 1.59399608 17.4375 0.25 C17.1075 1.57 16.7775 2.89 16.4375 4.25 C14.1275 4.91 11.8175 5.57 9.4375 6.25 C9.7675 7.57 10.0975 8.89 10.4375 10.25 C9.4475 10.25 8.4575 10.25 7.4375 10.25 C6.4475 10.58 5.4575 10.91 4.4375 11.25 C2.70425881 11.16538508 0.97357188 11.01395645 -0.75 10.8125 C-1.65105469 10.71066406 -2.55210938 10.60882813 -3.48046875 10.50390625 C-4.16753906 10.42011719 -4.85460937 10.33632812 -5.5625 10.25 C-5.7578125 4.1953125 -5.7578125 4.1953125 -5.5625 2.25 C-3.5625 0.25 -3.5625 0.25 0 0 Z " fill="#1E633C" transform="translate(96.5625,77.75)"/>
<path d="M0 0 C0.99 0.33 1.98 0.66 3 1 C2.375 2.875 2.375 2.875 1 5 C-2 6.125 -2 6.125 -5 7 C-5.66 7.66 -6.32 8.32 -7 9 C-6.979375 9.99 -6.95875 10.98 -6.9375 12 C-6.958125 12.99 -6.97875 13.98 -7 15 C-7.99 15.66 -8.98 16.32 -10 17 C-9.67 17.66 -9.34 18.32 -9 19 C-10.65 19 -12.3 19 -14 19 C-13.67 17.68 -13.34 16.36 -13 15 C-14.32 14.34 -15.64 13.68 -17 13 C-17 13.66 -17 14.32 -17 15 C-18.65 15 -20.3 15 -22 15 C-18.80496389 8.90038561 -14.22074076 5.83182975 -8 3 C-5.22934906 2.31847332 -2.86937474 2.10627314 0 2 C0 1.34 0 0.68 0 0 Z " fill="#EEEDEE" transform="translate(112,53)"/>
<path d="M0 0 C0.33 0 0.66 0 1 0 C1.45601838 8.36033691 0.11053494 14.84972314 -5.375 21.375 C-8.00635174 24.14455299 -10.3938323 26.57651275 -14 28 C-16.8125 27.6875 -16.8125 27.6875 -19 27 C-19 27.66 -19 28.32 -19 29 C-20.98 28.67 -22.96 28.34 -25 28 C-25 27.01 -25 26.02 -25 25 C-24.04738281 24.68546875 -23.09476562 24.3709375 -22.11328125 24.046875 C-20.84617149 23.61511908 -19.57925447 23.18279723 -18.3125 22.75 C-17.07113281 22.33234375 -15.82976562 21.9146875 -14.55078125 21.484375 C-11.07582075 20.03169624 -8.69559261 18.61390799 -6 16 C-5.58129447 13.33071879 -5.58129447 13.33071879 -6 11 C-5.34 11 -4.68 11 -4 11 C-3.67 9.68 -3.34 8.36 -3 7 C-2.01 7 -1.02 7 0 7 C0 4.69 0 2.38 0 0 Z " fill="#D6EFF0" transform="translate(140,80)"/>
<path d="M0 0 C0.66 0.33 1.32 0.66 2 1 C2.66 1 3.32 1 4 1 C4.99 1.33 5.98 1.66 7 2 C7 2.33 7 2.66 7 3 C7.66 3.33 8.32 3.66 9 4 C9.33 4.33 9.66 4.66 10 5 C11.66014616 5.36442233 13.32706064 5.69972883 15 6 C14.1875 7.9375 14.1875 7.9375 13 10 C10 11 10 11 8 11 C8.9075 11.556875 9.815 12.11375 10.75 12.6875 C13.84453391 14.8893799 15.79281468 16.94389725 18 20 C17.34 20.33 16.68 20.66 16 21 C16 20.34 16 19.68 16 19 C15.01 18.67 14.02 18.34 13 18 C12.38125 17.46375 11.7625 16.9275 11.125 16.375 C9.06344124 14.70853662 9.06344124 14.70853662 6.5 15.375 C5.675 15.58125 4.85 15.7875 4 16 C1.6875 15.5625 1.6875 15.5625 0 15 C0.56371414 11.73045798 1.49962266 10.17424117 4 8 C2.35 8.33 0.7 8.66 -1 9 C-0.67 6.03 -0.34 3.06 0 0 Z " fill="#F7F6EE" transform="translate(118,48)"/>
<path d="M0 0 C5.04072616 3.92056479 6.33385444 8.21170748 8.10546875 14.2578125 C8.91970004 17.171302 8.91970004 17.171302 11 20 C13.56282742 20.72965366 13.56282742 20.72965366 16 21 C16 21.66 16 22.32 16 23 C14.35 23.66 12.7 24.32 11 25 C10.67 24.34 10.34 23.68 10 23 C8.68 23 7.36 23 6 23 C5.67 21.68 5.34 20.36 5 19 C4.01 19 3.02 19 2 19 C-1.17441612 12.27023784 -1.11388158 7.30062141 0 0 Z " fill="#A19074" transform="translate(73,82)"/>
<path d="M0 0 C0 1.65 0 3.3 0 5 C-0.66 5 -1.32 5 -2 5 C-2.37125 4.505 -2.7425 4.01 -3.125 3.5 C-5.7456414 1.40348688 -7.84093714 1.50923424 -11.125 1.66015625 C-13.15591347 1.88375515 -13.15591347 1.88375515 -15 3.5 C-16.4094215 7.02355374 -16.55910621 10.29224305 -16 14 C-14.27032287 17.74547604 -14.27032287 17.74547604 -11 20 C-9.08499697 20.15898854 -9.08499697 20.15898854 -7 20.125 C-6.29875 20.12757813 -5.5975 20.13015625 -4.875 20.1328125 C-2.90846225 20.11377236 -2.90846225 20.11377236 -1 19 C-1 19.99 -1 20.98 -1 22 C-5.98766098 23.66255366 -10.98368448 23.83282597 -15.875 21.8125 C-18.87394645 19.25457509 -20.69364437 17.06894964 -21.28515625 13.07421875 C-21.47892215 8.60075382 -21.0057778 5.50674077 -18 2 C-12.13519144 -1.865442 -6.64699174 -1.61139194 0 0 Z " fill="#245E46" transform="translate(109,141)"/>
<path d="M0 0 C0 1.65 0 3.3 0 5 C-0.82757813 4.26330078 -0.82757813 4.26330078 -1.671875 3.51171875 C-4.46370069 1.69890576 -5.96185741 1.6827049 -9.25 1.8125 C-10.14203125 1.83957031 -11.0340625 1.86664063 -11.953125 1.89453125 C-12.96632813 1.94673828 -12.96632813 1.94673828 -14 2 C-15.44296531 7.22493083 -15.94039856 11.99096671 -13.625 16.9375 C-12.16078274 19.09702406 -12.16078274 19.09702406 -10 20 C-6.32670036 20.13357453 -3.50147041 20.1671568 0 19 C0 19.99 0 20.98 0 22 C-3.48078333 23.74039167 -7.19435365 23.45394148 -11 23 C-14.36650502 21.77869273 -17.21492943 20.25663981 -19.1640625 17.13671875 C-20.61021173 13.44025319 -20.68813723 9.89249344 -20 6 C-14.70910816 -0.90755324 -8.3628352 -2.67610726 0 0 Z " fill="#36624F" transform="translate(132,141)"/>
<path d="M0 0 C2.31 0 4.62 0 7 0 C6.22830713 4.37292628 5.54718209 7.0176712 1.9375 9.75 C-2.85455347 12.79400881 -8.29043714 15 -14 15 C-13.67 13.35 -13.34 11.7 -13 10 C-10.69 9.34 -8.38 8.68 -6 8 C-7.32 7.34 -8.64 6.68 -10 6 C-6.77390955 4.92463652 -4.37822416 4.85624578 -1 5 C-0.34 5.33 0.32 5.66 1 6 C0.67 4.02 0.34 2.04 0 0 Z " fill="#52A1BA" transform="translate(129,90)"/>
<path d="M0 0 C0.99 0 1.98 0 3 0 C3 1.32 3 2.64 3 4 C0.69 4.33 -1.62 4.66 -4 5 C-4.66 6.98 -5.32 8.96 -6 11 C-7.65 11.33 -9.3 11.66 -11 12 C-11.33 10.68 -11.66 9.36 -12 8 C-12.33 9.65 -12.66 11.3 -13 13 C-13.33 12.01 -13.66 11.02 -14 10 C-13.67 9.34 -13.34 8.68 -13 8 C-13.66 8 -14.32 8 -15 8 C-15.33 9.65 -15.66 11.3 -16 13 C-17 10 -17 10 -15.3125 6.4375 C-13.54424346 3.58663742 -12.36640066 1.86564588 -9 1 C-2.65625 0.671875 -2.65625 0.671875 0 2 C0 1.34 0 0.68 0 0 Z " fill="#A19176" transform="translate(106,44)"/>
<path d="M0 0 C0.99 0.66 1.98 1.32 3 2 C2.43410156 2.33773437 1.86820313 2.67546875 1.28515625 3.0234375 C0.55167969 3.46945313 -0.18179688 3.91546875 -0.9375 4.375 C-1.66839844 4.81585938 -2.39929688 5.25671875 -3.15234375 5.7109375 C-5.13772272 6.8773984 -5.13772272 6.8773984 -6 9 C-6.12148305 10.62165752 -6.17543652 12.24884327 -6.1875 13.875 C-6.20167969 14.73867187 -6.21585938 15.60234375 -6.23046875 16.4921875 C-5.98859252 19.1241288 -5.32983541 20.73980544 -4 23 C-6 24 -6 24 -9.125 23.0625 C-10.548125 22.5365625 -10.548125 22.5365625 -12 22 C-12 21.34 -12 20.68 -12 20 C-11.34 19.67 -10.68 19.34 -10 19 C-10.15597656 18.26394531 -10.31195313 17.52789062 -10.47265625 16.76953125 C-10.66730469 15.79371094 -10.86195313 14.81789062 -11.0625 13.8125 C-11.35833984 12.36810547 -11.35833984 12.36810547 -11.66015625 10.89453125 C-12.00423947 7.96389138 -11.74164697 5.83692932 -11 3 C-10.28972656 2.86722656 -9.57945312 2.73445312 -8.84765625 2.59765625 C-7.92855469 2.42105469 -7.00945312 2.24445313 -6.0625 2.0625 C-4.68771484 1.80146484 -4.68771484 1.80146484 -3.28515625 1.53515625 C-1.04710156 1.22285012 -1.04710156 1.22285012 0 0 Z " fill="#ECF7F3" transform="translate(143,138)"/>
<path d="M0 0 C0 0.99 0 1.98 0 3 C-0.99 3.33 -1.98 3.66 -3 4 C-3 4.66 -3 5.32 -3 6 C-4.98 6.99 -4.98 6.99 -7 8 C-6.01 8.66 -5.02 9.32 -4 10 C-4.495 10.763125 -4.99 11.52625 -5.5 12.3125 C-7.24368308 14.92363751 -7.24368308 14.92363751 -7 18 C-7 18.33 -7 18.66 -7 19 C-8.65 19 -10.3 19 -12 19 C-10.68 17.02 -9.36 15.04 -8 13 C-9.98 13.99 -9.98 13.99 -12 15 C-11.67 13.68 -11.34 12.36 -11 11 C-11.99 11.66 -12.98 12.32 -14 13 C-14 12.01 -14 11.02 -14 10 C-14.99 10.66 -15.98 11.32 -17 12 C-17.12375 11.195625 -17.2475 10.39125 -17.375 9.5625 C-17.684375 8.2940625 -17.684375 8.2940625 -18 7 C-18.66 6.67 -19.32 6.34 -20 6 C-19.05898437 5.81824219 -18.11796875 5.63648437 -17.1484375 5.44921875 C-15.90320313 5.19785156 -14.65796875 4.94648437 -13.375 4.6875 C-12.14523438 4.44386719 -10.91546875 4.20023437 -9.6484375 3.94921875 C-6.09733532 3.02532386 -3.20639411 1.7610503 0 0 Z " fill="#EFE9DC" transform="translate(131,106)"/>
<path d="M0 0 C1.25 3.0625 1.25 3.0625 2 6 C-2.75 6.125 -2.75 6.125 -5 5 C-4.34 8.3 -3.68 11.6 -3 15 C-3.845625 14.67 -4.69125 14.34 -5.5625 14 C-9.20989216 12.93894046 -12.22274664 12.84890987 -16 13 C-14.625 11.5 -14.625 11.5 -13 10 C-12.34 10 -11.68 10 -11 10 C-10.82984375 9.28972656 -10.6596875 8.57945313 -10.484375 7.84765625 C-10.24203125 6.92855469 -9.9996875 6.00945312 -9.75 5.0625 C-9.40195313 3.68771484 -9.40195313 3.68771484 -9.046875 2.28515625 C-8 0 -8 0 -6.0234375 -0.8203125 C-3.57163218 -1.03804039 -2.22600321 -1.1130016 0 0 Z " fill="#ABAFAE" transform="translate(124,71)"/>
<path d="M0 0 C0 0.66 0 1.32 0 2 C3.69541586 2.95024979 6.30458414 2.95024979 10 2 C10.33 3.98 10.66 5.96 11 8 C10.34 8 9.68 8 9 8 C9 6.68 9 5.36 9 4 C8.34 4 7.68 4 7 4 C7 5.32 7 6.64 7 8 C1.97874074 8.77916092 -1.97703996 9.13016601 -7 8 C-7.6875 5.6875 -7.6875 5.6875 -8 3 C-5.90994325 -0.36731366 -3.75103888 -0.30413829 0 0 Z " fill="#BEBEBE" transform="translate(73,191)"/>
<path d="M0 0 C1.32 0.33 2.64 0.66 4 1 C4 1.66 4 2.32 4 3 C5.65 2.67 7.3 2.34 9 2 C8.67 2.99 8.34 3.98 8 5 C7.34 5 6.68 5 6 5 C5.67 6.32 5.34 7.64 5 9 C5.59167969 8.89300781 6.18335937 8.78601562 6.79296875 8.67578125 C13.32761578 7.68439108 13.32761578 7.68439108 17.0625 9.4375 C17.701875 9.953125 18.34125 10.46875 19 11 C16.34001305 12.32999347 14.02630809 12.2988203 11.0625 12.5 C7.76955062 12.7240646 5.13836918 12.95387694 2 14 C1.34 12.68 0.68 11.36 0 10 C0.66 10 1.32 10 2 10 C2 9.34 2 8.68 2 8 C0.68 7.67 -0.64 7.34 -2 7 C-2 6.34 -2 5.68 -2 5 C-1.34 5 -0.68 5 0 5 C-0.33 4.01 -0.66 3.02 -1 2 C-0.67 1.34 -0.34 0.68 0 0 Z " fill="#333435" transform="translate(113,54)"/>
<path d="M0 0 C3.91046699 1.03295355 7.55272538 2.38405489 11.3125 3.875 C10.4375 7.75 10.4375 7.75 9.3125 8.875 C4.08541555 9.28496741 0.76524851 8.67091186 -3.6875 5.875 C-4.3475 4.885 -5.0075 3.895 -5.6875 2.875 C-3.86294197 0.34089162 -3.1872733 -0.14824527 0 0 Z " fill="#F4F0E6" transform="translate(101.6875,109.125)"/>
<path d="M0 0 C0.33 0.66 0.66 1.32 1 2 C1.721875 1.87625 2.44375 1.7525 3.1875 1.625 C6 2 6 2 8.6875 4.875 C9.450625 5.90625 10.21375 6.9375 11 8 C11.66 8.66 12.32 9.32 13 10 C13 10.99 13 11.98 13 13 C11.02 13.33 9.04 13.66 7 14 C7 13.34 7 12.68 7 12 C4.05270463 10.84188612 4.05270463 10.84188612 1 11 C0.67 10.34 0.34 9.68 0 9 C-2.01669827 7.86649466 -2.01669827 7.86649466 -4 7 C-3.34 7 -2.68 7 -2 7 C-2 6.01 -2 5.02 -2 4 C-1.34 4 -0.68 4 0 4 C-0.33 3.01 -0.66 2.02 -1 1 C-0.67 0.67 -0.34 0.34 0 0 Z " fill="#A4927B" transform="translate(118,40)"/>
<path d="M0 0 C0.66 0.33 1.32 0.66 2 1 C2 3.97 2 6.94 2 10 C0.68 9.67 -0.64 9.34 -2 9 C-0.08767536 11.12933327 -0.08767536 11.12933327 2.5625 12.25 C5 14 5 14 5.8125 17.1875 C5.874375 18.115625 5.93625 19.04375 6 20 C4.68 19.34 3.36 18.68 2 18 C2.66 19.32 3.32 20.64 4 22 C2 20 0 18 -2 16 C-2.33 17.65 -2.66 19.3 -3 21 C-3.66 21 -4.32 21 -5 21 C-5.32919983 14.85493655 -4.4508703 10.60711303 -2 5 C-1.4121875 3.515 -1.4121875 3.515 -0.8125 2 C-0.544375 1.34 -0.27625 0.68 0 0 Z " fill="#A69881" transform="translate(75,64)"/>
<path d="M0 0 C3.5218253 1.95656961 6.34442785 3.95100975 9 7 C9 7.66 9 8.32 9 9 C9.66 9 10.32 9 11 9 C11.28875 9.639375 11.5775 10.27875 11.875 10.9375 C12.82823451 13.15206079 12.82823451 13.15206079 15 14 C15.625 16.5625 15.625 16.5625 16 19 C11.25 18.125 11.25 18.125 9 17 C9 16.34 9 15.68 9 15 C8.401875 14.938125 7.80375 14.87625 7.1875 14.8125 C4.12856542 13.6763243 3.44958901 11.82669858 2 9 C3.65 9.33 5.3 9.66 7 10 C5.66828017 6.00484052 3.19104539 4.64788873 0 2 C0 1.34 0 0.68 0 0 Z " fill="#A3957B" transform="translate(136,48)"/>
<path d="M0 0 C0.66 0.99 1.32 1.98 2 3 C1.38125 3.2475 0.7625 3.495 0.125 3.75 C-2.51392178 5.30230693 -3.01127112 6.10986942 -4 9 C-4.44442786 11.66656713 -4.73065528 14.30655282 -5 17 C-5.66 17 -6.32 17 -7 17 C-6.67 18.65 -6.34 20.3 -6 22 C-8.31 22.33 -10.62 22.66 -13 23 C-12.50886719 22.30519531 -12.01773438 21.61039063 -11.51171875 20.89453125 C-9.75171541 17.52460237 -9.68823419 15.45689616 -9.8125 11.6875 C-9.85310547 10.08455078 -9.85310547 10.08455078 -9.89453125 8.44921875 C-9.92933594 7.64097656 -9.96414062 6.83273438 -10 6 C-7.92446352 5.4465236 -6.15634036 5 -4 5 C-3.67 4.01 -3.34 3.02 -3 2 C-2.01 1.34 -1.02 0.68 0 0 Z " fill="#EEFCF4" transform="translate(93,139)"/>
<path d="M0 0 C2.97 0 5.94 0 9 0 C9.33 1.32 9.66 2.64 10 4 C11.65 3.67 13.3 3.34 15 3 C15 2.34 15 1.68 15 1 C15.99 1.33 16.98 1.66 18 2 C16.7934375 3.2375 16.7934375 3.2375 15.5625 4.5 C12.44499414 8.18112274 12.24498936 11.26353911 12 16 C10.68 16.33 9.36 16.66 8 17 C8.01160156 16.39671875 8.02320313 15.7934375 8.03515625 15.171875 C8.04417969 14.37265625 8.05320313 13.5734375 8.0625 12.75 C8.07410156 11.96109375 8.08570313 11.1721875 8.09765625 10.359375 C8.00209044 8.05050503 7.7937191 6.17077391 7 4 C4.57616923 2.83046584 4.57616923 2.83046584 2 2 C1.34 1.34 0.68 0.68 0 0 Z " fill="#ECF7F5" transform="translate(151,140)"/>
<path d="M0 0 C2.97 0 5.94 0 9 0 C8.01 0.495 8.01 0.495 7 1 C7.05220703 1.93972656 7.05220703 1.93972656 7.10546875 2.8984375 C7.13253906 3.71570313 7.15960938 4.53296875 7.1875 5.375 C7.23970703 6.59316406 7.23970703 6.59316406 7.29296875 7.8359375 C7.19628906 8.55007812 7.09960938 9.26421875 7 10 C2.95398061 12.69734626 -0.25423764 12.43218852 -5 12 C-8.0625 11 -8.0625 11 -10 10 C-10 8.68 -10 7.36 -10 6 C-9.34 6 -8.68 6 -8 6 C-8 6.66 -8 7.32 -8 8 C-4.37 8.66 -0.74 9.32 3 10 C2.87625 8.72125 2.7525 7.4425 2.625 6.125 C2.55539063 5.40570313 2.48578125 4.68640625 2.4140625 3.9453125 C2.13625251 1.77331755 2.13625251 1.77331755 0 0 Z " fill="#4B715F" transform="translate(178,152)"/>
<path d="M0 0 C1.65 0 3.3 0 5 0 C5 6.93 5 13.86 5 21 C8.96 20.505 8.96 20.505 13 20 C13 20.66 13 21.32 13 22 C9.04 22 5.08 22 1 22 C0.67 14.74 0.34 7.48 0 0 Z " fill="#1F573E" transform="translate(45,141)"/>
<path d="M0 0 C2 2 2 2 2.0625 4.5 C2.041875 5.325 2.02125 6.15 2 7 C2.33 7.66 2.66 8.32 3 9 C1.6875 10.5 1.6875 10.5 0 12 C-0.99 12 -1.98 12 -3 12 C-3 11.34 -3 10.68 -3 10 C-3.66 9.67 -4.32 9.34 -5 9 C-3.68 8.34 -2.36 7.68 -1 7 C-2.65 6.67 -4.3 6.34 -6 6 C-6 6.66 -6 7.32 -6 8 C-6.66 8 -7.32 8 -8 8 C-8.33 8.66 -8.66 9.32 -9 10 C-9.99 9.34 -10.98 8.68 -12 8 C-10.4375 5.0625 -10.4375 5.0625 -8 2 C-4.3125 1.1875 -4.3125 1.1875 -1 1 C-0.67 0.67 -0.34 0.34 0 0 Z " fill="#1E2836" transform="translate(103,87)"/>
<path d="M0 0 C0.680625 0.53625 1.36125 1.0725 2.0625 1.625 C1.7325 3.275 1.4025 4.925 1.0625 6.625 C0.0725 6.625 -0.9175 6.625 -1.9375 6.625 C-1.9375 7.615 -1.9375 8.605 -1.9375 9.625 C-2.5975 9.625 -3.2575 9.625 -3.9375 9.625 C-4.2675 8.635 -4.5975 7.645 -4.9375 6.625 C-6.5875 6.295 -8.2375 5.965 -9.9375 5.625 C-9.9375 3.975 -9.9375 2.325 -9.9375 0.625 C-3.66057692 -1.71346154 -3.66057692 -1.71346154 0 0 Z " fill="#B3B3B3" transform="translate(161.9375,192.375)"/>
<path d="M0 0 C0.33 0 0.66 0 1 0 C1.10957031 0.61488281 1.21914062 1.22976562 1.33203125 1.86328125 C1.49058594 2.67152344 1.64914063 3.47976562 1.8125 4.3125 C1.96332031 5.11300781 2.11414063 5.91351563 2.26953125 6.73828125 C3.09648527 9.29874316 3.85759325 10.39192273 6 12 C9.5 12.58333333 9.5 12.58333333 13 12 C14.98239527 10.13875077 14.98239527 10.13875077 16 8 C16.99 8.33 17.98 8.66 19 9 C15.375 13.875 15.375 13.875 12 15 C7.30280345 15.46201933 4.35185321 15.73388683 0.5625 12.75 C-2.89881956 9.03541315 -2.89881956 9.03541315 -3 6 C-2.67 5.01 -2.34 4.02 -2 3 C-1.34 3 -0.68 3 0 3 C0 2.01 0 1.02 0 0 Z " fill="#385E4E" transform="translate(139,149)"/>
<path d="M0 0 C2 2 2 2 2.125 5.125 C2.08375 6.07375 2.0425 7.0225 2 8 C-0.31 8.33 -2.62 8.66 -5 9 C-5 8.34 -5 7.68 -5 7 C-5.99 7.33 -6.98 7.66 -8 8 C-8.33 5.69 -8.66 3.38 -9 1 C-5.98675805 -0.50662097 -3.31713623 -0.17770373 0 0 Z " fill="#1E6940" transform="translate(135,80)"/>
<path d="M0 0 C2 1.125 2 1.125 4 3 C4.25 6.1875 4.25 6.1875 4 9 C1.36 9 -1.28 9 -4 9 C-4 7.68 -4 6.36 -4 5 C-4.66 5 -5.32 5 -6 5 C-6.33 6.32 -6.66 7.64 -7 9 C-7 7.68 -7 6.36 -7 5 C-7.66 5 -8.32 5 -9 5 C-9.33 6.32 -9.66 7.64 -10 9 C-10 7.02 -10 5.04 -10 3 C-8.72125 2.87625 -7.4425 2.7525 -6.125 2.625 C-2.65209064 2.30957601 -2.65209064 2.30957601 0 0 Z " fill="#C0C0C0" transform="translate(162,176)"/>
<path d="M0 0 C1.32 0.66 2.64 1.32 4 2 C3.34 2.66 2.68 3.32 2 4 C3.32 4.66 4.64 5.32 6 6 C3.08235 7.9451 1.37462715 8.45276317 -2 9 C-2.33 11.64 -2.66 14.28 -3 17 C-3.66 16.67 -4.32 16.34 -5 16 C-5 14.02 -5 12.04 -5 10 C-5.66 10 -6.32 10 -7 10 C-7 9.34 -7 8.68 -7 8 C-5.68 8 -4.36 8 -3 8 C-3 7.34 -3 6.68 -3 6 C-4.98 5.01 -6.96 4.02 -9 3 C-6.04335481 1.5216774 -3.25770263 1.93967217 0 2 C0 1.34 0 0.68 0 0 Z " fill="#2A2F2F" transform="translate(118,92)"/>
<path d="M0 0 C1.134375 0.020625 2.26875 0.04125 3.4375 0.0625 C4.0975 2.0425 4.7575 4.0225 5.4375 6.0625 C1.4375 6.0625 1.4375 6.0625 -1.5625 5.0625 C-1.5625 5.7225 -1.5625 6.3825 -1.5625 7.0625 C-3.5425 7.0625 -5.5225 7.0625 -7.5625 7.0625 C-8.2225 5.7425 -8.8825 4.4225 -9.5625 3.0625 C-8.758125 2.753125 -7.95375 2.44375 -7.125 2.125 C-2.08836207 0.03663793 -2.08836207 0.03663793 0 0 Z " fill="#FCFAF7" transform="translate(113.5625,47.9375)"/>
<path d="M0 0 C0.33 2.64 0.66 5.28 1 8 C2.65 6.68 4.3 5.36 6 4 C4.72548573 8.98219214 2.87091665 11.62535472 -1 15 C-1.33 15 -1.66 15 -2 15 C-2.12375 13.88625 -2.2475 12.7725 -2.375 11.625 C-2.6465813 7.96896323 -2.6465813 7.96896323 -5 6 C-4.75 3.4375 -4.75 3.4375 -4 1 C-2 0 -2 0 0 0 Z " fill="#A0937C" transform="translate(147,96)"/>
<path d="M0 0 C2.01822917 0.06510417 4.03645833 0.13020833 6.0546875 0.1953125 C5.7246875 1.1853125 5.3946875 2.1753125 5.0546875 3.1953125 C3.1796875 4.0078125 3.1796875 4.0078125 1.0546875 4.1953125 C0.0646875 3.5353125 -0.9253125 2.8753125 -1.9453125 2.1953125 C-1.9453125 4.5053125 -1.9453125 6.8153125 -1.9453125 9.1953125 C1.0246875 9.1953125 3.9946875 9.1953125 7.0546875 9.1953125 C7.3846875 8.2053125 7.7146875 7.2153125 8.0546875 6.1953125 C9.7046875 5.8653125 11.3546875 5.5353125 13.0546875 5.1953125 C12.0646875 5.6903125 12.0646875 5.6903125 11.0546875 6.1953125 C11.3846875 7.5153125 11.7146875 8.8353125 12.0546875 10.1953125 C11.0646875 10.1953125 10.0746875 10.1953125 9.0546875 10.1953125 C8.0646875 10.5253125 7.0746875 10.8553125 6.0546875 11.1953125 C4.32144631 11.11069758 2.59075938 10.95926895 0.8671875 10.7578125 C-0.03386719 10.65597656 -0.93492188 10.55414063 -1.86328125 10.44921875 C-2.55035156 10.36542969 -3.23742187 10.28164062 -3.9453125 10.1953125 C-4.140625 4.140625 -4.140625 4.140625 -3.9453125 2.1953125 C-1.9453125 0.1953125 -1.9453125 0.1953125 0 0 Z " fill="#2B614A" transform="translate(94.9453125,77.8046875)"/>
<path d="M0 0 C0.99 0.33 1.98 0.66 3 1 C3 2.98 3 4.96 3 7 C-1.66666667 7 -6.33333333 7 -11 7 C-11 4 -11 4 -10 1 C-9.36191406 1.01160156 -8.72382812 1.02320313 -8.06640625 1.03515625 C-7.24011719 1.04417969 -6.41382812 1.05320313 -5.5625 1.0625 C-4.32693359 1.07990234 -4.32693359 1.07990234 -3.06640625 1.09765625 C-1.00836062 1.23267348 -1.00836062 1.23267348 0 0 Z " fill="#9C9C9C" transform="translate(122,178)"/>
<path d="M0 0 C0.66 0.66 1.32 1.32 2 2 C1.80033245 4.65503871 1.21317376 5.77817719 -0.63671875 7.703125 C-6.22295806 11.91674551 -6.22295806 11.91674551 -10.5 12.375 C-11.325 12.25125 -12.15 12.1275 -13 12 C-12.34 11.01 -11.68 10.02 -11 9 C-10.01 9 -9.02 9 -8 9 C-8 8.34 -8 7.68 -8 7 C-6.25 5.2734375 -6.25 5.2734375 -4 3.375 C-3.2575 2.74335937 -2.515 2.11171875 -1.75 1.4609375 C-1.1725 0.97882813 -0.595 0.49671875 0 0 Z " fill="#FAF9F2" transform="translate(136,103)"/>
<path d="M0 0 C0.99 0.33 1.98 0.66 3 1 C2.375 2.875 2.375 2.875 1 5 C-2 6.125 -2 6.125 -5 7 C-6.95216435 8.95216435 -7.84826645 10.53199953 -9 13 C-9 11.02 -9 9.04 -9 7 C-9.94875 7.515625 -10.8975 8.03125 -11.875 8.5625 C-12.90625 9.036875 -13.9375 9.51125 -15 10 C-15.66 9.67 -16.32 9.34 -17 9 C-12.57304895 5.10964908 -8.06645749 2.19573133 -2.0625 1.8125 C-1.0415625 1.9053125 -1.0415625 1.9053125 0 2 C0 1.34 0 0.68 0 0 Z " fill="#8F8F93" transform="translate(112,53)"/>
<path d="M0 0 C0.99 0 1.98 0 3 0 C3 0.66 3 1.32 3 2 C3.99 1.67 4.98 1.34 6 1 C8.1875 1.4375 8.1875 1.4375 10 2 C10 2.99 10 3.98 10 5 C10.66 5 11.32 5 12 5 C12 4.01 12 3.02 12 2 C12.66 2 13.32 2 14 2 C12.80100302 5.0831351 11.52299523 8.06279492 10 11 C8.768606 8.53721199 8.92840804 6.7204945 9 4 C8.01 4 7.02 4 6 4 C6.33 5.32 6.66 6.64 7 8 C5.02 8 3.04 8 1 8 C0.67 5.36 0.34 2.72 0 0 Z " fill="#717171" transform="translate(173,177)"/>
<path d="M0 0 C1.65 0 3.3 0 5 0 C4.01 0.495 4.01 0.495 3 1 C3.66 1.33 4.32 1.66 5 2 C5 2.66 5 3.32 5 4 C5.66 4 6.32 4 7 4 C7 4.66 7 5.32 7 6 C6.34 6 5.68 6 5 6 C5.66 7.32 6.32 8.64 7 10 C4.69 10 2.38 10 0 10 C0 9.34 0 8.68 0 8 C-0.66 7.67 -1.32 7.34 -2 7 C-1.34 4.69 -0.68 2.38 0 0 Z " fill="#262423" transform="translate(108,58)"/>
<path d="M0 0 C3.87090156 1.93545078 7.02361476 4.83752637 10.25 7.6875 C10.95640625 8.31011719 11.6628125 8.93273437 12.390625 9.57421875 C12.92171875 10.04472656 13.4528125 10.51523438 14 11 C13.34 11.66 12.68 12.32 12 13 C12 12.34 12 11.68 12 11 C11.01 10.67 10.02 10.34 9 10 C8.38125 9.46375 7.7625 8.9275 7.125 8.375 C5.06344124 6.70853662 5.06344124 6.70853662 2.5 7.375 C1.2625 7.684375 1.2625 7.684375 0 8 C-2.3125 7.5625 -2.3125 7.5625 -4 7 C-3.43628586 3.73045798 -2.50037734 2.17424117 0 0 Z " fill="#E0E2E2" transform="translate(122,56)"/>
<path d="M0 0 C0 0.99 0 1.98 0 3 C-1.76858691 3.67260351 -3.53996016 4.33788395 -5.3125 5 C-6.29863281 5.37125 -7.28476563 5.7425 -8.30078125 6.125 C-11 7 -11 7 -14 7 C-13.67 5.35 -13.34 3.7 -13 2 C-8.46298506 0.54815522 -4.81938524 -0.23509196 0 0 Z " fill="#27A3CB" transform="translate(129,98)"/>
<path d="M0 0 C0.99 0.33 1.98 0.66 3 1 C2.34644531 1.391875 1.69289063 1.78375 1.01953125 2.1875 C-1.21947671 3.82343365 -1.21947671 3.82343365 -1.42578125 6.375 C-1.38839844 7.24125 -1.35101563 8.1075 -1.3125 9 C-1.28800781 9.86625 -1.26351562 10.7325 -1.23828125 11.625 C-1.07318805 14.14700782 -1.07318805 14.14700782 0 17 C1.65 17 3.3 17 5 17 C5 17.66 5 18.32 5 19 C6.32 18.67 7.64 18.34 9 18 C9.33 18.66 9.66 19.32 10 20 C2.75898264 20.61364554 2.75898264 20.61364554 -0.9375 17.625 C-3.82073643 13.95542636 -4.32654752 11.75819529 -4.30078125 7.04296875 C-3.84084984 3.91901903 -2.18000297 2.18000297 0 0 Z " fill="#D3EBE1" transform="translate(96,142)"/>
<path d="M0 0 C0.99 0.66 1.98 1.32 3 2 C1.3125 3.5625 1.3125 3.5625 -1 5 C-3.75 4.6875 -3.75 4.6875 -6 4 C-6 4.66 -6 5.32 -6 6 C-8.97 5.505 -8.97 5.505 -12 5 C-12 4.01 -12 3.02 -12 2 C-7.83998439 0.41523215 -4.45843134 -0.39630501 0 0 Z " fill="#EAF7F6" transform="translate(127,103)"/>
<path d="M0 0 C2.09749995 2.35968744 2.96905704 3.54616994 3.1875 6.75 C3.125625 7.4925 3.06375 8.235 3 9 C-6.59453303 6.29384966 -6.59453303 6.29384966 -10 2 C-6.67465243 0.89155081 -4.37817425 1.15545644 -1 2 C-0.67 1.34 -0.34 0.68 0 0 Z " fill="#324445" transform="translate(106,99)"/>
<path d="M0 0 C0 1.32 0 2.64 0 4 C0.66 4 1.32 4 2 4 C2 4.66 2 5.32 2 6 C1.34 6 0.68 6 0 6 C0 6.66 0 7.32 0 8 C-2.31 8 -4.62 8 -7 8 C-7.1875 5.125 -7.1875 5.125 -7 2 C-4 0 -4 0 0 0 Z " fill="#ADADAD" transform="translate(56,177)"/>
<path d="M0 0 C2.125 0.375 2.125 0.375 4 1 C4 6.33333333 4 11.66666667 4 17 C3.01 16.34 2.02 15.68 1 15 C0.59156077 12.28796348 0.86663133 9.7562858 1 7 C0.01 7.33 -0.98 7.66 -2 8 C-2.66 6.35 -3.32 4.7 -4 3 C-3.34 2.67 -2.68 2.34 -2 2 C-1.34 1.34 -0.68 0.68 0 0 Z " fill="#D7D5D3" transform="translate(84,73)"/>
<path d="M0 0 C1.98 0.495 1.98 0.495 4 1 C4 4.63 4 8.26 4 12 C2.68 12 1.36 12 0 12 C-1.1898306 9.6203388 -1.13349966 8.08514265 -1.125 5.4375 C-1.12886719 4.22900391 -1.12886719 4.22900391 -1.1328125 2.99609375 C-1 1 -1 1 0 0 Z " fill="#FCFCF7" transform="translate(144,78)"/>
<path d="M0 0 C2.66916589 0.61009506 4.55724946 0.15756263 7.1875 -0.5 C7.5175 1.48 7.8475 3.46 8.1875 5.5 C7.5275 5.5 6.8675 5.5 6.1875 5.5 C6.1875 4.18 6.1875 2.86 6.1875 1.5 C5.5275 1.5 4.8675 1.5 4.1875 1.5 C4.1875 2.82 4.1875 4.14 4.1875 5.5 C1.8775 5.5 -0.4325 5.5 -2.8125 5.5 C-3.1425 3.85 -3.4725 2.2 -3.8125 0.5 C-1.8125 -0.5 -1.8125 -0.5 0 0 Z " fill="#8B8B8B" transform="translate(75.8125,193.5)"/>
<path d="M0 0 C0 1.98 0 3.96 0 6 C-0.33 4.68 -0.66 3.36 -1 2 C-1.66 2 -2.32 2 -3 2 C-3 3.32 -3 4.64 -3 6 C-5.31 6 -7.62 6 -10 6 C-10.33 4.68 -10.66 3.36 -11 2 C-7.00042393 -0.06874624 -4.43559483 -1.37656391 0 0 Z " fill="#949494" transform="translate(130,193)"/>
<path d="M0 0 C3 2 3 2 3.9375 4.3125 C4 7 4 7 2.3125 9.6875 C0.1195285 11.8804715 -1.15335742 12.91532224 -4 14 C-6.578125 13.9765625 -6.578125 13.9765625 -9.25 13.625 C-10.14203125 13.51414063 -11.0340625 13.40328125 -11.953125 13.2890625 C-12.62859375 13.19367188 -13.3040625 13.09828125 -14 13 C-13.67 12.34 -13.34 11.68 -13 11 C-12.30132812 11.03480469 -11.60265625 11.06960937 -10.8828125 11.10546875 C-9.97273438 11.13253906 -9.06265625 11.15960938 -8.125 11.1875 C-7.22007813 11.22230469 -6.31515625 11.25710937 -5.3828125 11.29296875 C-4.59648438 11.19628906 -3.81015625 11.09960938 -3 11 C-1.06604999 8.09907498 -0.69868059 7.10325263 -0.375 3.8125 C-0.25125 2.554375 -0.1275 1.29625 0 0 Z " fill="#446857" transform="translate(80,150)"/>
<path d="M0 0 C2.28827539 2.28827539 2.42255351 3.27122511 3 6.375 C3.59973478 9.57715537 4.43134215 12.13719943 6 15 C2 15 2 15 0.265625 13.32421875 C-1.22391452 10.58879896 -1.34139981 8.90638361 -1.25 5.8125 C-1.23453125 4.93207031 -1.2190625 4.05164063 -1.203125 3.14453125 C-1 1 -1 1 0 0 Z " fill="#255D40" transform="translate(62,146)"/>
<path d="M0 0 C1.67542976 0.28604898 3.34385343 0.61781233 5 1 C6.125 5.75 6.125 5.75 5 8 C3.33388095 8.042721 1.66617115 8.04063832 0 8 C-1 7 -1 7 -1.125 4 C-1 1 -1 1 0 0 Z " fill="#646464" transform="translate(70,177)"/>
<path d="M0 0 C0.99 0 1.98 0 3 0 C3.2475 0.78375 3.495 1.5675 3.75 2.375 C5.15389099 5.32317108 6.00675737 5.9024777 9 7 C3.375 9 3.375 9 0 9 C-0.99 9.66 -1.98 10.32 -3 11 C-3.66 10.34 -4.32 9.68 -5 9 C-4.01 8.67 -3.02 8.34 -2 8 C-0.5522078 5.10441559 0 3.25811062 0 0 Z " fill="#EFF5F2" transform="translate(86,156)"/>
<path d="M0 0 C0.99 0 1.98 0 3 0 C3.66 0.66 4.32 1.32 5 2 C5 1.67 5 1.34 5 1 C6.65 1 8.3 1 10 1 C10 1.66 10 2.32 10 3 C10.99 3.33 11.98 3.66 13 4 C13 5.32 13 6.64 13 8 C11.20249935 7.43489946 9.41208377 6.84722594 7.625 6.25 C6.62726563 5.92515625 5.62953125 5.6003125 4.6015625 5.265625 C1.70207827 3.8550651 1.04162718 2.98683456 0 0 Z " fill="#A79781" transform="translate(82,113)"/>
<path d="M0 0 C0.66 0 1.32 0 2 0 C2 2.97 2 5.94 2 9 C-0.31 9 -2.62 9 -5 9 C-5.33 7.35 -5.66 5.7 -6 4 C-2.25 2.875 -2.25 2.875 0 4 C0 2.68 0 1.36 0 0 Z " fill="#8A8A8A" transform="translate(96,176)"/>
<path d="M0 0 C0 1.65 0 3.3 0 5 C-0.66 5 -1.32 5 -2 5 C-2.37125 4.505 -2.7425 4.01 -3.125 3.5 C-5.65024981 1.47980015 -7.89807771 1.52995823 -11.05859375 1.62890625 C-13.95364066 2.18228544 -15.27502636 3.70003515 -17 6 C-17.66 5.67 -18.32 5.34 -19 5 C-18 2 -18 2 -15.375 0.3125 C-10.10303299 -1.73770939 -5.42403421 -1.31491738 0 0 Z " fill="#557166" transform="translate(109,141)"/>
<path d="M0 0 C0.99 0.33 1.98 0.66 3 1 C3.98154808 6.75579793 4.18321402 12.35427972 4.1875 18.1875 C4.19974609 19.07630859 4.21199219 19.96511719 4.22460938 20.88085938 C4.22654297 21.73873047 4.22847656 22.59660156 4.23046875 23.48046875 C4.23457764 24.25285889 4.23868652 25.02524902 4.24291992 25.82104492 C3.97116924 28.25860758 3.2131868 29.88586349 2 32 C1.67 32 1.34 32 1 32 C1.00523682 31.20827393 1.01047363 30.41654785 1.01586914 29.60083008 C1.03668937 26.00472816 1.04967627 22.40863895 1.0625 18.8125 C1.07087891 17.56662109 1.07925781 16.32074219 1.08789062 15.03710938 C1.09111328 13.83505859 1.09433594 12.63300781 1.09765625 11.39453125 C1.10551147 9.73707886 1.10551147 9.73707886 1.11352539 8.04614258 C1.00901923 5.24200621 0.64097959 2.72582671 0 0 Z " fill="#FCF6E9" transform="translate(153,64)"/>
<path d="M0 0 C0.33 0.99 0.66 1.98 1 3 C0.67 3.66 0.34 4.32 0 5 C1.32 5.66 2.64 6.32 4 7 C3.34 7 2.68 7 2 7 C2 7.66 2 8.32 2 9 C1.01 9.66 0.02 10.32 -1 11 C-0.01 11.99 0.98 12.98 2 14 C-0.875 14.125 -0.875 14.125 -4 14 C-4.66 13.34 -5.32 12.68 -6 12 C-4.625 10 -4.625 10 -3 8 C-2.34 8 -1.68 8 -1 8 C-1.20625 7.05125 -1.4125 6.1025 -1.625 5.125 C-1.74875 4.09375 -1.8725 3.0625 -2 2 C-1.34 1.34 -0.68 0.68 0 0 Z " fill="#2B2A2C" transform="translate(106,60)"/>
<path d="M0 0 C1.45792884 -0.05399736 2.91642712 -0.09279177 4.375 -0.125 C5.18710937 -0.14820313 5.99921875 -0.17140625 6.8359375 -0.1953125 C9 0 9 0 11 2 C10.34 2.66 9.68 3.32 9 4 C8.53340269 6.72469786 8.16400746 9.38179802 7.875 12.125 C7.78863281 12.87910156 7.70226563 13.63320312 7.61328125 14.41015625 C7.40110739 16.27257127 7.19954237 18.13618931 7 20 C6.67 20 6.34 20 6 20 C6 14.06 6 8.12 6 2 C4.02 2 2.04 2 0 2 C0 1.34 0 0.68 0 0 Z " fill="#BAD5CA" transform="translate(43,140)"/>
<path d="M0 0 C2.97 0.99 5.94 1.98 9 3 C7.68 3.33 6.36 3.66 5 4 C5 4.66 5 5.32 5 6 C5.66 6 6.32 6 7 6 C7.33 8.31 7.66 10.62 8 13 C4.59863711 11.62087597 3.30394435 10.37388141 1.75 7.0625 C1.41484375 6.37285156 1.0796875 5.68320313 0.734375 4.97265625 C0 3 0 3 0 0 Z " fill="#1E2629" transform="translate(106,96)"/>
<path d="M0 0 C0.66 0 1.32 0 2 0 C2.3125 2.8125 2.3125 2.8125 2 6 C-0.375 7.625 -0.375 7.625 -3 9 C-4.20882096 11.00016466 -4.20882096 11.00016466 -5 13 C-5.66 13.66 -6.32 14.32 -7 15 C-7.40047444 17.32275177 -7.7397104 19.65739357 -8 22 C-8.66 21.67 -9.32 21.34 -10 21 C-9.75682719 14.19116129 -7.87854767 9.86560723 -3 5 C-2.34 5 -1.68 5 -1 5 C-0.67 3.35 -0.34 1.7 0 0 Z " fill="#F0ECDE" transform="translate(91,52)"/>
<path d="M0 0 C1.65 0 3.3 0 5 0 C5.98120464 3.05263664 5.98120464 4.94736336 5 8 C3.35 8 1.7 8 0 8 C0 5.36 0 2.72 0 0 Z " fill="#6B6B6B" transform="translate(83,177)"/>
<path d="M0 0 C1.93742341 -0.02703381 3.87495479 -0.04641125 5.8125 -0.0625 C6.89144531 -0.07410156 7.97039062 -0.08570313 9.08203125 -0.09765625 C12 0 12 0 15 1 C14.67 3.31 14.34 5.62 14 8 C13.01 8.33 12.02 8.66 11 9 C10.01 8.01 9.02 7.02 8 6 C8.99 4.35 9.98 2.7 11 1 C7.37 1 3.74 1 0 1 C0 0.67 0 0.34 0 0 Z " fill="#D9E5DF" transform="translate(173,140)"/>
<path d="M0 0 C3 1 3 1 5 3 C6.31747324 3.69748583 7.64914193 4.36959957 9 5 C8.01 5 7.02 5 6 5 C6.33 6.65 6.66 8.3 7 10 C3 10 3 10 0.75 8.3125 C-1.30611549 5.59549025 -1.44975172 4.32816273 -1 1 C-0.67 0.67 -0.34 0.34 0 0 Z " fill="#CFD1D2" transform="translate(119,86)"/>
<path d="M0 0 C1.94921875 0.66796875 1.94921875 0.66796875 4 2 C4.64453125 4.42578125 4.64453125 4.42578125 4.8125 7.3125 C4.88082031 8.25738281 4.94914062 9.20226562 5.01953125 10.17578125 C5.00049987 12.92771844 4.63723299 15.32945871 4 18 C3.67 18 3.34 18 3 18 C2.87882812 17.443125 2.75765625 16.88625 2.6328125 16.3125 C1.76317854 12.35232071 0.85595989 8.41829837 -0.1875 4.5 C-0.5896875 2.7675 -0.5896875 2.7675 -1 1 C-0.67 0.67 -0.34 0.34 0 0 Z " fill="#151F19" transform="translate(119,75)"/>
<path d="M0 0 C-3 2 -3 2 -6.0625 3.4375 C-9.2229398 4.82080155 -9.2229398 4.82080155 -11 8 C-10.34 8.33 -9.68 8.66 -9 9 C-9.99 9.33 -10.98 9.66 -12 10 C-12 9.01 -12 8.02 -12 7 C-12.66 6.67 -13.32 6.34 -14 6 C-13.34 6 -12.68 6 -12 6 C-12 5.34 -12 4.68 -12 4 C-12.66 3.67 -13.32 3.34 -14 3 C-8.79504876 -0.23551023 -6.0801039 -1.21602078 0 0 Z " fill="#F4F1E7" transform="translate(96,43)"/>
<path d="M0 0 C1.32 0 2.64 0 4 0 C4 0.66 4 1.32 4 2 C2.68 2.33 1.36 2.66 0 3 C0 3.99 0 4.98 0 6 C0.99 6.33 1.98 6.66 3 7 C3 6.34 3 5.68 3 5 C2.34 4.67 1.68 4.34 1 4 C3.64 3.34 6.28 2.68 9 2 C9 2.66 9 3.32 9 4 C8.34 4 7.68 4 7 4 C7 5.32 7 6.64 7 8 C0.84765625 8.09765625 0.84765625 8.09765625 -1 8 C-2 7 -2 7 -2.1875 4.5625 C-2 2 -2 2 0 0 Z " fill="#5C5C5C" transform="translate(136,191)"/>
<path d="M0 0 C0 1.65 0 3.3 0 5 C-0.82757813 4.26330078 -0.82757813 4.26330078 -1.671875 3.51171875 C-4.46370069 1.69890576 -5.96185741 1.6827049 -9.25 1.8125 C-10.14203125 1.83957031 -11.0340625 1.86664063 -11.953125 1.89453125 C-12.96632813 1.94673828 -12.96632813 1.94673828 -14 2 C-14.66 3.32 -15.32 4.64 -16 6 C-16.66 5.67 -17.32 5.34 -18 5 C-17 2 -17 2 -14.375 0.3125 C-9.49032656 -1.58709523 -4.99187205 -1.59739906 0 0 Z " fill="#4A665C" transform="translate(132,141)"/>
<path d="M0 0 C0.66 0 1.32 0 2 0 C1.34 1.32 0.68 2.64 0 4 C-0.66 4 -1.32 4 -2 4 C-2 4.66 -2 5.32 -2 6 C-3.58960328 7.80636736 -4.83852297 8.91926148 -7 10 C-9.3400417 9.71758117 -11.67504723 9.38749213 -14 9 C-10.4681753 6.6454502 -6.83040236 4.50381821 -3.1796875 2.33984375 C-1.10072941 1.1780984 -1.10072941 1.1780984 0 0 Z " fill="#F7F0E3" transform="translate(141,114)"/>
<path d="M0 0 C0.53625 0.226875 1.0725 0.45375 1.625 0.6875 C0.635 1.0175 -0.355 1.3475 -1.375 1.6875 C-1.375 3.0075 -1.375 4.3275 -1.375 5.6875 C-0.385 6.3475 0.605 7.0075 1.625 7.6875 C-1.345 7.6875 -4.315 7.6875 -7.375 7.6875 C-7.705 6.0375 -8.035 4.3875 -8.375 2.6875 C-2.95961538 -0.38942308 -2.95961538 -0.38942308 0 0 Z " fill="#ACACAC" transform="translate(132.375,177.3125)"/>
<path d="M0 0 C7.75 0.875 7.75 0.875 10 2 C9.67 3.32 9.34 4.64 9 6 C4.545 5.01 4.545 5.01 0 4 C0 2.68 0 1.36 0 0 Z " fill="#FBFBF9" transform="translate(103,111)"/>
<path d="M0 0 C1.65 0 3.3 0 5 0 C4.34 2.64 3.68 5.28 3 8 C1.02 8 -0.96 8 -3 8 C-3 6.68 -3 5.36 -3 4 C-2.34 3.67 -1.68 3.34 -1 3 C-0.67 2.01 -0.34 1.02 0 0 Z " fill="#F6F8F6" transform="translate(107,85)"/>
<path d="M0 0 C0.33 1.65 0.66 3.3 1 5 C-3.62 4.34 -8.24 3.68 -13 3 C-13 2.67 -13 2.34 -13 2 C-4.57142857 -0.28571429 -4.57142857 -0.28571429 0 0 Z " fill="#D5E9E3" transform="translate(103,74)"/>
<path d="M0 0 C1.25 3.0625 1.25 3.0625 2 6 C0.0625 5.6875 0.0625 5.6875 -2 5 C-2.33 4.01 -2.66 3.02 -3 2 C-4.32 2 -5.64 2 -7 2 C-7.33 3.65 -7.66 5.3 -8 7 C-8.66 7 -9.32 7 -10 7 C-9.34 4.69 -8.68 2.38 -8 0 C-5.00700971 -0.96203259 -2.87793741 -1.4389687 0 0 Z " fill="#5A5B5B" transform="translate(124,71)"/>
<path d="M0 0 C1.32 0.66 2.64 1.32 4 2 C3 5 3 5 1 6 C0.27840576 7.64363134 -0.39351421 9.31050386 -1 11 C-2 8 -2 8 -2 6 C-2.99 6 -3.98 6 -5 6 C-3.63016497 2.83884224 -3.0109362 2.0072908 0 0 Z " fill="#BCAE97" transform="translate(90,45)"/>
<path d="M0 0 C3.3 0 6.6 0 10 0 C10.33 1.65 10.66 3.3 11 5 C8.3125 5.8125 8.3125 5.8125 5 6 C2.125 3.625 2.125 3.625 0 1 C0 0.67 0 0.34 0 0 Z " fill="#A8987E" transform="translate(82,106)"/>
<path d="M0 0 C0.66 0 1.32 0 2 0 C2 0.66 2 1.32 2 2 C2.66 1.34 3.32 0.68 4 0 C5.32 0 6.64 0 8 0 C8 0.99 8 1.98 8 3 C5.69 3 3.38 3 1 3 C1.33 4.98 1.66 6.96 2 9 C-0.97 8.505 -0.97 8.505 -4 8 C-3.67 6.68 -3.34 5.36 -3 4 C-2.01 4 -1.02 4 0 4 C0 2.68 0 1.36 0 0 Z " fill="#16433C" transform="translate(128,87)"/>
<path d="M0 0 C0.99 0.66 1.98 1.32 3 2 C2.01 4.97 1.02 7.94 0 11 C-0.66 11 -1.32 11 -2 11 C-2.99 8.69 -3.98 6.38 -5 4 C-4.01 3.01 -3.02 2.02 -2 1 C-2 2.65 -2 4.3 -2 6 C-1.34 6 -0.68 6 0 6 C0 4.02 0 2.04 0 0 Z " fill="#EBE4D5" transform="translate(72,79)"/>
<path d="M0 0 C1.5 1.3125 1.5 1.3125 3 3 C3 3.99 3 4.98 3 6 C3.66 6 4.32 6 5 6 C5.33 8.31 5.66 10.62 6 13 C3.67241689 12.06896676 2.25642868 11.34617872 0.75 9.3125 C-0.27095909 6.16454282 -0.12632947 3.28456632 0 0 Z " fill="#3A6A55" transform="translate(163,148)"/>
<path d="M0 0 C2.64 0 5.28 0 8 0 C5.64046906 2.35953094 4.22104383 2.49141413 1 3 C0.67 5.64 0.34 8.28 0 11 C-0.66 10.67 -1.32 10.34 -2 10 C-2 8.02 -2 6.04 -2 4 C-2.66 4 -3.32 4 -4 4 C-4 3.34 -4 2.68 -4 2 C-2.68 2 -1.36 2 0 2 C0 1.34 0 0.68 0 0 Z " fill="#1A394B" transform="translate(115,98)"/>
<path d="M0 0 C3 2 3 2 5 4 C6.31747324 4.69748583 7.64914193 5.36959957 9 6 C8.67 6.33 8.34 6.66 8 7 C3.61691616 6.83460061 1.64234365 6.67528435 -1.4375 3.4375 C-1.953125 2.633125 -2.46875 1.82875 -3 1 C-2.01 0.67 -1.02 0.34 0 0 Z " fill="#E0DDDE" transform="translate(107,92)"/>
<path d="M0 0 C0.33 0.66 0.66 1.32 1 2 C2.65 2 4.3 2 6 2 C6.33 2.66 6.66 3.32 7 4 C5.73581754 4.69965443 4.46334598 5.38434763 3.1875 6.0625 C2.47980469 6.44535156 1.77210937 6.82820313 1.04296875 7.22265625 C-1 8 -1 8 -4 7 C-3.34 7 -2.68 7 -2 7 C-2 6.01 -2 5.02 -2 4 C-1.34 4 -0.68 4 0 4 C-0.33 3.01 -0.66 2.02 -1 1 C-0.67 0.67 -0.34 0.34 0 0 Z " fill="#C8B8A0" transform="translate(118,40)"/>
<path d="M0 0 C1.65 0 3.3 0 5 0 C4.67 1.98 4.34 3.96 4 6 C3.34 6 2.68 6 2 6 C2 6.66 2 7.32 2 8 C1.34 8 0.68 8 0 8 C0 5.36 0 2.72 0 0 Z " fill="#A5A5A5" transform="translate(77,177)"/>
<path d="M0 0 C0.99 0.33 1.98 0.66 3 1 C3 2.98 3 4.96 3 7 C0 7 -3 7 -6 7 C-5.67 6.01 -5.34 5.02 -5 4 C-5 4.66 -5 5.32 -5 6 C-4.34 6 -3.68 6 -3 6 C-3 4.68 -3 3.36 -3 2 C-2.01 1.34 -1.02 0.68 0 0 Z " fill="#707070" transform="translate(122,178)"/>
<path d="M0 0 C0.66 0.33 1.32 0.66 2 1 C2 1.66 2 2.32 2 3 C1.34 3.66 0.68 4.32 0 5 C-0.28602162 9.14509433 -0.28602162 9.14509433 1 13 C0.34 13.66 -0.32 14.32 -1 15 C-3.10306598 11.58251778 -3.40603518 8.97914475 -3 5 C-1.5 2.125 -1.5 2.125 0 0 Z " fill="#D8EDE0" transform="translate(170,143)"/>
<path d="M0 0 C0.66 0.33 1.32 0.66 2 1 C2.66 1 3.32 1 4 1 C4.99 1.33 5.98 1.66 7 2 C7 2.33 7 2.66 7 3 C7.66 3.33 8.32 3.66 9 4 C6 6 6 6 3.8125 5.625 C3.214375 5.41875 2.61625 5.2125 2 5 C1.67 6.32 1.34 7.64 1 9 C0.34 9 -0.32 9 -1 9 C-0.67 6.03 -0.34 3.06 0 0 Z " fill="#DED7CC" transform="translate(118,48)"/>
<path d="M0 0 C0.66 1.98 1.32 3.96 2 6 C-0.31 6 -2.62 6 -5 6 C-5 4.35 -5 2.7 -5 1 C-3 0 -3 0 0 0 Z " fill="#929292" transform="translate(101,193)"/>
<path d="M0 0 C2.10827055 3.16240582 2.33817465 4.50657469 2.625 8.1875 C2.69976562 9.08855469 2.77453125 9.98960937 2.8515625 10.91796875 C2.90054688 11.60503906 2.94953125 12.29210937 3 13 C0.69 13.33 -1.62 13.66 -4 14 C-3.525625 13.360625 -3.05125 12.72125 -2.5625 12.0625 C-0.52968613 8.07818481 -0.2789471 4.41505926 0 0 Z " fill="#D3E7DE" transform="translate(84,148)"/>
<path d="M0 0 C0.99 0 1.98 0 3 0 C3 2.97 3 5.94 3 9 C1.68 8.67 0.36 8.34 -1 8 C-1.04241723 5.66705225 -1.04092937 3.33297433 -1 1 C-0.67 0.67 -0.34 0.34 0 0 Z " fill="#205D43" transform="translate(113,146)"/>
<path d="M0 0 C0.556875 0.350625 1.11375 0.70125 1.6875 1.0625 C4.53886783 2.21845993 6.08517222 1.80967438 9 1 C9.66 1.99 10.32 2.98 11 4 C10.01 4 9.02 4 8 4 C8 4.66 8 5.32 8 6 C8.66 6.33 9.32 6.66 10 7 C8.35 7 6.7 7 5 7 C5.66 6.67 6.32 6.34 7 6 C7 5.34 7 4.68 7 4 C5.35 4 3.7 4 2 4 C1.34 2.68 0.68 1.36 0 0 Z " fill="#EBE8DE" transform="translate(82,99)"/>
<path d="M0 0 C1.32 0.66 2.64 1.32 4 2 C3.01 2.33 2.02 2.66 1 3 C1.33 3.66 1.66 4.32 2 5 C1.34 5 0.68 5 0 5 C0 6.65 0 8.3 0 10 C-0.99 9.67 -1.98 9.34 -3 9 C-3.75 6.75 -3.75 6.75 -4 4 C-2.0625 1.6875 -2.0625 1.6875 0 0 Z " fill="#FAFCFA" transform="translate(90,58)"/>
<path d="M0 0 C0 1.65 0 3.3 0 5 C-4.75 4.125 -4.75 4.125 -7 3 C-7 2.01 -7 1.02 -7 0 C-3.98968256 -0.93423645 -3.13349732 -1.04449911 0 0 Z " fill="#828282" transform="translate(110,194)"/>
<path d="M0 0 C2.0625 0.4375 2.0625 0.4375 4 1 C3.67 2.65 3.34 4.3 3 6 C1.35 6 -0.3 6 -2 6 C-1.125 1.125 -1.125 1.125 0 0 Z " fill="#929292" transform="translate(147,193)"/>
<path d="M0 0 C2.33294775 -0.04241723 4.66702567 -0.04092937 7 0 C8 1 8 1 8.0625 3.5625 C8.041875 4.366875 8.02125 5.17125 8 6 C7.67 4.68 7.34 3.36 7 2 C6.34 2 5.68 2 5 2 C5 3.32 5 4.64 5 6 C4.34 6 3.68 6 3 6 C3 4.68 3 3.36 3 2 C2.34 2 1.68 2 1 2 C0.67 3.32 0.34 4.64 0 6 C0 4.02 0 2.04 0 0 Z " fill="#686868" transform="translate(142,179)"/>
<path d="M0 0 C2.33294775 -0.04241723 4.66702567 -0.04092937 7 0 C8 1 8 1 8.0625 3.5625 C8.041875 4.366875 8.02125 5.17125 8 6 C7.34 6 6.68 6 6 6 C6 4.68 6 3.36 6 2 C5.34 2 4.68 2 4 2 C3.67 3.32 3.34 4.64 3 6 C3 4.68 3 3.36 3 2 C2.34 2 1.68 2 1 2 C0.67 3.32 0.34 4.64 0 6 C0 4.02 0 2.04 0 0 Z " fill="#707070" transform="translate(152,179)"/>
<path d="M0 0 C1.98 0 3.96 0 6 0 C5.54625 0.515625 5.0925 1.03125 4.625 1.5625 C2.61799617 4.57300574 1.87268191 7.50927237 1 11 C0.67 11 0.34 11 0 11 C0 7.37 0 3.74 0 0 Z " fill="#F3FBF6" transform="translate(88,77)"/>
<path d="M0 0 C0.66 0.33 1.32 0.66 2 1 C2.33 0.67 2.66 0.34 3 0 C3.66 0.33 4.32 0.66 5 1 C4.67 2.32 4.34 3.64 4 5 C1.08517222 5.80967438 -0.46113217 6.21845993 -3.3125 5.0625 C-3.869375 4.711875 -4.42625 4.36125 -5 4 C-4.67 3.34 -4.34 2.68 -4 2 C-2.68 2 -1.36 2 0 2 C0 1.34 0 0.68 0 0 Z " fill="#727272" transform="translate(90,194)"/>
<path d="M0 0 C0.99 0.33 1.98 0.66 3 1 C2.67 2.65 2.34 4.3 2 6 C1.01 6 0.02 6 -1 6 C-1.33 6.99 -1.66 7.98 -2 9 C-2 6.36 -2 3.72 -2 1 C-1.34 0.67 -0.68 0.34 0 0 Z " fill="#828282" transform="translate(161,193)"/>
<path d="M0 0 C0.33 0.99 0.66 1.98 1 3 C-1.77669822 3.92556607 -3.67696895 4.19295491 -6.5625 4.25 C-7.34753906 4.27578125 -8.13257812 4.3015625 -8.94140625 4.328125 C-9.62074219 4.21984375 -10.30007812 4.1115625 -11 4 C-11.66 3.01 -12.32 2.02 -13 1 C-11.71802734 1.01740234 -11.71802734 1.01740234 -10.41015625 1.03515625 C-8.75306641 1.04869141 -8.75306641 1.04869141 -7.0625 1.0625 C-5.40927734 1.07990234 -5.40927734 1.07990234 -3.72265625 1.09765625 C-1.08552366 1.31262571 -1.08552366 1.31262571 0 0 Z " fill="#416356" transform="translate(107,160)"/>
<path d="M0 0 C0.99 0.33 1.98 0.66 3 1 C-0.625 5.875 -0.625 5.875 -4 7 C-5.39439664 7.06665376 -6.79169875 7.08538199 -8.1875 7.0625 C-10.0746875 7.0315625 -10.0746875 7.0315625 -12 7 C-9.63126023 5.72452474 -7.46746439 4.84023932 -4.875 4.0625 C-1.71969943 3.21673514 -1.71969943 3.21673514 0 0 Z " fill="#527164" transform="translate(155,157)"/>
<path d="M0 0 C-3 2 -3 2 -6.0625 2.875 C-9.10913611 3.71071826 -9.10913611 3.71071826 -10.375 6.125 C-10.58125 6.74375 -10.7875 7.3625 -11 8 C-11.66 8 -12.32 8 -13 8 C-13.33 7.01 -13.66 6.02 -14 5 C-8.84290377 0.79289518 -6.71792803 -0.12440607 0 0 Z " fill="#507263" transform="translate(76,140)"/>
<path d="M0 0 C2.97 0 5.94 0 9 0 C9.625 2.3125 9.625 2.3125 10 5 C9.01 6.485 9.01 6.485 8 8 C7.938125 7.38125 7.87625 6.7625 7.8125 6.125 C7.18447843 3.7409707 7.18447843 3.7409707 4.5625 2.875 C3.2940625 2.441875 3.2940625 2.441875 2 2 C1.34 1.34 0.68 0.68 0 0 Z " fill="#D8ECE5" transform="translate(151,140)"/>
<path d="M0 0 C4.74361909 0.24966416 5.36290301 1.36290301 9 5 C5.04 5 1.08 5 -3 5 C-2 2 -2 2 0 0 Z " fill="#ECF7F4" transform="translate(123,136)"/>
<path d="M0 0 C-1 2 -1 2 -3 3 C-4.678298 4.31866272 -6.34614767 5.65080468 -8 7 C-8.12375 6.195625 -8.2475 5.39125 -8.375 4.5625 C-8.684375 3.2940625 -8.684375 3.2940625 -9 2 C-9.66 1.67 -10.32 1.34 -11 1 C-7.26513121 0.4254048 -3.78706732 0 0 0 Z " fill="#E8E7E2" transform="translate(122,111)"/>
<path d="M0 0 C0.99 0.33 1.98 0.66 3 1 C3 1.99 3 2.98 3 4 C3.99 4 4.98 4 6 4 C6.33 3.01 6.66 2.02 7 1 C7.33 1.99 7.66 2.98 8 4 C6.02 5.32 4.04 6.64 2 8 C1.67 7.01 1.34 6.02 1 5 C-0.49985609 3.33289654 -0.49985609 3.33289654 -2 2 C-1.34 1.34 -0.68 0.68 0 0 Z " fill="#A9987D" transform="translate(137,108)"/>
<path d="M0 0 C2.875 -0.125 2.875 -0.125 6 0 C8 2 8 2 8.125 5.125 C8.08375 6.07375 8.0425 7.0225 8 8 C7.01 7.34 6.02 6.68 5 6 C5.33 5.34 5.66 4.68 6 4 C5.01 4 4.02 4 3 4 C1.3125 2 1.3125 2 0 0 Z " fill="#336C4E" transform="translate(129,80)"/>
<path d="M0 0 C0.99 0.66 1.98 1.32 3 2 C0.63707344 4.52588702 -0.66462511 5.88820837 -4 7 C-4.66666667 5.66666667 -5.33333333 4.33333333 -6 3 C-4.02 2.01 -2.04 1.02 0 0 Z " fill="#AB9A87" transform="translate(123,44)"/>
<path d="M0 0 C0.33 0 0.66 0 1 0 C1.34548714 6.33393082 0.29342747 11.10261508 -2 17 C-3.0013988 13.99580359 -3.51421457 11.12290635 -4 8 C-2.68 7.67 -1.36 7.34 0 7 C0 4.69 0 2.38 0 0 Z " fill="#DBDCD4" transform="translate(140,80)"/>
<path d="M0 0 C0.99 0.33 1.98 0.66 3 1 C3 2.65 3 4.3 3 6 C2.67 5.34 2.34 4.68 2 4 C1.34 4 0.68 4 0 4 C-0.33 4.99 -0.66 5.98 -1 7 C-2.66666667 7 -4.33333333 7 -6 7 C-4.02 4.69 -2.04 2.38 0 0 Z " fill="#E7E0D4" transform="translate(138,98)"/>
<path d="M0 0 C1.32 0.33 2.64 0.66 4 1 C3.34 2.65 2.68 4.3 2 6 C1.34 6 0.68 6 0 6 C-0.33 6.66 -0.66 7.32 -1 8 C-1.99 7.34 -2.98 6.68 -4 6 C-2.68 4.02 -1.36 2.04 0 0 Z " fill="#32525A" transform="translate(95,89)"/>
<path d="M0 0 C1.98 0.495 1.98 0.495 4 1 C3.67 2.65 3.34 4.3 3 6 C1.68 5.67 0.36 5.34 -1 5 C-0.67 3.35 -0.34 1.7 0 0 Z " fill="#8C8C8C" transform="translate(101,179)"/>
<path d="M0 0 C0.99 0.33 1.98 0.66 3 1 C3 2.65 3 4.3 3 6 C0.69 6 -1.62 6 -4 6 C-4 5.34 -4 4.68 -4 4 C-3.34 4 -2.68 4 -2 4 C-1.34 2.68 -0.68 1.36 0 0 Z " fill="#7E7E7E" transform="translate(62,179)"/>
<path d="M0 0 C1.98 0.495 1.98 0.495 4 1 C3.67 2.65 3.34 4.3 3 6 C1.68 5.67 0.36 5.34 -1 5 C-0.67 3.35 -0.34 1.7 0 0 Z " fill="#858585" transform="translate(136,179)"/>
<path d="M0 0 C0.99 0 1.98 0 3 0 C4.4606285 2.64738916 5 3.89448334 5 7 C3.68 7.33 2.36 7.66 1 8 C0.67 5.36 0.34 2.72 0 0 Z " fill="#B2B2B2" transform="translate(173,177)"/>
<path d="M0 0 C0.99 0 1.98 0 3 0 C2.67 2.31 2.34 4.62 2 7 C1.34 7 0.68 7 0 7 C-0.33 7.99 -0.66 8.98 -1 10 C-1.125 2.25 -1.125 2.25 0 0 Z " fill="#256347" transform="translate(137,145)"/>
<path d="M0 0 C0.66 0.33 1.32 0.66 2 1 C1.67 3.97 1.34 6.94 1 10 C0.01 9.34 -0.98 8.68 -2 8 C-2.3125 5 -2.3125 5 -2 2 C-1.34 1.34 -0.68 0.68 0 0 Z " fill="#275D46" transform="translate(166,144)"/>
<path d="M0 0 C3 1 3 1 5 3 C7.32275177 3.40047444 9.65739357 3.7397104 12 4 C12 4.33 12 4.66 12 5 C8.04 5 4.08 5 0 5 C-0.33 3.68 -0.66 2.36 -1 1 C-0.67 0.67 -0.34 0.34 0 0 Z " fill="#9F8B70" transform="translate(82,108)"/>
<path d="M0 0 C0.99 0.33 1.98 0.66 3 1 C2.67 2.65 2.34 4.3 2 6 C0.68 5.67 -0.64 5.34 -2 5 C-1.125 1.125 -1.125 1.125 0 0 Z " fill="#848484" transform="translate(121,193)"/>
<path d="M0 0 C0.66 0.33 1.32 0.66 2 1 C2 3.64 2 6.28 2 9 C1.01 9.33 0.02 9.66 -1 10 C-1.125 2.25 -1.125 2.25 0 0 Z " fill="#316C54" transform="translate(89,146)"/>
<path d="M0 0 C0.99 0.33 1.98 0.66 3 1 C3.99 0.67 4.98 0.34 6 0 C6.66 0.66 7.32 1.32 8 2 C3.82262526 3.59138085 0.46839215 4.21278058 -4 4 C-3.34 3.67 -2.68 3.34 -2 3 C-2 2.34 -2 1.68 -2 1 C-1.34 0.67 -0.68 0.34 0 0 Z " fill="#181D1A" transform="translate(94,72)"/>
<path d="M0 0 C2.475 0.99 2.475 0.99 5 2 C5 2.99 5 3.98 5 5 C4.071875 4.835 3.14375 4.67 2.1875 4.5 C-0.95621353 3.92251612 -0.95621353 3.92251612 -4 4 C-2.68 2.68 -1.36 1.36 0 0 Z " fill="#F1EEE4" transform="translate(133,55)"/>
<path d="M0 0 C1.32 0 2.64 0 4 0 C4 1.98 4 3.96 4 6 C2.68 6 1.36 6 0 6 C0 4.02 0 2.04 0 0 Z " fill="#828282" transform="translate(49,179)"/>
<path d="M0 0 C-0.33 2.31 -0.66 4.62 -1 7 C-1.99 7 -2.98 7 -4 7 C-4 5.02 -4 3.04 -4 1 C-2 0 -2 0 0 0 Z " fill="#1C5C41" transform="translate(160,150)"/>
<path d="M0 0 C6.4 -0.49230769 6.4 -0.49230769 9.4375 2 C10.2109375 2.99 10.2109375 2.99 11 4 C9.68 4 8.36 4 7 4 C7 3.34 7 2.68 7 2 C4.36 2 1.72 2 -1 2 C-0.67 1.34 -0.34 0.68 0 0 Z " fill="#D5F1EA" transform="translate(68,142)"/>
<path d="M0 0 C-3 2 -3 2 -6.0625 3 C-9.08055734 3.78621891 -9.08055734 3.78621891 -11 6 C-11.66 5.34 -12.32 4.68 -13 4 C-8.61350163 0.52105302 -5.57581513 -0.123907 0 0 Z " fill="#5A756B" transform="translate(151,140)"/>
<path d="M0 0 C1.66666667 0 3.33333333 0 5 0 C5 1.98 5 3.96 5 6 C1.535 4.02 1.535 4.02 -2 2 C-1.34 1.34 -0.68 0.68 0 0 Z " fill="#333236" transform="translate(98,100)"/>
<path d="M0 0 C0.33 0 0.66 0 1 0 C1.22281874 1.91503674 1.42771076 3.83216506 1.625 5.75 C1.74101562 6.81734375 1.85703125 7.8846875 1.9765625 8.984375 C2.00029475 12.03792399 1.61420985 13.46162421 0 16 C-0.33 16 -0.66 16 -1 16 C-0.67 10.72 -0.34 5.44 0 0 Z " fill="#F8F1E1" transform="translate(155,80)"/>
<path d="M0 0 C0.66 0 1.32 0 2 0 C2 2.64 2 5.28 2 8 C1.01 8 0.02 8 -1 8 C-1.04241723 5.66705225 -1.04092937 3.33297433 -1 1 C-0.67 0.67 -0.34 0.34 0 0 Z " fill="#F3FCF8" transform="translate(138,79)"/>
<path d="M0 0 C2.97 0.495 2.97 0.495 6 1 C4.68 2.65 3.36 4.3 2 6 C0.35 5.01 -1.3 4.02 -3 3 C-2.01 2.67 -1.02 2.34 0 2 C0 1.34 0 0.68 0 0 Z " fill="#232222" transform="translate(95,66)"/>
<path d="M0 0 C0.66 0 1.32 0 2 0 C2 2.97 2 5.94 2 9 C1.01 8.67 0.02 8.34 -1 8 C-0.67 5.36 -0.34 2.72 0 0 Z " fill="#959595" transform="translate(96,176)"/>
<path d="M0 0 C0 1.32 0 2.64 0 4 C-1.98 4 -3.96 4 -6 4 C-6.33 3.34 -6.66 2.68 -7 2 C-4 0 -4 0 0 0 Z " fill="#F7FDF9" transform="translate(129,164)"/>
<path d="M0 0 C0.99 0 1.98 0 3 0 C3.33 0.66 3.66 1.32 4 2 C4.66 2.144375 5.32 2.28875 6 2.4375 C6.66 2.623125 7.32 2.80875 8 3 C8.33 3.99 8.66 4.98 9 6 C5.21213403 5.4739075 2.82847776 4.61896089 0 2 C0 1.34 0 0.68 0 0 Z " fill="#B0A594" transform="translate(82,113)"/>
<path d="M0 0 C0 0.99 0 1.98 0 3 C-0.99 3.33 -1.98 3.66 -3 4 C-3 4.66 -3 5.32 -3 6 C-5.97 5.505 -5.97 5.505 -9 5 C-6.08596738 3.05731159 -3.14191424 1.53604696 0 0 Z " fill="#E4E7E2" transform="translate(131,106)"/>
<path d="M0 0 C0.33 0.99 0.66 1.98 1 3 C-1.40545638 4.20272819 -2.94996953 4.10071472 -5.625 4.0625 C-6.85089844 4.04896484 -6.85089844 4.04896484 -8.1015625 4.03515625 C-9.04128906 4.01775391 -9.04128906 4.01775391 -10 4 C-6.71536341 1.81024227 -3.79303725 1.00193437 0 0 Z " fill="#4D6D60" transform="translate(131,160)"/>
<path d="M0 0 C0.33 0 0.66 0 1 0 C1.33 2.31 1.66 4.62 2 7 C4.475 7.99 4.475 7.99 7 9 C7 9.33 7 9.66 7 10 C4.69 10 2.38 10 0 10 C0 6.7 0 3.4 0 0 Z " fill="#D6EEE6" transform="translate(50,152)"/>
<path d="M0 0 C0.33 0 0.66 0 1 0 C1 2.64 1 5.28 1 8 C0.01 8.33 -0.98 8.66 -2 9 C-3 6 -3 6 -2 3 C-1.34 3 -0.68 3 0 3 C0 2.01 0 1.02 0 0 Z " fill="#317054" transform="translate(139,149)"/>
<path d="M0 0 C0.66 0 1.32 0 2 0 C1.25749403 4.08378283 0.17076699 8.01939223 -1 12 C-1.33 12 -1.66 12 -2 12 C-2.28571429 3.42857143 -2.28571429 3.42857143 0 0 Z " fill="#D6F0E5" transform="translate(118,143)"/>
<path d="M0 0 C0.66 0.99 1.32 1.98 2 3 C1.401875 3.2475 0.80375 3.495 0.1875 3.75 C-2.28647521 5.16370012 -3.43370255 6.65055383 -5 9 C-5.33 7.68 -5.66 6.36 -6 5 C-5.34 5 -4.68 5 -4 5 C-3.67 4.01 -3.34 3.02 -3 2 C-2.01 1.34 -1.02 0.68 0 0 Z " fill="#E2EEE9" transform="translate(93,139)"/>
<path d="M0 0 C0.99 0.99 1.98 1.98 3 3 C1.6875 4.5 1.6875 4.5 0 6 C-0.99 6 -1.98 6 -3 6 C-3 5.34 -3 4.68 -3 4 C-3.66 3.67 -4.32 3.34 -5 3 C-4.360625 2.87625 -3.72125 2.7525 -3.0625 2.625 C-2.0415625 2.315625 -2.0415625 2.315625 -1 2 C-0.67 1.34 -0.34 0.68 0 0 Z " fill="#2E2E2A" transform="translate(103,93)"/>
<path d="M0 0 C1.15941038 3.47823115 0.70820884 5.45895578 0 9 C-0.99 9 -1.98 9 -3 9 C-3.1875 5.625 -3.1875 5.625 -3 2 C-2.01 1.34 -1.02 0.68 0 0 Z " fill="#DBF8FA" transform="translate(137,89)"/>
<path d="M0 0 C0.99 0.33 1.98 0.66 3 1 C3.6875 3.0625 3.6875 3.0625 4 5 C3.401875 4.79375 2.80375 4.5875 2.1875 4.375 C-0.28450846 3.69328085 -0.28450846 3.69328085 -3 6 C-2.625 3.5625 -2.625 3.5625 -2 1 C-1.34 0.67 -0.68 0.34 0 0 Z " fill="#DFE0DF" transform="translate(119,72)"/>
<path d="M0 0 C2.37948772 0.17625835 3.70225849 0.69719773 5.37890625 2.40234375 C6.62115486 3.90649092 7.81376056 5.45129851 9 7 C8.01 7.495 8.01 7.495 7 8 C7 7.34 7 6.68 7 6 C6.01 5.67 5.02 5.34 4 5 C1.8125 3.5625 1.8125 3.5625 0 2 C0 1.34 0 0.68 0 0 Z " fill="#D7D7D8" transform="translate(127,61)"/>
<path d="M0 0 C0.99 0.33 1.98 0.66 3 1 C2.67 2.65 2.34 4.3 2 6 C1.01 5.67 0.02 5.34 -1 5 C-0.67 3.35 -0.34 1.7 0 0 Z " fill="#EFEFEF" transform="translate(71,178)"/>
<path d="M0 0 C0.66 1.32 1.32 2.64 2 4 C0 5 0 5 -3.125 4.0625 C-4.07375 3.711875 -5.0225 3.36125 -6 3 C-6 2.34 -6 1.68 -6 1 C-3 0 -3 0 0 0 Z " fill="#D6E7DE" transform="translate(137,157)"/>
<path d="M0 0 C0.33 0 0.66 0 1 0 C1.27615058 1.59987236 1.52007625 3.205333 1.75 4.8125 C1.88921875 5.70582031 2.0284375 6.59914062 2.171875 7.51953125 C2 10 2 10 0.015625 11.82421875 C-0.98210938 12.40623047 -0.98210938 12.40623047 -2 13 C-2.33 12.34 -2.66 11.68 -3 11 C-2.34 10.01 -1.68 9.02 -1 8 C-0.54860541 5.9507906 -0.54860541 5.9507906 -0.375 3.8125 C-0.25125 2.554375 -0.1275 1.29625 0 0 Z " fill="#BBCFC1" transform="translate(60,149)"/>
<path d="M0 0 C0.66 0.33 1.32 0.66 2 1 C2 3.64 2 6.28 2 9 C1.34 9 0.68 9 0 9 C-0.87890625 2.84765625 -0.87890625 2.84765625 -1 1 C-0.67 0.67 -0.34 0.34 0 0 Z " fill="#D5F1E5" transform="translate(179,153)"/>
<path d="M0 0 C0.99 0.33 1.98 0.66 3 1 C2.34 1 1.68 1 1 1 C1.33 2.32 1.66 3.64 2 5 C0.33333333 5 -1.33333333 5 -3 5 C-2.625 3.0625 -2.625 3.0625 -2 1 C-1.34 0.67 -0.68 0.34 0 0 Z " fill="#47624E" transform="translate(105,83)"/>
<path d="M0 0 C0.99 0.99 1.98 1.98 3 3 C2.01 3.495 2.01 3.495 1 4 C1 4.66 1 5.32 1 6 C-0.65 6 -2.3 6 -4 6 C-2.68 4.02 -1.36 2.04 0 0 Z " fill="#939391" transform="translate(94,62)"/>
<path d="M0 0 C-2.46278801 2.46278801 -4.70676982 2.99771255 -8 4 C-8 2.68 -8 1.36 -8 0 C-4.94736336 -0.98120464 -3.05263664 -0.98120464 0 0 Z " fill="#F7EFE6" transform="translate(110,49)"/>
<path d="M0 0 C1.65 0 3.3 0 5 0 C4.34 1.65 3.68 3.3 3 5 C3.66 5.33 4.32 5.66 5 6 C4.01 6.33 3.02 6.66 2 7 C1.34 4.69 0.68 2.38 0 0 Z " fill="#ACACAC" transform="translate(83,177)"/>
<path d="M0 0 C2.97 0.99 5.94 1.98 9 3 C6.38058783 4.74627478 4.96175123 5.38722388 2 6 C1.34 4.02 0.68 2.04 0 0 Z " fill="#E5F6EF" transform="translate(139,161)"/>
<path d="M0 0 C0.66 0.33 1.32 0.66 2 1 C2 1.99 2 2.98 2 4 C1.34 4 0.68 4 0 4 C-0.33 5.98 -0.66 7.96 -1 10 C-1.33 10 -1.66 10 -2 10 C-1.85950482 8.52031676 -1.71245174 7.04125484 -1.5625 5.5625 C-1.48128906 4.73878906 -1.40007812 3.91507813 -1.31640625 3.06640625 C-1 1 -1 1 0 0 Z " fill="#C2DECE" transform="translate(66,144)"/>
<path d="M0 0 C1.32 0.33 2.64 0.66 4 1 C4.33 2.65 4.66 4.3 5 6 C3.68 6.33 2.36 6.66 1 7 C0.67 4.69 0.34 2.38 0 0 Z " fill="#EBF0E7" transform="translate(82,87)"/>
<path d="M0 0 C1.61949011 2.57213134 2.04408751 3.67669159 1.625 6.75 C1.41875 7.4925 1.2125 8.235 1 9 C0.67 8.34 0.34 7.68 0 7 C-0.99 6.67 -1.98 6.34 -3 6 C-2 4 -1 2 0 0 Z " fill="#FCFCFC" transform="translate(117,83)"/>
<path d="M0 0 C3.375 0.3125 3.375 0.3125 7 1 C7.66 1.99 8.32 2.98 9 4 C5.7 3.67 2.4 3.34 -1 3 C-0.67 2.01 -0.34 1.02 0 0 Z " fill="#FAFBF3" transform="translate(132,58)"/>
<path d="M0 0 C0.99 0.33 1.98 0.66 3 1 C3 2.98 3 4.96 3 7 C2.01 7 1.02 7 0 7 C-1.125 2.25 -1.125 2.25 0 0 Z " fill="#777777" transform="translate(112,192)"/>
<path d="M0 0 C1.67542976 0.28604898 3.34385343 0.61781233 5 1 C5.33 1.99 5.66 2.98 6 4 C4.02 4.33 2.04 4.66 0 5 C-0.5625 3.0625 -0.5625 3.0625 -1 1 C-0.67 0.67 -0.34 0.34 0 0 Z " fill="#F3F3F3" transform="translate(145,190)"/>
<path d="M0 0 C0.66 1.32 1.32 2.64 2 4 C-0.475 5.485 -0.475 5.485 -3 7 C-3 3.48283697 -2.17554415 2.62878252 0 0 Z " fill="#DBEBE4" transform="translate(158,157)"/>
<path d="M0 0 C0 3 0 3 -2 6 C-1.67 6.66 -1.34 7.32 -1 8 C-2.65 8 -4.3 8 -6 8 C-2.25 2.25 -2.25 2.25 0 0 Z " fill="#CEBFA9" transform="translate(125,117)"/>
<path d="M0 0 C1.98 1.65 3.96 3.3 6 5 C5.67 5.66 5.34 6.32 5 7 C4.01 7 3.02 7 2 7 C2 6.34 2 5.68 2 5 C1.34 5 0.68 5 0 5 C0 3.35 0 1.7 0 0 Z " fill="#F4F1E5" transform="translate(80,112)"/>
<path d="M0 0 C0 1.98 0 3.96 0 6 C-1.32 6.33 -2.64 6.66 -4 7 C-3.625 4.0625 -3.625 4.0625 -3 1 C-1 0 -1 0 0 0 Z " fill="#C0B59B" transform="translate(146,96)"/>
<path d="M0 0 C0.99 0 1.98 0 3 0 C4.79682816 3.80504787 5.07349791 4.70600835 4 9 C2.68 6.03 1.36 3.06 0 0 Z " fill="#A39682" transform="translate(75,101)"/>
<path d="M0 0 C1.32 0.33 2.64 0.66 4 1 C3.67 4.63 3.34 8.26 3 12 C2.67 12 2.34 12 2 12 C1.93941406 11.30132812 1.87882813 10.60265625 1.81640625 9.8828125 C1.73261719 8.97273438 1.64882812 8.06265625 1.5625 7.125 C1.48128906 6.22007813 1.40007812 5.31515625 1.31640625 4.3828125 C1.13010715 1.98889139 1.13010715 1.98889139 0 0 Z " fill="#B6A694" transform="translate(146,76)"/>
<path d="M0 0 C0.66 0.33 1.32 0.66 2 1 C2.625 3.5625 2.625 3.5625 3 6 C-1.75 5.25 -1.75 5.25 -4 3 C-3.01 2.67 -2.02 2.34 -1 2 C-0.67 1.34 -0.34 0.68 0 0 Z " fill="#C5BEA7" transform="translate(149,61)"/>
<path d="M0 0 C-0.20625 0.61875 -0.4125 1.2375 -0.625 1.875 C-0.74875 2.57625 -0.8725 3.2775 -1 4 C-0.34 4.66 0.32 5.32 1 6 C0.01 6.33 -0.98 6.66 -2 7 C-2.33 6.01 -2.66 5.02 -3 4 C-3.99 3.67 -4.98 3.34 -6 3 C-2.25 0 -2.25 0 0 0 Z " fill="#DFDFE0" transform="translate(100,61)"/>
<path d="M0 0 C0.33 0.66 0.66 1.32 1 2 C0.34 2 -0.32 2 -1 2 C-1 3.32 -1 4.64 -1 6 C-1.99 6 -2.98 6 -4 6 C-3.67 4.35 -3.34 2.7 -3 1 C-2.01 0.67 -1.02 0.34 0 0 Z " fill="#929292" transform="translate(144,193)"/>
<path d="M0 0 C3 2 3 2 3.8125 4.5 C3.874375 5.325 3.93625 6.15 4 7 C3.34 7.66 2.68 8.32 2 9 C2 8.34 2 7.68 2 7 C1.34 7 0.68 7 0 7 C0 4.69 0 2.38 0 0 Z " fill="#52806C" transform="translate(80,150)"/>
<path d="M0 0 C0.66 0.66 1.32 1.32 2 2 C1.7578125 4.1640625 1.7578125 4.1640625 1.125 6.625 C0.92132813 7.44226563 0.71765625 8.25953125 0.5078125 9.1015625 C0.34023437 9.72804687 0.17265625 10.35453125 0 11 C-0.33 11 -0.66 11 -1 11 C-2.25 3.375 -2.25 3.375 0 0 Z " fill="#D5F2E4" transform="translate(136,143)"/>
<path d="M0 0 C0.66 0 1.32 0 2 0 C2 0.99 2 1.98 2 3 C2.66 3 3.32 3 4 3 C4 3.99 4 4.98 4 6 C2.68 6 1.36 6 0 6 C0 4.02 0 2.04 0 0 Z " fill="#A49781" transform="translate(138,102)"/>
<path d="M0 0 C1.32 0.66 2.64 1.32 4 2 C4 2.66 4 3.32 4 4 C2 5.625 2 5.625 0 7 C-0.38133299 5.0085944 -0.71325582 3.00720923 -1 1 C-0.67 0.67 -0.34 0.34 0 0 Z " fill="#272A29" transform="translate(119,75)"/>
<path d="M0 0 C3.26954202 0.56371414 4.82575883 1.49962266 7 4 C4.125 4.125 4.125 4.125 1 4 C0.34 3.34 -0.32 2.68 -1 2 C-0.67 1.34 -0.34 0.68 0 0 Z " fill="#5D595A" transform="translate(101,70)"/>
<path d="M0 0 C2.97 0 5.94 0 9 0 C9.33 0.99 9.66 1.98 10 3 C8.68 3 7.36 3 6 3 C6 2.34 6 1.68 6 1 C4.02 1 2.04 1 0 1 C0 0.67 0 0.34 0 0 Z " fill="#D7D7D7" transform="translate(108,68)"/>
<path d="M0 0 C0.99 0.66 1.98 1.32 3 2 C2.34 3.32 1.68 4.64 1 6 C-0.32 5.67 -1.64 5.34 -3 5 C-2.67 4.01 -2.34 3.02 -2 2 C-1.34 2 -0.68 2 0 2 C0 1.34 0 0.68 0 0 Z " fill="#A18A6E" transform="translate(133,47)"/>
</svg>
