<?xml version="1.0" encoding="UTF-8"?>
<svg version="1.1" xmlns="http://www.w3.org/2000/svg" width="220" height="220">
<path d="M0 0 C72.6 0 145.2 0 220 0 C220 72.6 220 145.2 220 220 C147.4 220 74.8 220 0 220 C0 147.4 0 74.8 0 0 Z " fill="#FDFDFD" transform="translate(0,0)"/>
<path d="M0 0 C2.97 0 5.94 0 9 0 C9 3.3 9 6.6 9 10 C9.66 9.67 10.32 9.34 11 9 C13.05859375 9.015625 13.05859375 9.015625 15.4375 9.25 C16.61119141 9.35054687 16.61119141 9.35054687 17.80859375 9.453125 C21.61576881 10.40322216 22.88010233 12.82015349 25 16 C25.48210937 15.57847656 25.96421875 15.15695313 26.4609375 14.72265625 C27.40839844 13.90087891 27.40839844 13.90087891 28.375 13.0625 C29.00148438 12.51722656 29.62796875 11.97195312 30.2734375 11.41015625 C33.79890671 8.53075719 36.50364373 8.63144621 41 9 C44.93472545 10.59601314 47.6084335 12.41265025 50 16 C50.495 19.465 50.495 19.465 51 23 C51.66 18.38 52.32 13.76 53 9 C55.64 9 58.28 9 61 9 C61 15.6 61 22.2 61 29 C62.32 29 63.64 29 65 29 C66.4597922 22.33881231 67.41754805 15.79527273 68 9 C70.97 9 73.94 9 77 9 C77 15.6 77 22.2 77 29 C78.65 29 80.3 29 82 29 C82.66 22.4 83.32 15.8 84 9 C86.64 9 89.28 9 92 9 C92.33627705 17.44429039 92.45436932 26.68369534 88.1875 34.1875 C85.74297426 36.21296419 84.13806568 36.73849453 81 37 C81 37.66 81 38.32 81 39 C79.35 39.33 77.7 39.66 76 40 C75.67 42.31 75.34 44.62 75 47 C77.31 47 79.62 47 82 47 C82 47.66 82 48.32 82 49 C82.66 48.67 83.32 48.34 84 48 C85.99960012 47.960008 88.00047242 47.95653201 90 48 C89.67 51.3 89.34 54.6 89 58 C88.34 58 87.68 58 87 58 C87.7763932 61.0745356 87.7763932 61.0745356 90 63 C87.03 63 84.06 63 81 63 C80.01 61.02 80.01 61.02 79 59 C75.842224 56.894816 75.04602866 56.74710656 71.4375 56.8125 C70.25994141 56.82216797 70.25994141 56.82216797 69.05859375 56.83203125 C66.93645328 56.87635911 66.93645328 56.87635911 65 58 C63 57 63 57 62 54 C61.34 54.99 60.68 55.98 60 57 C57.28515625 57.46875 57.28515625 57.46875 54.0625 57.5 C52.47115234 57.54640625 52.47115234 57.54640625 50.84765625 57.59375 C48 57 48 57 46.12109375 54.46875 C45.56615234 53.24671875 45.56615234 53.24671875 45 52 C44.7215625 52.8971875 44.7215625 52.8971875 44.4375 53.8125 C42.27313341 57.10610133 39.66239494 57.75851019 36 59 C33.0625 59.1875 33.0625 59.1875 31 59 C31 58.01 31 57.02 31 56 C29.35425434 55.97311849 27.70838587 55.95365877 26.0625 55.9375 C25.14597656 55.92589844 24.22945313 55.91429687 23.28515625 55.90234375 C21.03406673 55.74050951 21.03406673 55.74050951 20 57 C17.66705225 57.04241723 15.33297433 57.04092937 13 57 C10.06588869 57 8.40108554 58.39927631 6 60 C5.505 60.99 5.505 60.99 5 62 C4.01 61.505 4.01 61.505 3 61 C3 59.68 3 58.36 3 57 C2.195625 57.2784375 2.195625 57.2784375 1.375 57.5625 C-1.6357192 58.11710617 -3.99496792 57.54090577 -7 57 C-8.03125 57.020625 -9.0625 57.04125 -10.125 57.0625 C-13.05556202 56.99879213 -14.53643755 56.51603843 -17 55 C-17 55.66 -17 56.32 -17 57 C-20.3 57 -23.6 57 -27 57 C-28.50156874 53.99686252 -28.09281204 51.20932478 -28.0625 47.875 C-28.05347656 46.59367187 -28.04445313 45.31234375 -28.03515625 43.9921875 C-28.02355469 43.00476563 -28.01195313 42.01734375 -28 41 C-27.67 41.99 -27.34 42.98 -27 44 C-26.01 44 -25.02 44 -24 44 C-23.67 44.99 -23.34 45.98 -23 47 C-23 44.36 -23 41.72 -23 39 C-28.94 38.34 -34.88 37.68 -41 37 C-41.18468771 17.60779046 -41.18468771 17.60779046 -38.25 13.625 C-36 12 -36 12 -31 11 C-31 17.6 -31 24.2 -31 31 C-30.67 31 -30.34 31 -30 31 C-29.34 23.74 -28.68 16.48 -28 9 C-9.58333333 9 -9.58333333 9 -5.625 11.5 C-3.26024303 15.13808764 -3.1822788 18.73467611 -3 23 C-2.67 23 -2.34 23 -2 23 C-1.34 15.41 -0.68 7.82 0 0 Z M76 58 C76.99 58.495 76.99 58.495 78 59 C78 59.66 78 60.32 78 61 C77.34 61 76.68 61 76 61 C76 60.01 76 59.02 76 58 Z " fill="#F3F9F4" transform="translate(108,81)"/>
<path d="M0 0 C2.97 0 5.94 0 9 0 C9 3.3 9 6.6 9 10 C9.66 9.67 10.32 9.34 11 9 C13.05859375 9.015625 13.05859375 9.015625 15.4375 9.25 C16.61119141 9.35054687 16.61119141 9.35054687 17.80859375 9.453125 C20.49076873 10.12247348 21.44058592 10.71516229 23 13 C23.92627413 19.7229574 23.27594654 26.62734968 21 33 C19.08328283 35.33599905 17.68105411 36.65947294 15 38 C12.14693938 38.27358115 9.29429544 38.44625242 6.43359375 38.62109375 C5.63050781 38.74613281 4.82742187 38.87117188 4 39 C3.505 39.99 3.505 39.99 3 41 C3.33 41.99 3.66 42.98 4 44 C2.68 44.99 1.36 45.98 0 47 C0.99 47.33 1.98 47.66 3 48 C3.04241723 50.33294775 3.04092937 52.66702567 3 55 C1.02250178 56.97749822 -2.60531808 56.49756675 -5.3125 56.6875 C-5.98990234 56.74744141 -6.66730469 56.80738281 -7.36523438 56.86914062 C-11.14840919 57.13910325 -13.79809079 57.14832469 -17 55 C-17 55.66 -17 56.32 -17 57 C-20.3 57 -23.6 57 -27 57 C-28.50156874 53.99686252 -28.09281204 51.20932478 -28.0625 47.875 C-28.05347656 46.59367187 -28.04445313 45.31234375 -28.03515625 43.9921875 C-28.02355469 43.00476563 -28.01195313 42.01734375 -28 41 C-27.67 41.99 -27.34 42.98 -27 44 C-26.01 44 -25.02 44 -24 44 C-23.67 44.99 -23.34 45.98 -23 47 C-23 44.36 -23 41.72 -23 39 C-28.94 38.34 -34.88 37.68 -41 37 C-41.18468771 17.60779046 -41.18468771 17.60779046 -38.25 13.625 C-36 12 -36 12 -31 11 C-31 17.6 -31 24.2 -31 31 C-30.67 31 -30.34 31 -30 31 C-29.34 23.74 -28.68 16.48 -28 9 C-9.58333333 9 -9.58333333 9 -5.625 11.5 C-3.26024303 15.13808764 -3.1822788 18.73467611 -3 23 C-2.67 23 -2.34 23 -2 23 C-1.34 15.41 -0.68 7.82 0 0 Z " fill="#F7FBF7" transform="translate(108,81)"/>
<path d="M0 0 C2.87602455 -0.10852923 5.74790832 -0.1875515 8.625 -0.25 C9.43324219 -0.28351563 10.24148437 -0.31703125 11.07421875 -0.3515625 C16.56370226 -0.44082239 19.6708666 0.29692589 24 4 C26.46833917 7.70250875 26.679512 10.70451345 26 15 C24.125 18.5 24.125 18.5 22 21 C21.34 21 20.68 21 20 21 C20.3609375 21.90363281 20.721875 22.80726562 21.09375 23.73828125 C21.5578125 24.91777344 22.021875 26.09726563 22.5 27.3125 C22.9640625 28.48425781 23.428125 29.65601563 23.90625 30.86328125 C25 34 25 34 25 37 C21.7 37 18.4 37 15 37 C14.67386719 36.14535156 14.34773438 35.29070312 14.01171875 34.41015625 C13.57472656 33.30542969 13.13773438 32.20070312 12.6875 31.0625 C12.25824219 29.96035156 11.82898437 28.85820313 11.38671875 27.72265625 C10.24391139 24.69139735 10.24391139 24.69139735 7 24 C6.67 28.29 6.34 32.58 6 37 C3.03 37 0.06 37 -3 37 C-3.10459435 29.46223369 -2.71395678 22.07042383 -2.0625 14.5625 C-1.97548828 13.48806641 -1.88847656 12.41363281 -1.79882812 11.30664062 C-1.12834821 3.38504464 -1.12834821 3.38504464 0 0 Z " fill="#0C7770" transform="translate(14,81)"/>
<path d="M0 0 C2.64 0 5.28 0 8 0 C8 6.6 8 13.2 8 20 C9.32 20 10.64 20 12 20 C13.4597922 13.33881231 14.41754805 6.79527273 15 0 C17.97 0 20.94 0 24 0 C24 6.6 24 13.2 24 20 C25.65 20 27.3 20 29 20 C29.66 13.4 30.32 6.8 31 0 C33.64 0 36.28 0 39 0 C39.33435887 8.39612267 39.49826102 17.69265342 35.1875 25.125 C32.21105703 27.67623683 30.0279639 29.0755516 26.0078125 28.92578125 C22.87295125 28.5755495 19.99295578 27.99765193 17 27 C15.88625 27.4640625 15.88625 27.4640625 14.75 27.9375 C11.24398857 29.29209532 8.73420699 29.40009361 5 29 C2.24670979 27.20437595 0.47372539 25.94745078 -1 23 C-1.09892058 20.05274854 -1.13891102 17.13431802 -1.125 14.1875 C-1.12886719 13.37990234 -1.13273438 12.57230469 -1.13671875 11.74023438 C-1.13009448 7.69612048 -1.0084017 3.94557174 0 0 Z " fill="#0E7972" transform="translate(161,90)"/>
<path d="M0 0 C3.25600615 1.37605022 6.36268867 2.72537735 8 6 C8.55493184 13.03269384 8.40327424 18.7606639 5 25 C4.34 25 3.68 25 3 25 C3 25.66 3 26.32 3 27 C-1.65787522 28.55262507 -6.14056293 28.5675255 -11 28 C-14.1875 26.375 -14.1875 26.375 -16 23 C-16.76524586 17.23282892 -17.4939912 10.47590374 -14.3125 5.3125 C-9.75236132 0.75236132 -6.54687636 -0.79014025 0 0 Z " fill="#08746E" transform="translate(149,90)"/>
<path d="M0 0 C2.5625 1.6875 2.5625 1.6875 4.5625 4.6875 C4.6496357 7.53974194 4.60995826 10.22651964 4.4375 13.0625 C4.41429688 13.81789063 4.39109375 14.57328125 4.3671875 15.3515625 C4.09072246 20.29337505 3.30162609 23.14012397 -0.4375 26.6875 C-5.36656406 28.33052135 -10.30583209 28.41367942 -15.4375 27.6875 C-18.3156382 25.97601453 -18.82564342 24.79608056 -20.4375 21.6875 C-21.25336293 17.68977166 -20.79991887 16.26237131 -18.625 12.8125 C-13.99880904 9.72837269 -9.84219637 10.26156071 -4.4375 10.6875 C-4.7675 9.3675 -5.0975 8.0475 -5.4375 6.6875 C-6.675 6.935 -7.9125 7.1825 -9.1875 7.4375 C-11.390625 7.73046875 -11.390625 7.73046875 -13.4375 7.6875 C-15.9375 5.75 -15.9375 5.75 -17.4375 3.6875 C-16.4375 0.6875 -16.4375 0.6875 -14.6484375 -0.48046875 C-9.70556751 -2.34059473 -4.85724756 -1.85458543 0 0 Z " fill="#06736C" transform="translate(60.4375,91.3125)"/>
<path d="M0 0 C2.97 0 5.94 0 9 0 C9 3.3 9 6.6 9 10 C9.66 9.67 10.32 9.34 11 9 C13.05859375 9.015625 13.05859375 9.015625 15.4375 9.25 C16.61119141 9.35054687 16.61119141 9.35054687 17.80859375 9.453125 C20.50146172 10.12514196 21.44448302 10.69625966 23 13 C23.36328125 15.8125 23.36328125 15.8125 23.3125 19 C23.30863281 20.051875 23.30476563 21.10375 23.30078125 22.1875 C23 25 23 25 21 28 C20.67 26.68 20.34 25.36 20 24 C19.34 24.33 18.68 24.66 18 25 C17 22 17 22 18 18 C14.7 17.67 11.4 17.34 8 17 C7.67 21.29 7.34 25.58 7 30 C8.093125 29.95875 9.18625 29.9175 10.3125 29.875 C14 30 14 30 17 32 C16.360625 32.28875 15.72125 32.5775 15.0625 32.875 C12.84793921 33.82823451 12.84793921 33.82823451 12 36 C8.85069107 37.04976964 6.61185544 37.10131595 3.3125 37.0625 C2.31863281 37.05347656 1.32476562 37.04445312 0.30078125 37.03515625 C-0.83810547 37.01775391 -0.83810547 37.01775391 -2 37 C-2.38747372 24.57931458 -1.20013125 12.34922287 0 0 Z " fill="#08756D" transform="translate(108,81)"/>
<path d="M0 0 C18.68833869 0 18.68833869 0 21.69433594 2.29174805 C23.29026731 4.37976821 23.36286749 5.41653983 23.328125 8.01953125 C23.32296875 8.79490234 23.3178125 9.57027344 23.3125 10.36914062 C23.291875 11.17544922 23.27125 11.98175781 23.25 12.8125 C23.24484375 13.60720703 23.2396875 14.40191406 23.234375 15.22070312 C23.17671629 19.57753922 22.85609802 23.71260588 22 28 C19.36 28 16.72 28 14 28 C14 21.73 14 15.46 14 9 C12.35 8.67 10.7 8.34 9 8 C8.34 14.6 7.68 21.2 7 28 C4.36 28 1.72 28 -1 28 C-1.02727678 25.02076997 -1.04697128 22.04179621 -1.0625 19.0625 C-1.07087891 18.23169922 -1.07925781 17.40089844 -1.08789062 16.54492188 C-1.10966956 10.94773559 -0.71159268 5.55266418 0 0 Z " fill="#07746E" transform="translate(80,90)"/>
<path d="M0 0 C1.65 0 3.3 0 5 0 C6 3 6 3 5 6 C5.66 6 6.32 6 7 6 C7.33 6.99 7.66 7.98 8 9 C10.97 9.495 10.97 9.495 14 10 C14.33 11.65 14.66 13.3 15 15 C15.99 15.33 16.98 15.66 18 16 C17.34 16.33 16.68 16.66 16 17 C15.34 17.99 14.68 18.98 14 20 C13.67 19.34 13.34 18.68 13 18 C11.02 17.67 9.04 17.34 7 17 C6.67 21.29 6.34 25.58 6 30 C3.03 30 0.06 30 -3 30 C-3.20339534 23.59304682 -2.81105658 17.4171384 -2.0625 11.0625 C-1.97564941 10.31685791 -1.88879883 9.57121582 -1.79931641 8.80297852 C-1.42085419 5.73295735 -0.98086293 2.94258878 0 0 Z " fill="#027269" transform="translate(14,88)"/>
<path d="M0 0 C0.640185 4.26790001 -0.12647215 6.71701738 -2.5 10.1875 C-5.82293047 14.34513789 -8.9339357 15.60246502 -14 17 C-14 15.68 -14 14.36 -14 13 C-14.99 14.98 -15.98 16.96 -17 19 C-19.62434747 18.63802104 -20.82013689 18.17343943 -22.75 16.3125 C-24.32663401 13.39572708 -24.22275681 11.26709987 -24 8 C-23.01 7.67 -22.02 7.34 -21 7 C-19.29144978 3.99992729 -19.29144978 3.99992729 -18 1 C-16.0625 1.375 -16.0625 1.375 -14 2 C-13.67 2.66 -13.34 3.32 -13 4 C-12.39671875 3.71125 -11.7934375 3.4225 -11.171875 3.125 C-9.97304687 2.568125 -9.97304687 2.568125 -8.75 2 C-7.56664062 1.443125 -7.56664062 1.443125 -6.359375 0.875 C-4 0 -4 0 0 0 Z " fill="#48A940" transform="translate(86,74)"/>
<path d="M0 0 C0.33 0.99 0.66 1.98 1 3 C1.99 3 2.98 3 4 3 C4.33 3.99 4.66 4.98 5 6 C5.33 5.34 5.66 4.68 6 4 C6.99 4 7.98 4 9 4 C9 6.97 9 9.94 9 13 C9.66 13 10.32 13 11 13 C11 12.34 11 11.68 11 11 C11.66 11 12.32 11 13 11 C13.33 9.68 13.66 8.36 14 7 C16.31 7 18.62 7 21 7 C21.66 8.65 22.32 10.3 23 12 C23.33 9.36 23.66 6.72 24 4 C24.99 4 25.98 4 27 4 C27 4.99 27 5.98 27 7 C28.32 7 29.64 7 31 7 C31.04241723 9.33294775 31.04092937 11.66702567 31 14 C29.02250178 15.97749822 25.39468192 15.49756675 22.6875 15.6875 C22.01009766 15.74744141 21.33269531 15.80738281 20.63476562 15.86914062 C16.85159081 16.13910325 14.20190921 16.14832469 11 14 C11 14.66 11 15.32 11 16 C7.7 16 4.4 16 1 16 C-0.50156874 12.99686252 -0.09281204 10.20932478 -0.0625 6.875 C-0.05347656 5.59367187 -0.04445313 4.31234375 -0.03515625 2.9921875 C-0.02355469 2.00476563 -0.01195313 1.01734375 0 0 Z " fill="#DCF2D7" transform="translate(80,122)"/>
<path d="M0 0 C3.25641655 1.37349847 6.36318177 2.72636355 8 6 C8.07065617 8.04055005 8.08421976 10.08334257 8.0625 12.125 C8.05347656 13.22070312 8.04445312 14.31640625 8.03515625 15.4453125 C8.02355469 16.28835937 8.01195312 17.13140625 8 18 C6.41841038 14.99112219 5.56054661 12.36327963 5 9 C4.34 10.65 3.68 12.3 3 14 C2.01 13.67 1.02 13.34 0 13 C0 15.31 0 17.62 0 20 C-2.31 20.33 -4.62 20.66 -7 21 C-8.72191818 17.55616364 -7.38954569 13.6703495 -6.86328125 9.9453125 C-6.7098372 6.86207691 -6.7098372 6.86207691 -8.98046875 4.6171875 C-9.64691406 4.08351563 -10.31335938 3.54984375 -11 3 C-7.46754199 -0.39115969 -4.78872079 -0.56815331 0 0 Z " fill="#157D76" transform="translate(149,90)"/>
<path d="M0 0 C3.06345144 -0.10822792 6.1230601 -0.18741479 9.1875 -0.25 C10.05181641 -0.28351563 10.91613281 -0.31703125 11.80664062 -0.3515625 C16.0611794 -0.41676616 18.35727716 -0.39830711 22.05078125 1.890625 C25.07694191 5.16542812 25.32516584 7.49465175 25.30078125 11.95703125 C24.84084984 15.08098097 23.18000297 16.81999703 21 19 C19.35 18.67 17.7 18.34 16 18 C15.93941406 17.39671875 15.87882812 16.7934375 15.81640625 16.171875 C15.73261719 15.37265625 15.64882813 14.5734375 15.5625 13.75 C15.48128906 12.96109375 15.40007813 12.1721875 15.31640625 11.359375 C15.00488803 8.70381637 15.00488803 8.70381637 14 5 C9.71 5 5.42 5 1 5 C0.67 3.35 0.34 1.7 0 0 Z " fill="#05736C" transform="translate(15,82)"/>
<path d="M0 0 C3.3 0.33 6.6 0.66 10 1 C10.33 2.32 10.66 3.64 11 5 C11.33 5.33 11.66 5.66 12 6 C12.33 6 12.66 6 13 6 C14.33866011 13.18008605 14.33866011 13.18008605 12.8125 16.875 C10.48275921 19.60642024 8.74315343 20.85745707 5.08325195 21.15673828 C2.80216993 21.19686866 0.53087345 21.17417306 -1.75 21.125 C-2.54277344 21.11597656 -3.33554688 21.10695313 -4.15234375 21.09765625 C-6.10169281 21.07417012 -8.05088575 21.03830137 -10 21 C-10 20.67 -10 20.34 -10 20 C-5.38 19.67 -0.76 19.34 4 19 C4.33 18.01 4.66 17.02 5 16 C5.66 15.67 6.32 15.34 7 15 C5.03177114 13.03177114 1.65191291 13.33751619 -1 13 C-1.02696365 11.20841511 -1.04637917 9.41671527 -1.0625 7.625 C-1.07410156 6.62726563 -1.08570312 5.62953125 -1.09765625 4.6015625 C-1 2 -1 2 0 0 Z " fill="#0B756F" transform="translate(116,98)"/>
<path d="M0 0 C0.99 0 1.98 0 3 0 C4.62977139 3.25954279 3.98780833 6.75582081 3.8125 10.3125 C3.79380859 11.07240234 3.77511719 11.83230469 3.75585938 12.61523438 C3.50769698 17.62637331 2.68034167 20.30490746 -1 24 C-1.99 23.67 -2.98 23.34 -4 23 C-4.33 21.35 -4.66 19.7 -5 18 C-5 18.66 -5 19.32 -5 20 C-8.63 20 -12.26 20 -16 20 C-15.01 19.67 -14.02 19.34 -13 19 C-13 17.35 -13 15.7 -13 14 C-11.35 13.34 -9.7 12.68 -8 12 C-8 11.01 -8 10.02 -8 9 C-7.38125 8.938125 -6.7625 8.87625 -6.125 8.8125 C-3.75320779 8.18624774 -3.75320779 8.18624774 -2.875 5.625 C-2.58625 4.75875 -2.2975 3.8925 -2 3 C-1.34 2.01 -0.68 1.02 0 0 Z " fill="#0B7670" transform="translate(61,94)"/>
<path d="M0 0 C1.8686783 1.8686783 3.56869327 3.69506956 5.25 5.75 C7.90090003 8.43194533 7.90090003 8.43194533 11.8125 7.8125 C12.864375 7.544375 13.91625 7.27625 15 7 C15.33 8.65 15.66 10.3 16 12 C15.25234375 12.02578125 14.5046875 12.0515625 13.734375 12.078125 C7.7203659 12.34228352 7.7203659 12.34228352 2.3125 14.6875 C0.57478246 17.74919282 0.50330773 19.5231541 1 23 C2.38885248 25.81780534 2.38885248 25.81780534 4 28 C0.55824478 30.14699969 -1.7720292 30.09856795 -5.75 29.625 C-7.22726563 29.45871094 -7.22726563 29.45871094 -8.734375 29.2890625 C-9.48203125 29.19367188 -10.2296875 29.09828125 -11 29 C-11 28.67 -11 28.34 -11 28 C-7.7 28 -4.4 28 -1 28 C-1.3609375 27.18015625 -1.721875 26.3603125 -2.09375 25.515625 C-2.5578125 24.43796875 -3.021875 23.3603125 -3.5 22.25 C-3.9640625 21.18265625 -4.428125 20.1153125 -4.90625 19.015625 C-6 16 -6 16 -6 12 C-5.34 12 -4.68 12 -4 12 C-1.78600697 8.20458337 -0.99019802 4.24370579 0 0 Z " fill="#E0F0F0" transform="translate(40,90)"/>
<path d="M0 0 C-0.96355353 17.85649203 -0.96355353 17.85649203 -2 26 C-4.64 26 -7.28 26 -10 26 C-10.24249044 6.57382123 -10.24249044 6.57382123 -7.125 2.625 C-4.76610881 0.82114203 -2.99733481 0 0 0 Z " fill="#07746D" transform="translate(77,92)"/>
<path d="M0 0 C1.66611905 -0.042721 3.33382885 -0.04063832 5 0 C6 1 6 1 6.125 4.9375 C6.07621533 9.99484385 5.58687909 14.98008777 5 20 C7.64 20 10.28 20 13 20 C13 20.33 13 20.66 13 21 C12.08476563 21.04898438 11.16953125 21.09796875 10.2265625 21.1484375 C9.03804687 21.22320312 7.84953125 21.29796875 6.625 21.375 C4.84996094 21.47941406 4.84996094 21.47941406 3.0390625 21.5859375 C-0.10562319 21.70217346 -0.10562319 21.70217346 -2 24 C-2 23.01 -2 22.02 -2 21 C-2.61488281 21.01160156 -3.22976562 21.02320312 -3.86328125 21.03515625 C-4.67152344 21.04417969 -5.47976562 21.05320312 -6.3125 21.0625 C-7.51326172 21.07990234 -7.51326172 21.07990234 -8.73828125 21.09765625 C-11 21 -11 21 -14 20 C-14 17.03 -14 14.06 -14 11 C-13.01 11.99 -12.02 12.98 -11 14 C-10.67 14 -10.34 14 -10 14 C-10 15.98 -10 17.96 -10 20 C-7.36 20 -4.72 20 -2 20 C-2.02320312 19.2265625 -2.04640625 18.453125 -2.0703125 17.65625 C-2.17928906 11.36674562 -1.85126093 6.01659801 0 0 Z " fill="#EAF4F3" transform="translate(89,98)"/>
<path d="M0 0 C0.33 0.66 0.66 1.32 1 2 C1.66 1.67 2.32 1.34 3 1 C4.99960012 0.960008 7.00047242 0.95653201 9 1 C8.67 4.3 8.34 7.6 8 11 C7.34 11 6.68 11 6 11 C6.7763932 14.0745356 6.7763932 14.0745356 9 16 C6.03 16 3.06 16 0 16 C-0.66 14.68 -1.32 13.36 -2 12 C-2.66 11.67 -3.32 11.34 -4 11 C-4 10.34 -4 9.68 -4 9 C-5.32 9 -6.64 9 -8 9 C-8.125 3.25 -8.125 3.25 -7 1 C-4.67843403 0.59270772 -2.3431213 0.25561323 0 0 Z M-5 11 C-4.01 11.495 -4.01 11.495 -3 12 C-3 12.66 -3 13.32 -3 14 C-3.66 14 -4.32 14 -5 14 C-5 13.01 -5 12.02 -5 11 Z " fill="#F0F8EF" transform="translate(189,128)"/>
<path d="M0 0 C2.16874252 0.50603992 3.99967627 0.99983813 6 2 C5.67 3.32 5.34 4.64 5 6 C5.515625 5.505 6.03125 5.01 6.5625 4.5 C9.80680017 2.50350759 12.26217334 2.78435615 16 3 C15.88590407 4.45922693 15.75834456 5.91740598 15.625 7.375 C15.55539063 8.18710938 15.48578125 8.99921875 15.4140625 9.8359375 C15 12 15 12 13 14 C10.375 14.125 10.375 14.125 8 14 C8 13.01 8 12.02 8 11 C6.700625 11.020625 5.40125 11.04125 4.0625 11.0625 C2.70834367 11.08399454 1.35243917 11.07148199 0 11 C-1 10 -1 10 -1.125 6.625 C-1 3 -1 3 0 0 Z " fill="#E4F6E1" transform="translate(131,126)"/>
<path d="M0 0 C0.33 1.32 0.66 2.64 1 4 C2.32 4.33 3.64 4.66 5 5 C2.84145761 7.15854239 0.61978408 8.45499913 -2 10 C-3.6085029 11.6085029 -3.33543801 13.46787647 -3.53515625 15.69140625 C-3.62216797 16.63564453 -3.70917969 17.57988281 -3.79882812 18.55273438 C-3.88583984 19.54595703 -3.97285156 20.53917969 -4.0625 21.5625 C-4.15337891 22.55958984 -4.24425781 23.55667969 -4.33789062 24.58398438 C-4.56258814 27.05565702 -4.78310351 29.52763256 -5 32 C-2.36 32 0.28 32 3 32 C3 32.33 3 32.66 3 33 C1.06494977 33.24900646 -0.87325934 33.47356242 -2.8125 33.6875 C-3.89144531 33.81511719 -4.97039062 33.94273438 -6.08203125 34.07421875 C-9 34 -9 34 -10.88671875 32.51953125 C-11.25410156 32.01808594 -11.62148438 31.51664063 -12 31 C-11.52433594 30.5153125 -11.04867187 30.030625 -10.55859375 29.53125 C-8.34318405 25.93329138 -8.28473899 22.65551644 -8.0625 18.5 C-7.99482422 17.74074219 -7.92714844 16.98148438 -7.85742188 16.19921875 C-7.63954815 12.59325069 -7.60042671 10.5316137 -9.80859375 7.59375 C-11.51069531 6.35585796 -13.24883033 5.16744645 -15 4 C-10.80530429 4.59924224 -6.99000166 5.57499941 -3 7 C-2.87625 6.21625 -2.7525 5.4325 -2.625 4.625 C-2 2 -2 2 0 0 Z " fill="#E6F2F2" transform="translate(72,86)"/>
<path d="M0 0 C0.33 0 0.66 0 1 0 C1.144375 1.2375 1.28875 2.475 1.4375 3.75 C1.78688502 6.56504499 2.20379366 9.2701497 3 12 C3.66 12 4.32 12 5 12 C4.67 11.34 4.34 10.68 4 10 C3.93003986 8.29297265 3.91559846 6.58331997 3.9375 4.875 C3.94652344 3.96492188 3.95554687 3.05484375 3.96484375 2.1171875 C3.97644531 1.41851562 3.98804688 0.71984375 4 0 C5.0625 1.8125 5.0625 1.8125 6 4 C5.67 4.99 5.34 5.98 5 7 C7.97 7 10.94 7 14 7 C13.01 8.485 13.01 8.485 12 10 C11.01 9.67 10.02 9.34 9 9 C8.67 13.29 8.34 17.58 8 22 C5.03 22 2.06 22 -1 22 C-1.10881556 14.60054172 -0.70865279 7.36492722 0 0 Z " fill="#137B76" transform="translate(12,96)"/>
<path d="M0 0 C2.64 0 5.28 0 8 0 C8.027193 1.58323688 8.04648306 3.16661062 8.0625 4.75 C8.07410156 5.63171875 8.08570313 6.5134375 8.09765625 7.421875 C8.00826198 9.7818838 7.66912821 11.74498524 7 14 C6.01 14 5.02 14 4 14 C4 15.98 4 17.96 4 20 C2.35 20.66 0.7 21.32 -1 22 C-1.09377123 14.58165418 -1.17402193 7.33763707 0 0 Z " fill="#04726C" transform="translate(192,90)"/>
<path d="M0 0 C5.94 0 11.88 0 18 0 C18 0.33 18 0.66 18 1 C10.08 1.495 10.08 1.495 2 2 C2 3.32 2 4.64 2 6 C6.29 6 10.58 6 15 6 C17.08120514 10.16241029 17.24191133 10.82266189 16 15 C15 16 15 16 13.15234375 16.09765625 C11.1015625 16.06510417 9.05078125 16.03255208 7 16 C7 15.01 7 14.02 7 13 C6.34 13 5.68 13 5 13 C5 11.35 5 9.7 5 8 C4.34 8.66 3.68 9.32 3 10 C3 9.01 3 8.02 3 7 C2.01 7 1.02 7 0 7 C-0.33 7.99 -0.66 8.98 -1 10 C-1.125 3.375 -1.125 3.375 0 0 Z " fill="#2C8781" transform="translate(14,81)"/>
<path d="M0 0 C0.99 0 1.98 0 3 0 C3 0.99 3 1.98 3 3 C4.32 3 5.64 3 7 3 C7.04241723 5.33294775 7.04092937 7.66702567 7 10 C5.00383446 11.99616554 1.18298037 11.40983427 -1.5625 11.5625 C-2.27341797 11.60568359 -2.98433594 11.64886719 -3.71679688 11.69335938 C-5.47761912 11.79971777 -7.2387832 11.90038846 -9 12 C-9.625 9.625 -9.625 9.625 -10 7 C-9.34 6.34 -8.68 5.68 -8 5 C-8 4.34 -8 3.68 -8 3 C-6.35 3 -4.7 3 -3 3 C-2.34 4.65 -1.68 6.3 -1 8 C-0.67 5.36 -0.34 2.72 0 0 Z " fill="#81C374" transform="translate(104,126)"/>
<path d="M0 0 C0.45375 0.495 0.9075 0.99 1.375 1.5 C2.87635519 3.22609337 2.87635519 3.22609337 5 3 C5 3.99 5 4.98 5 6 C5.66 6 6.32 6 7 6 C6.8858134 7.93816735 6.75826577 9.87555099 6.625 11.8125 C6.55539063 12.89144531 6.48578125 13.97039062 6.4140625 15.08203125 C6 18 6 18 4 21 C2.35 20.67 0.7 20.34 -1 20 C-1.12910853 13.25766581 -0.797837 6.69613196 0 0 Z " fill="#EDF6F6" transform="translate(169,90)"/>
<path d="M0 0 C2.14576637 -0.02685938 4.29162645 -0.04633088 6.4375 -0.0625 C7.63246094 -0.07410156 8.82742187 -0.08570313 10.05859375 -0.09765625 C13 0 13 0 14 1 C14.23529412 6.52941176 14.23529412 6.52941176 13 9 C10.1875 9.3125 10.1875 9.3125 7 9 C5.125 6.5 5.125 6.5 4 4 C3.34 5.32 2.68 6.64 2 8 C1.01 8 0.02 8 -1 8 C-1.125 2.25 -1.125 2.25 0 0 Z " fill="#CBE9C5" transform="translate(149,129)"/>
<path d="M0 0 C15.09090909 0 15.09090909 0 20 1 C20.66 1.99 21.32 2.98 22 4 C21.01 4.66 20.02 5.32 19 6 C17.78715124 9.05429073 17.78715124 9.05429073 17 12 C16.34 12 15.68 12 15 12 C14.67 11.01 14.34 10.02 14 9 C13.01 8.67 12.02 8.34 11 8 C10.67 6.35 10.34 4.7 10 3 C9.01 3.33 8.02 3.66 7 4 C7 3.34 7 2.68 7 2 C4.03 1.505 4.03 1.505 1 1 C0.67 1.99 0.34 2.98 0 4 C0 2.68 0 1.36 0 0 Z " fill="#05746B" transform="translate(80,90)"/>
<path d="M0 0 C2.31 0 4.62 0 7 0 C7 3.3 7 6.6 7 10 C9.97 10.33 12.94 10.66 16 11 C13 13 13 13 11 13 C10.67 13.66 10.34 14.32 10 15 C10 14.01 10 13.02 10 12 C9.67 12.66 9.34 13.32 9 14 C8.34 14 7.68 14 7 14 C6.67 14.66 6.34 15.32 6 16 C5.01 15.67 4.02 15.34 3 15 C3 13 3 13 4 12 C3.67 11.01 3.34 10.02 3 9 C3 8.01 3 7.02 3 6 C1.68 6 0.36 6 -1 6 C-0.67 4.02 -0.34 2.04 0 0 Z " fill="#0A7470" transform="translate(109,82)"/>
<path d="M0 0 C1.875 0.125 1.875 0.125 4 1 C5.5 3.5625 5.5 3.5625 6 7 C4.95907858 9.92824863 3.58501278 12.29615467 2 15 C-4.93 14.505 -4.93 14.505 -12 14 C-12.33 12.68 -12.66 11.36 -13 10 C-12.01 9.34 -11.02 8.68 -10 8 C-10 9.65 -10 11.3 -10 13 C-7.03 13 -4.06 13 -1 13 C-1.01160156 12.31292969 -1.02320313 11.62585938 -1.03515625 10.91796875 C-1.04417969 10.01691406 -1.05320312 9.11585937 -1.0625 8.1875 C-1.07410156 7.29417969 -1.08570313 6.40085937 -1.09765625 5.48046875 C-1 3 -1 3 0 0 Z " fill="#E8F1F0" transform="translate(21,105)"/>
<path d="M0 0 C1.32 0.33 2.64 0.66 4 1 C3.39363767 6.76044212 1.24341721 11.72014369 -1 17 C-0.34 17.33 0.32 17.66 1 18 C-1.62434747 17.63802104 -2.82013689 17.17343943 -4.75 15.3125 C-6.32663401 12.39572708 -6.22275681 10.26709987 -6 7 C-5.01 6.67 -4.02 6.34 -3 6 C-1.29144978 2.99992729 -1.29144978 2.99992729 0 0 Z " fill="#91C149" transform="translate(68,75)"/>
<path d="M0 0 C0.65943931 4.39626206 -0.19976398 6.7813146 -2.6875 10.3125 C-4.78864906 12.93269776 -5.64563369 13.87674215 -8.875 15 C-9.57625 15 -10.2775 15 -11 15 C-11 10.74190625 -10.7667759 9.97172226 -8 7 C-7.01 6.67 -6.02 6.34 -5 6 C-4.67 5.34 -4.34 4.68 -4 4 C-5.65 3.67 -7.3 3.34 -9 3 C-6.01800145 0.01800145 -4.21244839 0 0 0 Z " fill="#49A83A" transform="translate(86,74)"/>
<path d="M0 0 C0.33 0.99 0.66 1.98 1 3 C4.94727588 3.17942163 7.5980513 3.09350689 11 1 C11 1.99 11 2.98 11 4 C11.66 4.33 12.32 4.66 13 5 C11.205625 5.2165625 11.205625 5.2165625 9.375 5.4375 C2.99740448 6.03222482 2.99740448 6.03222482 -3 8 C-5.6723621 8.13415472 -8.32250488 8.04318541 -11 8 C-11.33 6.35 -11.66 4.7 -12 3 C-10.68 2.67 -9.36 2.34 -8 2 C-8 2.66 -8 3.32 -8 4 C-6.35 4 -4.7 4 -3 4 C-2.67 3.01 -2.34 2.02 -2 1 C-1.34 0.67 -0.68 0.34 0 0 Z " fill="#06746D" transform="translate(179,110)"/>
<path d="M0 0 C1.98 0 3.96 0 6 0 C6.05416188 1.60379341 6.09286638 3.20811406 6.125 4.8125 C6.14820312 5.70582031 6.17140625 6.59914063 6.1953125 7.51953125 C6 10 6 10 4 13 C1.375 13.1875 1.375 13.1875 -1 13 C-1.02696365 11.20841511 -1.04637917 9.41671527 -1.0625 7.625 C-1.07410156 6.62726563 -1.08570312 5.62953125 -1.09765625 4.6015625 C-1 2 -1 2 0 0 Z " fill="#F0F7FA" transform="translate(116,98)"/>
<path d="M0 0 C2.97 0 5.94 0 9 0 C9 3.3 9 6.6 9 10 C9.66 9.67 10.32 9.34 11 9 C13.05859375 9.015625 13.05859375 9.015625 15.4375 9.25 C16.61119141 9.35054687 16.61119141 9.35054687 17.80859375 9.453125 C20.50766739 10.12669062 21.45327325 10.67990988 23 13 C23.29296875 15.91796875 23.29296875 15.91796875 23.1875 19.1875 C23.16042969 20.27417969 23.13335937 21.36085938 23.10546875 22.48046875 C23.07066406 23.31191406 23.03585938 24.14335938 23 25 C22.67 25 22.34 25 22 25 C21.505 20.05 21.505 20.05 21 15 C20.34 15 19.68 15 19 15 C19.66 15.33 20.32 15.66 21 16 C20.67 17.32 20.34 18.64 20 20 C20 19.01 20 18.02 20 17 C18.68 16.67 17.36 16.34 16 16 C16 15.34 16 14.68 16 14 C15.34 13.67 14.68 13.34 14 13 C14 12.67 14 12.34 14 12 C11.03 11.505 11.03 11.505 8 11 C8 7.7 8 4.4 8 1 C5.69 1 3.38 1 1 1 C0.67 1.66 0.34 2.32 0 3 C0 2.01 0 1.02 0 0 Z " fill="#358D87" transform="translate(108,81)"/>
<path d="M0 0 C0.33 0 0.66 0 1 0 C0.85870713 2.41700987 0.71213513 4.83350429 0.5625 7.25 C0.50352539 8.27287109 0.50352539 8.27287109 0.44335938 9.31640625 C0.23333528 12.64448041 -0.01934002 15.80255402 -1 19 C-2.65614657 19.38218767 -4.32457024 19.71395102 -6 20 C-7 19 -7 19 -7.09765625 16.49609375 C-7.08605469 15.48675781 -7.07445312 14.47742188 -7.0625 13.4375 C-7.05347656 12.42558594 -7.04445312 11.41367188 -7.03515625 10.37109375 C-7.02355469 9.58863281 -7.01195312 8.80617188 -7 8 C-6.34 8 -5.68 8 -5 8 C-4.67 7.01 -4.34 6.02 -4 5 C-3.67 6.98 -3.34 8.96 -3 11 C-1.41678933 5.52225234 -1.41678933 5.52225234 0 0 Z " fill="#E1EFF0" transform="translate(191,91)"/>
<path d="M0 0 C1.2065625 0.0309375 1.2065625 0.0309375 2.4375 0.0625 C2.49141993 1.85383978 2.53025571 3.64563899 2.5625 5.4375 C2.58570313 6.43523437 2.60890625 7.43296875 2.6328125 8.4609375 C2.4375 11.0625 2.4375 11.0625 0.4375 13.0625 C-0.8825 13.0625 -2.2025 13.0625 -3.5625 13.0625 C-4.86305604 10.46138792 -4.49362435 8.87508678 -4.1875 6 C-4.09726563 5.10152344 -4.00703125 4.20304687 -3.9140625 3.27734375 C-3.41135901 0.11031178 -3.25455734 0.07937945 0 0 Z " fill="#F8FAFB" transform="translate(145.5625,97.9375)"/>
<path d="M0 0 C0.40151318 22.26167493 0.40151318 22.26167493 -3 28 C-3.95376567 24.79217914 -4.11621181 21.91812604 -4.09765625 18.578125 C-4.09443359 17.55332031 -4.09121094 16.52851562 -4.08789062 15.47265625 C-4.07951172 14.40917969 -4.07113281 13.34570312 -4.0625 12.25 C-4.05798828 11.17105469 -4.05347656 10.09210938 -4.04882812 8.98046875 C-4.03705727 6.32025617 -4.02061399 3.66015635 -4 1 C-1 0 -1 0 0 0 Z " fill="#F4F9F7" transform="translate(80,88)"/>
<path d="M0 0 C0.79921875 0.01804687 1.5984375 0.03609375 2.421875 0.0546875 C3.02515625 0.07789062 3.6284375 0.10109375 4.25 0.125 C3.26 0.785 2.27 1.445 1.25 2.125 C1.91 2.785 2.57 3.445 3.25 4.125 C3.25 5.115 3.25 6.105 3.25 7.125 C0.26503209 8.06896421 -2.62179891 8.87732831 -5.75 9.125 C-8.3125 7.25 -8.3125 7.25 -9.75 5.125 C-8.75 2.125 -8.75 2.125 -6.984375 0.9453125 C-4.49281777 0.03057995 -2.64383164 -0.07775975 0 0 Z " fill="#177C74" transform="translate(52.75,89.875)"/>
<path d="M0 0 C1.134375 0.020625 2.26875 0.04125 3.4375 0.0625 C3.32340407 1.52172693 3.19584456 2.97990598 3.0625 4.4375 C2.99289063 5.24960938 2.92328125 6.06171875 2.8515625 6.8984375 C2.4375 9.0625 2.4375 9.0625 0.4375 11.0625 C-0.8825 11.0625 -2.2025 11.0625 -3.5625 11.0625 C-3.75656478 9.41742782 -3.94257935 7.77140406 -4.125 6.125 C-4.22941406 5.20847656 -4.33382812 4.29195312 -4.44140625 3.34765625 C-4.48136719 2.59355469 -4.52132812 1.83945313 -4.5625 1.0625 C-3.5625 0.0625 -3.5625 0.0625 0 0 Z " fill="#53AB44" transform="translate(143.5625,128.9375)"/>
<path d="M0 0 C6.22413793 5.89655172 6.22413793 5.89655172 7 9 C5.625 11.75 5.625 11.75 4 14 C4.66 14.33 5.32 14.66 6 15 C6.625 17.0625 6.625 17.0625 7 19 C4.45894226 18.64950928 3.2261456 18.22179664 1.375 16.40625 C-0.521563 13.08726474 -0.29285235 10.54268455 -0.1875 6.75 C-0.16042969 5.48671875 -0.13335937 4.2234375 -0.10546875 2.921875 C-0.07066406 1.95765625 -0.03585938 0.9934375 0 0 Z " fill="#0C7871" transform="translate(133,99)"/>
<path d="M0 0 C3 1 3 1 4 3 C4.07065617 5.04055005 4.08421976 7.08334257 4.0625 9.125 C4.05347656 10.22070312 4.04445312 11.31640625 4.03515625 12.4453125 C4.02355469 13.28835937 4.01195312 14.13140625 4 15 C2.41841038 11.99112219 1.56054661 9.36327963 1 6 C0.34 7.65 -0.32 9.3 -1 11 C-1.99 10.67 -2.98 10.34 -4 10 C-4 12.31 -4 14.62 -4 17 C-4.66 16.67 -5.32 16.34 -6 16 C-5.67 11.71 -5.34 7.42 -5 3 C-3.68 3 -2.36 3 -1 3 C-0.67 2.01 -0.34 1.02 0 0 Z " fill="#20827A" transform="translate(153,93)"/>
<path d="M0 0 C0.598125 0.185625 1.19625 0.37125 1.8125 0.5625 C4.16408762 1.22093687 4.16408762 1.22093687 7 0 C7 0.66 7 1.32 7 2 C7.66 2 8.32 2 9 2 C9 1.34 9 0.68 9 0 C9.99 0 10.98 0 12 0 C10.125 5.75 10.125 5.75 9 8 C8.34 8 7.68 8 7 8 C6.67 7.34 6.34 6.68 6 6 C4.02 6.99 4.02 6.99 2 8 C0.74335022 5.09399739 0 3.20395416 0 0 Z " fill="#5DB14F" transform="translate(164,129)"/>
<path d="M0 0 C1.4540625 0.0309375 1.4540625 0.0309375 2.9375 0.0625 C2.6075 3.3625 2.2775 6.6625 1.9375 10.0625 C-0.0425 10.3925 -2.0225 10.7225 -4.0625 11.0625 C-4.0625 9.7425 -4.0625 8.4225 -4.0625 7.0625 C-4.083125 6.010625 -4.10375 4.95875 -4.125 3.875 C-4.03764983 -0.05575781 -3.96442011 0.08090653 0 0 Z " fill="#51B03E" transform="translate(195.0625,128.9375)"/>
<path d="M0 0 C0.33 0 0.66 0 1 0 C2.45892001 8.65437017 3.45520982 17.24034738 4 26 C2.0625 25.625 2.0625 25.625 0 25 C-1.29945577 22.40108846 -1.0223077 20.67333344 -0.87890625 17.7734375 C-0.83056641 16.7421875 -0.78222656 15.7109375 -0.73242188 14.6484375 C-0.67634766 13.56820312 -0.62027344 12.48796875 -0.5625 11.375 C-0.51029297 10.28703125 -0.45808594 9.1990625 -0.40429688 8.078125 C-0.27437225 5.3851419 -0.13939838 2.69250664 0 0 Z " fill="#CBE4E3" transform="translate(103,95)"/>
<path d="M0 0 C0.33 0 0.66 0 1 0 C1.31985731 6.71700347 0.4793824 11.75726932 -2 18 C-3.65 17.67 -5.3 17.34 -7 17 C-7 16.34 -7 15.68 -7 15 C-6.34 15 -5.68 15 -5 15 C-5 12.69 -5 10.38 -5 8 C-4.34 8 -3.68 8 -3 8 C-2.01 5.36 -1.02 2.72 0 0 Z " fill="#02706A" transform="translate(154,95)"/>
<path d="M0 0 C0.66 0.66 1.32 1.32 2 2 C1.9765625 4.8203125 1.9765625 4.8203125 1.625 8.125 C1.45871094 9.76855469 1.45871094 9.76855469 1.2890625 11.4453125 C1.19367188 12.28835937 1.09828125 13.13140625 1 14 C-1.64 14 -4.28 14 -7 14 C-7 10.7 -7 7.4 -7 4 C-6.67 4 -6.34 4 -6 4 C-6 5.65 -6 7.3 -6 9 C-4.02 9 -2.04 9 0 9 C0 6.03 0 3.06 0 0 Z " fill="#0F7971" transform="translate(101,104)"/>
<path d="M0 0 C2 2 2 2 2.125 5.625 C2.08375 6.73875 2.0425 7.8525 2 9 C-0.97 9 -3.94 9 -7 9 C-7.042721 7.33388095 -7.04063832 5.66617115 -7 4 C-6 3 -6 3 -3.4375 2.9375 C-2.2309375 2.9684375 -2.2309375 2.9684375 -1 3 C-0.67 2.01 -0.34 1.02 0 0 Z " fill="#057166" transform="translate(18,109)"/>
<path d="M0 0 C2.64 0 5.28 0 8 0 C8.625 2.375 8.625 2.375 9 5 C7 7 7 7 3.375 7.125 C2.26125 7.08375 1.1475 7.0425 0 7 C0 4.69 0 2.38 0 0 Z " fill="#E8F5F7" transform="translate(22,90)"/>
<path d="M0 0 C0.33 0 0.66 0 1 0 C1.33 2.31 1.66 4.62 2 7 C2.33 7 2.66 7 3 7 C3.07347656 7.90492187 3.07347656 7.90492187 3.1484375 8.828125 C3.22320312 9.62734375 3.29796875 10.4265625 3.375 11.25 C3.44460937 12.03890625 3.51421875 12.8278125 3.5859375 13.640625 C4.01507113 16.085877 4.78600638 17.84836903 6 20 C4.125 19.6875 4.125 19.6875 2 19 C1.34 18.01 0.68 17.02 0 16 C-0.680625 16.99 -0.680625 16.99 -1.375 18 C-1.91125 18.66 -2.4475 19.32 -3 20 C-3.66 20 -4.32 20 -5 20 C-5 19.34 -5 18.68 -5 18 C-4.34 18 -3.68 18 -3 18 C-1.01401507 12.04204521 -0.42954941 6.25107435 0 0 Z " fill="#D1E8E8" transform="translate(157,97)"/>
<path d="M0 0 C2.80045623 3.14591933 3.35261589 5.067064 3.1875 9.25 C3.16042969 10.14203125 3.13335937 11.0340625 3.10546875 11.953125 C3.07066406 12.62859375 3.03585938 13.3040625 3 14 C5.64 14 8.28 14 11 14 C11 14.33 11 14.66 11 15 C9.06494977 15.24900646 7.12674066 15.47356242 5.1875 15.6875 C4.10855469 15.81511719 3.02960938 15.94273438 1.91796875 16.07421875 C-1 16 -1 16 -2.88671875 14.51953125 C-3.25410156 14.01808594 -3.62148438 13.51664063 -4 13 C-3.525625 12.525625 -3.05125 12.05125 -2.5625 11.5625 C-0.31923904 7.88355203 -0.26260422 4.2378888 0 0 Z " fill="#CDE4E2" transform="translate(64,104)"/>
<path d="M0 0 C1.33332095 2.6666419 0.67102033 4.16680303 0 7 C1.32 6.01 2.64 5.02 4 4 C4.33 5.32 4.66 6.64 5 8 C4.01 8 3.02 8 2 8 C2 8.99 2 9.98 2 11 C2.66 11.33 3.32 11.66 4 12 C4 12.33 4 12.66 4 13 C7.63 13.33 11.26 13.66 15 14 C15 14.33 15 14.66 15 15 C4.53091573 15.90164362 4.53091573 15.90164362 1.08984375 13.875 C-1.17589438 11.3384302 -1.9798427 9.14686036 -2.4375 5.8125 C-2 3 -2 3 0 0 Z " fill="#308C84" transform="translate(42,104)"/>
<path d="M0 0 C1.98 0 3.96 0 6 0 C6.04241723 2.33294775 6.04092937 4.66702567 6 7 C5 8 5 8 2.5 8.125 C0 8 0 8 -1 7 C-0.71269945 4.66055264 -0.38063221 2.3260857 0 0 Z " fill="#54AE44" transform="translate(113,129)"/>
<path d="M0 0 C2.49505962 2.49505962 2.35948376 3.67328888 2.625 7.125 C2.69976562 8.03507812 2.77453125 8.94515625 2.8515625 9.8828125 C2.90054688 10.58148438 2.94953125 11.28015625 3 12 C4.65 11.34 6.3 10.68 8 10 C8 10.99 8 11.98 8 13 C5.03 13 2.06 13 -1 13 C-2.20577428 8.05632546 -1.6290678 4.79137588 0 0 Z " fill="#06736D" transform="translate(31,105)"/>
<path d="M0 0 C2.64 0 5.28 0 8 0 C8 3.3 8 6.6 8 10 C7.34 8.68 6.68 7.36 6 6 C3.94999129 5.19471111 3.94999129 5.19471111 2 5 C1.67 6.32 1.34 7.64 1 9 C0.67 6.03 0.34 3.06 0 0 Z " fill="#18817A" transform="translate(192,90)"/>
<path d="M0 0 C0.33 0.99 0.66 1.98 1 3 C1.99 3 2.98 3 4 3 C4 6.96 4 10.92 4 15 C2.68 14.67 1.36 14.34 0 14 C0 9.38 0 4.76 0 0 Z " fill="#C9E8C3" transform="translate(80,122)"/>
<path d="M0 0 C0.66 0 1.32 0 2 0 C2 0.66 2 1.32 2 2 C3.32 2.33 4.64 2.66 6 3 C5.67 2.67 5.34 2.34 5 2 C4.67 1.34 4.34 0.68 4 0 C5.32 0 6.64 0 8 0 C8 4.62 8 9.24 8 14 C7.34 12.68 6.68 11.36 6 10 C5.01 10.495 5.01 10.495 4 11 C2.95550089 7.86650268 3.06576355 7.01031744 4 4 C2.35 3.67 0.7 3.34 -1 3 C-0.67 2.01 -0.34 1.02 0 0 Z " fill="#017067" transform="translate(122,95)"/>
<path d="M0 0 C1.65 0.33 3.3 0.66 5 1 C5.48828125 3.01822917 5.9765625 5.03645833 6.46484375 7.0546875 C6.94846992 9.0585657 6.94846992 9.0585657 8 11 C3.545 10.01 3.545 10.01 -1 9 C-0.67 6.03 -0.34 3.06 0 0 Z " fill="#F7FAEE" transform="translate(57,81)"/>
<path d="M0 0 C1.99954746 -0.04254356 4.00041636 -0.04080783 6 0 C7 1 7 1 7.0625 4.5625 C7.041875 5.696875 7.02125 6.83125 7 8 C6.01 8 5.02 8 4 8 C4 6.02 4 4.04 4 2 C3.34 2 2.68 2 2 2 C2 3.98 2 5.96 2 8 C1.01 8 0.02 8 -1 8 C-1.125 2.25 -1.125 2.25 0 0 Z " fill="#62B153" transform="translate(182,129)"/>
<path d="M0 0 C1.66611905 -0.042721 3.33382885 -0.04063832 5 0 C6 1 6 1 6.0625 4.5625 C6.041875 5.696875 6.02125 6.83125 6 8 C3.69 8 1.38 8 -1 8 C-0.67 5.36 -0.34 2.72 0 0 Z " fill="#68B75B" transform="translate(73,129)"/>
<path d="M0 0 C0.33 0 0.66 0 1 0 C1 2.64 1 5.28 1 8 C2.6396875 7.690625 2.6396875 7.690625 4.3125 7.375 C8 7 8 7 11 9 C10.195625 9.12375 9.39125 9.2475 8.5625 9.375 C7.716875 9.58125 6.87125 9.7875 6 10 C5.67 10.66 5.34 11.32 5 12 C5 11.01 5 10.02 5 9 C4.67 9.66 4.34 10.32 4 11 C3.34 11 2.68 11 2 11 C1.67 11.66 1.34 12.32 1 13 C0.01 12.67 -0.98 12.34 -2 12 C-2 10 -2 10 -1 9 C-1.33 8.34 -1.66 7.68 -2 7 C-1.39239518 4.6505947 -0.72870472 2.31470912 0 0 Z " fill="#016D68" transform="translate(114,85)"/>
<path d="M0 0 C1.67542976 0.28604898 3.34385343 0.61781233 5 1 C4.67 1.99 4.34 2.98 4 4 C2.35 4 0.7 4 -1 4 C-1.33 8.29 -1.66 12.58 -2 17 C-2.33 17 -2.66 17 -3 17 C-3 15.02 -3 13.04 -3 11 C-3.66 11 -4.32 11 -5 11 C-5 8.69 -5 6.38 -5 4 C-4.01 4 -3.02 4 -2 4 C-1.67 3.01 -1.34 2.02 -1 1 C-0.67 0.67 -0.34 0.34 0 0 Z " fill="#137B75" transform="translate(117,94)"/>
<path d="M0 0 C0.99 0 1.98 0 3 0 C3 1.98 3 3.96 3 6 C3.66 6 4.32 6 5 6 C5 4.02 5 2.04 5 0 C5.66 0 6.32 0 7 0 C7 2.64 7 5.28 7 8 C5.00045254 8.04254356 2.99958364 8.04080783 1 8 C0 7 0 7 -0.0625 3.4375 C-0.041875 2.303125 -0.02125 1.16875 0 0 Z " fill="#55AD45" transform="translate(121,129)"/>
<path d="M0 0 C0.99 0 1.98 0 3 0 C3 0.99 3 1.98 3 3 C4.32 3 5.64 3 7 3 C7 5.31 7 7.62 7 10 C6.01 10 5.02 10 4 10 C4 8.35 4 6.7 4 5 C3.01 5 2.02 5 1 5 C0.67 6.32 0.34 7.64 0 9 C0 6.03 0 3.06 0 0 Z " fill="#5BB44C" transform="translate(104,126)"/>
<path d="M0 0 C1.32 0 2.64 0 4 0 C4 1.32 4 2.64 4 4 C0.69005287 5.65497356 -2.99123 5.10084335 -6.625 5.0625 C-7.42679687 5.05798828 -8.22859375 5.05347656 -9.0546875 5.04882812 C-11.03649006 5.03703168 -13.01825433 5.01909605 -15 5 C-15 4.67 -15 4.34 -15 4 C-10.38 3.67 -5.76 3.34 -1 3 C-0.67 2.01 -0.34 1.02 0 0 Z " fill="#338C85" transform="translate(121,114)"/>
<path d="M0 0 C1.98 0 3.96 0 6 0 C6.625 2.3125 6.625 2.3125 7 5 C6.01 6.485 6.01 6.485 5 8 C4.34 7.34 3.68 6.68 3 6 C2.01 6.495 2.01 6.495 1 7 C0.34 6.34 -0.32 5.68 -1 5 C-0.625 2.375 -0.625 2.375 0 0 Z M-2 3 C0 4 0 4 0 4 Z " fill="#04706A" transform="translate(146,91)"/>
<path d="M0 0 C0.33 0 0.66 0 1 0 C1 1.65 1 3.3 1 5 C1.9590625 4.7215625 1.9590625 4.7215625 2.9375 4.4375 C3.618125 4.293125 4.29875 4.14875 5 4 C6 5 6 5 6.0625 7.5625 C6.041875 8.366875 6.02125 9.17125 6 10 C4.34385343 10.38218767 2.67542976 10.71395102 1 11 C0 10 0 10 -0.09765625 7.71484375 C-0.08605469 6.79832031 -0.07445312 5.88179688 -0.0625 4.9375 C-0.05347656 4.01839844 -0.04445312 3.09929687 -0.03515625 2.15234375 C-0.02355469 1.44207031 -0.01195312 0.73179688 0 0 Z " fill="#D7E8E8" transform="translate(168,100)"/>
<path d="M0 0 C1.2065625 0.0309375 1.2065625 0.0309375 2.4375 0.0625 C2.4375 2.0425 2.4375 4.0225 2.4375 6.0625 C0.4575 6.0625 -1.5225 6.0625 -3.5625 6.0625 C-3.5625 7.7125 -3.5625 9.3625 -3.5625 11.0625 C-3.8925 11.0625 -4.2225 11.0625 -4.5625 11.0625 C-4.42207123 9.41619672 -4.27500671 7.77045821 -4.125 6.125 C-4.04378906 5.20847656 -3.96257812 4.29195313 -3.87890625 3.34765625 C-3.43241544 0.12300042 -3.2948538 0.08036229 0 0 Z " fill="#DBEDEE" transform="translate(145.5625,97.9375)"/>
<path d="M0 0 C0.125 2.875 0.125 2.875 0 6 C-0.66 6.66 -1.32 7.32 -2 8 C-2.66 7.67 -3.32 7.34 -4 7 C-4 6.01 -4 5.02 -4 4 C-5.65 3.67 -7.3 3.34 -9 3 C-6.01800145 0.01800145 -4.21244839 0 0 0 Z " fill="#51AF43" transform="translate(86,74)"/>
<path d="M0 0 C0.33 1.32 0.66 2.64 1 4 C2.32 4.33 3.64 4.66 5 5 C2.35149008 7.64850992 -0.66206447 9.33103223 -4 11 C-3.56179109 6.44262737 -3.14958831 3.42346555 0 0 Z " fill="#D5ECDC" transform="translate(72,86)"/>
<path d="M0 0 C0 0.66 0 1.32 0 2 C-1.65532623 3.01866229 -3.32260138 4.01810813 -5 5 C-5.33 5.66 -5.66 6.32 -6 7 C-6.66 6.67 -7.32 6.34 -8 6 C-8 4.68 -8 3.36 -8 2 C-8.86625 2.309375 -8.86625 2.309375 -9.75 2.625 C-12.51967567 3.08661261 -13.64561267 2.42944945 -16 1 C-10.61509359 0.08342019 -5.45769811 -0.11138159 0 0 Z " fill="#E0F4DC" transform="translate(119,136)"/>
<path d="M0 0 C0.66 0.66 1.32 1.32 2 2 C1.9765625 5.0390625 1.9765625 5.0390625 1.625 8.625 C1.51414063 9.81351563 1.40328125 11.00203125 1.2890625 12.2265625 C1.19367188 13.14179687 1.09828125 14.05703125 1 15 C0.01 15 -0.98 15 -2 15 C-1.85973717 12.68715544 -1.71264442 10.37472409 -1.5625 8.0625 C-1.48128906 6.77472656 -1.40007812 5.48695312 -1.31640625 4.16015625 C-1 1 -1 1 0 0 Z " fill="#E3F1F3" transform="translate(132,97)"/>
<path d="M0 0 C1.43739513 -0.02712066 2.87493863 -0.04645067 4.3125 -0.0625 C5.51326172 -0.07990234 5.51326172 -0.07990234 6.73828125 -0.09765625 C9 0 9 0 12 1 C12 2.65 12 4.3 12 6 C12.66 6 13.32 6 14 6 C14 6.66 14 7.32 14 8 C13.01 8 12.02 8 11 8 C10.67 6.35 10.34 4.7 10 3 C9.01 3.33 8.02 3.66 7 4 C7 3.34 7 2.68 7 2 C4.03 1.505 4.03 1.505 1 1 C0.67 1.99 0.34 2.98 0 4 C0 2.68 0 1.36 0 0 Z " fill="#308D85" transform="translate(80,90)"/>
<path d="M0 0 C0.33 1.65 0.66 3.3 1 5 C-1.97 5 -4.94 5 -8 5 C-7.67 3.68 -7.34 2.36 -7 1 C-4.53721199 -0.231394 -2.7204945 -0.07159196 0 0 Z " fill="#C6E0DE" transform="translate(55,97)"/>
<path d="M0 0 C0 2.31 0 4.62 0 7 C-0.99 6.34 -1.98 5.68 -3 5 C-3.99 5 -4.98 5 -6 5 C-6.33 7.31 -6.66 9.62 -7 12 C-7.33 12 -7.66 12 -8 12 C-8.75 8.75 -8.75 8.75 -9 5 C-6.56354113 1.69337725 -4.24099499 0 0 0 Z " fill="#23837D" transform="translate(77,92)"/>
<path d="M0 0 C1.32 0.33 2.64 0.66 4 1 C3.34 1 2.68 1 2 1 C1.71125 2.0725 1.4225 3.145 1.125 4.25 C0.27179891 7.09400364 -0.5636503 9.43508983 -2 12 C-2.66 12 -3.32 12 -4 12 C-3.33501617 7.61110675 -1.81242323 4.0188515 0 0 Z " fill="#1A9F4C" transform="translate(71,80)"/>
<path d="M0 0 C0.99 1.32 1.98 2.64 3 4 C3.33 3.01 3.66 2.02 4 1 C4.99 1 5.98 1 7 1 C7 2.65 7 4.3 7 6 C7.66 6.33 8.32 6.66 9 7 C6.03 7 3.06 7 0 7 C0 4.69 0 2.38 0 0 Z " fill="#8DC682" transform="translate(101,130)"/>
<path d="M0 0 C0.99 0 1.98 0 3 0 C3 3.63 3 7.26 3 11 C2.01 11 1.02 11 0 11 C0 7.37 0 3.74 0 0 Z " fill="#65B358" transform="translate(86,126)"/>
<path d="M0 0 C0.66 0 1.32 0 2 0 C2 0.66 2 1.32 2 2 C2.66 2 3.32 2 4 2 C4 2.66 4 3.32 4 4 C3.34 4 2.68 4 2 4 C2.33 5.98 2.66 7.96 3 10 C1.68 9.67 0.36 9.34 -1 9 C-1.125 2.25 -1.125 2.25 0 0 Z " fill="#64B054" transform="translate(131,127)"/>
<path d="M0 0 C0.33 0 0.66 0 1 0 C1 1.65 1 3.3 1 5 C1.66 5 2.32 5 3 5 C3.28571429 13.57142857 3.28571429 13.57142857 1 17 C-0.13480527 13.39006828 -0.10015767 10.0157673 -0.0625 6.25 C-0.05347656 5.07953125 -0.04445313 3.9090625 -0.03515625 2.703125 C-0.02355469 1.81109375 -0.01195313 0.9190625 0 0 Z " fill="#E7F3F5" transform="translate(76,99)"/>
<path d="M0 0 C0.99 0 1.98 0 3 0 C3 3.3 3 6.6 3 10 C2.01 10.33 1.02 10.66 0 11 C0 7.37 0 3.74 0 0 Z " fill="#77BC6B" transform="translate(177,126)"/>
<path d="M0 0 C1.33333333 0.66666667 2.66666667 1.33333333 4 2 C4 4.31 4 6.62 4 9 C1.525 8.01 1.525 8.01 -1 7 C-1.04254356 5.00045254 -1.04080783 2.99958364 -1 1 C-0.67 0.67 -0.34 0.34 0 0 Z " fill="#85C57A" transform="translate(140,129)"/>
<path d="M0 0 C0.99 0.99 1.98 1.98 3 3 C3.33 3 3.66 3 4 3 C4 4.98 4 6.96 4 9 C6.64 9 9.28 9 12 9 C12 9.33 12 9.66 12 10 C10.56260487 10.02712066 9.12506137 10.04645067 7.6875 10.0625 C6.48673828 10.07990234 6.48673828 10.07990234 5.26171875 10.09765625 C3 10 3 10 0 9 C0 6.03 0 3.06 0 0 Z " fill="#B1D6D3" transform="translate(75,109)"/>
<path d="M0 0 C1.875 0.125 1.875 0.125 4 1 C5.25 4.0625 5.25 4.0625 6 7 C5.34 7 4.68 7 4 7 C4 6.01 4 5.02 4 4 C0.77595022 5.66954819 0.77595022 5.66954819 0.3125 8.625 C0.209375 9.40875 0.10625 10.1925 0 11 C-0.33 11 -0.66 11 -1 11 C-1.125 3.375 -1.125 3.375 0 0 Z " fill="#CCEAEA" transform="translate(21,105)"/>
<path d="M0 0 C0.33 0 0.66 0 1 0 C1 4.95 1 9.9 1 15 C0.34 14.67 -0.32 14.34 -1 14 C-1.484375 11.85546875 -1.484375 11.85546875 -1.75 9.1875 C-1.84796875 8.31480469 -1.9459375 7.44210938 -2.046875 6.54296875 C-1.99616561 3.79198442 -1.41135409 2.32873426 0 0 Z " fill="#0E7973" transform="translate(75,94)"/>
<path d="M0 0 C0.92565097 3.04838441 1.04155806 5.46489969 0.6875 8.625 C0.60886719 9.40101562 0.53023437 10.17703125 0.44921875 10.9765625 C0 13 0 13 -2 15 C-2.06058594 14.38511719 -2.12117187 13.77023438 -2.18359375 13.13671875 C-2.26738281 12.32847656 -2.35117188 11.52023438 -2.4375 10.6875 C-2.51871094 9.88699219 -2.59992188 9.08648437 -2.68359375 8.26171875 C-2.95265693 5.83912821 -2.95265693 5.83912821 -4 3 C-3.01 2.67 -2.02 2.34 -1 2 C-0.67 1.34 -0.34 0.68 0 0 Z " fill="#EFF7F8" transform="translate(160,91)"/>
<path d="M0 0 C3.3 0 6.6 0 10 0 C10 0.66 10 1.32 10 2 C10.66 2.33 11.32 2.66 12 3 C3.42857143 4.42857143 3.42857143 4.42857143 0 2 C0 1.34 0 0.68 0 0 Z " fill="#1D807A" transform="translate(180,115)"/>
<path d="M0 0 C0.33 0 0.66 0 1 0 C1 1.65 1 3.3 1 5 C2.65 5.33 4.3 5.66 6 6 C5.01 6.495 5.01 6.495 4 7 C3.67 7.66 3.34 8.32 3 9 C2.67 8.34 2.34 7.68 2 7 C0.35636866 6.27840576 -1.31050386 5.60648579 -3 5 C-3 4.67 -3 4.34 -3 4 C-4.65 3.67 -6.3 3.34 -8 3 C-8 2.67 -8 2.34 -8 2 C-6.865625 1.855625 -5.73125 1.71125 -4.5625 1.5625 C-1.19222799 1.38828522 -1.19222799 1.38828522 0 0 Z " fill="#1B7B78" transform="translate(30,95)"/>
<path d="M0 0 C0.99 0.33 1.98 0.66 3 1 C3.66015625 3.03125 3.66015625 3.03125 4.0625 5.5 C4.42516952 7.91007019 4.42516952 7.91007019 5 10 C5.66 10.33 6.32 10.66 7 11 C4.37565253 10.63802104 3.17986311 10.17343943 1.25 8.3125 C-0.32663401 5.39572708 -0.22275681 3.26709987 0 0 Z " fill="#A8CC36" transform="translate(62,82)"/>
<path d="M0 0 C1.98 0 3.96 0 6 0 C6 0.66 6 1.32 6 2 C4.68 2 3.36 2 2 2 C2 3.98 2 5.96 2 8 C1.01 8 0.02 8 -1 8 C-1.125 2.25 -1.125 2.25 0 0 Z " fill="#63B155" transform="translate(149,129)"/>
<path d="M0 0 C2.64 0 5.28 0 8 0 C6.03617993 1.50559539 4.21736634 2.89131683 2 4 C2.061875 4.94875 2.12375 5.8975 2.1875 6.875 C2.125625 7.90625 2.06375 8.9375 2 10 C1.01 10.66 0.02 11.32 -1 12 C-1.08159574 7.83861737 -0.98248524 4.0527516 0 0 Z " fill="#348D89" transform="translate(161,90)"/>
<path d="M0 0 C1.98 0 3.96 0 6 0 C5.67 1.65 5.34 3.3 5 5 C3.35 5 1.7 5 0 5 C0 3.35 0 1.7 0 0 Z " fill="#D1E6E8" transform="translate(49,107)"/>
<path d="M0 0 C2.31 0 4.62 0 7 0 C6.67 0.66 6.34 1.32 6 2 C4.99515117 4.33124929 3.99477753 6.66443537 3 9 C2.01 8.67 1.02 8.34 0 8 C0 5.33333333 0 2.66666667 0 0 Z " fill="#027168" transform="translate(162,91)"/>
<path d="M0 0 C2.79192205 -0.05380578 5.5828141 -0.09357669 8.375 -0.125 C9.1690625 -0.14175781 9.963125 -0.15851563 10.78125 -0.17578125 C12.85492015 -0.19335473 14.92883241 -0.10335168 17 0 C17.66 0.66 18.32 1.32 19 2 C13.25 3.125 13.25 3.125 11 2 C9.12943209 1.7724985 7.25314042 1.59037189 5.375 1.4375 C4.37210938 1.35371094 3.36921875 1.26992187 2.3359375 1.18359375 C1.56507812 1.12300781 0.79421875 1.06242187 0 1 C0 0.67 0 0.34 0 0 Z " fill="#097772" transform="translate(17,82)"/>
<path d="M0 0 C2.57455698 2.57455698 2.41265954 4.47595722 3 8 C3.66 8.66 4.32 9.32 5 10 C4.01 10 3.02 10 2 10 C1.67 10.66 1.34 11.32 1 12 C1 11.34 1 10.68 1 10 C-0.32 9.67 -1.64 9.34 -3 9 C-2.01 9 -1.02 9 0 9 C-0.185625 7.700625 -0.37125 6.40125 -0.5625 5.0625 C-0.87890625 2.84765625 -0.87890625 2.84765625 -1 1 C-0.67 0.67 -0.34 0.34 0 0 Z " fill="#D2EBCC" transform="translate(189,128)"/>
<path d="M0 0 C0.99 0 1.98 0 3 0 C3.31369549 9.25401683 3.31369549 9.25401683 1 13 C-1.625 14.3125 -1.625 14.3125 -4 15 C-3.65066406 14.49210937 -3.30132812 13.98421875 -2.94140625 13.4609375 C-0.19475288 9.30594344 1.6181636 6.09115195 2 1 C1.34 0.67 0.68 0.34 0 0 Z " fill="#C8EAC2" transform="translate(84,73)"/>
<path d="M0 0 C1.98 0 3.96 0 6 0 C5.67 0.66 5.34 1.32 5 2 C4.01 1.67 3.02 1.34 2 1 C2.66 2.65 3.32 4.3 4 6 C2.35 6.33 0.7 6.66 -1 7 C-0.67 4.69 -0.34 2.38 0 0 Z " fill="#D1E8E9" transform="translate(116,98)"/>
<path d="M0 0 C0.99 0.33 1.98 0.66 3 1 C2.67 2.32 2.34 3.64 2 5 C4.33075929 4.04134491 4.33075929 4.04134491 6 1 C6 2.65 6 4.3 6 6 C4.34385343 6.38218767 2.67542976 6.71395102 1 7 C0 6 0 6 -0.0625 2.9375 C-0.041875 1.968125 -0.02125 0.99875 0 0 Z " fill="#4BA93A" transform="translate(156,130)"/>
<path d="M0 0 C0.99 0.33 1.98 0.66 3 1 C3 1.99 3 2.98 3 4 C3.598125 3.79375 4.19625 3.5875 4.8125 3.375 C7 3 7 3 10 5 C9.06027344 4.98259766 9.06027344 4.98259766 8.1015625 4.96484375 C6.87566406 4.95130859 6.87566406 4.95130859 5.625 4.9375 C4.40683594 4.92009766 4.40683594 4.92009766 3.1640625 4.90234375 C0.95062858 4.85533666 0.95062858 4.85533666 -1 6 C-1.66 5.34 -2.32 4.68 -3 4 C-2.34 4 -1.68 4 -1 4 C-0.67 2.68 -0.34 1.36 0 0 Z " fill="#CDEEC8" transform="translate(174,133)"/>
<path d="M0 0 C1.66611905 -0.042721 3.33382885 -0.04063832 5 0 C6 1 6 1 6.0625 4.0625 C6.041875 5.031875 6.02125 6.00125 6 7 C5.34 6.34 4.68 5.68 4 5 C3.01 5.33 2.02 5.66 1 6 C0.67 4.02 0.34 2.04 0 0 Z " fill="#8CCB81" transform="translate(157,129)"/>
<path d="M0 0 C0.66 0 1.32 0 2 0 C2 1.32 2 2.64 2 4 C3.65 4 5.3 4 7 4 C7 4.33 7 4.66 7 5 C5.02 5 3.04 5 1 5 C0.67 7.31 0.34 9.62 0 12 C-0.33 12 -0.66 12 -1 12 C-1.14285714 3.42857143 -1.14285714 3.42857143 0 0 Z " fill="#EAF6E6" transform="translate(181,124)"/>
<path d="M0 0 C0.33 0.66 0.66 1.32 1 2 C2.65 2 4.3 2 6 2 C6 2.33 6 2.66 6 3 C4.35 3 2.7 3 1 3 C1 3.66 1 4.32 1 5 C1.66 5.33 2.32 5.66 3 6 C1.35 6 -0.3 6 -2 6 C-2.33 4.35 -2.66 2.7 -3 1 C-2.01 0.67 -1.02 0.34 0 0 Z " fill="#016F6A" transform="translate(170,112)"/>
<path d="M0 0 C0.66 0 1.32 0 2 0 C2.26785714 8.03571429 2.26785714 8.03571429 0 12 C-0.19573608 10.56359829 -0.38127816 9.12580496 -0.5625 7.6875 C-0.66691406 6.88699219 -0.77132812 6.08648437 -0.87890625 5.26171875 C-1 3 -1 3 0 0 Z " fill="#EAF3F5" transform="translate(105,96)"/>
<path d="M0 0 C1.08667969 0.29197266 1.08667969 0.29197266 2.1953125 0.58984375 C2.74960938 0.74582031 3.30390625 0.90179688 3.875 1.0625 C1.48926621 2.95463369 -0.19675348 4.08641783 -3.125 5.0625 C-3.455 4.0725 -3.785 3.0825 -4.125 2.0625 C-4.785 1.4025 -5.445 0.7425 -6.125 0.0625 C-3.57797384 -1.21101308 -2.6967055 -0.73941925 0 0 Z " fill="#EBF7E2" transform="translate(75.125,73.9375)"/>
<path d="M0 0 C0.66 0 1.32 0 2 0 C2.33 3.63 2.66 7.26 3 11 C2.01 11 1.02 11 0 11 C0 7.37 0 3.74 0 0 Z " fill="#51AB43" transform="translate(81,126)"/>
<path d="M0 0 C0.75 1.6875 0.75 1.6875 1 4 C-0.9375 6.75 -0.9375 6.75 -3 9 C-3.99 8.67 -4.98 8.34 -6 8 C-6 7.34 -6 6.68 -6 6 C-5.01 6 -4.02 6 -3 6 C-3 5.01 -3 4.02 -3 3 C-2.01 3 -1.02 3 0 3 C0 2.01 0 1.02 0 0 Z " fill="#1B827A" transform="translate(63,109)"/>
<path d="M0 0 C3.375 0.3125 3.375 0.3125 7 1 C7.66 1.99 8.32 2.98 9 4 C7.35 4.66 5.7 5.32 4 6 C3.896875 5.38125 3.79375 4.7625 3.6875 4.125 C3.12474627 1.63473516 3.12474627 1.63473516 0 0 Z " fill="#187C77" transform="translate(93,90)"/>
<path d="M0 0 C1.65 0 3.3 0 5 0 C5 2.64 5 5.28 5 8 C4.34 8 3.68 8 3 8 C3 6.02 3 4.04 3 2 C2.01 2 1.02 2 0 2 C0 1.34 0 0.68 0 0 Z " fill="#4EAA3D" transform="translate(96,129)"/>
<path d="M0 0 C4.95 0.99 4.95 0.99 10 2 C10 2.33 10 2.66 10 3 C6.7 3.33 3.4 3.66 0 4 C0 2.68 0 1.36 0 0 Z " fill="#FCF8F9" transform="translate(42,98)"/>
<path d="M0 0 C2.64 0 5.28 0 8 0 C8.33 1.65 8.66 3.3 9 5 C8.34 5 7.68 5 7 5 C7 4.01 7 3.02 7 2 C5.02 2.33 3.04 2.66 1 3 C0.67 2.01 0.34 1.02 0 0 Z " fill="#026F69" transform="translate(82,93)"/>
<path d="M0 0 C1.98 0 3.96 0 6 0 C5.67 1.32 5.34 2.64 5 4 C3.68 4.33 2.36 4.66 1 5 C0.67 3.35 0.34 1.7 0 0 Z " fill="#82BF79" transform="translate(192,129)"/>
<path d="M0 0 C6.75 0.875 6.75 0.875 9 2 C8.67 2.99 8.34 3.98 8 5 C5.03 4.505 5.03 4.505 2 4 C2.33 3.34 2.66 2.68 3 2 C2.01 1.34 1.02 0.68 0 0 Z " fill="#00746B" transform="translate(51,91)"/>
<path d="M0 0 C2.97 1.98 2.97 1.98 6 4 C5.67 4.66 5.34 5.32 5 6 C3.35 6 1.7 6 0 6 C0 4.02 0 2.04 0 0 Z " fill="#F2F9FA" transform="translate(22,90)"/>
<path d="M0 0 C0.66 0.33 1.32 0.66 2 1 C1.319375 1.5775 0.63875 2.155 -0.0625 2.75 C-1.0215625 3.86375 -1.0215625 3.86375 -2 5 C-1.86358623 7.21858253 -1.86358623 7.21858253 -1 9 C-2.32 9.33 -3.64 9.66 -5 10 C-4.56802365 5.2482602 -3.67230705 3.07999946 0 0 Z " fill="#75C667" transform="translate(77,81)"/>
<path d="M0 0 C0.66 0.99 1.32 1.98 2 3 C1.125 5.6875 1.125 5.6875 0 8 C-2 6 -2 6 -2.125 3.375 C-2.08375 2.59125 -2.0425 1.8075 -2 1 C-1.34 0.67 -0.68 0.34 0 0 Z " fill="#62B32B" transform="translate(67,82)"/>
<path d="M0 0 C1.66666667 0 3.33333333 0 5 0 C5 1.32 5 2.64 5 4 C4.01 4 3.02 4 2 4 C1.67 4.66 1.34 5.32 1 6 C0 5 0 5 -0.0625 2.4375 C-0.041875 1.633125 -0.02125 0.82875 0 0 Z " fill="#97CD8D" transform="translate(112,131)"/>
<path d="M0 0 C0.66 0 1.32 0 2 0 C1.67 1.65 1.34 3.3 1 5 C-0.65 5.33 -2.3 5.66 -4 6 C-2.84826645 3.53199953 -1.95216435 1.95216435 0 0 Z " fill="#E0F5F4" transform="translate(146,105)"/>
<path d="M0 0 C1.66611905 -0.042721 3.33382885 -0.04063832 5 0 C6 1 6 1 6.09765625 3.06640625 C6.08605469 3.89011719 6.07445313 4.71382813 6.0625 5.5625 C6.05347656 6.38878906 6.04445313 7.21507813 6.03515625 8.06640625 C6.01775391 9.02353516 6.01775391 9.02353516 6 10 C5.67 10 5.34 10 5 10 C4.87625 8.081875 4.87625 8.081875 4.75 6.125 C4.54130069 3.94666582 4.54130069 3.94666582 4 2 C2.07935207 0.4100567 2.07935207 0.4100567 0 0 Z " fill="#C5E2E4" transform="translate(89,98)"/>
<path d="M0 0 C1.32 0 2.64 0 4 0 C4.33 1.32 4.66 2.64 5 4 C3.35 4.66 1.7 5.32 0 6 C0 4.02 0 2.04 0 0 Z " fill="#147D78" transform="translate(122,99)"/>
<path d="M0 0 C0.33 0 0.66 0 1 0 C0.67 2.64 0.34 5.28 0 8 C-0.99 7.34 -1.98 6.68 -3 6 C-1.125 1.125 -1.125 1.125 0 0 Z " fill="#197D77" transform="translate(137,93)"/>
<path d="M0 0 C0.99 0 1.98 0 3 0 C1.125 5.75 1.125 5.75 0 8 C-0.66 8 -1.32 8 -2 8 C-2 7.01 -2 6.02 -2 5 C-1.34 5 -0.68 5 0 5 C0 3.35 0 1.7 0 0 Z " fill="#53AF43" transform="translate(173,129)"/>
<path d="M0 0 C1.65 0 3.3 0 5 0 C5.33 0.99 5.66 1.98 6 3 C5.67 3.66 5.34 4.32 5 5 C4.34 5 3.68 5 3 5 C3 4.01 3 3.02 3 2 C2.01 2 1.02 2 0 2 C0 1.34 0 0.68 0 0 Z " fill="#4FB240" transform="translate(73,129)"/>
<path d="M0 0 C0.99 0 1.98 0 3 0 C2.67 1.98 2.34 3.96 2 6 C1.34 6 0.68 6 0 6 C-1.125 2.25 -1.125 2.25 0 0 Z " fill="#7FB928" transform="translate(69,76)"/>
<path d="M0 0 C0 1.65 0 3.3 0 5 C-0.99 4.67 -1.98 4.34 -3 4 C-3 3.34 -3 2.68 -3 2 C-3.99 2.33 -4.98 2.66 -6 3 C-6 2.34 -6 1.68 -6 1 C-4 0 -4 0 0 0 Z " fill="#0E7571" transform="translate(20,113)"/>
<path d="M0 0 C1.65 1.65 3.3 3.3 5 5 C1.125 8 1.125 8 0 8 C0 5.36 0 2.72 0 0 Z " fill="#1B7E78" transform="translate(133,99)"/>
<path d="M0 0 C2.31 0 4.62 0 7 0 C6.01 1.485 6.01 1.485 5 3 C4.01 2.67 3.02 2.34 2 2 C1.67 2.99 1.34 3.98 1 5 C0.67 3.35 0.34 1.7 0 0 Z " fill="#28857D" transform="translate(19,103)"/>
</svg>
