<?xml version="1.0" encoding="UTF-8"?>
<svg version="1.1" xmlns="http://www.w3.org/2000/svg" width="400" height="400">
<path d="M0 0 C132 0 264 0 400 0 C400 132 400 264 400 400 C268 400 136 400 0 400 C0 268 0 136 0 0 Z " fill="#FDFDFD" transform="translate(0,0)"/>
<path d="M0 0 C1.74023438 0.00966797 1.74023438 0.00966797 3.515625 0.01953125 C4.7221875 0.03628906 5.92875 0.05304688 7.171875 0.0703125 C9.00492188 0.08384766 9.00492188 0.08384766 10.875 0.09765625 C13.89082282 0.12121737 16.90624992 0.15411544 19.921875 0.1953125 C19.921875 0.5253125 19.921875 0.8553125 19.921875 1.1953125 C15.24986295 2.40099303 10.70691208 2.28913676 5.921875 2.1953125 C5.921875 2.8553125 5.921875 3.5153125 5.921875 4.1953125 C10.871875 4.1953125 15.821875 4.1953125 20.921875 4.1953125 C20.921875 4.5253125 20.921875 4.8553125 20.921875 5.1953125 C19.98988281 5.29328125 19.05789062 5.39125 18.09765625 5.4921875 C2.58466803 6.7044045 2.58466803 6.7044045 -10.078125 14.1953125 C-8.098125 14.8553125 -6.118125 15.5153125 -4.078125 16.1953125 C-4.078125 16.8553125 -4.078125 17.5153125 -4.078125 18.1953125 C-3.500625 18.4221875 -2.923125 18.6490625 -2.328125 18.8828125 C3.02954119 22.00811778 6.03488418 28.07424749 8.359375 33.6328125 C11.41669364 40.603499 14.57476003 44.12425854 21.171875 47.5703125 C22.14640625 48.10205078 22.14640625 48.10205078 23.140625 48.64453125 C24.72732237 49.50788129 26.32366118 50.3534726 27.921875 51.1953125 C27.921875 51.8553125 27.921875 52.5153125 27.921875 53.1953125 C28.664375 53.4221875 29.406875 53.6490625 30.171875 53.8828125 C33.49884908 55.47068649 34.73403807 57.25540662 36.921875 60.1953125 C37.685 60.8965625 38.448125 61.5978125 39.234375 62.3203125 C50.2115563 74.06334366 62.12985269 97.41461378 62.01953125 113.7421875 C62.01469727 115.00869141 62.01469727 115.00869141 62.00976562 116.30078125 C61.99719727 117.60982422 61.99719727 117.60982422 61.984375 118.9453125 C61.97986328 119.83347656 61.97535156 120.72164063 61.97070312 121.63671875 C61.958949 123.82298579 61.94251749 126.00911429 61.921875 128.1953125 C63.23799177 127.24195229 64.54966461 126.28245476 65.859375 125.3203125 C66.59027344 124.78664063 67.32117188 124.25296875 68.07421875 123.703125 C70.03285735 122.31519146 70.03285735 122.31519146 70.921875 120.1953125 C71.911875 120.1953125 72.901875 120.1953125 73.921875 120.1953125 C74.581875 121.8453125 75.241875 123.4953125 75.921875 125.1953125 C76.581875 125.1953125 77.241875 125.1953125 77.921875 125.1953125 C79.451875 133.8653125 79.451875 133.8653125 77.921875 137.1953125 C75.94795887 138.4030375 73.97247631 139.32519291 71.83203125 140.203125 C69.58759517 141.17381653 69.58759517 141.17381653 67.921875 144.1953125 C65.359375 144.8203125 65.359375 144.8203125 62.921875 145.1953125 C61.58991353 146.29385517 61.58991353 146.29385517 61.89453125 149.03125 C61.95429667 151.38548768 62.01678479 153.73965785 62.08203125 156.09375 C61.921875 159.1953125 61.921875 159.1953125 59.921875 162.1953125 C57.16634574 162.73657718 54.70487162 163.03351037 51.921875 163.1953125 C51.08398438 163.27136719 50.24609375 163.34742188 49.3828125 163.42578125 C44.91705701 163.67537786 41.87908036 163.69283567 38.296875 160.8203125 C35.921875 158.1953125 35.921875 158.1953125 35.921875 156.1953125 C35.261875 156.1953125 34.601875 156.1953125 33.921875 156.1953125 C33.921875 154.8753125 33.921875 153.5553125 33.921875 152.1953125 C32.74625 152.6490625 31.570625 153.1028125 30.359375 153.5703125 C27.66430545 154.59225245 25.09976069 155.40792827 22.296875 156.1328125 C18.60652904 157.29458808 15.99025277 158.85750086 12.921875 161.1953125 C12.591875 161.8553125 12.261875 162.5153125 11.921875 163.1953125 C11.261875 163.1953125 10.601875 163.1953125 9.921875 163.1953125 C7.97504177 166.79786371 6.64442181 170.59070187 5.296875 174.4453125 C5.06742188 175.095 4.83796875 175.7446875 4.6015625 176.4140625 C4.03935037 178.00699688 3.48029497 179.60104479 2.921875 181.1953125 C2.591875 181.1953125 2.261875 181.1953125 1.921875 181.1953125 C1.921875 178.5553125 1.921875 175.9153125 1.921875 173.1953125 C0.02974131 175.58104629 -1.10204283 177.26706598 -2.078125 180.1953125 C-2.738125 180.1953125 -3.398125 180.1953125 -4.078125 180.1953125 C-4.408125 181.1853125 -4.738125 182.1753125 -5.078125 183.1953125 C-6.728125 182.5353125 -8.378125 181.8753125 -10.078125 181.1953125 C-9.583125 178.2253125 -9.583125 178.2253125 -9.078125 175.1953125 C-9.738125 177.1753125 -10.398125 179.1553125 -11.078125 181.1953125 C-13.078125 181.1953125 -13.078125 181.1953125 -14.765625 179.6328125 C-16.65324432 176.12723376 -16.0130645 174.0018519 -15.078125 170.1953125 C-13.515625 167.2578125 -13.515625 167.2578125 -12.078125 165.1953125 C-18.58925895 165.31158275 -21.6743417 166.8672354 -26.38671875 171.33984375 C-28.3134731 173.45348883 -29.71110069 175.68910127 -31.078125 178.1953125 C-31.738125 178.1953125 -32.398125 178.1953125 -33.078125 178.1953125 C-34.27428487 168.07779361 -34.27428487 168.07779361 -31.6484375 163.9453125 C-25.93380703 158.62083752 -19.15768074 156.406324 -11.453125 156.0078125 C-10.669375 156.0696875 -9.885625 156.1315625 -9.078125 156.1953125 C-9.078125 154.5453125 -9.078125 152.8953125 -9.078125 151.1953125 C-7.593125 152.1853125 -7.593125 152.1853125 -6.078125 153.1953125 C-6.078125 153.8553125 -6.078125 154.5153125 -6.078125 155.1953125 C-5.15 154.5559375 -4.221875 153.9165625 -3.265625 153.2578125 C2.08902013 149.79304212 6.63258504 149.63543336 12.859375 150.6953125 C13.54 150.8603125 14.220625 151.0253125 14.921875 151.1953125 C15.581875 150.2053125 16.241875 149.2153125 16.921875 148.1953125 C14.941875 148.1953125 12.961875 148.1953125 10.921875 148.1953125 C11.251875 146.5453125 11.581875 144.8953125 11.921875 143.1953125 C17.14699779 141.72861137 21.5032984 140.96953848 26.921875 141.1953125 C26.921875 140.5353125 26.921875 139.8753125 26.921875 139.1953125 C25.36028441 138.71319036 23.79755572 138.23475377 22.234375 137.7578125 C21.36425781 137.49097656 20.49414062 137.22414062 19.59765625 136.94921875 C16.92788404 136.14626867 16.92788404 136.14626867 14.15234375 135.72265625 C13.41628906 135.54863281 12.68023437 135.37460938 11.921875 135.1953125 C11.591875 134.5353125 11.261875 133.8753125 10.921875 133.1953125 C9.313125 132.793125 9.313125 132.793125 7.671875 132.3828125 C3.34447514 131.01246921 2.0061947 129.4586329 -1.078125 126.1953125 C-2.02171875 125.27492188 -2.9653125 124.35453125 -3.9375 123.40625 C-4.90106636 122.46096267 -5.8646079 121.51565004 -6.828125 120.5703125 C-7.32183594 120.09335938 -7.81554687 119.61640625 -8.32421875 119.125 C-10.66199583 116.81924726 -12.0234344 115.35938431 -13.078125 112.1953125 C-14.05856106 111.17612403 -15.06019287 110.17705288 -16.078125 109.1953125 C-16.86861934 108.09525627 -17.62450694 106.96967066 -18.34765625 105.82421875 C-18.75902832 105.17388672 -19.17040039 104.52355469 -19.59423828 103.85351562 C-21.36853686 100.98523333 -23.12616297 98.10776099 -24.86083984 95.21533203 C-25.9089094 93.47611672 -26.98504134 91.75386786 -28.06640625 90.03515625 C-32.7224063 81.95660723 -33.34776812 74.25085531 -32.078125 65.1953125 C-30.55390218 60.6110969 -28.40334066 56.90280191 -25.453125 53.1015625 C-23.81458447 50.82994949 -23.45978857 48.9432902 -23.078125 46.1953125 C-25.058125 46.1953125 -27.038125 46.1953125 -29.078125 46.1953125 C-27.35845149 43.16541155 -25.78574194 40.43203954 -23.078125 38.1953125 C-22.418125 38.1953125 -21.758125 38.1953125 -21.078125 38.1953125 C-21.078125 37.5353125 -21.078125 36.8753125 -21.078125 36.1953125 C-21.93083984 36.77152344 -21.93083984 36.77152344 -22.80078125 37.359375 C-29.03242289 41.25024975 -29.03242289 41.25024975 -32.234375 41.08203125 C-34.140625 40.5078125 -34.140625 40.5078125 -37.078125 39.1953125 C-38.04193734 30.80657543 -36.25821886 25.77780064 -31.078125 19.1953125 C-28.64082418 16.28188112 -26.1326592 13.44382604 -23.578125 10.6328125 C-22.93738037 9.91722168 -22.29663574 9.20163086 -21.63647461 8.46435547 C-17.91714746 4.50872143 -15.71073216 2.51966207 -10.078125 2.1953125 C-9.48612305 1.8660376 -8.89412109 1.5367627 -8.28417969 1.19750977 C-5.40620099 -0.1099385 -3.15441769 -0.03092566 0 0 Z " fill="#030303" transform="translate(204.078125,72.8046875)"/>
<path d="M0 0 C9 0 9 0 11.36694336 2.0637207 C11.93550049 3.00820068 12.50405762 3.95268066 13.08984375 4.92578125 C13.72857422 5.94994141 14.36730469 6.97410156 15.02539062 8.02929688 C15.65638672 9.11275391 16.28738281 10.19621094 16.9375 11.3125 C17.59556641 12.38435547 18.25363281 13.45621094 18.93164062 14.56054688 C20.14871393 16.54747821 21.35257173 18.54260761 22.53881836 20.5480957 C23.6407914 22.39723777 24.80595439 24.20893159 26 26 C26.33 17.42 26.66 8.84 27 0 C29.97 0 32.94 0 36 0 C36 14.19 36 28.38 36 43 C32.7 43 29.4 43 26 43 C26 42.34 26 41.68 26 41 C25.34 41 24.68 41 24 41 C22.86330245 39.25446445 21.81687611 37.44988474 20.8125 35.625 C17.91716509 30.49125491 14.77780529 25.70479927 11.28515625 20.9609375 C10 19 10 19 10 17 C9.34 17 8.68 17 8 17 C8 25.91 8 34.82 8 44 C5.36 44 2.72 44 0 44 C0 29.48 0 14.96 0 0 Z " fill="#0A0A0A" transform="translate(17,247)"/>
<path d="M0 0 C1.9451 2.91765 2.45276317 4.62537285 3 8 C2.50628906 8.33773437 2.01257813 8.67546875 1.50390625 9.0234375 C0.86324219 9.46945313 0.22257812 9.91546875 -0.4375 10.375 C-1.39462891 11.03628906 -1.39462891 11.03628906 -2.37109375 11.7109375 C-4.13740928 12.92160853 -4.13740928 12.92160853 -5 15 C-5.66 15 -6.32 15 -7 15 C-8.94683323 18.60255121 -10.27745319 22.39538937 -11.625 26.25 C-11.96917969 27.22453125 -11.96917969 27.22453125 -12.3203125 28.21875 C-12.88252463 29.81168438 -13.44158003 31.40573229 -14 33 C-14.33 33 -14.66 33 -15 33 C-15 30.36 -15 27.72 -15 25 C-16.89213369 27.38573379 -18.02391783 29.07175348 -19 32 C-19.66 32 -20.32 32 -21 32 C-21.33 32.99 -21.66 33.98 -22 35 C-23.65 34.34 -25.3 33.68 -27 33 C-26.67 31.02 -26.34 29.04 -26 27 C-26.66 28.98 -27.32 30.96 -28 33 C-30 33 -30 33 -31.6875 31.4375 C-33.57511932 27.93192126 -32.9349395 25.8065394 -32 22 C-30.4375 19.0625 -30.4375 19.0625 -29 17 C-35.51113395 17.11627025 -38.5962167 18.6719229 -43.30859375 23.14453125 C-45.2353481 25.25817633 -46.63297569 27.49378877 -48 30 C-48.66 30 -49.32 30 -50 30 C-51.19615987 19.88248111 -51.19615987 19.88248111 -48.5703125 15.75 C-42.85568203 10.42552502 -36.07955574 8.2110115 -28.375 7.8125 C-27.59125 7.874375 -26.8075 7.93625 -26 8 C-26 6.35 -26 4.7 -26 3 C-25.01 3.66 -24.02 4.32 -23 5 C-23 5.66 -23 6.32 -23 7 C-21.6078125 6.0409375 -21.6078125 6.0409375 -20.1875 5.0625 C-14.83285487 1.59772962 -10.28928996 1.44012086 -4.0625 2.5 C-3.381875 2.665 -2.70125 2.83 -2 3 C-1.34 2.01 -0.68 1.02 0 0 Z " fill="#0A0A0A" transform="translate(221,221)"/>
<path d="M0 0 C0.71220703 -0.020625 1.42441406 -0.04125 2.15820312 -0.0625 C6.69956543 -0.0961086 9.59114881 0.42772059 13.1875 3.25 C14.39976443 5.67452887 14.37545704 7.37380618 14.46875 10.08203125 C14.50613281 11.04560547 14.54351562 12.00917969 14.58203125 13.00195312 C14.63423828 14.51692383 14.63423828 14.51692383 14.6875 16.0625 C14.75672769 18.04830912 14.82952718 20.03399759 14.90625 22.01953125 C14.93654297 22.90229736 14.96683594 23.78506348 14.99804688 24.69458008 C15.18987405 27.28202218 15.62569994 29.71934091 16.1875 32.25 C13.2175 32.25 10.2475 32.25 7.1875 32.25 C7.1875 31.26 7.1875 30.27 7.1875 29.25 C6.445 29.745 5.7025 30.24 4.9375 30.75 C0.00739541 33.20916912 -5.46184774 32.89357496 -10.8125 32.25 C-14.0625 30.8125 -14.0625 30.8125 -15.8125 28.25 C-16.64940287 24.06548566 -16.59546537 20.60239472 -14.4375 16.875 C-8.39656623 13.13537433 -1.84312913 11.79148071 5.1875 12.25 C4.8575 10.6 4.5275 8.95 4.1875 7.25 C1.2175 7.25 -1.7525 7.25 -4.8125 7.25 C-5.1425 8.24 -5.4725 9.23 -5.8125 10.25 C-8.7825 9.92 -11.7525 9.59 -14.8125 9.25 C-13.75773499 5.03093998 -12.9595668 4.01560416 -9.8125 1.25 C-6.69863918 -0.30693041 -3.41505068 0.02432805 0 0 Z " fill="#0D0D0D" transform="translate(73.8125,258.75)"/>
<path d="M0 0 C6.93 0 13.86 0 21 0 C21 0.66 21 1.32 21 2 C18.69 2.33 16.38 2.66 14 3 C13.32678716 5.24805002 12.66165877 7.49852224 12 9.75 C11.62875 11.00296875 11.2575 12.2559375 10.875 13.546875 C9.83624628 17.05253232 9.83624628 17.05253232 10 21 C10.99 20.67 11.98 20.34 13 20 C13 19.34 13 18.68 13 18 C14.29657887 17.08889052 15.6024127 16.18962313 16.9375 15.3359375 C19.60175628 13.61022605 22.21255888 11.82131292 24.8125 10 C25.76769531 9.34 26.72289062 8.68 27.70703125 8 C30.0704043 5.93859114 30.69264563 5.05988355 31 2 C29.35 2 27.7 2 26 2 C26 1.34 26 0.68 26 0 C32.6 0 39.2 0 46 0 C45.67 0.66 45.34 1.32 45 2 C43.906875 2.309375 42.81375 2.61875 41.6875 2.9375 C38.29504311 3.91498758 36.66158122 4.83130419 34 7 C33.34 7 32.68 7 32 7 C32 7.66 32 8.32 32 9 C30.217871 10.44074715 28.37339724 11.80510649 26.5 13.125 C25.4790625 13.84945313 24.458125 14.57390625 23.40625 15.3203125 C22.6121875 15.87460937 21.818125 16.42890625 21 17 C22.57680242 21.15487437 24.49299705 25.10307787 26.5 29.0625 C26.80808594 29.67416016 27.11617187 30.28582031 27.43359375 30.91601562 C28.28768633 32.61137107 29.14377336 34.30572134 30 36 C30.32742187 36.78761719 30.65484375 37.57523437 30.9921875 38.38671875 C31.32476562 38.91910156 31.65734375 39.45148438 32 40 C35.56206661 40.81870185 35.56206661 40.81870185 39 41 C39 41.99 39 42.98 39 44 C31.74 44 24.48 44 17 44 C17 43.01 17 42.02 17 41 C18.98 41 20.96 41 23 41 C20.79433329 34.73126302 18.05746968 28.89741187 15 23 C12.0280615 24.12451727 9.66559313 25.22293791 7 27 C5.75412605 30.32751019 5.75412605 30.32751019 4.8125 34.125 C4.63525391 34.78371094 4.45800781 35.44242187 4.27539062 36.12109375 C3.84007606 37.74469943 3.41868259 39.37202609 3 41 C5.64 41 8.28 41 11 41 C11 41.99 11 42.98 11 44 C3.74 44 -3.52 44 -11 44 C-11 43.01 -11 42.02 -11 41 C-8.03 40.505 -8.03 40.505 -5 40 C-3.89322792 36.70920375 -2.79007766 33.41720372 -1.6875 30.125 C-1.37876953 29.2071875 -1.07003906 28.289375 -0.75195312 27.34375 C3.54233714 14.89061832 3.54233714 14.89061832 6 2 C4.02 2 2.04 2 0 2 C0 1.34 0 0.68 0 0 Z " fill="#151515" transform="translate(214,247)"/>
<path d="M0 0 C3.64839884 1.97210748 6.50668195 3.86859763 8.625 7.5 C9.3125 10.25 9.3125 10.25 9.3125 18.25 C2.0525 18.25 -5.2075 18.25 -12.6875 18.25 C-11.35832039 23.72825081 -11.35832039 23.72825081 -9.6875 25.25 C-6.22937831 25.58338596 -6.22937831 25.58338596 -2.6875 25.25 C-2.0275 24.26 -1.3675 23.27 -0.6875 22.25 C1.6953125 21.95703125 1.6953125 21.95703125 4.4375 22.0625 C5.34757812 22.08957031 6.25765625 22.11664063 7.1953125 22.14453125 C7.89398438 22.17933594 8.59265625 22.21414063 9.3125 22.25 C9.3125 23.24 9.3125 24.23 9.3125 25.25 C8.6525 25.25 7.9925 25.25 7.3125 25.25 C7.085625 25.848125 6.85875 26.44625 6.625 27.0625 C4.83223759 30.05043735 3.55256063 30.89997474 0.3125 32.25 C-5.54755528 32.89559931 -11.21548134 32.54824784 -16.6875 30.25 C-21.13560719 25.6816737 -22.98171322 21.72484128 -23.0625 15.375 C-22.94840705 10.16475508 -22.50352388 7.06602388 -18.6875 3.25 C-12.71486555 -0.95198618 -7.10898437 -1.98390261 0 0 Z " fill="#0E0E0E" transform="translate(194.6875,258.75)"/>
<path d="M0 0 C2.36185168 1.09708729 3.96522046 2.3304373 6 4 C6.33 2.68 6.66 1.36 7 0 C8.65 0 10.3 0 12 0 C11.82984375 0.53625 11.6596875 1.0725 11.484375 1.625 C8.99680919 9.6698937 6.99851481 17.82333536 5 26 C8.42578949 22.82460444 8.42578949 22.82460444 11 19 C11.99 19 12.98 19 14 19 C12.60551748 23.43698984 10.64584413 26.09989671 7 29 C3.6875 29.3125 3.6875 29.3125 1 29 C0.34 27.68 -0.32 26.36 -1 25 C-2.98 25.99 -2.98 25.99 -5 27 C-5 27.66 -5 28.32 -5 29 C-13.37326908 30.19145331 -13.37326908 30.19145331 -17 27.53515625 C-20.46129093 23.33334876 -21.86455793 19.54369805 -21.453125 14.1015625 C-20.14738379 8.04562484 -15.68210871 4.56247402 -11 1 C-7.53785023 -0.73107488 -3.78509418 -0.48819473 0 0 Z " fill="#141414" transform="translate(369,262)"/>
<path d="M0 0 C3.3 0 6.6 0 10 0 C10.06058594 1.62550781 10.12117188 3.25101562 10.18359375 4.92578125 C10.26800009 7.05469659 10.35264804 9.18360237 10.4375 11.3125 C10.47681641 12.38435547 10.51613281 13.45621094 10.55664062 14.56054688 C10.61948242 16.10258789 10.61948242 16.10258789 10.68359375 17.67578125 C10.72025146 18.62364502 10.75690918 19.57150879 10.79467773 20.5480957 C10.91430187 23.136171 10.91430187 23.136171 12 26 C13.31471568 25.71848913 14.62675767 25.42446661 15.9375 25.125 C17.03384766 24.88136719 17.03384766 24.88136719 18.15234375 24.6328125 C20.20700294 24.17038477 20.20700294 24.17038477 21 22 C21.15222973 20.33434251 21.24917215 18.66343504 21.31640625 16.9921875 C21.35830078 16.00605469 21.40019531 15.01992188 21.44335938 14.00390625 C21.48267578 12.97136719 21.52199219 11.93882812 21.5625 10.875 C21.60568359 9.83472656 21.64886719 8.79445313 21.69335938 7.72265625 C21.79962768 5.1486017 21.90033527 2.57431869 22 0 C25.3 0 28.6 0 32 0 C32 10.56 32 21.12 32 32 C29.03 32 26.06 32 23 32 C22.67 31.01 22.34 30.02 22 29 C21.34 29.66 20.68 30.32 20 31 C15.4965706 32.49145834 10.67171617 32.70302525 6 32 C2.9375 29.5625 2.9375 29.5625 1 27 C0.67 26.67 0.34 26.34 0 26 C-0.08748207 24.07332493 -0.10697334 22.14348139 -0.09765625 20.21484375 C-0.09443359 19.04501953 -0.09121094 17.87519531 -0.08789062 16.66992188 C-0.07951172 15.43822266 -0.07113281 14.20652344 -0.0625 12.9375 C-0.05798828 11.70193359 -0.05347656 10.46636719 -0.04882812 9.19335938 C-0.03699608 6.12885883 -0.02051173 3.06445279 0 0 Z " fill="#181818" transform="translate(113,259)"/>
<path d="M0 0 C0 3.63 0 7.26 0 11 C1.98 11 3.96 11 6 11 C6 13.31 6 15.62 6 18 C4.02 18 2.04 18 0 18 C0 23.94 0 29.88 0 36 C2.31 36 4.62 36 7 36 C7 38.31 7 40.62 7 43 C2.71 43 -1.58 43 -6 43 C-6 42.34 -6 41.68 -6 41 C-6.99 40.67 -7.98 40.34 -9 40 C-9 32.41 -9 24.82 -9 17 C-10.32 17 -11.64 17 -13 17 C-13 15.02 -13 13.04 -13 11 C-12.01 11 -11.02 11 -10 11 C-10.165 10.113125 -10.33 9.22625 -10.5 8.3125 C-10 5 -10 5 -8.2890625 3.48828125 C-2.75179083 0 -2.75179083 0 0 0 Z " fill="#0D0D0D" transform="translate(104,248)"/>
<path d="M0 0 C3 1.5 3 1.5 5 3 C5.05657477 5.82873842 5.03216056 7.42475941 4 10 C-1.30579532 15.3419712 -7.71339147 17.11769667 -15 18 C-14.34 20.64 -13.68 23.28 -13 26 C-7.04049339 25.74032651 -3.50617473 25.23307323 1 21 C1.66 21 2.32 21 3 21 C1.19329455 25.44069182 -1.40676441 26.9229954 -5.5546875 29.0703125 C-9.66473913 30.63291999 -11.78300808 30.33538077 -16 29 C-19.48580363 26.24040546 -20.68054914 24.74126902 -21.4765625 20.40234375 C-21.76446481 14.8943179 -21.25512808 10.76127649 -17.61328125 6.50390625 C-12.09897028 1.36344687 -7.59287325 -0.99578666 0 0 Z " fill="#262626" transform="translate(274,262)"/>
<path d="M0 0 C3.96 0 7.92 0 12 0 C11.34 2.31 10.68 4.62 10 7 C10.66 7 11.32 7 12 7 C12.3403125 6.1028125 12.3403125 6.1028125 12.6875 5.1875 C14.42429529 2.29284118 15.9183036 1.36964285 19 0 C25.13945673 -0.63511621 25.13945673 -0.63511621 27.71484375 1.265625 C29.78184502 4.05513431 29.06779904 6.22608304 28.58984375 9.5234375 C27.7855793 12.90028294 26.42812 15.86428798 24.921875 18.98046875 C23.87036329 21.28399229 23.32375632 23.49088852 23 26 C27.01232741 23.88238276 29.22277079 21.5433614 32 18 C32.66 18 33.32 18 34 18 C33.4237038 21.88999932 31.63263979 24.14170537 29 27 C25.99812422 29.03352875 23.59814356 29.37875195 20 29 C18 27 18 27 17.625 24 C17.72236394 19.75139155 19.37612743 16.29730621 21.04296875 12.4453125 C22.2893578 9.26066129 22.70487025 6.39399215 23 3 C17.38729632 4.46999382 13.05940457 6.88662406 9.83984375 11.75390625 C7.42689474 16.29538822 5.96549068 21.04806483 4.61328125 25.99609375 C4 28 4 28 3 29 C1.33382885 29.04063832 -0.33388095 29.042721 -2 29 C-0.73628827 19.92768148 1.96055067 11.59630517 5 3 C3.02 3 1.04 3 -1 3 C-0.67 2.01 -0.34 1.02 0 0 Z " fill="#1A1A1A" transform="translate(283,262)"/>
<path d="M0 0 C2.97 0 5.94 0 9 0 C9.33 0.66 9.66 1.32 10 2 C10.99 1.34 11.98 0.68 13 0 C15.26171875 -0.1953125 15.26171875 -0.1953125 17.6875 -0.125 C18.89986328 -0.09792969 18.89986328 -0.09792969 20.13671875 -0.0703125 C21.05904297 -0.03550781 21.05904297 -0.03550781 22 0 C21.67 2.31 21.34 4.62 21 7 C18.63488065 7.7007761 16.86250564 7.99345265 14.375 7.875 C13.59125 7.91625 12.8075 7.9575 12 8 C9.87719437 11.18420845 9.71980463 12.20537255 9.5859375 15.88671875 C9.52792969 17.2934082 9.52792969 17.2934082 9.46875 18.72851562 C9.4378125 19.70498047 9.406875 20.68144531 9.375 21.6875 C9.31699219 23.16959961 9.31699219 23.16959961 9.2578125 24.68164062 C9.16354601 27.1207861 9.0806841 29.56036747 9 32 C6.03 32 3.06 32 0 32 C0 21.44 0 10.88 0 0 Z " fill="#050505" transform="translate(151,259)"/>
<path d="M0 0 C0.66 0.33 1.32 0.66 2 1 C2 1.66 2 2.32 2 3 C2.71027344 3.18175781 3.42054688 3.36351562 4.15234375 3.55078125 C5.07144531 3.80214844 5.99054688 4.05351562 6.9375 4.3125 C7.85402344 4.55613281 8.77054688 4.79976562 9.71484375 5.05078125 C10.46894531 5.36402344 11.22304687 5.67726562 12 6 C12.33 6.99 12.66 7.98 13 9 C14.175625 9.103125 15.35125 9.20625 16.5625 9.3125 C20.86075602 9.85551811 24.16808518 10.96673908 28 13 C28.495 14.485 28.495 14.485 29 16 C27.845 15.979375 26.69 15.95875 25.5 15.9375 C21.25649453 15.92992231 17.19823356 16.40025235 13 17 C12.67 18.65 12.34 20.3 12 22 C13.98 22 15.96 22 18 22 C17.34 23.32 16.68 24.64 16 26 C15.319375 25.835 14.63875 25.67 13.9375 25.5 C7.62783034 24.42601367 3.58874206 24.82457837 -2 28 C-2.99 28.33 -3.98 28.66 -5 29 C-5.66 27.35 -6.32 25.7 -7 24 C-6.01 24 -5.02 24 -4 24 C-3.67 22.35 -3.34 20.7 -3 19 C-1.02 19.33 0.96 19.66 3 20 C2.01 13.4 1.02 6.8 0 0 Z " fill="#F8F8F8" transform="translate(203,199)"/>
<path d="M0 0 C2.375 0.9375 2.375 0.9375 4 3 C5.36244325 9.1500943 3.55474452 13.76682888 0.484375 19.0546875 C-1.16701711 21.21888032 -2.67397344 22.58588158 -5 24 C-8.75 24.1875 -8.75 24.1875 -12 24 C-12 23.34 -12 22.68 -12 22 C-12.66 22 -13.32 22 -14 22 C-14.44701413 14.43801103 -14.53574091 9.23664375 -10 3 C-9.34 3 -8.68 3 -8 3 C-8 2.34 -8 1.68 -8 1 C-5.19084526 -0.40457737 -3.11189466 -0.24895157 0 0 Z " fill="#F4F4F4" transform="translate(368,264)"/>
<path d="M0 0 C3.38214497 0.80527261 4.62524683 2.47967653 6.48828125 5.3359375 C8.5797483 9.54762028 9.60824187 14.05372158 10.625 18.625 C15.96908573 13.49993418 16.10248839 7.70640738 16.625 0.625 C18.275 0.625 19.925 0.625 21.625 0.625 C21.48252391 9.17356551 18.2065253 14.55409101 13.625 21.625 C12.96628906 22.68847656 12.30757813 23.75195312 11.62890625 24.84765625 C7.56772346 31.23630052 3.58480386 37.14509807 -3.375 40.625 C-6.875 40.8125 -6.875 40.8125 -10.375 40.625 C-11.035 39.965 -11.695 39.305 -12.375 38.625 C-12 36 -12 36 -11.375 33.625 C-9.725 33.955 -8.075 34.285 -6.375 34.625 C-6.375 35.945 -6.375 37.265 -6.375 38.625 C-1.59306149 37.46574218 1.05281816 34.48351277 4.3671875 31.0859375 C7.19310085 25.55697659 4.07201609 17.88569746 2.5625 12.125 C2.2830957 11.03445313 2.2830957 11.03445313 1.99804688 9.921875 C1.54473545 8.15512276 1.0854998 6.38989225 0.625 4.625 C-2.2355891 5.98437085 -4.23427699 7.27020469 -6.375 9.625 C-5.775 4.225 -5.775 4.225 -4.125 1.75 C-2.375 0.625 -2.375 0.625 0 0 Z " fill="#121212" transform="translate(325.375,261.375)"/>
<path d="M0 0 C3.3 0 6.6 0 10 0 C10 10.23 10 20.46 10 31 C7.36 31 4.72 31 2 31 C2 29.68 2 28.36 2 27 C0.68 26.67 -0.64 26.34 -2 26 C-1.84152588 25.44731445 -1.68305176 24.89462891 -1.51977539 24.32519531 C-0.95067733 21.77935695 -0.7896572 19.40300555 -0.68359375 16.796875 C-0.64169922 15.8171875 -0.59980469 14.8375 -0.55664062 13.828125 C-0.51732422 12.81234375 -0.47800781 11.7965625 -0.4375 10.75 C-0.39431641 9.71875 -0.35113281 8.6875 -0.30664062 7.625 C-0.20074413 5.08348412 -0.09988519 2.54175923 0 0 Z " fill="#111111" transform="translate(135,259)"/>
<path d="M0 0 C0.99 0.66 1.98 1.32 3 2 C2.67 3.32 2.34 4.64 2 6 C2.66 6 3.32 6 4 6 C3.69095593 8.88441135 2.98382135 10.0176954 1 12.1875 C-2.03402348 14.02055585 -2.95059908 14.18475938 -6.3125 14.3125 C-12.07349596 14.70682527 -15.26618122 17.81706622 -19 22 C-20.04575295 23.63834629 -21.06927875 25.29367772 -22 27 C-22.66 27 -23.32 27 -24 27 C-25.19615987 16.88248111 -25.19615987 16.88248111 -22.5703125 12.75 C-16.85568203 7.42552502 -10.07955574 5.2110115 -2.375 4.8125 C-1.59125 4.874375 -0.8075 4.93625 0 5 C0 3.35 0 1.7 0 0 Z " fill="#0A0A0A" transform="translate(195,224)"/>
<path d="M0 0 C0.99 0 1.98 0 3 0 C3.66 1.65 4.32 3.3 5 5 C5.66 5 6.32 5 7 5 C8.53 13.67 8.53 13.67 7 17 C5.02608387 18.207725 3.05060131 19.12988041 0.91015625 20.0078125 C-1.33427983 20.97850403 -1.33427983 20.97850403 -3 24 C-7 17.25 -7 17.25 -7 15 C-7.66 15 -8.32 15 -9 15 C-9.5 11.875 -9.5 11.875 -9 8 C-7.08884224 6.10594433 -5.10768673 4.71658846 -2.84765625 3.26171875 C-0.85899752 2.12336026 -0.85899752 2.12336026 0 0 Z " fill="#111111" transform="translate(275,193)"/>
<path d="M0 0 C3.0625 0.1875 3.0625 0.1875 6.0625 1.1875 C6.3925 0.8575 6.7225 0.5275 7.0625 0.1875 C10.5625 0.0625 10.5625 0.0625 14.0625 0.1875 C15.0625 1.1875 15.0625 1.1875 15.16015625 3.47265625 C15.14855469 4.38917969 15.13695312 5.30570312 15.125 6.25 C15.11597656 7.16910156 15.10695312 8.08820313 15.09765625 9.03515625 C15.08605469 9.74542969 15.07445312 10.45570313 15.0625 11.1875 C7.4375 12.4375 7.4375 12.4375 4.0625 10.1875 C3.7325 10.5175 3.4025 10.8475 3.0625 11.1875 C0.125 11.375 0.125 11.375 -2.9375 11.1875 C-4.9375 9.1875 -4.9375 9.1875 -5.1875 5.6875 C-4.87556548 1.32041674 -4.43874177 0.28332394 0 0 Z " fill="#EEEEEE" transform="translate(140.9375,309.8125)"/>
<path d="M0 0 C0.33 0.99 0.66 1.98 1 3 C0.01 4.485 0.01 4.485 -1 6 C-1.28019979 8.87174495 -1.28019979 8.87174495 -1.1875 12 C-1.18105469 13.051875 -1.17460937 14.10375 -1.16796875 15.1875 C-1.11707549 18.08062122 -1.11707549 18.08062122 0 21 C5.95950661 20.74032651 9.49382527 20.23307323 14 16 C14.66 16 15.32 16 16 16 C14.19329455 20.44069182 11.59323559 21.9229954 7.4453125 24.0703125 C3.33526087 25.63291999 1.21699192 25.33538077 -3 24 C-6.48801854 21.23865199 -7.62033584 19.69447429 -8.58203125 15.40234375 C-8.93228721 11.08647789 -8.9601294 8.20797192 -6.19921875 4.734375 C-4.20741128 2.99375462 -2.21240463 1.44695213 0 0 Z " fill="#181818" transform="translate(261,267)"/>
<path d="M0 0 C0.66 0.33 1.32 0.66 2 1 C1.65066406 1.58265625 1.30132812 2.1653125 0.94140625 2.765625 C-2.80881547 9.5223984 -3.85470957 15.31281525 -4 23 C-3.34 23 -2.68 23 -2 23 C-2 23.66 -2 24.32 -2 25 C-0.02 25.33 1.96 25.66 4 26 C4 26.33 4 26.66 4 27 C-3.92682927 27.30487805 -3.92682927 27.30487805 -7 25 C-10.14175947 21.29721206 -10.52668135 17.90060241 -10.34765625 13.20703125 C-9.38076596 7.06890752 -4.62094656 3.57073143 0 0 Z " fill="#161616" transform="translate(358,263)"/>
<path d="M0 0 C0.66 0 1.32 0 2 0 C2 1.32 2 2.64 2 4 C2.66 4.33 3.32 4.66 4 5 C3.34 5 2.68 5 2 5 C2 7.64 2 10.28 2 13 C2.66 13 3.32 13 4 13 C4 13.66 4 14.32 4 15 C3.21625 14.835 2.4325 14.67 1.625 14.5 C-0.88208039 13.9376293 -0.88208039 13.9376293 -3 14 C-3.33 14.33 -3.66 14.66 -4 15 C-9.52941176 15.23529412 -9.52941176 15.23529412 -12 14 C-12 13.01 -12 12.02 -12 11 C-9.69 11.66 -7.38 12.32 -5 13 C-5 12.34 -5 11.68 -5 11 C-5.78375 10.87625 -6.5675 10.7525 -7.375 10.625 C-10 10 -10 10 -12 8 C-11.46428571 4.46428571 -11.46428571 4.46428571 -10 3 C-8.30858344 3.08963062 -6.62040398 3.24577676 -4.9375 3.4375 C-3.55884766 3.59025391 -3.55884766 3.59025391 -2.15234375 3.74609375 C-1.44207031 3.82988281 -0.73179687 3.91367187 0 4 C0 2.68 0 1.36 0 0 Z " fill="#D7D7D7" transform="translate(272,306)"/>
<path d="M0 0 C2.5 -0.3125 2.5 -0.3125 5 0 C5.66 0.66 6.32 1.32 7 2 C8.32 1.34 9.64 0.68 11 0 C11 3.96 11 7.92 11 12 C10.01 12 9.02 12 8 12 C8 11.34 8 10.68 8 10 C7.01 10.66 6.02 11.32 5 12 C2.4375 12.25 2.4375 12.25 0 12 C-2 10 -2 10 -2.25 6.5625 C-2 3 -2 3 0 0 Z " fill="#B4B4B4" transform="translate(342,309)"/>
<path d="M0 0 C0.66 0 1.32 0 2 0 C2 1.98 2 3.96 2 6 C4.64 6 7.28 6 10 6 C10 4.02 10 2.04 10 0 C12.31 0 14.62 0 17 0 C17 4.95 17 9.9 17 15 C16.34 15 15.68 15 15 15 C14.67 11.7 14.34 8.4 14 5 C13.67 8.3 13.34 11.6 13 15 C12.01 15 11.02 15 10 15 C10 12.69 10 10.38 10 8 C7.36 8 4.72 8 2 8 C2 10.31 2 12.62 2 15 C1.34 15 0.68 15 0 15 C0 10.05 0 5.1 0 0 Z " fill="#222222" transform="translate(241,306)"/>
<path d="M0 0 C1 1 1 1 1.3125 3.8125 C1 7 1 7 -0.6875 9.25 C-4.53448888 12.16123483 -7.15851237 13 -12 13 C-11.34 10.03 -10.68 7.06 -10 4 C-9.34 4 -8.68 4 -8 4 C-7.67 3.01 -7.34 2.02 -7 1 C-4.51588385 -0.24205807 -2.74800896 -0.14092354 0 0 Z " fill="#F0F0F0" transform="translate(272,264)"/>
<path d="M0 0 C2.475 0.495 2.475 0.495 5 1 C5 1.66 5 2.32 5 3 C6.175625 3.103125 7.35125 3.20625 8.5625 3.3125 C12.86075602 3.85551811 16.16808518 4.96673908 20 7 C20.33 7.99 20.66 8.98 21 10 C19.845 9.979375 18.69 9.95875 17.5 9.9375 C13.25649453 9.92992231 9.19823356 10.40025235 5 11 C4.67 12.32 4.34 13.64 4 15 C3.34 15 2.68 15 2 15 C2.33 10.71 2.66 6.42 3 2 C2.01 1.34 1.02 0.68 0 0 Z " fill="#F1F1F1" transform="translate(211,205)"/>
<path d="M0 0 C0.99 0 1.98 0 3 0 C3 5.28 3 10.56 3 16 C-1.59195094 14.85201226 -1.87820524 14.26471427 -4.25 10.4375 C-4.77078125 9.61121094 -5.2915625 8.78492188 -5.828125 7.93359375 C-6.21484375 7.29550781 -6.6015625 6.65742188 -7 6 C-7.33 9.3 -7.66 12.6 -8 16 C-8.66 16 -9.32 16 -10 16 C-10 11.05 -10 6.1 -10 1 C-4.56373389 2.35906653 -3.99305334 4.42727962 -1 9 C-0.67 6.03 -0.34 3.06 0 0 Z " fill="#484848" transform="translate(175,305)"/>
<path d="M0 0 C0.66 1.32 1.32 2.64 2 4 C3.65 3.67 5.3 3.34 7 3 C7.2784375 3.9590625 7.2784375 3.9590625 7.5625 4.9375 C8.94246056 7.42126213 8.94246056 7.42126213 12.625 7.75 C13.73875 7.8325 14.8525 7.915 16 8 C16 8.99 16 9.98 16 11 C8.74 11 1.48 11 -6 11 C-6 10.01 -6 9.02 -6 8 C-4.02 8 -2.04 8 0 8 C-0.2784375 6.2984375 -0.2784375 6.2984375 -0.5625 4.5625 C-0.706875 3.386875 -0.85125 2.21125 -1 1 C-0.67 0.67 -0.34 0.34 0 0 Z " fill="#282828" transform="translate(237,280)"/>
<path d="M0 0 C0.99 0.103125 1.98 0.20625 3 0.3125 C5.31332486 3.78248729 5.33957563 5.23759248 5 9.3125 C4.01 10.7975 4.01 10.7975 3 12.3125 C0 12.625 0 12.625 -3 12.3125 C-5 10.3125 -5 10.3125 -5.265625 8.4375 C-5.26046875 7.73625 -5.2553125 7.035 -5.25 6.3125 C-5.25515625 5.61125 -5.2603125 4.91 -5.265625 4.1875 C-4.77591168 0.73070012 -3.27162459 0.34079423 0 0 Z " fill="#292929" transform="translate(333,308.6875)"/>
<path d="M0 0 C0 0.66 0 1.32 0 2 C-1.51149308 3.21576617 -3.02376276 4.43060439 -4.54296875 5.63671875 C-6.51927116 7.48585961 -7.13442817 9.46986694 -8 12 C-8.98095748 13.01868662 -9.97702078 14.02351983 -11 15 C-11 15.66 -11 16.32 -11 17 C-12.9375 16.4375 -12.9375 16.4375 -15 15 C-16.05165303 10.71249148 -16.16078534 7.25621291 -15 3 C-13.7315625 3.37125 -13.7315625 3.37125 -12.4375 3.75 C-7.09788833 4.13833539 -4.88863565 0 0 0 Z " fill="#CACACA" transform="translate(183,109)"/>
<path d="M0 0 C1.423125 0.4021875 1.423125 0.4021875 2.875 0.8125 C4.48225635 4.02701269 3.93248185 7.24862536 3.875 10.8125 C1.08636993 12.20681504 -1.04578868 12.06910094 -4.125 11.8125 C-6.43782587 8.34326119 -6.54978586 6.89044425 -6.125 2.8125 C-4.35767767 -0.23122179 -3.53906425 -0.21234385 0 0 Z " fill="#393939" transform="translate(283.125,309.1875)"/>
<path d="M0 0 C1.828125 0.05859375 1.828125 0.05859375 4 1 C5.12629629 3.39782551 5.97100667 5.55649314 6.75 8.0625 C6.97042969 8.72572266 7.19085938 9.38894531 7.41796875 10.07226562 C7.95997407 11.71006432 8.48192502 13.35447496 9 15 C8.01 14.67 7.02 14.34 6 14 C5.67 13.34 5.34 12.68 5 12 C2.67843403 11.59270772 0.3431213 11.25561323 -2 11 C-2.33 12.65 -2.66 14.3 -3 16 C-3.66 16 -4.32 16 -5 16 C-4.39363767 10.23955788 -2.24341721 5.27985631 0 0 Z " fill="#505050" transform="translate(108,306)"/>
<path d="M0 0 C6.40141012 -0.51211281 9.98010898 -0.11888494 15 4 C15.33 2.68 15.66 1.36 16 0 C17.65 0 19.3 0 21 0 C20.54803755 1.60597325 20.08817673 3.20972508 19.625 4.8125 C19.24214844 6.15248047 19.24214844 6.15248047 18.8515625 7.51953125 C18 10 18 10 16 13 C15.67 11.68 15.34 10.36 15 9 C14.34 9 13.68 9 13 9 C12.67 9.99 12.34 10.98 12 12 C11.896875 10.88625 11.79375 9.7725 11.6875 8.625 C11.460625 7.42875 11.23375 6.2325 11 5 C7.91111478 2.94074319 7.29064073 2.7609626 3.8125 2.875 C2.554375 2.91625 1.29625 2.9575 0 3 C-0.33 3.66 -0.66 4.32 -1 5 C-0.67 3.35 -0.34 1.7 0 0 Z " fill="#0F0F0F" transform="translate(360,262)"/>
<path d="M0 0 C0.66 0 1.32 0 2 0 C2 0.99 2 1.98 2 3 C3.65 3 5.3 3 7 3 C7.99 5.31 8.98 7.62 10 10 C10.99 7.69 11.98 5.38 13 3 C14.30671471 6.92014412 13.36293031 8.35122534 11.8125 12.125 C11.38582031 13.20007813 10.95914062 14.27515625 10.51953125 15.3828125 C9 18 9 18 6.82421875 18.8671875 C6.22222656 18.91101563 5.62023437 18.95484375 5 19 C5 18.34 5 17.68 5 17 C5.99 17 6.98 17 8 17 C7.57811541 15.1838018 7.13700835 13.37205927 6.6875 11.5625 C6.32205078 10.04849609 6.32205078 10.04849609 5.94921875 8.50390625 C5.63597656 7.67761719 5.32273437 6.85132813 5 6 C4.01 5.67 3.02 5.34 2 5 C2 7.31 2 9.62 2 12 C2.66 12 3.32 12 4 12 C4 12.99 4 13.98 4 15 C2.68 14.67 1.36 14.34 0 14 C-0.19532961 12.2300132 -0.38098882 10.45895721 -0.5625 8.6875 C-0.66691406 7.70136719 -0.77132813 6.71523438 -0.87890625 5.69921875 C-1 3 -1 3 0 0 Z " fill="#303030" transform="translate(368,306)"/>
<path d="M0 0 C3.0625 0.25 3.0625 0.25 6.0625 2.25 C6.0625 3.24 6.0625 4.23 6.0625 5.25 C5.4025 5.25 4.7425 5.25 4.0625 5.25 C3.7325 4.59 3.4025 3.93 3.0625 3.25 C1.4125 3.25 -0.2375 3.25 -1.9375 3.25 C-2.2675 4.24 -2.5975 5.23 -2.9375 6.25 C-1.844375 6.353125 -0.75125 6.45625 0.375 6.5625 C4.0625 7.25 4.0625 7.25 6.0625 8.5 C7.0625 10.25 7.0625 10.25 6.875 12.875 C6.0625 15.25 6.0625 15.25 4.0625 16.25 C0.5625 16.4375 0.5625 16.4375 -2.9375 16.25 C-3.5975 15.59 -4.2575 14.93 -4.9375 14.25 C-4.6075 13.26 -4.2775 12.27 -3.9375 11.25 C-3.2775 11.91 -2.6175 12.57 -1.9375 13.25 C0.64604218 13.41687448 0.64604218 13.41687448 3.0625 13.25 C3.3925 12.26 3.7225 11.27 4.0625 10.25 C2.94875 9.940625 1.835 9.63125 0.6875 9.3125 C-2.9375 8.25 -2.9375 8.25 -4.9375 7.25 C-5.0625 4.875 -5.0625 4.875 -4.9375 2.25 C-2.9375 0.25 -2.9375 0.25 0 0 Z " fill="#353535" transform="translate(318.9375,304.75)"/>
<path d="M0 0 C2.97 0 5.94 0 9 0 C9.33 0.66 9.66 1.32 10 2 C10.99 1.34 11.98 0.68 13 0 C15.26171875 -0.1953125 15.26171875 -0.1953125 17.6875 -0.125 C18.89986328 -0.09792969 18.89986328 -0.09792969 20.13671875 -0.0703125 C21.05904297 -0.03550781 21.05904297 -0.03550781 22 0 C21.67 2.31 21.34 4.62 21 7 C17.96083486 7.97687451 16.01586454 8.105817 13 7 C12.34 6.34 11.68 5.68 11 5 C10.34 5.66 9.68 6.32 9 7 C8.67 5.02 8.34 3.04 8 1 C5.36 1 2.72 1 0 1 C0 0.67 0 0.34 0 0 Z " fill="#1D1D1D" transform="translate(151,259)"/>
<path d="M0 0 C0.66 0 1.32 0 2 0 C1.37469224 3.59068478 0.41818571 6.80595942 -0.9375 10.1875 C-1.27652344 11.04730469 -1.61554688 11.90710938 -1.96484375 12.79296875 C-3 15 -3 15 -5 17 C-5.99 17 -6.98 17 -8 17 C-7.67 16.01 -7.34 15.02 -7 14 C-6.34 14 -5.68 14 -5 14 C-5.28241641 12.53984709 -5.57626614 11.08190207 -5.875 9.625 C-6.11863281 8.40683594 -6.11863281 8.40683594 -6.3671875 7.1640625 C-6.86658932 4.81326077 -6.86658932 4.81326077 -9 3 C-9.99 3 -10.98 3 -12 3 C-12 5.97 -12 8.94 -12 12 C-12.66 12 -13.32 12 -14 12 C-14 8.37 -14 4.74 -14 1 C-11.36 1 -8.72 1 -6 1 C-4.5393715 3.64738916 -4 4.89448334 -4 8 C-3.34 8 -2.68 8 -2 8 C-1.7834375 6.576875 -1.7834375 6.576875 -1.5625 5.125 C-1 2 -1 2 0 0 Z " fill="#383838" transform="translate(304,309)"/>
<path d="M0 0 C1.74023438 0.00966797 1.74023438 0.00966797 3.515625 0.01953125 C4.7221875 0.03628906 5.92875 0.05304688 7.171875 0.0703125 C9.00492188 0.08384766 9.00492188 0.08384766 10.875 0.09765625 C13.89082282 0.12121737 16.90624992 0.15411544 19.921875 0.1953125 C19.921875 0.5253125 19.921875 0.8553125 19.921875 1.1953125 C15.24986295 2.40099303 10.70691208 2.28913676 5.921875 2.1953125 C5.921875 3.1853125 5.921875 4.1753125 5.921875 5.1953125 C5.014375 5.3396875 4.106875 5.4840625 3.171875 5.6328125 C0.06122946 6.10154608 0.06122946 6.10154608 -2.328125 6.8828125 C-2.905625 6.9859375 -3.483125 7.0890625 -4.078125 7.1953125 C-4.738125 6.5353125 -5.398125 5.8753125 -6.078125 5.1953125 C-6.738125 5.1953125 -7.398125 5.1953125 -8.078125 5.1953125 C-8.078125 4.5353125 -8.078125 3.8753125 -8.078125 3.1953125 C-8.738125 2.8653125 -9.398125 2.5353125 -10.078125 2.1953125 C-6.64444644 0.10178274 -3.98448907 -0.03906362 0 0 Z " fill="#393939" transform="translate(204.078125,72.8046875)"/>
<path d="M0 0 C2.33294775 -0.04241723 4.66702567 -0.04092937 7 0 C8 1 8 1 8.09765625 3.28515625 C8.08605469 4.20167969 8.07445313 5.11820312 8.0625 6.0625 C8.05347656 6.98160156 8.04445313 7.90070313 8.03515625 8.84765625 C8.02355469 9.55792969 8.01195313 10.26820313 8 11 C5.03 11 2.06 11 -1 11 C-1.33 9.35 -1.66 7.7 -2 6 C0.64738916 4.5393715 1.89448334 4 5 4 C5 3.34 5 2.68 5 2 C3.02 2.33 1.04 2.66 -1 3 C-0.67 2.01 -0.34 1.02 0 0 Z " fill="#1D1D1D" transform="translate(72,310)"/>
<path d="M0 0 C2.33294775 -0.04241723 4.66702567 -0.04092937 7 0 C8 1 8 1 8.09765625 3.28515625 C8.08605469 4.20167969 8.07445312 5.11820312 8.0625 6.0625 C8.05347656 6.98160156 8.04445312 7.90070313 8.03515625 8.84765625 C8.02355469 9.55792969 8.01195312 10.26820313 8 11 C1.9453125 11.9765625 1.9453125 11.9765625 0 12 C-0.66 11.34 -1.32 10.68 -2 10 C-1.625 7.375 -1.625 7.375 -1 5 C2.465 4.505 2.465 4.505 6 4 C5.67 3.34 5.34 2.68 5 2 C3.02 2.33 1.04 2.66 -1 3 C-0.67 2.01 -0.34 1.02 0 0 Z " fill="#818181" transform="translate(219,310)"/>
<path d="M0 0 C0.25 2.8125 0.25 2.8125 0 6 C-2.28506757 8.63661642 -3.64947662 8.96494766 -7.125 9.3125 C-10 9 -10 9 -12 7 C-11.625 4.375 -11.625 4.375 -11 2 C-7.12315913 0.80712589 -4.08378077 0 0 0 Z " fill="#ECECEC" transform="translate(79,276)"/>
<path d="M0 0 C2 3 2 3 2 7 C-0.31 7.33 -2.62 7.66 -5 8 C-1.98968256 8.93423645 -1.13349732 9.04449911 2 8 C1.67 8.99 1.34 9.98 1 11 C-4.42465753 12.3260274 -4.42465753 12.3260274 -6.875 10.9375 C-8.49933741 8.14003001 -8.39704314 6.17634515 -8 3 C-5.91324884 -0.29487025 -3.75146415 -0.57714833 0 0 Z " fill="#5E5E5E" transform="translate(363,309)"/>
<path d="M0 0 C0.33 0.66 0.66 1.32 1 2 C1.99 2 2.98 2 4 2 C4.33 1.34 4.66 0.68 5 0 C4.67 2.64 4.34 5.28 4 8 C8.01232741 5.88238276 10.22277079 3.5433614 13 0 C13.66 0 14.32 0 15 0 C14.4237038 3.88999932 12.63263979 6.14170537 10 9 C6.99812422 11.03352875 4.59814356 11.37875195 1 11 C-1 9 -1 9 -1.1875 5.5 C-1 2 -1 2 0 0 Z " fill="#1F1F1F" transform="translate(302,280)"/>
<path d="M0 0 C3.63 0 7.26 0 11 0 C11 0.66 11 1.32 11 2 C8.03 2 5.06 2 2 2 C2 3.32 2 4.64 2 6 C4.64 6 7.28 6 10 6 C10 6.66 10 7.32 10 8 C7.36 8 4.72 8 2 8 C2 9.65 2 11.3 2 13 C4.97 13 7.94 13 11 13 C11 13.66 11 14.32 11 15 C7.37 15 3.74 15 0 15 C0 10.05 0 5.1 0 0 Z " fill="#202020" transform="translate(57,306)"/>
<path d="M0 0 C2.33294775 -0.04241723 4.66702567 -0.04092937 7 0 C8 1 8 1 8.09765625 3.28515625 C8.08605469 4.20167969 8.07445312 5.11820312 8.0625 6.0625 C8.05347656 6.98160156 8.04445312 7.90070313 8.03515625 8.84765625 C8.02355469 9.55792969 8.01195312 10.26820313 8 11 C1.84765625 11.87890625 1.84765625 11.87890625 0 12 C-1 11 -1 11 -1.0625 8.4375 C-1.041875 7.633125 -1.02125 6.82875 -1 6 C1.64738916 4.5393715 2.89448334 4 6 4 C5.67 3.34 5.34 2.68 5 2 C3.02 2.33 1.04 2.66 -1 3 C-0.67 2.01 -0.34 1.02 0 0 Z " fill="#474747" transform="translate(148,310)"/>
<path d="M0 0 C-0.99 0.33 -1.98 0.66 -3 1 C-3.33 1.66 -3.66 2.32 -4 3 C-3.01 3 -2.02 3 -1 3 C-1 2.34 -1 1.68 -1 1 C-0.01 1.33 0.98 1.66 2 2 C1.67 2.66 1.34 3.32 1 4 C2.65 4 4.3 4 6 4 C6 4.33 6 4.66 6 5 C3.69 5.33 1.38 5.66 -1 6 C-1.33 6.99 -1.66 7.98 -2 9 C-4.97 8.67 -7.94 8.34 -11 8 C-9.94523499 3.78093998 -9.1470668 2.76560416 -6 0 C-3.50907189 -1.24546405 -2.58919267 -0.7767578 0 0 Z " fill="#1F1F1F" transform="translate(70,260)"/>
<path d="M0 0 C1.875 1.25 1.875 1.25 3 3 C3 4.32 3 5.64 3 7 C-1.29 7 -5.58 7 -10 7 C-10 5.35 -10 3.7 -10 2 C-6.60268371 -0.09065618 -3.95730595 -0.42098999 0 0 Z " fill="#EFEFEF" transform="translate(192,265)"/>
<path d="M0 0 C1.65 0 3.3 0 5 0 C4.8607039 8.35776596 1.7782033 14.20237128 -3 21 C-3.66 21.33 -4.32 21.66 -5 22 C-5.66 21.67 -6.32 21.34 -7 21 C-6 18 -6 18 -4.5625 16.625 C-0.24345209 12.13319018 -0.4344483 5.88791781 0 0 Z " fill="#202020" transform="translate(342,262)"/>
<path d="M0 0 C3 0.25 3 0.25 5 2.25 C5 3.57 5 4.89 5 6.25 C2.36 6.25 -0.28 6.25 -3 6.25 C-2.67 7.57 -2.34 8.89 -2 10.25 C0.31 9.59 2.62 8.93 5 8.25 C4.67 9.24 4.34 10.23 4 11.25 C0.625 11.4375 0.625 11.4375 -3 11.25 C-5.30163882 7.79754176 -5.34490322 6.30261287 -5 2.25 C-3 0.25 -3 0.25 0 0 Z " fill="#737373" transform="translate(43,309.75)"/>
<path d="M0 0 C-1.80638515 4.43990456 -4.41070126 5.91242393 -8.54296875 8.08203125 C-12.51308433 9.56530178 -14.93980444 9.13970402 -19 8 C-19.66 7.01 -20.32 6.02 -21 5 C-19.68 4.01 -18.36 3.02 -17 2 C-16.67 2.99 -16.34 3.98 -16 5 C-9.92420951 4.73525967 -4.77328501 0 0 0 Z " fill="#4B4B4B" transform="translate(277,283)"/>
<path d="M0 0 C1.2065625 0.0309375 1.2065625 0.0309375 2.4375 0.0625 C3.0975 1.3825 3.7575 2.7025 4.4375 4.0625 C1.4675 3.5675 1.4675 3.5675 -1.5625 3.0625 C1.3059413 5.16482344 1.3059413 5.16482344 4.4375 6.0625 C4.480221 7.72861905 4.47813832 9.39632885 4.4375 11.0625 C3.4375 12.0625 3.4375 12.0625 0.5 12.1875 C-2.5625 12.0625 -2.5625 12.0625 -4.5625 11.0625 C-4.5625 10.0725 -4.5625 9.0825 -4.5625 8.0625 C-2.2525 8.7225 0.0575 9.3825 2.4375 10.0625 C2.4375 9.4025 2.4375 8.7425 2.4375 8.0625 C1.65375 7.93875 0.87 7.815 0.0625 7.6875 C-2.5625 7.0625 -2.5625 7.0625 -4.5625 5.0625 C-3.80953264 0.09291543 -3.80953264 0.09291543 0 0 Z " fill="#393939" transform="translate(264.5625,308.9375)"/>
<path d="M0 0 C3.63 0 7.26 0 11 0 C11 0.66 11 1.32 11 2 C9.68 2 8.36 2 7 2 C7 6.62 7 11.24 7 16 C6.01 16 5.02 16 4 16 C4 11.38 4 6.76 4 2 C2.68 2 1.36 2 0 2 C0 1.34 0 0.68 0 0 Z " fill="#474747" transform="translate(14,306)"/>
<path d="M0 0 C2.33294775 -0.04241723 4.66702567 -0.04092937 7 0 C8 1 8 1 8.09765625 3.28515625 C8.08605469 4.20167969 8.07445312 5.11820312 8.0625 6.0625 C8.05347656 6.98160156 8.04445312 7.90070313 8.03515625 8.84765625 C8.02355469 9.55792969 8.01195312 10.26820313 8 11 C7.01 10.34 6.02 9.68 5 9 C5.33 8.01 5.66 7.02 6 6 C4.35 6.33 2.7 6.66 1 7 C1 7.66 1 8.32 1 9 C1.99 9.66 2.98 10.32 4 11 C2.35 11 0.7 11 -1 11 C-1.33 9.35 -1.66 7.7 -2 6 C1.22791555 3.8480563 2.28400809 3.79913557 6 4 C5.67 3.34 5.34 2.68 5 2 C3.02 2.33 1.04 2.66 -1 3 C-0.67 2.01 -0.34 1.02 0 0 Z " fill="#212121" transform="translate(182,310)"/>
<path d="M0 0 C0.66 0.33 1.32 0.66 2 1 C2 1.66 2 2.32 2 3 C2.99 3.33 3.98 3.66 5 4 C4.67 9.94 4.34 15.88 4 22 C1.69 21.67 -0.62 21.34 -3 21 C-2.67 21.99 -2.34 22.98 -2 24 C-3.65 24.33 -5.3 24.66 -7 25 C-6.01 24.67 -5.02 24.34 -4 24 C-3.67 22.35 -3.34 20.7 -3 19 C-1.02 19.33 0.96 19.66 3 20 C2.01 13.4 1.02 6.8 0 0 Z " fill="#8C8C8C" transform="translate(203,199)"/>
<path d="M0 0 C0.66 0 1.32 0 2 0 C2 1.32 2 2.64 2 4 C2.78375 3.95875 3.5675 3.9175 4.375 3.875 C7 4 7 4 9 6 C9.1953125 8.1640625 9.1953125 8.1640625 9.125 10.625 C9.10695313 11.44226563 9.08890625 12.25953125 9.0703125 13.1015625 C9.03550781 14.04128906 9.03550781 14.04128906 9 15 C8.34 15 7.68 15 7 15 C7 12.03 7 9.06 7 6 C5.35 6 3.7 6 2 6 C2 8.97 2 11.94 2 15 C1.34 15 0.68 15 0 15 C0 10.05 0 5.1 0 0 Z " fill="#1C1C1C" transform="translate(27,306)"/>
<path d="M0 0 C1.134375 0.020625 2.26875 0.04125 3.4375 0.0625 C3.7675 1.0525 4.0975 2.0425 4.4375 3.0625 C2.1275 2.7325 -0.1825 2.4025 -2.5625 2.0625 C-2.5625 2.7225 -2.5625 3.3825 -2.5625 4.0625 C0.4075 4.5575 0.4075 4.5575 3.4375 5.0625 C3.81968767 6.71864657 4.15145102 8.38707024 4.4375 10.0625 C3.4375 11.0625 3.4375 11.0625 -0.125 11.125 C-1.259375 11.104375 -2.39375 11.08375 -3.5625 11.0625 C-3.8925 10.0725 -4.2225 9.0825 -4.5625 8.0625 C-3.9025 8.0625 -3.2425 8.0625 -2.5625 8.0625 C-2.5625 8.7225 -2.5625 9.3825 -2.5625 10.0625 C-0.9125 10.0625 0.7375 10.0625 2.4375 10.0625 C2.4375 9.0725 2.4375 8.0825 2.4375 7.0625 C-0.5325 6.5675 -0.5325 6.5675 -3.5625 6.0625 C-3.94468767 4.40635343 -4.27645102 2.73792976 -4.5625 1.0625 C-3.5625 0.0625 -3.5625 0.0625 0 0 Z " fill="#353535" transform="translate(86.5625,309.9375)"/>
<path d="M0 0 C0.98120464 3.05263664 0.98120464 4.94736336 0 8 C0.99 8 1.98 8 3 8 C2.125 15.875 2.125 15.875 1 17 C-0.66617115 17.04063832 -2.33388095 17.042721 -4 17 C-2.07289294 5.47835991 -2.07289294 5.47835991 0 0 Z " fill="#393939" transform="translate(285,274)"/>
<path d="M0 0 C6.6 0 13.2 0 20 0 C19.67 0.66 19.34 1.32 19 2 C16.67328146 2.68939809 14.33932406 3.35466922 12 4 C11.01 4.66 10.02 5.32 9 6 C9 5.34 9 4.68 9 4 C4.545 3.01 4.545 3.01 0 2 C0 1.34 0 0.68 0 0 Z " fill="#101010" transform="translate(240,247)"/>
<path d="M0 0 C0.99 0.66 1.98 1.32 3 2 C2.67 3.32 2.34 4.64 2 6 C2.66 6 3.32 6 4 6 C3.67715014 9.01326538 2.96634616 10.03461538 0.8125 12.25 C-2.43411922 14.27011863 -4.24742282 14.34907695 -8 14 C-8 13.67 -8 13.34 -8 13 C-7.21625 12.938125 -6.4325 12.87625 -5.625 12.8125 C-4.325625 12.4103125 -4.325625 12.4103125 -3 12 C-1.62533375 9.52363988 -1.62533375 9.52363988 -1 7 C-4.3 7 -7.6 7 -11 7 C-11 6.67 -11 6.34 -11 6 C-5.555 5.505 -5.555 5.505 0 5 C0 3.35 0 1.7 0 0 Z " fill="#4F4F4F" transform="translate(195,224)"/>
<path d="M0 0 C0.66 0 1.32 0 2 0 C2 2.97 2 5.94 2 9 C3.65 9 5.3 9 7 9 C7 6.03 7 3.06 7 0 C7.66 0 8.32 0 9 0 C9 3.63 9 7.26 9 11 C2.84765625 11.09765625 2.84765625 11.09765625 1 11 C0 10 0 10 -0.09765625 7.71484375 C-0.08605469 6.79832031 -0.07445312 5.88179688 -0.0625 4.9375 C-0.05347656 4.01839844 -0.04445312 3.09929687 -0.03515625 2.15234375 C-0.02355469 1.44207031 -0.01195312 0.73179687 0 0 Z " fill="#222222" transform="translate(199,310)"/>
<path d="M0 0 C1.65 0 3.3 0 5 0 C5 4.95 5 9.9 5 15 C4.34 15 3.68 15 3 15 C2.67 11.7 2.34 8.4 2 5 C1.67 8.3 1.34 11.6 1 15 C0.67 15 0.34 15 0 15 C0 10.05 0 5.1 0 0 Z " fill="#797979" transform="translate(253,306)"/>
<path d="M0 0 C2.625 -0.1875 2.625 -0.1875 5 0 C5.66 1.32 6.32 2.64 7 4 C4.03 3.505 4.03 3.505 1 3 C0.67 5.31 0.34 7.62 0 10 C1.65 10 3.3 10 5 10 C5 9.34 5 8.68 5 8 C5.66 8 6.32 8 7 8 C6.34 9.32 5.68 10.64 5 12 C2.625 12.125 2.625 12.125 0 12 C-2 10 -2 10 -2.25 6.5625 C-2 3 -2 3 0 0 Z " fill="#262626" transform="translate(342,309)"/>
<path d="M0 0 C2.475 0.99 2.475 0.99 5 2 C3.68 2.33 2.36 2.66 1 3 C1.33 4.32 1.66 5.64 2 7 C2.99 6.34 3.98 5.68 5 5 C5 5.99 5 6.98 5 8 C5.99 8 6.98 8 8 8 C7.34 8.61875 6.68 9.2375 6 9.875 C3.7715451 11.75637427 3.7715451 11.75637427 4 14 C2.0625 13.4375 2.0625 13.4375 0 12 C-1.05165303 7.71249148 -1.16078534 4.25621291 0 0 Z " fill="#8E8E8E" transform="translate(168,112)"/>
<path d="M0 0 C0.66 0.33 1.32 0.66 2 1 C4.88515664 2.33308926 4.88515664 2.33308926 7.13671875 1.0703125 C11.07589647 -0.40217685 14.64804887 -0.2157592 18.8125 -0.125 C19.99489258 -0.11146484 19.99489258 -0.11146484 21.20117188 -0.09765625 C23.13424666 -0.07422504 25.0671638 -0.03835838 27 0 C27 0.33 27 0.66 27 1 C25.53240234 1.18175781 25.53240234 1.18175781 24.03515625 1.3671875 C22.71082038 1.53553958 21.38660944 1.70487618 20.0625 1.875 C19.03612427 2.00600098 19.03612427 2.00600098 17.98901367 2.13964844 C14.19356911 2.64349628 10.51817893 3.29249236 6.8125 4.25 C2.82279148 5.03486069 2.26292829 4.9389463 -1 3 C-0.67 2.01 -0.34 1.02 0 0 Z " fill="#232323" transform="translate(198,77)"/>
<path d="M0 0 C0 0.66 0 1.32 0 2 C0.99 2.66 1.98 3.32 3 4 C-0.3 4.66 -3.6 5.32 -7 6 C-7 5.34 -7 4.68 -7 4 C-7.66 3.67 -8.32 3.34 -9 3 C-8.01 3 -7.02 3 -6 3 C-6 2.34 -6 1.68 -6 1 C-7.98 1.33 -9.96 1.66 -12 2 C-7.89783794 -0.73477471 -4.73617773 -1.57872591 0 0 Z " fill="#202020" transform="translate(76,272)"/>
<path d="M0 0 C1.32 0.33 2.64 0.66 4 1 C3.67 1.99 3.34 2.98 3 4 C2.34 4 1.68 4 1 4 C1 4.66 1 5.32 1 6 C-0.96875 7.5078125 -0.96875 7.5078125 -3.5 9.125 C-4.3353125 9.66382813 -5.170625 10.20265625 -6.03125 10.7578125 C-6.6809375 11.16773438 -7.330625 11.57765625 -8 12 C-8.99 11.34 -9.98 10.68 -11 10 C-10.28972656 9.52949219 -9.57945312 9.05898438 -8.84765625 8.57421875 C-7.92855469 7.95160156 -7.00945312 7.32898438 -6.0625 6.6875 C-5.14597656 6.07261719 -4.22945312 5.45773438 -3.28515625 4.82421875 C-0.74221053 3.1335096 -0.74221053 3.1335096 0 0 Z " fill="#272727" transform="translate(245,250)"/>
<path d="M0 0 C1.67542976 0.28604898 3.34385343 0.61781233 5 1 C5 2.98 5 4.96 5 7 C3.34385343 7.38218767 1.67542976 7.71395102 0 8 C-1 7 -1 7 -1.125 4 C-1 1 -1 1 0 0 Z " fill="#EBEBEB" transform="translate(331,311)"/>
<path d="M0 0 C0.94875 0.04125 1.8975 0.0825 2.875 0.125 C3.205 1.115 3.535 2.105 3.875 3.125 C1.565 2.795 -0.745 2.465 -3.125 2.125 C-2.795 4.435 -2.465 6.745 -2.125 9.125 C-1.135 9.125 -0.145 9.125 0.875 9.125 C1.205 8.465 1.535 7.805 1.875 7.125 C2.535 7.125 3.195 7.125 3.875 7.125 C3.545 8.445 3.215 9.765 2.875 11.125 C0 11.25 0 11.25 -3.125 11.125 C-5.125 9.125 -5.125 9.125 -5.375 5.625 C-5.05328869 1.12104166 -4.56738407 0.18269536 0 0 Z " fill="#2A2A2A" transform="translate(141.125,309.875)"/>
<path d="M0 0 C1.65 0.33 3.3 0.66 5 1 C5 2.32 5 3.64 5 5 C6.32 5.33 7.64 5.66 9 6 C8 7 8 7 4.5625 7.1875 C1 7 1 7 -1 5 C-0.625 2.375 -0.625 2.375 0 0 Z " fill="#111111" transform="translate(314,295)"/>
<path d="M0 0 C0.99 0.99 1.98 1.98 3 3 C3.66 2.67 4.32 2.34 5 2 C5.22036864 5.85645121 4.60355101 8.49223216 3 12 C1.35 11.67 -0.3 11.34 -2 11 C-1.34 7.37 -0.68 3.74 0 0 Z " fill="#171717" transform="translate(286,272)"/>
<path d="M0 0 C1.65 0.33 3.3 0.66 5 1 C5 2.98 5 4.96 5 7 C3.34385343 7.38218767 1.67542976 7.71395102 0 8 C-0.33 7.67 -0.66 7.34 -1 7 C-0.71269945 4.66055264 -0.38063221 2.3260857 0 0 Z " fill="#F0F0F0" transform="translate(280,311)"/>
<path d="M0 0 C0.66 0 1.32 0 2 0 C2.45375 0.474375 2.9075 0.94875 3.375 1.4375 C5.22977487 3.22093737 6.50135592 3.5691993 9 4 C9 4.99 9 5.98 9 7 C7.35 7 5.7 7 4 7 C4 6.34 4 5.68 4 5 C3.34 5 2.68 5 2 5 C2.33 5.99 2.66 6.98 3 8 C1.35 8.33 -0.3 8.66 -2 9 C-1.34 8.67 -0.68 8.34 0 8 C0 5.36 0 2.72 0 0 Z " fill="#E1E1E1" transform="translate(80,313)"/>
<path d="M0 0 C0.66 0 1.32 0 2 0 C2 1.32 2 2.64 2 4 C2.66 4 3.32 4 4 4 C4 4.66 4 5.32 4 6 C3.34 6 2.68 6 2 6 C2 8.64 2 11.28 2 14 C2.66 14.33 3.32 14.66 4 15 C2.68 15 1.36 15 0 15 C-0.19390729 12.68802845 -0.37996367 10.3753971 -0.5625 8.0625 C-0.71912109 6.13083984 -0.71912109 6.13083984 -0.87890625 4.16015625 C-0.91886719 3.11730469 -0.95882812 2.07445312 -1 1 C-0.67 0.67 -0.34 0.34 0 0 Z " fill="#3B3B3B" transform="translate(94,306)"/>
<path d="M0 0 C2.33294775 -0.04241723 4.66702567 -0.04092937 7 0 C8 1 8 1 8.09765625 3.28515625 C8.08605469 4.20167969 8.07445312 5.11820312 8.0625 6.0625 C8.05347656 6.98160156 8.04445312 7.90070313 8.03515625 8.84765625 C8.02355469 9.55792969 8.01195312 10.26820313 8 11 C5.69 11 3.38 11 1 11 C1.66 10.62875 2.32 10.2575 3 9.875 C5.35303045 8.09105222 5.35303045 8.09105222 5.25 4.8125 C5.1675 3.884375 5.085 2.95625 5 2 C3.02 2.33 1.04 2.66 -1 3 C-0.67 2.01 -0.34 1.02 0 0 Z " fill="#222222" transform="translate(219,310)"/>
<path d="M0 0 C1.32 0.33 2.64 0.66 4 1 C3.34 1 2.68 1 2 1 C2 1.99 2 2.98 2 4 C2.66 4 3.32 4 4 4 C4 4.66 4 5.32 4 6 C3.34 6 2.68 6 2 6 C2 8.97 2 11.94 2 15 C1.34 15 0.68 15 0 15 C0 12.03 0 9.06 0 6 C-0.66 6 -1.32 6 -2 6 C-2 5.34 -2 4.68 -2 4 C-1.34 4 -0.68 4 0 4 C0 2.68 0 1.36 0 0 Z " fill="#2A2A2A" transform="translate(119,306)"/>
<path d="M0 0 C2.33294775 -0.04241723 4.66702567 -0.04092937 7 0 C8 1 8 1 8.09765625 3.28515625 C8.08605469 4.20167969 8.07445312 5.11820312 8.0625 6.0625 C8.05347656 6.98160156 8.04445312 7.90070313 8.03515625 8.84765625 C8.02355469 9.55792969 8.01195312 10.26820313 8 11 C5.69 11 3.38 11 1 11 C4 9 4 9 6 9 C5.67 6.69 5.34 4.38 5 2 C3.02 2.33 1.04 2.66 -1 3 C-0.67 2.01 -0.34 1.02 0 0 Z " fill="#202020" transform="translate(148,310)"/>
<path d="M0 0 C2 2 2 2 2.1953125 4.1640625 C2.17210938 4.97617187 2.14890625 5.78828125 2.125 6.625 C2.10695313 7.44226563 2.08890625 8.25953125 2.0703125 9.1015625 C2.03550781 10.04128906 2.03550781 10.04128906 2 11 C-1 9 -1 9 -2 6 C-5.00847418 4.77479736 -5.00847418 4.77479736 -8 4 C-8 3.34 -8 2.68 -8 2 C-5.69 2.33 -3.38 2.66 -1 3 C-0.67 2.01 -0.34 1.02 0 0 Z " fill="#D5D5D5" transform="translate(92,310)"/>
<path d="M0 0 C0.99 0 1.98 0 3 0 C1.60551748 4.43698984 -0.35415587 7.09989671 -4 10 C-7.3125 10.3125 -7.3125 10.3125 -10 10 C-9.01 9.67 -8.02 9.34 -7 9 C-7 7.02 -7 5.04 -7 3 C-6.67 4.32 -6.34 5.64 -6 7 C-2.57421051 3.82460444 -2.57421051 3.82460444 0 0 Z " fill="#313131" transform="translate(380,281)"/>
<path d="M0 0 C0 0.66 0 1.32 0 2 C-0.639375 2.28875 -1.27875 2.5775 -1.9375 2.875 C-4.15206079 3.82823451 -4.15206079 3.82823451 -5 6 C-5.556875 6.103125 -6.11375 6.20625 -6.6875 6.3125 C-10.19085409 7.3540377 -12.27726595 9.58666754 -15 12 C-13.67915553 6.38641099 -9.56312373 4.00405646 -5 1 C-3 0 -3 0 0 0 Z " fill="#2E2E2E" transform="translate(269,262)"/>
<path d="M0 0 C1.30671471 3.92014412 0.36293031 5.35122534 -1.1875 9.125 C-1.61417969 10.20007813 -2.04085938 11.27515625 -2.48046875 12.3828125 C-4 15 -4 15 -6.17578125 15.8671875 C-6.77777344 15.91101563 -7.37976563 15.95484375 -8 16 C-8 15.34 -8 14.68 -8 14 C-7.01 14 -6.02 14 -5 14 C-5 12.02 -5 10.04 -5 8 C-4.34 7.67 -3.68 7.34 -3 7 C-1.94647157 4.69034152 -0.94280904 2.3570226 0 0 Z " fill="#2A2A2A" transform="translate(381,309)"/>
<path d="M0 0 C0.66 0 1.32 0 2 0 C2 4.95 2 9.9 2 15 C1.34 15 0.68 15 0 15 C0 12.36 0 9.72 0 7 C-2.31 7 -4.62 7 -7 7 C-7 6.67 -7 6.34 -7 6 C-4.69 6 -2.38 6 0 6 C0 4.02 0 2.04 0 0 Z " fill="#0D0D0D" transform="translate(251,306)"/>
<path d="M0 0 C0.66 0 1.32 0 2 0 C2 1.32 2 2.64 2 4 C2.66 4.33 3.32 4.66 4 5 C3.34 5 2.68 5 2 5 C2 7.64 2 10.28 2 13 C2.66 13 3.32 13 4 13 C4 13.66 4 14.32 4 15 C2.68 15 1.36 15 0 15 C-0.19601608 13.25093341 -0.38147403 11.50068154 -0.5625 9.75 C-0.66691406 8.77546875 -0.77132813 7.8009375 -0.87890625 6.796875 C-0.98974468 4.2368648 -0.77738092 2.41851841 0 0 Z " fill="#212121" transform="translate(272,306)"/>
<path d="M0 0 C0.66 0 1.32 0 2 0 C2 0.99 2 1.98 2 3 C2.66 3 3.32 3 4 3 C4 3.66 4 4.32 4 5 C3.34 5 2.68 5 2 5 C2 7.31 2 9.62 2 12 C2.66 12 3.32 12 4 12 C4 12.66 4 13.32 4 14 C2.68 13.67 1.36 13.34 0 13 C-0.19551338 11.39679026 -0.38111983 9.79237014 -0.5625 8.1875 C-0.71912109 6.84751953 -0.71912109 6.84751953 -0.87890625 5.48046875 C-1 3 -1 3 0 0 Z " fill="#232323" transform="translate(193,307)"/>
<path d="M0 0 C2.78637633 4.1795645 1.79562512 6.14668677 1 11 C-0.32 11 -1.64 11 -3 11 C-3.32613618 6.32538149 -2.70582788 3.83325617 0 0 Z " fill="#0F0F0F" transform="translate(372,279)"/>
<path d="M0 0 C0.66 0.66 1.32 1.32 2 2 C1.96712417 4.72869407 1.43602229 7.2966618 1 10 C0.01 10 -0.98 10 -2 10 C-4.09230769 5.56923077 -4.09230769 5.56923077 -3.625 2.6875 C-3.41875 2.130625 -3.2125 1.57375 -3 1 C-2.34 1.66 -1.68 2.32 -1 3 C-0.67 2.01 -0.34 1.02 0 0 Z " fill="#2C2C2C" transform="translate(331,267)"/>
<path d="M0 0 C1.9375 0.5625 1.9375 0.5625 4 2 C4.75 5.625 4.75 5.625 5 9 C4.67 8.01 4.34 7.02 4 6 C1.69 7.32 -0.62 8.64 -3 10 C-2.21302675 6.58978257 -1.12880057 3.31114834 0 0 Z " fill="#818181" transform="translate(278,196)"/>
<path d="M0 0 C0.33 0.66 0.66 1.32 1 2 C3.31 2 5.62 2 8 2 C8.33 1.34 8.66 0.68 9 0 C9 0.99 9 1.98 9 3 C6.36 3 3.72 3 1 3 C1.33 4.32 1.66 5.64 2 7 C4.31 6.34 6.62 5.68 9 5 C8.67 5.99 8.34 6.98 8 8 C4.625 8.1875 4.625 8.1875 1 8 C-1 5 -1 5 -0.625 2.3125 C-0.41875 1.549375 -0.2125 0.78625 0 0 Z " fill="#171717" transform="translate(39,313)"/>
<path d="M0 0 C0.99 0 1.98 0 3 0 C3.33 1.32 3.66 2.64 4 4 C3.34 4 2.68 4 2 4 C2 7.63 2 11.26 2 15 C1.34 15 0.68 15 0 15 C0 10.05 0 5.1 0 0 Z " fill="#1F1F1F" transform="translate(165,306)"/>
<path d="M0 0 C2.33294775 -0.04241723 4.66702567 -0.04092937 7 0 C8 1 8 1 8.09765625 3.06640625 C8.08605469 3.89011719 8.07445313 4.71382813 8.0625 5.5625 C8.05347656 6.38878906 8.04445313 7.21507812 8.03515625 8.06640625 C8.02355469 8.70449219 8.01195313 9.34257812 8 10 C7.67 10 7.34 10 7 10 C7 8.35 7 6.7 7 5 C5.35 5 3.7 5 2 5 C2.99 4.67 3.98 4.34 5 4 C5 3.34 5 2.68 5 2 C3.02 2.33 1.04 2.66 -1 3 C-0.67 2.01 -0.34 1.02 0 0 Z " fill="#424242" transform="translate(72,310)"/>
<path d="M0 0 C0.66 0 1.32 0 2 0 C2 3.3 2 6.6 2 10 C1.01 10.495 1.01 10.495 0 11 C0 10.34 0 9.68 0 9 C-0.66 9 -1.32 9 -2 9 C-2 6.69 -2 4.38 -2 2 C-1.34 2 -0.68 2 0 2 C0 1.34 0 0.68 0 0 Z " fill="#DFDFDF" transform="translate(197,310)"/>
<path d="M0 0 C1 3 1 3 -0.125 6.625 C-2 10 -2 10 -4.6875 10.9375 C-5.450625 10.958125 -6.21375 10.97875 -7 11 C-6.68232368 5.59950264 -3.80003673 3.47662935 0 0 Z " fill="#050505" transform="translate(261,267)"/>
<path d="M0 0 C0.7425 0.185625 1.485 0.37125 2.25 0.5625 C4.94990963 0.99203108 6.44631077 0.85122974 9 0 C9.33 0.99 9.66 1.98 10 3 C8.576875 3.37125 8.576875 3.37125 7.125 3.75 C3.91306809 4.6857077 3.91306809 4.6857077 2.625 7.125 C2.41875 7.74375 2.2125 8.3625 2 9 C2 7.02 2 5.04 2 3 C1.01 2.67 0.02 2.34 -1 2 C-0.67 1.34 -0.34 0.68 0 0 Z " fill="#C9C9C9" transform="translate(144,311)"/>
<path d="M0 0 C8.19256018 -0.63019694 8.19256018 -0.63019694 11.5625 2 C12.036875 2.66 12.51125 3.32 13 4 C12.01 4.495 12.01 4.495 11 5 C10.01 4.34 9.02 3.68 8 3 C5.94290404 2.75944532 5.94290404 2.75944532 3.8125 2.875 C2.554375 2.91625 1.29625 2.9575 0 3 C-0.33 3.66 -0.66 4.32 -1 5 C-0.67 3.35 -0.34 1.7 0 0 Z " fill="#202020" transform="translate(360,262)"/>
<path d="M0 0 C2.475 0.495 2.475 0.495 5 1 C6.25541557 4.76624671 5.37061958 6.37188934 4 10 C5.32 10.33 6.64 10.66 8 11 C7.01 11 6.02 11 5 11 C4.67 12.32 4.34 13.64 4 15 C3.34 15 2.68 15 2 15 C2.33 10.71 2.66 6.42 3 2 C2.01 1.34 1.02 0.68 0 0 Z " fill="#878787" transform="translate(211,205)"/>
<path d="M0 0 C0.99 0 1.98 0 3 0 C2.625 2.4375 2.625 2.4375 2 5 C-1.01324195 6.50662097 -3.68286377 6.17770373 -7 6 C-7.66 5.34 -8.32 4.68 -9 4 C-8.67 3.01 -8.34 2.02 -8 1 C-7.34 1.66 -6.68 2.32 -6 3 C-3.41645782 3.16687448 -3.41645782 3.16687448 -1 3 C-0.67 2.01 -0.34 1.02 0 0 Z " fill="#393939" transform="translate(323,315)"/>
<path d="M0 0 C0 0.99 0 1.98 0 3 C-1.32 3 -2.64 3 -4 3 C-4 5.97 -4 8.94 -4 12 C-4.66 12 -5.32 12 -6 12 C-6 8.37 -6 4.74 -6 1 C-3 0 -3 0 0 0 Z " fill="#3B3B3B" transform="translate(217,309)"/>
<path d="M0 0 C1.65 0 3.3 0 5 0 C5.33 0.99 5.66 1.98 6 3 C6.66 3.33 7.32 3.66 8 4 C7.34 4.66 6.68 5.32 6 6 C3.69 5.34 1.38 4.68 -1 4 C-0.67 2.68 -0.34 1.36 0 0 Z " fill="#E5E5E5" transform="translate(317,307)"/>
<path d="M0 0 C0 0.99 0 1.98 0 3 C0.66 3 1.32 3 2 3 C2 3.66 2 4.32 2 5 C4.97 5.495 4.97 5.495 8 6 C8 6.33 8 6.66 8 7 C0 7.30769231 0 7.30769231 -3 5 C-3.75 2.875 -3.75 2.875 -4 1 C-2 0 -2 0 0 0 Z " fill="#0A0A0A" transform="translate(354,283)"/>
<path d="M0 0 C0.33 0 0.66 0 1 0 C0.67 2.64 0.34 5.28 0 8 C-1.65 8.33 -3.3 8.66 -5 9 C-5 7.35 -5 5.7 -5 4 C-3.35 3.34 -1.7 2.68 0 2 C0 1.34 0 0.68 0 0 Z " fill="#0D0D0D" transform="translate(308,273)"/>
<path d="M0 0 C0 0.99 0 1.98 0 3 C-4.62 3 -9.24 3 -14 3 C-14 2.34 -14 1.68 -14 1 C-4.58997722 -0.14806378 -4.58997722 -0.14806378 0 0 Z " fill="#D6D6D6" transform="translate(224,74)"/>
<path d="M0 0 C3.96 0 7.92 0 12 0 C11.67 0.66 11.34 1.32 11 2 C6.32725624 3.55758125 3.86453831 3.97290766 -1 3 C-0.67 2.01 -0.34 1.02 0 0 Z " fill="#3F3F3F" transform="translate(283,262)"/>
<path d="M0 0 C1.98 0 3.96 0 6 0 C6 0.66 6 1.32 6 2 C5.01 2.33 4.02 2.66 3 3 C2.67 5.64 2.34 8.28 2 11 C1.34 11 0.68 11 0 11 C0 7.37 0 3.74 0 0 Z " fill="#2F2F2F" transform="translate(124,310)"/>
<path d="M0 0 C0.66 0 1.32 0 2 0 C0.49223521 4.22174141 -2.15164062 5.88717524 -6 8 C-8.875 8.25 -8.875 8.25 -11 8 C-11.33 7.34 -11.66 6.68 -12 6 C-11.07767578 5.72736328 -11.07767578 5.72736328 -10.13671875 5.44921875 C-8.92435547 5.07216797 -8.92435547 5.07216797 -7.6875 4.6875 C-6.48673828 4.32205078 -6.48673828 4.32205078 -5.26171875 3.94921875 C-2.88593789 2.95212938 -1.75402699 1.83632738 0 0 Z " fill="#202020" transform="translate(275,283)"/>
<path d="M0 0 C1.98 0 3.96 0 6 0 C6 2.31 6 4.62 6 7 C4.02 7 2.04 7 0 7 C0.66 5.68 1.32 4.36 2 3 C2.66 3 3.32 3 4 3 C4 2.34 4 1.68 4 1 C2.68 0.67 1.36 0.34 0 0 Z " fill="#212121" transform="translate(104,259)"/>
<path d="M0 0 C1.65 0 3.3 0 5 0 C5.33 0.66 5.66 1.32 6 2 C5.38125 2.2475 4.7625 2.495 4.125 2.75 C1.64931313 4.20628639 1.04874998 5.37812506 0 8 C-0.66 8 -1.32 8 -2 8 C-2.66 6.68 -3.32 5.36 -4 4 C-2.68 3.34 -1.36 2.68 0 2 C0 1.34 0 0.68 0 0 Z " fill="#D7D7D7" transform="translate(200,220)"/>
<path d="M0 0 C0.28875 0.61875 0.5775 1.2375 0.875 1.875 C1.93720042 4.13325765 1.93720042 4.13325765 4 6 C7.09926819 5.67801034 7.09926819 5.67801034 10 5 C9.67 5.99 9.34 6.98 9 8 C3.57534247 9.3260274 3.57534247 9.3260274 1.125 7.9375 C-0.44071111 5.24099753 -0.20391303 3.05869541 0 0 Z " fill="#333333" transform="translate(355,312)"/>
<path d="M0 0 C0.99 1.32 1.98 2.64 3 4 C6.08333587 5.75072715 6.08333587 5.75072715 9 7 C9 7.66 9 8.32 9 9 C6.23723823 8.47731534 3.6739124 7.89130413 1 7 C0.67 8.32 0.34 9.64 0 11 C0 7.37 0 3.74 0 0 Z " fill="#E6E6E6" transform="translate(258,310)"/>
<path d="M0 0 C0.33 0.99 0.66 1.98 1 3 C0.01 3.33 -0.98 3.66 -2 4 C-2 4.66 -2 5.32 -2 6 C-5.3 6 -8.6 6 -12 6 C-12.33 5.34 -12.66 4.68 -13 4 C-11.35 4 -9.7 4 -8 4 C-8 3.67 -8 3.34 -8 3 C-6.865625 2.690625 -5.73125 2.38125 -4.5625 2.0625 C-1.21224901 1.37075469 -1.21224901 1.37075469 0 0 Z " fill="#414141" transform="translate(366,285)"/>
<path d="M0 0 C2.375 -0.1875 2.375 -0.1875 5 0 C5.66 0.99 6.32 1.98 7 3 C4.69 4.32 2.38 5.64 0 7 C0 4.69 0 2.38 0 0 Z " fill="#343434" transform="translate(264,213)"/>
<path d="M0 0 C0.33 0.99 0.66 1.98 1 3 C-2.06117568 5.62386487 -2.73173127 6 -7 6 C-7.33 4.68 -7.66 3.36 -8 2 C-5.36 2 -2.72 2 0 2 C0 1.34 0 0.68 0 0 Z " fill="#CFCFCF" transform="translate(48,314)"/>
<path d="M0 0 C0.33 0.66 0.66 1.32 1 2 C1.66 2.33 2.32 2.66 3 3 C2.34 3 1.68 3 1 3 C1.495 3.5775 1.99 4.155 2.5 4.75 C4 7 4 7 4 11 C2 11 2 11 0.3125 9.4375 C-1.52326619 6.02821993 -0.78222319 3.69778233 0 0 Z " fill="#222222" transform="translate(189,243)"/>
<path d="M0 0 C0 0.33 0 0.66 0 1 C-3.31114834 2.12880057 -6.58978257 3.21302675 -10 4 C-10 3.34 -10 2.68 -10 2 C-10.66 1.67 -11.32 1.34 -12 1 C-8.00439392 -1.83022097 -4.57262677 -0.76210446 0 0 Z " fill="#6E6E6E" transform="translate(206,74)"/>
<path d="M0 0 C0 0.66 0 1.32 0 2 C-1.65 2.33 -3.3 2.66 -5 3 C-5 3.66 -5 4.32 -5 5 C-4.01 5.66 -3.02 6.32 -2 7 C-3.65 7 -5.3 7 -7 7 C-7.33 5.35 -7.66 3.7 -8 2 C-4.77208445 -0.1519437 -3.71599191 -0.20086443 0 0 Z " fill="#333333" transform="translate(188,314)"/>
<path d="M0 0 C0.99 0 1.98 0 3 0 C3 3.63 3 7.26 3 11 C2.01 11 1.02 11 0 11 C0 7.37 0 3.74 0 0 Z " fill="#D8D8D8" transform="translate(208,310)"/>
<path d="M0 0 C3.63 0 7.26 0 11 0 C11 0.66 11 1.32 11 2 C8.03 2 5.06 2 2 2 C1.67 3.32 1.34 4.64 1 6 C0.67 4.02 0.34 2.04 0 0 Z " fill="#2C2C2C" transform="translate(57,306)"/>
<path d="M0 0 C0.66 0.33 1.32 0.66 2 1 C1.34 1.66 0.68 2.32 0 3 C0 3.99 0 4.98 0 6 C-3.01031744 6.93423645 -3.86650268 7.04449911 -7 6 C-6.67 5.01 -6.34 4.02 -6 3 C-4.68 3 -3.36 3 -2 3 C-2 2.34 -2 1.68 -2 1 C-1.34 0.67 -0.68 0.34 0 0 Z " fill="#2F2F2F" transform="translate(229,264)"/>
<path d="M0 0 C0.33 0.66 0.66 1.32 1 2 C-4.625 3.125 -4.625 3.125 -8 2 C-8 2.66 -8 3.32 -8 4 C-8.99 4 -9.98 4 -11 4 C-10.67 3.01 -10.34 2.02 -10 1 C-6.52674819 -0.1577506 -3.63932552 -0.06866652 0 0 Z " fill="#020202" transform="translate(77,259)"/>
<path d="M0 0 C0.99 0.66 1.98 1.32 3 2 C3 2.66 3 3.32 3 4 C2.34 4 1.68 4 1 4 C0.67 4.99 0.34 5.98 0 7 C-2.475 6.01 -2.475 6.01 -5 5 C-5 4.34 -5 3.68 -5 3 C-4.360625 2.87625 -3.72125 2.7525 -3.0625 2.625 C-2.0415625 2.315625 -2.0415625 2.315625 -1 2 C-0.67 1.34 -0.34 0.68 0 0 Z " fill="#1F1F1F" transform="translate(199,249)"/>
<path d="M0 0 C0.66 0.99 1.32 1.98 2 3 C-0.64 5.31 -3.28 7.62 -6 10 C-6 6.41087588 -5.33563446 5.89142971 -3 3.3125 C-2.443125 2.68988281 -1.88625 2.06726563 -1.3125 1.42578125 C-0.879375 0.95527344 -0.44625 0.48476563 0 0 Z " fill="#2F2F2F" transform="translate(330,291)"/>
<path d="M0 0 C0.33 0.99 0.66 1.98 1 3 C-2.63 3 -6.26 3 -10 3 C-9.67 2.01 -9.34 1.02 -9 0 C-3.375 -1.125 -3.375 -1.125 0 0 Z " fill="#959595" transform="translate(231,212)"/>
<path d="M0 0 C0.66 0.99 1.32 1.98 2 3 C0.73113036 4.12721436 -0.54017562 5.25168658 -1.8125 6.375 C-2.52019531 7.00148438 -3.22789062 7.62796875 -3.95703125 8.2734375 C-6 10 -6 10 -9 12 C-7.55575365 8.76138697 -5.74227753 6.38030837 -3.375 3.75 C-2.74335938 3.04359375 -2.11171875 2.3371875 -1.4609375 1.609375 C-0.97882813 1.07828125 -0.49671875 0.5471875 0 0 Z " fill="#2E2E2E" transform="translate(182,82)"/>
<path d="M0 0 C0.33 0 0.66 0 1 0 C1.33 1.65 1.66 3.3 2 5 C3.98 5 5.96 5 8 5 C7.67 5.99 7.34 6.98 7 8 C4.125 8.1875 4.125 8.1875 1 8 C-1 5 -1 5 -0.625 2.3125 C-0.41875 1.549375 -0.2125 0.78625 0 0 Z " fill="#404040" transform="translate(329,313)"/>
<path d="M0 0 C1.65 0 3.3 0 5 0 C5.33 1.65 5.66 3.3 6 5 C3.03 4.505 3.03 4.505 0 4 C0 2.68 0 1.36 0 0 Z " fill="#B4B4B4" transform="translate(183,316)"/>
<path d="M0 0 C1.9451 2.91765 2.45276317 4.62537285 3 8 C1.02 8.99 1.02 8.99 -1 10 C-2.31223496 6.06329512 -1.24296256 3.87511856 0 0 Z " fill="#242424" transform="translate(221,221)"/>
<path d="M0 0 C0 0.99 0 1.98 0 3 C-0.9075 3.144375 -1.815 3.28875 -2.75 3.4375 C-5.21476956 3.86409473 -7.58847107 4.35074221 -10 5 C-10 4.01 -10 3.02 -10 2 C-8.7090864 1.66376204 -7.41723903 1.33110751 -6.125 1 C-5.40570313 0.814375 -4.68640625 0.62875 -3.9453125 0.4375 C-2 0 -2 0 0 0 Z " fill="#565656" transform="translate(210,75)"/>
<path d="M0 0 C1.32 0 2.64 0 4 0 C6.09230769 4.43076923 6.09230769 4.43076923 5.625 7.3125 C5.41875 7.869375 5.2125 8.42625 5 9 C3 6 3 6 2 3 C1.34 2.67 0.68 2.34 0 2 C0 1.34 0 0.68 0 0 Z " fill="#4A4A4A" transform="translate(371,309)"/>
<path d="M0 0 C0.66 0 1.32 0 2 0 C1.45773019 3.79588866 -0.20127563 5.47211993 -3 8 C-3.66 7.34 -4.32 6.68 -5 6 C-3.38405168 3.95880212 -1.7143618 1.95927063 0 0 Z " fill="#434343" transform="translate(315,280)"/>
<path d="M0 0 C0.33 0.99 0.66 1.98 1 3 C-0.40445835 5.2636564 -2.1967913 7.0208685 -4 9 C-4.66 7.68 -5.32 6.36 -6 5 C-5.34 4.34 -4.68 3.68 -4 3 C-3.34 3.33 -2.68 3.66 -2 4 C-1.34 2.68 -0.68 1.36 0 0 Z " fill="#3B3B3B" transform="translate(297,265)"/>
<path d="M0 0 C1.65 0 3.3 0 5 0 C4.34 2.31 3.68 4.62 3 7 C1.68 5.68 0.36 4.36 -1 3 C-0.67 2.01 -0.34 1.02 0 0 Z " fill="#2C2C2C" transform="translate(376,262)"/>
<path d="M0 0 C1.65 0 3.3 0 5 0 C5.875 3.1875 5.875 3.1875 6 7 C4.21974097 9.21299892 2.39362281 10.38796831 0 12 C0.28875 11.484375 0.5775 10.96875 0.875 10.4375 C2.28780027 7.37643275 3.1248517 4.25055082 4 1 C2.68 0.67 1.36 0.34 0 0 Z " fill="#434343" transform="translate(177,118)"/>
<path d="M0 0 C1.1577506 3.47325181 1.06866652 6.36067448 1 10 C0.34 10 -0.32 10 -1 10 C-1.33 8.68 -1.66 7.36 -2 6 C-2.99 6.495 -2.99 6.495 -4 7 C-2.92598892 4.08482708 -2.22189824 2.22189824 0 0 Z " fill="#CECECE" transform="translate(206,245)"/>
<path d="M0 0 C0.99 0.33 1.98 0.66 3 1 C2.113125 1.5775 1.22625 2.155 0.3125 2.75 C-2.59042244 4.68068476 -5.30768649 6.78280064 -8 9 C-6.40758592 4.70048197 -3.64459275 2.60328053 0 0 Z " fill="#2D2D2D" transform="translate(179,232)"/>
<path d="M0 0 C0.66 0 1.32 0 2 0 C2 0.99 2 1.98 2 3 C2.66 3 3.32 3 4 3 C4 3.66 4 4.32 4 5 C2.35 5.33 0.7 5.66 -1 6 C-1.33 5.01 -1.66 4.02 -2 3 C-1.34 3 -0.68 3 0 3 C0 2.01 0 1.02 0 0 Z " fill="#4C4C4C" transform="translate(179,102)"/>
<path d="M0 0 C1.65 0 3.3 0 5 0 C5 0.99 5 1.98 5 3 C3.35 3.33 1.7 3.66 0 4 C0 2.68 0 1.36 0 0 Z " fill="#C6C6C6" transform="translate(73,316)"/>
<path d="M0 0 C0.99 0.33 1.98 0.66 3 1 C3 2.32 3 3.64 3 5 C1.35 5 -0.3 5 -2 5 C-2 4.01 -2 3.02 -2 2 C-1.34 2 -0.68 2 0 2 C0 1.34 0 0.68 0 0 Z " fill="#292929" transform="translate(283,286)"/>
<path d="M0 0 C1.0625 1.8125 1.0625 1.8125 2 4 C1.67 4.99 1.34 5.98 1 7 C0.01 7.33 -0.98 7.66 -2 8 C-2 5.69 -2 3.38 -2 1 C-1.34 0.67 -0.68 0.34 0 0 Z " fill="#070707" transform="translate(332,274)"/>
<path d="M0 0 C0 0.66 0 1.32 0 2 C-5.75 3.125 -5.75 3.125 -8 2 C-6.14210462 -1.71579076 -3.44525918 -1.06921837 0 0 Z " fill="#D6D6D6" transform="translate(225,312)"/>
<path d="M0 0 C0.33 0.66 0.66 1.32 1 2 C1.66 2.33 2.32 2.66 3 3 C0.03 5.475 0.03 5.475 -3 8 C-2.25 2.25 -2.25 2.25 0 0 Z " fill="#353535" transform="translate(322,263)"/>
<path d="M0 0 C1.65 0 3.3 0 5 0 C4.34 1.32 3.68 2.64 3 4 C1.35 3.67 -0.3 3.34 -2 3 C-1.34 2.67 -0.68 2.34 0 2 C0 1.34 0 0.68 0 0 Z " fill="#E4E4E4" transform="translate(216,221)"/>
<path d="M0 0 C0 0.66 0 1.32 0 2 C-1.96147874 3.38938077 -3.96166576 4.7260411 -6 6 C-6.99 5.34 -7.98 4.68 -9 4 C-2.25 0 -2.25 0 0 0 Z " fill="#919191" transform="translate(183,109)"/>
<path d="M0 0 C0.33 0.66 0.66 1.32 1 2 C4.02934491 2.65772428 4.02934491 2.65772428 7 3 C6.67 3.66 6.34 4.32 6 5 C3.03 4.505 3.03 4.505 0 4 C0 2.68 0 1.36 0 0 Z " fill="#383838" transform="translate(83,312)"/>
<path d="M0 0 C0 0.66 0 1.32 0 2 C-5.75 3.125 -5.75 3.125 -8 2 C-6.14210462 -1.71579076 -3.44525918 -1.06921837 0 0 Z " fill="#D3D3D3" transform="translate(188,312)"/>
<path d="M0 0 C1.65 0 3.3 0 5 0 C5.66 1.32 6.32 2.64 7 4 C4.69 3.67 2.38 3.34 0 3 C0 2.01 0 1.02 0 0 Z " fill="#3B3B3B" transform="translate(342,309)"/>
<path d="M0 0 C1.65 0 3.3 0 5 0 C5.66 1.32 6.32 2.64 7 4 C4.69 3.67 2.38 3.34 0 3 C0 2.01 0 1.02 0 0 Z " fill="#4A4A4A" transform="translate(262,309)"/>
<path d="M0 0 C2.31 0 4.62 0 7 0 C7 1.98 7 3.96 7 6 C6.34 4.68 5.68 3.36 5 2 C3.02 2.33 1.04 2.66 -1 3 C-0.67 2.01 -0.34 1.02 0 0 Z " fill="#1B1B1B" transform="translate(219,310)"/>
<path d="M0 0 C0.66 0.99 1.32 1.98 2 3 C0.68 4.32 -0.64 5.64 -2 7 C-2.66 6.67 -3.32 6.34 -4 6 C-3.0022242 3.00667261 -2.2477975 2.05233685 0 0 Z " fill="#4E4E4E" transform="translate(339,277)"/>
<path d="M0 0 C0.66 0 1.32 0 2 0 C2.28875 0.78375 2.5775 1.5675 2.875 2.375 C3.84912254 5.09671632 3.84912254 5.09671632 6 7 C4.35 6.67 2.7 6.34 1 6 C0.67 4.02 0.34 2.04 0 0 Z " fill="#1E1E1E" transform="translate(277,314)"/>
<path d="M0 0 C1.32 0 2.64 0 4 0 C4 0.99 4 1.98 4 3 C2.35 3.33 0.7 3.66 -1 4 C-0.67 2.68 -0.34 1.36 0 0 Z " fill="#D5D5D5" transform="translate(150,316)"/>
<path d="M0 0 C2 1 2 1 3 2 C3.04063832 3.66617115 3.042721 5.33388095 3 7 C2.01 7.33 1.02 7.66 0 8 C0 5.36 0 2.72 0 0 Z " fill="#E3E3E3" transform="translate(274,311)"/>
<path d="M0 0 C2.375 -0.125 2.375 -0.125 5 0 C5.66 0.66 6.32 1.32 7 2 C6.625 4.125 6.625 4.125 6 6 C6 5.01 6 4.02 6 3 C5.195625 2.87625 4.39125 2.7525 3.5625 2.625 C2.716875 2.41875 1.87125 2.2125 1 2 C0.67 1.34 0.34 0.68 0 0 Z " fill="#1E1E1E" transform="translate(318,312)"/>
<path d="M0 0 C0.66 0.33 1.32 0.66 2 1 C-2.75 6.75 -2.75 6.75 -5 9 C-4.50769231 3.46153846 -4.50769231 3.46153846 -1.9375 1.125 C-1.298125 0.75375 -0.65875 0.3825 0 0 Z " fill="#B0B0B0" transform="translate(224,271)"/>
<path d="M0 0 C1.485 0.99 1.485 0.99 3 2 C2.67 3.32 2.34 4.64 2 6 C2.66 6 3.32 6 4 6 C3.67 6.66 3.34 7.32 3 8 C2.01 7.34 1.02 6.68 0 6 C-0.1875 2.875 -0.1875 2.875 0 0 Z " fill="#2F2F2F" transform="translate(195,224)"/>
<path d="M0 0 C1.32 0 2.64 0 4 0 C2.66666667 2.66666667 1.33333333 5.33333333 0 8 C0 5.36 0 2.72 0 0 Z " fill="#F5F5F5" transform="translate(169,115)"/>
</svg>
